<svg id="visual" viewBox="0 0 900 600" width="900" height="600" xmlns="http://www.w3.org/2000/svg" xmlns:xlink="http://www.w3.org/1999/xlink" version="1.1"><rect x="0" y="0" width="900" height="600" fill="#ffffff"></rect><defs><linearGradient id="grad1_0" x1="33.3%" y1="100%" x2="100%" y2="0%"><stop offset="20%" stop-color="#ffffff" stop-opacity="1"></stop><stop offset="80%" stop-color="#ffffff" stop-opacity="1"></stop></linearGradient></defs><defs><linearGradient id="grad2_0" x1="0%" y1="100%" x2="66.7%" y2="0%"><stop offset="20%" stop-color="#ffffff" stop-opacity="1"></stop><stop offset="80%" stop-color="#ffffff" stop-opacity="1"></stop></linearGradient></defs><g transform="translate(900, 600)"><path d="M-351.5 0C-326.6 -52 -301.6 -104 -275.4 -159C-249.2 -214 -221.9 -271.9 -175.8 -304.4C-129.7 -337 -64.8 -344.3 0 -351.5L0 0Z" fill="#93d3fd"></path></g><g transform="translate(0, 0)"><path d="M351.5 0C319.2 47.8 286.8 95.5 261.5 151C236.3 206.5 218.2 269.7 175.8 304.4C133.4 339.2 66.7 345.3 0 351.5L0 0Z" fill="#93d3fd"></path></g></svg>