<svg xmlns="http://www.w3.org/2000/svg" version="1.1" xmlns:xlink="http://www.w3.org/1999/xlink" xmlns:svgjs="http://svgjs.com/svgjs" width="2000" height="1000" preserveAspectRatio="none" viewBox="0 0 2000 1000"><g mask="url(&quot;#SvgjsMask1077&quot;)" fill="none"><rect width="2000" height="1000" x="0" y="0" fill="rgba(0, 29, 130, 1)"></rect><path d="M2133.3333333333335 1000L0 1000 L0 708.53Q51.07 592.94, 166.66666666666669 644.01Q230.46 607.81, 266.6666666666667 671.6Q325.65 563.92, 433.33333333333337 622.91Q514.2 603.77, 533.3333333333334 684.64Q664.4 649.04, 700 780.11Q720.63 700.75, 800 721.38Q829.61 650.99, 900 680.6Q958.9 639.5, 1000 698.41Q1092.36 690.77, 1100 783.13Q1190.38 706.84, 1266.6666666666667 797.22Q1285.77 716.32, 1366.6666666666667 735.42Q1392.25 661, 1466.6666666666667 686.59Q1534.02 587.28, 1633.3333333333335 654.63Q1722.52 577.15, 1800.0000000000002 666.33Q1921.89 621.55, 1966.666666666667 743.44Q2025.83 635.93, 2133.3333333333335 695.09z" fill="rgba(147, 211, 253, 1)"></path><path d="M2000.0000000000005 1000L0 1000 L0 794.5Q42.67 737.17, 100 779.84Q142.79 722.63, 200 765.43Q290.79 756.22, 300 847.02Q320.86 767.88, 400 788.74Q432.69 721.43, 500 754.13Q560.73 714.86, 600 775.59Q702.89 711.81, 766.6666666666667 814.7Q839.71 721.08, 933.3333333333335 794.12Q1001.93 762.72, 1033.3333333333335 831.32Q1136.15 767.47, 1200.0000000000002 870.28Q1275.41 845.68, 1300.0000000000002 921.09Q1310.68 831.77, 1400.0000000000002 842.45Q1421.74 764.19, 1500.0000000000002 785.93Q1578.28 697.54, 1666.666666666667 775.82Q1767.89 710.38, 1833.3333333333337 811.6Q1893.51 705.11, 2000.0000000000005 765.28z" fill="rgba(198, 232, 255, 1)"></path><path d="M2100.0000000000005 1000L0 1000 L0 1013.89Q68.33 915.56, 166.66666666666669 983.89Q279.94 930.5, 333.33333333333337 1043.77Q399.35 943.12, 500.00000000000006 1009.13Q536.99 946.12, 600 983.1Q657.22 940.32, 700 997.53Q702.51 900.04, 800 902.56Q843.43 845.99, 900 889.42Q1020.5 843.25, 1066.6666666666667 963.75Q1131.88 862.29, 1233.3333333333335 927.5Q1358.63 886.13, 1400.0000000000002 1011.43Q1420.26 865.02, 1566.666666666667 885.28Q1670.81 889.42, 1666.666666666667 993.57Q1732.49 959.39, 1766.666666666667 1025.21Q1792 883.88, 1933.3333333333337 909.21Q2011.5 820.71, 2100.0000000000005 898.87z" fill="rgba(255, 255, 255, 1)"></path></g><defs><mask id="SvgjsMask1077"><rect width="2000" height="1000" fill="#ffffff"></rect></mask></defs></svg>