<svg xmlns="http://www.w3.org/2000/svg" version="1.1" xmlns:xlink="http://www.w3.org/1999/xlink" xmlns:svgjs="http://svgjs.com/svgjs" width="2000" height="1000" preserveAspectRatio="none" viewBox="0 0 2000 1000"><g mask="url(&quot;#SvgjsMask1075&quot;)" fill="none"><rect width="2000" height="1000" x="0" y="0" fill="rgba(0, 29, 130, 1)"></rect><path d="M2033.3333333333337 1000L0 1000 L0 706.84Q56.01 662.85, 100 718.86Q153.47 605.66, 266.6666666666667 659.13Q391.48 617.28, 433.33333333333337 742.09Q496.47 705.23, 533.3333333333334 768.36Q551.67 620.03, 700 638.36Q758.06 596.42, 800 654.49Q945.4 633.22, 966.6666666666667 778.62Q1032.84 678.13, 1133.3333333333335 744.3Q1190.35 701.32, 1233.3333333333335 758.34Q1299.26 724.27, 1333.3333333333335 790.2Q1359.12 715.99, 1433.3333333333335 741.78Q1497.74 639.52, 1600.0000000000002 703.93Q1677.82 615.08, 1766.666666666667 692.9Q1813.7 573.26, 1933.3333333333337 620.29Q1989.66 576.62, 2033.3333333333337 632.94z" fill="rgba(147, 211, 253, 1)"></path><path d="M2133.333333333334 1000L0 1000 L0 799.22Q103.69 736.24, 166.66666666666669 839.93Q191.09 764.36, 266.6666666666667 788.78Q302.6 724.71, 366.6666666666667 760.65Q410.44 704.42, 466.6666666666667 748.2Q540.27 721.8, 566.6666666666667 795.4Q671.01 799.75, 666.6666666666667 904.09Q758.9 829.65, 833.3333333333335 921.88Q842.09 830.64, 933.3333333333335 839.4Q1029.6 769, 1100.0000000000002 865.27Q1122.23 787.5, 1200.0000000000002 809.73Q1294.25 737.31, 1366.666666666667 831.56Q1398.93 763.82, 1466.666666666667 796.08Q1542.83 705.57, 1633.3333333333337 781.73Q1709.07 690.8, 1800.0000000000005 766.53Q1906.77 706.63, 1966.6666666666672 813.4Q2057.35 737.42, 2133.333333333334 828.1z" fill="rgba(198, 232, 255, 1)"></path><path d="M2000.0000000000005 1000L0 1000 L0 981.38Q34.58 915.96, 100 950.54Q157.55 841.43, 266.6666666666667 898.98Q335.08 867.39, 366.6666666666667 935.8Q467.53 870, 533.3333333333334 970.86Q630.84 901.7, 700 999.21Q748.26 880.8, 866.6666666666667 929.06Q892.64 855.03, 966.6666666666667 881Q1083.99 831.66, 1133.3333333333335 948.98Q1160.49 876.14, 1233.3333333333335 903.3Q1346.1 849.4, 1400.0000000000002 962.17Q1470.95 866.46, 1566.666666666667 937.41Q1654.06 924.81, 1666.666666666667 1012.2Q1686.86 865.72, 1833.3333333333337 885.91Q1926.99 812.9, 2000.0000000000005 906.56z" fill="rgba(255, 255, 255, 1)"></path></g><defs><mask id="SvgjsMask1075"><rect width="2000" height="1000" fill="#ffffff"></rect></mask></defs></svg>