<svg xmlns="http://www.w3.org/2000/svg" version="1.1" xmlns:xlink="http://www.w3.org/1999/xlink" xmlns:svgjs="http://svgjs.com/svgjs" width="2500" height="1500" preserveAspectRatio="none" viewBox="0 0 2500 1500"><g mask="url(&quot;#SvgjsMask1026&quot;)" fill="none"><rect width="2500" height="1500" x="0" y="0" fill="rgba(255, 255, 255, 1)"></rect><path d="M750 164.63C669.8 164.63 631.85 270.12 631.85 375C631.85 477.99 670.24 580.36 750 580.36C864.08 580.36 1019.53 478.47 1019.53 375C1019.53 270.6 863.64 164.63 750 164.63" stroke="rgba(147, 211, 253, 1)" stroke-width="2"></path><path d="M1439.81 0C1531.62 102.02 1477.57 189.6 1462.5 375C1447.09 564.6 1365.34 583.68 1378.85 750C1384.09 814.45 1442.01 836.54 1500 836.54C1550.02 836.54 1593.88 807.73 1594.88 750C1597.87 576.96 1511.4 563.2 1507.98 375C1504.59 188.2 1477.5 106 1581.25 0C1661.01 -81.5 1728.13 0 1875 0C2062.5 0 2062.5 0 2250 0C2437.5 0 2531.25 -93.75 2625 0C2718.75 93.75 2625 187.5 2625 375C2625 562.5 2625 562.5 2625 750C2625 937.5 2625 937.5 2625 1125C2625 1302.36 2663.83 1334.11 2625 1479.73C2613.83 1521.61 2575.74 1497.26 2525 1500C2388.24 1507.39 2387.5 1500 2250 1500C2062.5 1500 2062.5 1500 1875 1500C1696.03 1500 1693.24 1507.24 1517.05 1500C1505.74 1499.54 1509.56 1484.59 1500 1484.59C1485.83 1484.59 1486.47 1499.31 1469.59 1500C1298.97 1507.01 1297.3 1500 1125 1500C937.5 1500 937.5 1500 750 1500C562.5 1500 562.5 1500 375 1500C254.03 1500 195.67 1572.49 133.06 1500C33.74 1384.99 106.11 1305.73 51.14 1125C39.58 1086.98 5.25 1101 0 1062.5C-20.32 913.5 0 906.25 0 750C0 562.5 0 562.5 0 375C0 187.5 -93.75 93.75 0 0C93.75 -93.75 187.5 0 375 0C562.5 0 562.5 0 750 0C937.5 0 937.5 0 1125 0C1282.4 0 1362.87 -85.48 1439.81 0" stroke="rgba(147, 211, 253, 1)" stroke-width="2"></path><path d="M698.53 0C734.9 106.21 505.36 186.72 503.42 375C501.49 561.72 721.88 582.77 690.79 750C657.67 928.16 528.95 1065.79 375 1065.79C228.2 1065.79 213.57 920.07 89.29 750C26.07 663.49 24.53 655.65 0 552.63C-20.11 468.15 0 463.82 0 375C0 187.5 -93.75 93.75 0 0C93.75 -93.75 187.5 0 375 0C536.76 0 670.69 -81.29 698.53 0" stroke="rgba(147, 211, 253, 1)" stroke-width="2"></path><path d="M1125 273.31C980.11 273.31 802.5 77.52 802.5 0C802.5 -59.14 963.75 0 1125 0C1224.53 0 1324.07 -50.64 1324.07 0C1324.07 86.01 1240.89 273.31 1125 273.31" stroke="rgba(147, 211, 253, 1)" stroke-width="2"></path><path d="M1707.45 375C1714.88 187.2 1676.15 137.31 1737.5 0C1759.92 -50.19 1806.25 0 1875 0C1970.93 0 2025.5 -63.03 2066.86 0C2148.54 124.47 2062.65 200.5 2121.09 375C2154.22 473.94 2188.47 546.88 2250 546.88C2308.67 546.88 2326.47 469.85 2361.49 375C2427.43 196.41 2360.97 129.43 2451.92 0C2492.73 -58.07 2597.67 -59.21 2625 0C2684.21 128.29 2625 187.5 2625 375C2625 562.5 2625 562.5 2625 750C2625 937.5 2625 937.5 2625 1125C2625 1239.02 2695.71 1303.39 2625 1353.04C2508.21 1435.04 2420.02 1335.8 2250 1388.3C2182.04 1409.28 2215.53 1480.2 2149.04 1500C2028.03 1536.05 2012.02 1500 1875 1500C1767.05 1500 1753.15 1536.08 1659.09 1500C1565.65 1464.16 1589.17 1356.16 1500 1356.16C1367.73 1356.16 1361.94 1444.11 1216.22 1500C1174.44 1516.03 1170.61 1500 1125 1500C937.5 1500 937.5 1500 750 1500C562.5 1500 562.5 1500 375 1500C329.63 1500 284.27 1532.53 284.27 1500C284.27 1398.6 278.18 1260.49 375 1232.14C511.05 1192.31 557.52 1320.37 750 1363.64C932.52 1404.67 984.68 1466.54 1125 1400.74C1239.15 1347.22 1164.81 1240.75 1258.93 1125C1352.31 1010.16 1383.4 1036.97 1500 939.56C1607.85 849.47 1663.37 870.99 1707.83 750C1767.1 588.71 1700.04 562.2 1707.45 375" stroke="rgba(147, 211, 253, 1)" stroke-width="2"></path><path d="M840 750C840 655.6 1006.15 546.43 1125 546.43C1203.46 546.43 1234.62 650.99 1234.62 750C1234.62 833.74 1198.73 911.93 1125 911.93C1001.42 911.93 840 838.35 840 750" stroke="rgba(147, 211, 253, 1)" stroke-width="2"></path><path d="M375 375C278.25 375 145.16 123.15 145.16 0C145.16 -64.35 260.08 0 375 0C444.86 0 514.71 -48.52 514.71 0C514.71 138.98 463.03 375 375 375" stroke="rgba(147, 211, 253, 1)" stroke-width="2"></path><path d="M1125 114.41C1064.35 114.41 990 32.45 990 0C990 -24.76 1057.5 0 1125 0C1166.66 0 1208.33 -21.2 1208.33 0C1208.33 36.01 1173.51 114.41 1125 114.41" stroke="rgba(147, 211, 253, 1)" stroke-width="2"></path><path d="M2614.86 375C2616.49 351.11 2622.44 328.13 2625 328.13C2627.51 328.13 2625 351.57 2625 375C2625 562.5 2625 562.5 2625 750C2625 937.5 2625 937.5 2625 1125C2625 1175.68 2664.74 1219.59 2625 1226.35C2477.24 1251.5 2434.08 1222.66 2250 1188.83C2158.34 1171.98 2073.53 1172.85 2073.53 1125C2073.53 1065.94 2156.09 1042.38 2250 975C2417.4 854.88 2500.61 907.11 2596.15 750C2683.04 607.11 2602.07 562.05 2614.86 375" stroke="rgba(147, 211, 253, 1)" stroke-width="2"></path><path d="M312.5 750C312.5 571.66 342.15 375 375 375C407.94 375 444.08 573.25 444.08 750C444.08 795.29 408.68 819.08 375 819.08C342.89 819.08 312.5 793.7 312.5 750" stroke="rgba(147, 211, 253, 1)" stroke-width="2"></path><path d="M1820.78 750C1820.78 610.15 1819.56 468.75 1875 468.75C1940.42 468.75 2062.5 615.52 2062.5 750C2062.5 863.29 1943.04 964.29 1875 964.29C1822.18 964.29 1820.78 857.92 1820.78 750" stroke="rgba(147, 211, 253, 1)" stroke-width="2"></path><path d="M1392.86 1125C1392.86 1080.88 1439.2 1042.58 1500 1042.58C1622.08 1042.58 1758.62 1079.29 1758.62 1125C1758.62 1171.87 1619.26 1227.74 1500 1227.74C1436.38 1227.74 1392.86 1173.46 1392.86 1125" stroke="rgba(147, 211, 253, 1)" stroke-width="2"></path><path d="M1801.14 1500C1801.14 1415.82 1833.72 1278.41 1875 1278.41C1917.52 1278.41 1968.75 1420.27 1968.75 1500C1968.75 1531.07 1921.88 1500 1875 1500C1838.07 1500 1801.14 1526.62 1801.14 1500" stroke="rgba(147, 211, 253, 1)" stroke-width="2"></path></g><defs><mask id="SvgjsMask1026"><rect width="2500" height="1500" fill="#ffffff"></rect></mask></defs></svg>