<?xml version="1.0" standalone="no"?>
<!DOCTYPE svg PUBLIC "-//W3C//DTD SVG 20010904//EN"
 "http://www.w3.org/TR/2001/REC-SVG-20010904/DTD/svg10.dtd">
<svg version="1.0" xmlns="http://www.w3.org/2000/svg"
 width="1280.000000pt" height="841.000000pt" viewBox="0 0 1280.000000 841.000000"
 preserveAspectRatio="xMidYMid meet">
<metadata>
Created by potrace 1.15, written by Peter Selinger 2001-2017
</metadata>
<g transform="translate(0.000000,841.000000) scale(0.100000,-0.100000)"
fill="#ffffff" stroke="none">
<path d="M4005 8350 c-41 -44 -106 -73 -148 -65 -25 5 -45 0 -82 -19 -26 -14
-61 -26 -77 -26 -31 0 -98 27 -98 39 0 4 -13 21 -29 39 -27 28 -36 32 -83 32
-30 0 -80 -7 -111 -15 -73 -19 -111 -19 -173 0 l-49 15 -59 -41 c-78 -55 -118
-60 -193 -24 -39 20 -77 30 -123 32 -36 3 -82 8 -103 13 -40 9 -208 -2 -296
-20 -73 -14 -196 -12 -313 5 -95 13 -319 9 -568 -11 -66 -6 -92 -2 -213 30
l-137 37 -66 -21 c-36 -11 -79 -20 -95 -20 -49 0 -94 -25 -135 -75 -49 -58
-80 -75 -141 -75 -57 0 -100 24 -159 86 -37 41 -44 44 -90 44 -27 0 -107 -11
-179 -23 l-130 -23 -16 -80 c-10 -43 -31 -122 -49 -174 -28 -83 -33 -114 -40
-252 -4 -86 -11 -161 -14 -167 -4 -6 13 -32 37 -58 24 -27 49 -58 56 -70 18
-36 13 -95 -14 -141 -26 -46 -48 -154 -49 -242 0 -56 14 -138 65 -360 55 -243
60 -336 23 -459 -28 -96 -32 -148 -17 -224 13 -66 21 -152 39 -405 5 -62 3
-117 -6 -162 -13 -69 -13 -69 15 -112 38 -57 44 -130 16 -175 -11 -18 -48 -54
-81 -80 -70 -54 -79 -77 -53 -130 15 -31 29 -41 83 -62 117 -47 143 -132 74
-246 -61 -101 -61 -101 -9 -156 39 -42 45 -54 45 -91 0 -61 -27 -98 -98 -136
-66 -35 -82 -54 -82 -99 0 -15 -9 -61 -20 -102 -13 -50 -20 -107 -20 -171 0
-106 2 -111 77 -192 24 -26 48 -59 53 -73 18 -46 11 -107 -15 -150 -49 -80
-56 -104 -57 -199 -1 -88 13 -168 34 -193 6 -8 35 -13 72 -13 75 0 122 -23
148 -71 48 -90 -11 -185 -129 -209 -89 -18 -100 -28 -105 -99 -3 -44 -14 -78
-41 -130 -41 -78 -44 -99 -22 -160 8 -22 19 -68 25 -101 6 -32 20 -80 31 -106
21 -47 22 -84 3 -197 -5 -33 -2 -42 29 -76 101 -112 107 -178 26 -276 -53 -64
-55 -71 -74 -222 -17 -138 -15 -159 21 -237 19 -41 24 -68 24 -134 0 -68 4
-91 25 -132 38 -75 34 -135 -12 -220 l-38 -68 34 -47 c43 -60 49 -105 22 -175
-28 -73 -27 -121 2 -147 13 -13 75 -37 152 -58 133 -38 222 -47 445 -45 41 0
111 -4 155 -10 239 -29 386 -40 405 -30 11 6 24 29 30 53 19 72 31 96 68 128
32 28 40 31 84 27 84 -8 130 -72 153 -210 9 -59 21 -62 280 -62 l230 -1 65 29
c59 27 78 30 205 35 136 6 142 7 219 44 110 52 133 54 251 17 87 -27 109 -30
170 -25 61 5 80 3 145 -22 75 -27 77 -27 330 -28 246 0 257 -1 310 -24 48 -21
75 -24 222 -29 l166 -5 7 58 c12 91 60 121 111 70 18 -19 36 -25 66 -25 35 0
48 -7 90 -46 56 -52 56 -52 213 -12 54 14 131 23 240 27 146 6 164 9 210 33
93 48 156 60 284 56 97 -3 129 -8 198 -33 77 -28 85 -29 141 -17 98 20 155 16
222 -18 57 -29 64 -30 197 -30 220 -1 390 -16 458 -40 l60 -21 106 26 c131 31
159 31 234 -1 33 -14 69 -28 81 -31 11 -2 69 11 129 31 59 20 123 36 142 36
46 0 92 -21 127 -59 35 -37 53 -38 108 -10 53 27 119 27 178 0 58 -27 83 -26
234 4 l126 25 126 -20 c82 -14 144 -30 179 -47 l54 -27 53 22 c34 14 74 22
110 22 37 0 73 8 105 22 44 21 62 23 243 22 176 0 201 -2 254 -22 78 -29 91
-28 156 13 65 42 99 44 172 10 52 -24 123 -32 160 -17 25 10 67 77 77 123 11
49 36 79 67 79 32 0 64 -45 64 -90 0 -33 4 -39 28 -45 31 -9 335 -16 807 -20
182 -2 359 -8 395 -14 36 -6 101 -11 145 -11 64 0 91 -5 133 -25 30 -14 70
-25 89 -25 29 0 36 5 48 35 18 41 41 55 90 55 20 0 59 13 92 30 70 38 108 38
163 1 l43 -29 171 4 c210 4 313 13 326 29 7 8 3 31 -12 72 -19 53 -21 65 -10
100 7 22 25 57 42 78 34 42 37 63 15 104 -23 45 -56 282 -45 322 13 45 46 78
108 105 28 13 52 26 52 28 0 2 -14 30 -31 62 -27 51 -30 66 -26 114 3 30 17
83 31 117 22 52 26 78 26 158 0 76 5 107 25 161 34 89 33 137 -2 167 -88 73
-103 92 -123 145 -24 63 -28 148 -9 184 6 13 23 36 35 51 19 23 24 40 24 85 0
49 -5 64 -37 111 -32 46 -38 63 -41 120 -4 61 -1 72 36 141 21 42 42 98 46
125 5 28 15 77 23 110 20 78 11 187 -23 292 -24 71 -26 88 -21 198 4 89 13
147 34 225 22 79 27 114 21 140 -12 51 2 197 23 255 l19 49 -26 38 c-25 36
-26 40 -23 180 2 124 0 148 -17 183 -17 36 -19 60 -16 237 3 192 3 198 31 260
42 92 61 191 61 312 0 57 -3 111 -6 120 -4 11 -19 16 -44 16 -53 0 -73 25 -68
88 3 43 0 51 -26 73 -34 30 -38 72 -10 99 11 11 42 27 69 37 47 18 50 21 58
63 24 127 21 170 -22 298 -57 169 -54 217 25 419 59 149 59 192 4 259 -49 60
-74 130 -75 211 0 60 2 64 43 106 l42 43 -15 45 c-9 24 -19 85 -22 134 -4 74
-2 101 15 149 22 66 24 61 -55 116 -54 38 -77 81 -76 145 0 53 15 90 68 167
27 38 34 60 40 122 3 41 4 80 0 86 -3 5 -34 10 -68 10 -124 1 -190 57 -185
160 l2 55 -35 -3 c-20 -2 -53 -18 -78 -38 -53 -41 -88 -43 -129 -9 -23 19 -41
25 -76 25 -56 0 -102 18 -154 60 -34 27 -55 33 -183 55 l-144 24 -40 -30
c-106 -79 -167 -87 -246 -32 -64 44 -104 47 -214 15 -54 -16 -117 -22 -275
-29 -369 -14 -419 -9 -544 55 -67 35 -69 35 -125 24 -32 -7 -72 -12 -89 -12
-18 0 -88 -11 -155 -24 -187 -37 -194 -38 -239 -26 -28 8 -55 26 -80 53 l-38
42 -247 6 c-274 6 -372 -3 -464 -42 -81 -36 -141 -32 -229 14 -75 39 -103 44
-160 27 -89 -26 -172 -31 -265 -15 -89 15 -95 15 -151 -4 -71 -25 -119 -26
-197 -4 -55 15 -62 15 -115 -2 -32 -10 -106 -22 -167 -26 -60 -5 -138 -11
-173 -15 -50 -5 -76 -2 -127 15 -56 19 -72 21 -122 12 -64 -11 -647 -8 -751 4
-47 6 -84 3 -155 -13 -188 -42 -318 -52 -387 -31 -21 6 -128 10 -260 10 -124
0 -324 3 -445 8 -191 7 -228 11 -285 32 -53 19 -91 24 -210 27 -80 3 -176 3
-215 2 -136 -6 -251 -5 -350 3 l-100 9 -30 -32z"/>
</g>
</svg>
