<svg xmlns="http://www.w3.org/2000/svg" fill="#001d82" width="512" height="512" enable-background="new 0 0 512 512" viewBox="0 0 512 512"><path d="M444.931,302.618l-39.727-9.007v-16.519c8.848-3.881,16.995-9.396,24.036-16.433
			c11.048-11.048,18.395-24.809,21.436-39.781c13.081-1.681,23.224-12.879,23.224-26.41c0-7.082-2.798-13.789-7.74-18.758v-61.071
			c0-37.956-30.879-68.834-68.834-68.834v0.204c-4.535-5.513-11.402-9.041-19.08-9.055h-0.117c-0.088,0-0.176,0-0.265,0
			c-25.403,0-49.495,10.077-67.86,28.392c-18.822,18.771-29.188,43.587-29.188,69.878v40.81c-4.743,4.935-7.431,11.527-7.431,18.435
			c0,4.767,1.265,9.241,3.467,13.115c-6.918-1.822-14.119-2.762-21.469-2.721c-13.699,0.102-26.606,3.68-37.919,9.883v-9.901
			c0-30.566-19.57-57.27-48.697-66.449l-3.006,9.538c24.943,7.86,41.703,30.731,41.703,56.911v16.375
			c-17.071,12.914-28.989,32.432-32.023,54.719c-10.914,7.222-23.579,11.035-36.774,11.035c-17.84,0-34.618-6.949-47.243-19.564
			c-12.618-12.627-19.567-29.406-19.567-47.246v-12.761c0-21.864,12.716-41.924,32.446-51.279l0.559-0.257
			c23.573-10.857,38.805-34.652,38.805-60.62v-8.555h-10v8.555c0,21.863-12.696,41.913-32.405,51.264l-0.593,0.273
			c-23.577,10.869-38.812,34.663-38.812,60.619v77.9c0,10.637,1.588,21.135,4.707,31.281c-15.519,5.813-28.321,17.138-35.979,31.867
			c-7.384-9.038-11.527-20.445-11.527-32.228c0-15.802,7.153-30.442,19.629-40.171c7.284-5.693,11.461-14.219,11.461-23.389v-102.42
			c0-23.724,9.239-46.028,26.015-62.804c16.598-16.588,38.653-25.824,62.105-26.006c23.495-0.186,45.731,8.981,62.693,25.811
			c17.313,17.176,26.847,39.948,26.847,64.119v43.41h10v-43.41c0-26.857-10.584-52.15-29.803-71.218
			c-18.87-18.721-43.646-28.9-69.816-28.711c-26.091,0.204-50.63,10.479-69.097,28.934c-18.665,18.665-28.944,43.481-28.944,69.876
			v102.42c0,6.073-2.776,11.725-7.614,15.506c-14.919,11.633-23.476,29.148-23.476,48.054c0,15.841,6.246,31.126,17.235,42.444
			c-2.191,6.7-3.305,13.686-3.305,20.815v95.562h122.67v-10H32.985v-85.562c0-7.021,1.261-13.876,3.751-20.378
			c6.838-17.92,22.088-31.152,40.794-35.396l42.944-9.733v-19.17c5.887,1.424,11.981,2.167,18.19,2.167
			c6.414,0,12.718-0.796,18.81-2.328v19.331l17.186,3.897v23.974c0,21.068,17.14,38.207,38.207,38.207h1.39v-10h-1.39
			c-15.553,0-28.207-12.653-28.207-28.207v-54.691c0-39.574,31.759-72.004,70.796-72.294c19.206-0.149,37.202,7.211,50.796,20.704
			c13.596,13.495,21.083,31.477,21.083,50.631v55.65c0,15.554-12.654,28.207-28.207,28.207v10c21.067,0,38.207-17.139,38.207-38.207
			v-36.763l5.362-1.218v45.545c0,2.871,1.825,5.424,4.544,6.35c0.711,0.243,1.441,0.36,2.164,0.36c2.039,0,4.017-0.933,5.313-2.61
			l19.233-26.776l19.13,26.638l0.104,0.14c1.754,2.272,4.758,3.175,7.477,2.249c2.717-0.927,4.543-3.479,4.543-6.35v-45.549
			l37.516,8.507c29.572,6.699,50.225,32.558,50.225,62.884v89.791h-42.498v-83.557h-10v83.557h-80.357v10h142.855v-99.791
			c0-16.828-5.783-33.338-16.284-46.484C476.159,315.623,461.339,306.335,444.931,302.618z M84.351,274.481
			c0.278,0.278,0.57,0.537,0.853,0.811v9.739c0,8.774,1.096,17.479,3.229,25.955l-12.278,2.782c-2.851-9.232-4.3-18.785-4.3-28.465
			v-27.223C75.229,264.007,79.4,269.526,84.351,274.481z M110.475,305.991l-12.289,2.785c-1.973-7.751-2.982-15.717-2.982-23.745
			v-1.532c4.789,3.3,9.907,6.021,15.271,8.137V305.991z M167.475,305.991v-14.596c2.448-0.992,4.843-2.125,7.186-3.372v19.598
			L167.475,305.991z M452.066,210.392c0.117-1.767,0.198-3.541,0.198-5.328v-2.084c5.005-1.862,9.121-5.543,11.54-10.25
			c0.06,0.575,0.095,1.155,0.095,1.739C463.899,201.973,458.904,208.326,452.066,210.392z M456.159,114.641v68.402
			c0,3.396-1.514,6.439-3.895,8.51v-5.578c0-8.388-2.492-16.484-7.211-23.421c-1.762-2.578-3.133-5.427-4.07-8.458
			c-0.928-3.021-1.398-6.153-1.398-9.311v-10.36c0-15.671-12.75-28.42-28.383-28.42l-11.507-0.085
			c2.152-6.144,3.259-12.579,3.259-19.225v-25c0-1.949-0.233-3.843-0.662-5.663C432.415,58.563,456.159,83.873,456.159,114.641z
			 M290.814,135.225c0-23.615,9.322-45.917,26.25-62.797c16.478-16.433,38.06-25.473,60.813-25.473c0.078,0,0.158,0,0.236,0h0.121
			c8.116,0.015,14.719,6.627,14.719,14.74v25c0,7.707-1.762,15.076-5.234,21.899c-8.309,16.297-24.818,26.421-43.085,26.421
			c-13.265,0-25.726,5.163-35.086,14.534c-9.372,9.373-14.534,21.83-14.534,35.076v6.043c-2.617-2.468-4.2-5.957-4.2-9.773V135.225z
			 M283.594,191.981c2.474,4.62,6.458,8.344,11.421,10.457v2.626c0,1.781,0.065,3.556,0.184,5.323
			c-6.828-2.073-11.814-8.421-11.814-15.918C283.384,193.628,283.47,192.801,283.594,191.981z M307.446,223.199
			c-1.607-5.863-2.432-11.954-2.432-18.134v-20.44c0-10.575,4.121-20.521,11.607-28.007c7.474-7.482,17.422-11.603,28.013-11.603
			c20.995,0,40.06-11.085,50.489-29.128l16.041,0.118c10.156,0,18.42,8.263,18.42,18.42v10.36c0,4.154,0.619,8.276,1.843,12.257
			c1.236,3.996,3.042,7.749,5.363,11.145c3.581,5.263,5.474,11.414,5.474,17.788v19.09c0,18.333-7.137,35.566-20.094,48.523
			c-12.971,12.96-30.203,20.097-48.526,20.097c-8.343,0-16.479-1.477-24.192-4.391c-5.805-2.181-11.268-5.146-16.269-8.81
			c-3.966-11.943-10.688-22.884-19.887-32.014C311.42,226.607,309.466,224.853,307.446,223.199z M337.335,294.831v-8.633
			c0-4.002-0.293-7.958-0.856-11.848c2.026,1.088,4.099,2.09,6.216,2.994v16.268L337.335,294.831z M352.697,339.188v-31.313
			l14.395,11.271L352.697,339.188z M373.95,311.815l-21.256-16.644V280.86c6.783,1.875,13.803,2.824,20.95,2.824
			c7.397,0,14.632-1.036,21.56-3v14.488L373.95,311.815z M395.204,339.188l-14.394-20.043l14.394-11.271V339.188z"/><path d="M276.538 324.367c2.65 0 4.799-2.148 4.799-4.798v-3.297c0-2.65-2.148-4.799-4.799-4.799-2.649 0-4.798 2.148-4.798 4.799v3.297C271.74 322.219 273.889 324.367 276.538 324.367zM236.846 324.367c2.65 0 4.799-2.148 4.799-4.798v-3.297c0-2.65-2.148-4.799-4.799-4.799l0 0c-2.65 0-4.799 2.148-4.799 4.799v3.297C232.047 322.219 234.195 324.367 236.846 324.367L236.846 324.367zM278.999 342.572l-9.021-4.314c-2.482 5.19-7.799 8.545-13.545 8.545-5.75 0-11.066-3.353-13.542-8.541l-9.025 4.307c4.127 8.647 12.985 14.234 22.567 14.234C266.008 356.803 274.865 351.217 278.999 342.572z"/><rect width="25.229" height="10" x="195.285" y="269.074" transform="rotate(-134.999 207.904 274.075)"/><rect width="25.229" height="10" x="206.037" y="258.322" transform="rotate(45.001 218.66 263.332)"/><path d="M350.942 440.752c0-26.052-17.744-48.269-43.152-54.027l-27.748-6.289v-7.761c22.763-9.119 39.809-30.822 42.878-57.457.71-6.161-1.905-12.326-6.825-16.09-5.112-3.912-13.91-12.32-15.395-24.676-.553-4.609-3.553-8.45-7.825-10.023l-.472-.174c-4.951-1.823-10.443-.26-13.667 3.891-18.378 23.662-53.636 30.648-73.018 32.707-4.998.531-9.558 3.174-12.509 7.249-2.947 4.069-4.035 9.216-2.983 14.12 3.296 15.366 11.569 29.328 23.296 39.313 5.559 4.732 11.799 8.462 18.431 11.114v7.787l-27.749 6.289c-25.407 5.759-43.151 27.976-43.151 54.027v34.294h189.89V440.752zM200.004 320.124c-.465-2.168-.001-4.354 1.305-6.156 1.31-1.809 3.252-2.936 5.467-3.17 20.961-2.228 59.209-9.933 79.858-36.518.388-.498.977-.772 1.589-.772.241 0 .485.042.724.13l.471.174c.732.27 1.251.972 1.354 1.832v.001c1.922 15.999 12.884 26.556 19.247 31.425 2.139 1.637 3.276 4.32 2.967 7.003-3.498 30.356-27.998 53.248-56.987 53.248C228.99 367.32 205.965 347.913 200.004 320.124zM255.998 377.32c4.807 0 9.503-.55 14.044-1.562v6.51c-3.9 3.381-8.815 5.23-14.044 5.23-5.229 0-10.145-1.851-14.046-5.231v-6.51C246.548 376.786 251.256 377.32 255.998 377.32zM235.47 389.892c5.707 4.923 12.892 7.608 20.528 7.607 7.636 0 14.82-2.686 20.525-7.607l17.604 3.99v28.807h-74.871v-29.121L235.47 389.892zM206.415 396.478l2.842-.645v36.855h94.871v-36.54l1.452.329c3.415.773 6.655 1.917 9.696 3.371v65.197H197.59v-65.603C200.377 398.183 203.325 397.178 206.415 396.478zM171.053 440.752c0-14.048 6.298-26.734 16.537-35.114v59.408h-16.537V440.752zM340.942 465.046h-15.666V406.38c9.721 8.377 15.666 20.729 15.666 34.372V465.046zM138.976 253.642c-3.828 0-7.367-2.232-9.015-5.686l-9.025 4.307c3.298 6.912 10.38 11.379 18.04 11.379 7.654 0 14.734-4.465 18.038-11.375l-9.021-4.313C146.34 251.409 142.801 253.642 138.976 253.642z"/><rect width="112.698" height="10" x="53.354" y="352.324"/><path d="M174.819 204.331c3.049 0 5.53 2.481 5.53 5.53h10c0-8.563-6.967-15.53-15.53-15.53s-15.53 6.967-15.53 15.53h10C169.289 206.812 171.77 204.331 174.819 204.331zM87.602 209.861h10c0-3.049 2.481-5.53 5.53-5.53 3.05 0 5.53 2.481 5.53 5.53h10c0-8.563-6.967-15.53-15.53-15.53S87.602 201.298 87.602 209.861z"/><g><path d="M373.959 249.137c7.799 0 15.014-4.549 18.381-11.59l-9.021-4.314c-1.716 3.587-5.39 5.905-9.359 5.905-3.974 0-7.646-2.316-9.356-5.901l-9.025 4.307C358.937 244.586 366.153 249.137 373.959 249.137zM409.803 191.467c3.05 0 5.53 2.48 5.53 5.53h10c0-8.563-6.967-15.53-15.53-15.53s-15.53 6.967-15.53 15.53h10C404.272 193.948 406.753 191.467 409.803 191.467zM338.116 191.467c3.049 0 5.529 2.48 5.529 5.53h10c0-8.563-6.967-15.53-15.529-15.53-8.564 0-15.531 6.967-15.531 15.53h10C332.585 193.948 335.066 191.467 338.116 191.467z"/><rect width="10" height="102.623" x="368.95" y="351.126"/></g></svg>