<?xml version="1.0" standalone="no"?>
<!DOCTYPE svg PUBLIC "-//W3C//DTD SVG 20010904//EN"
 "http://www.w3.org/TR/2001/REC-SVG-20010904/DTD/svg10.dtd">
<svg version="1.0" xmlns="http://www.w3.org/2000/svg"
 width="1280.000000pt" height="1247.000000pt" viewBox="0 0 1280.000000 1247.000000"
 preserveAspectRatio="xMidYMid meet">
<metadata>
Created by potrace 1.15, written by Peter Selinger 2001-2017
</metadata>
<g transform="translate(0.000000,1247.000000) scale(0.100000,-0.100000)"
fill="#ff914d" stroke="none">
<path d="M9660 12460 c-287 -40 -581 -172 -786 -354 -172 -152 -162 -412 20
-509 39 -21 57 -22 441 -28 284 -5 435 -12 520 -23 260 -36 428 -82 586 -162
284 -142 1053 -827 1832 -1632 152 -158 290 -292 306 -299 45 -19 98 1 152 56
73 76 86 160 44 287 -134 399 -693 1177 -1245 1734 -650 655 -1122 922 -1655
935 -82 2 -179 0 -215 -5z"/>
<path d="M2675 12244 c-918 -165 -1941 -1166 -2584 -2529 -83 -176 -85 -182
-86 -256 0 -67 3 -81 30 -125 53 -85 150 -118 221 -75 32 20 135 129 638 679
789 862 1088 1106 1561 1271 321 113 690 170 1089 171 139 0 165 3 201 20 59
29 117 81 156 142 28 42 33 61 34 108 0 52 -4 62 -45 116 -190 252 -459 421
-761 479 -102 19 -344 19 -454 -1z"/>
<path d="M10155 10074 c-244 -37 -428 -94 -650 -203 -273 -134 -507 -303 -710
-512 -207 -213 -330 -406 -304 -476 9 -25 38 -30 72 -11 12 6 92 68 177 138
412 337 668 512 925 636 361 174 617 192 995 72 301 -96 554 -232 805 -435
141 -114 344 -326 453 -473 131 -178 152 -200 191 -200 50 0 81 38 81 98 0 69
-33 189 -79 287 -223 477 -840 919 -1466 1051 -94 20 -156 26 -290 29 -93 2
-183 1 -200 -1z"/>
<path d="M2196 10059 c-586 -62 -1061 -345 -1457 -869 -87 -116 -113 -168
-100 -203 24 -63 73 -48 197 60 647 562 1155 787 1683 743 403 -33 785 -212
1312 -613 88 -67 176 -130 195 -140 32 -18 36 -18 59 -3 37 25 34 86 -11 194
-201 485 -651 762 -1353 832 -119 12 -410 11 -525 -1z"/>
<path d="M3125 8095 c-352 -77 -689 -395 -830 -785 -41 -114 -74 -271 -87
-419 -14 -160 0 -384 36 -579 l22 -123 -20 -4 c-505 -113 -1077 -282 -1451
-428 -200 -78 -410 -172 -460 -207 -180 -124 -87 -219 157 -161 48 11 331 85
630 165 1359 362 2138 535 2598 577 167 15 632 6 810 -15 179 -22 241 -21 274
5 34 26 34 68 1 124 -44 77 -185 153 -360 195 l-90 22 3 151 c8 332 -55 631
-184 877 -162 307 -449 548 -723 606 -82 17 -246 17 -326 -1z"/>
<path d="M9269 8021 c-141 -20 -270 -75 -397 -170 -260 -197 -446 -507 -512
-858 -22 -118 -40 -293 -40 -388 l0 -60 -132 -32 c-218 -54 -328 -122 -292
-181 31 -50 191 -98 424 -129 118 -15 233 -17 920 -18 647 -2 820 -5 985 -19
443 -38 701 -83 1580 -276 558 -123 621 -134 681 -125 67 10 109 52 101 102
-4 20 -19 52 -34 71 -64 79 -365 226 -681 332 -327 110 -692 192 -1107 249
-126 18 -244 34 -261 37 l-31 4 -7 113 c-15 249 -76 497 -166 677 -134 268
-382 517 -602 607 -138 56 -307 81 -429 64z"/>
<path d="M3400 4075 c-281 -56 -435 -233 -465 -534 l-7 -73 23 7 c68 19 190
89 242 139 67 64 59 78 82 -144 121 -1163 474 -2046 1050 -2624 145 -146 247
-229 423 -346 359 -240 810 -407 1277 -475 61 -8 120 -17 133 -19 38 -6 19 4
-135 69 -294 123 -503 226 -780 383 -135 75 -164 96 -95 66 151 -66 372 -134
547 -168 227 -45 297 -51 605 -51 253 1 317 4 449 23 243 36 445 80 640 138
45 14 85 23 87 21 7 -7 -238 -94 -371 -132 -163 -47 -321 -80 -495 -104 -230
-31 -252 -33 -495 -40 l-230 -6 55 -17 c216 -67 365 -90 620 -95 290 -7 474
17 735 93 669 197 1301 677 1772 1346 386 549 634 1181 711 1810 l17 138 70
-53 c89 -67 208 -128 310 -160 80 -25 234 -52 255 -45 21 7 -74 132 -180 238
-160 160 -349 278 -596 371 -108 40 -324 102 -324 92 0 -18 125 -170 202 -247
49 -48 87 -90 85 -92 -2 -2 -71 -27 -153 -55 -456 -155 -922 -259 -1397 -311
-270 -30 -837 -32 -1142 -5 -110 10 -328 29 -485 43 -1324 116 -2251 286
-2905 531 -66 25 -124 49 -128 53 -5 4 8 33 28 65 37 57 61 107 76 158 7 25 5
27 -19 26 -15 0 -56 -7 -92 -14z"/>
</g>
</svg>
