<svg xmlns="http://www.w3.org/2000/svg" fill="#001d82" width="32" height="32" viewBox="0 0 32 32"><path style="line-height:normal;text-indent:0;text-align:start;text-decoration-line:none;text-decoration-style:solid;text-decoration-color:#000;text-transform:none;block-progression:tb;white-space:normal;isolation:auto;mix-blend-mode:normal;solid-color:#000;solid-opacity:1" d="M 18.841797 4.5039062 C 17.858679 4.5039062 16.874553 4.8763469 16.125 5.6230469 C 14.625862 7.1162469 14.625858 9.5457625 16.125 11.039062 A 0.50004994 0.50004994 0 0 0 16.138672 11.050781 L 21.646484 16.179688 A 0.50004994 0.50004994 0 0 0 21.986328 16.314453 L 21.992188 16.314453 L 21.996094 16.314453 A 0.50004994 0.50004994 0 0 0 22.335938 16.179688 L 27.845703 11.050781 C 29.409421 9.5949813 29.356688 7.1163469 27.857422 5.6230469 A 0.50004994 0.50004994 0 0 0 27.693359 5.5136719 C 27.693359 5.5136719 27.691406 5.5136719 27.691406 5.5136719 C 26.18418 4.1631719 23.87603 4.1781469 22.425781 5.6230469 L 21.990234 6.0566406 L 21.556641 5.6230469 C 20.807083 4.8763469 19.824915 4.5039062 18.841797 4.5039062 z M 18.841797 5.4941406 L 18.841797 5.4960938 C 19.567104 5.4960938 20.292144 5.7747313 20.851562 6.3320312 L 21.638672 7.1152344 A 0.50004994 0.50004994 0 0 0 22.34375 7.1152344 L 23.130859 6.3320312 C 24.249731 5.2172312 26.031542 5.2174312 27.150391 6.3320312 A 0.50004994 0.50004994 0 0 0 27.154297 6.3320312 C 28.271041 7.4464312 28.304774 9.2563594 27.164062 10.318359 L 21.992188 15.132812 L 16.832031 10.330078 C 15.71322 9.2155781 15.713257 7.4443781 16.832031 6.3300781 C 17.391445 5.7727781 18.116489 5.4941406 18.841797 5.4941406 z M 1.5039062 13.755859 A 0.50005 0.50005 0 0 0 1.0039062 14.255859 L 1.0039062 24.439453 A 0.50005 0.50005 0 0 0 1.5039062 24.939453 L 4.2382812 24.939453 L 6.9746094 24.939453 A 0.50005 0.50005 0 0 0 7.4746094 24.439453 L 7.4746094 23.703125 L 16.814453 26.867188 A 0.50005 0.50005 0 0 0 16.853516 26.876953 C 17.941072 27.152853 19.195543 26.989163 20.144531 26.351562 L 29.816406 21.095703 A 0.50005 0.50005 0 0 0 29.824219 21.095703 L 30.060547 20.960938 C 30.867713 20.504338 31.2138 19.510403 30.853516 18.658203 C 30.546844 17.932903 29.943973 17.60005 29.472656 17.53125 L 29.472656 17.527344 C 29.001339 17.458344 28.615234 17.591797 28.615234 17.591797 A 0.50005 0.50005 0 0 0 28.566406 17.613281 L 23.234375 20.085938 C 23.241269 20.018493 23.255859 19.953981 23.255859 19.884766 C 23.255859 18.761366 22.325239 17.847656 21.197266 17.847656 L 16.757812 17.847656 C 16.738672 17.813656 16.716749 17.765675 16.699219 17.734375 C 16.619869 17.590975 16.533925 17.452759 16.441406 17.318359 C 16.256269 17.049459 16.045397 16.798612 15.8125 16.570312 C 14.8808 15.657512 13.589421 15.095703 12.169922 15.095703 L 7.4746094 15.095703 L 7.4746094 14.255859 A 0.50005 0.50005 0 0 0 6.9746094 13.755859 L 4.2382812 13.755859 L 1.5039062 13.755859 z M 2.0039062 14.755859 L 4.2382812 14.755859 L 6.4746094 14.755859 L 6.4746094 23.939453 L 4.2382812 23.939453 L 2.0039062 23.939453 L 2.0039062 14.755859 z M 7.4746094 16.095703 L 12.169922 16.095703 C 13.326545 16.095703 14.362068 16.551056 15.111328 17.285156 C 15.298679 17.468756 15.46877 17.669266 15.617188 17.884766 C 15.691467 17.992666 15.760728 18.10395 15.824219 18.21875 C 15.902569 18.36045 15.955768 18.446722 15.998047 18.544922 L 16.126953 18.847656 L 16.566406 18.847656 L 21.197266 18.847656 C 21.796202 18.847656 22.255859 19.305766 22.255859 19.884766 C 22.255859 20.319016 21.997189 20.682472 21.615234 20.837891 L 21.609375 20.839844 C 21.4835 20.890243 21.344846 20.919922 21.197266 20.919922 L 14.242188 20.919922 L 14.242188 21.919922 L 21.197266 21.919922 C 21.406269 21.919922 21.604135 21.878462 21.794922 21.820312 A 0.50070095 0.50070095 0 0 0 21.966797 21.777344 L 28.945312 18.541016 C 28.953813 18.541016 29.118831 18.486578 29.328125 18.517578 C 29.542738 18.548578 29.748867 18.607622 29.933594 19.044922 C 30.098685 19.435422 29.949934 19.872091 29.568359 20.087891 L 29.333984 20.21875 L 19.626953 25.496094 A 0.50005 0.50005 0 0 0 19.585938 25.521484 C 18.926506 25.964584 17.902446 26.110803 17.101562 25.908203 L 17.099609 25.908203 L 7.4746094 22.648438 L 7.4746094 16.095703 z " color="#000" enable-background="accumulate" font-family="sans-serif" font-weight="400" overflow="visible"/></svg>