<svg xmlns="http://www.w3.org/2000/svg" version="1.1" viewBox="0 0 3000 1687" width="3000" height="1687">
<defs/><!--ITEM: Illustration component 1--><g transform="translate(1095.3125 375.0) rotate(7.578180432245853 -116.40625 159.375)  scale(-1.493182270053939 1.497048173248982)"><svg width="155.917" height="212.919" viewBox="0.0 0.0 155.917 212.919"><g>
    <path d="M100.461,87.807c17.708-7.973,50.078-51.33,55.456-67.749C132.014,39.291,106.063,70.069,100.461,87.807Z" style="         fill: #004214;       "/>
    <path d="M92.844,94.258c9.888-16.587,12.026-70.534,7.278-87.062C91.465,36.539,87.547,76.521,92.844,94.258Z" style="         fill: #004214;       "/>
    <path d="M96.819,87.039c-3.382-25.4,25.66-72.2,36.823-87.039C130.759,17.079,112.613,80.5,96.819,87.039Z" style="         fill: #004214;       "/>
    <path d="M115.609,121.908l-.007,0c-.1-.207-.206-.41-.311-.6-.515-.946-1.052-1.884-1.609-2.805-3.225-5.391-6.963-10.528-8.932-16.475a23.124,23.124,0,0,1-1.1-5.535.237.237,0,0,1-.008-.072c0-.019,0-.049,0-.068a17.837,17.837,0,0,1,2.512-11.034l.012-.022A12.252,12.252,0,0,1,109.338,82l-1-.761-4.666-3.559-2.481-1.884-4.728-3.6-5.95-4.534C86.234,89.021,65.128,88.709,44.789,93.8a63.553,63.553,0,0,0-18.774,7.464C7.222,113.094-2.446,136.927.532,158.934c.271,1.962.622,3.9,1.068,5.824a59.276,59.276,0,0,0,4.212,12.111,58.67,58.67,0,0,0,19.6,23.012,56.4,56.4,0,0,0,6.361,3.859c1.159.61,2.332,1.179,3.532,1.716a59.2,59.2,0,0,0,51.378-1.411c.142-.066.276-.136.41-.206C117.574,187.945,131.6,152.122,115.609,121.908Z" style="         fill: #f75c84;       "/>
    <path d="M72.054,105.742c-14.2-14.648-40.488,3.441-40.771,14.593-.334,13.162,26.255,21.368,37.49,7.771C76.972,118.184,76.831,110.668,72.054,105.742Z" style="         fill: #ffaac5;       "/>
    <path d="M113.682,118.5C95.611,93.756,67.063,91.079,44.789,93.8c20.339-5.086,41.445-4.774,45.725-26.138l5.95,4.534,4.728,3.6,2.481,1.884,4.666,3.559,1,.761a12.252,12.252,0,0,0-3.176,3.294l-.012.022a17.837,17.837,0,0,0-2.512,11.034c0,.019,0,.049,0,.068a.237.237,0,0,0,.008.072,23.124,23.124,0,0,0,1.1,5.535C106.719,107.969,110.457,113.106,113.682,118.5Z" style="         fill: #cc125e;       "/>
    <path d="M31.082,203.382c16.148,9.981,39.844,6.36,53.2-1.241,22.633-12.88,44-46.992,31.328-80.233,7.377,10.959,14.912,23.74,12.109,43.291-5.646,39.367-57.729,61.466-96.475,38.279Z" style="         fill: #cc125e;       "/>
    <path d="M44.325,199.073a1,1,0,0,1-.7-1.713c20.007-19.682,42.917-61.275,50.029-90.825A1,1,0,0,1,95.6,107c-7.309,30.366-30,71.54-50.571,91.783A1,1,0,0,1,44.325,199.073Z" style="         fill: #403838;       "/>
    <path d="M60.336,203.032a1,1,0,0,1-.442-1.9c24.134-11.882,48.186-47.935,45.523-82.668a1,1,0,0,1,2-.153c2.724,35.54-21.914,72.445-46.635,84.616A.993.993,0,0,1,60.336,203.032Z" style="         fill: #403838;       "/>
  </g>
</svg></g><!--ITEM: Illustration component 2--><g transform="translate(2178.125 34.375) rotate(-21.608443631275247 176.5625 180.46875)  scale(1.5577646711103856 1.5565097956349805)"><svg width="226.687" height="231.889" viewBox="0.0 0.0 226.687 231.889"><g>
    <path d="M226.687,173.69s-26.909,53.633-84.018,57.925q-3.575.269-7.306.274-2.832,0-5.57-.069c-80.015-1.9-96.494-44.7-96.494-44.7l9.02-22.443L108.507,0Z" style="         fill: #ff5e43;       "/>
    <path d="M226.687,173.688s-26.908,53.628-84.018,57.925q-3.575.269-7.306.273-2.832,0-5.57-.068h-.031c-79.989-1.915-96.463-44.7-96.463-44.7l9-22.39c12.1,12.686,38.7,30.343,93.064,30.343,1.962,0,3.9-.058,5.791-.169,36.166-2.056,60.434-23.111,73.609-38.737Z" style="         fill: #ffe3c3;       "/>
    <polygon points="42.319 164.675 33.299 187.118 0 190.947 10.283 168.352 42.319 164.675" style="         fill: #e56438;       "/>
    <polygon points="108.507 0 42.319 164.675 10.283 168.352 84.244 5.833 96.21 2.956 108.507 0" style="         fill: #e54630;       "/>
    <path d="M129.762,231.818c-7.627.068-14.8.068-14.8.068C29.17,231.886,0,190.945,0,190.945l33.3-3.829S49.773,229.9,129.762,231.818Z" style="         fill: #2fcd99;       "/>
    <path d="M124.977,66.851A6.867,6.867,0,0,1,124,71.936a6.148,6.148,0,0,1-8.923,1.645,7.2,7.2,0,0,1-2.723-4.4c-.54-2.65,1.695-8.975,4.045-12.536C119.459,58.572,124.272,63.394,124.977,66.851Z" style="         fill: #403838;       "/>
    <path d="M96.641,108a6.867,6.867,0,0,0,1.787,4.859,6.149,6.149,0,0,0,9.072.172,7.191,7.191,0,0,0,1.97-4.788c.1-2.7-3.132-8.579-6.03-11.71C100.738,98.934,96.774,104.475,96.641,108Z" style="         fill: #403838;       "/>
    <path d="M82.756,155.636a6.865,6.865,0,0,0,1.04,5.072,6.15,6.15,0,0,0,8.944,1.527A7.19,7.19,0,0,0,95.4,157.8c.506-2.656-1.813-8.951-4.21-12.481C88.164,147.285,83.415,152.17,82.756,155.636Z" style="         fill: #403838;       "/>
    <path d="M127.42,157.8a6.867,6.867,0,0,0,2.646,4.45,6.15,6.15,0,0,0,8.951-1.49,7.2,7.2,0,0,0,1.061-5.068c-.394-2.675-4.649-7.861-8.071-10.41C129.79,148.138,126.906,154.311,127.42,157.8Z" style="         fill: #403838;       "/>
    <path d="M166.453,147.463a6.865,6.865,0,0,0,3.54,3.778,6.149,6.149,0,0,0,8.421-3.379,7.188,7.188,0,0,0-.053-5.177c-.959-2.528-6.229-6.679-10.119-8.433C166.69,137.517,165.2,144.165,166.453,147.463Z" style="         fill: #403838;       "/>
    <path d="M150.509,100.584a6.865,6.865,0,0,1-.19,5.173,6.148,6.148,0,0,1-8.57,2.98,7.189,7.189,0,0,1-3.36-3.94c-.935-2.537.315-9.128,2.1-13C143.8,93.237,149.289,97.274,150.509,100.584Z" style="         fill: #403838;       "/>
  </g>
</svg></g><!--ITEM: Illustration component 3--><g transform="translate(482.8125 207.8125) rotate(0.0 1041.40625 714.84375)  scale(1.5382139897758274 1.5380376374450946)"><svg width="1354.046" height="929.553" viewBox="0.0 0.0 1354.046 929.553"><g>
    <path d="M190.911,515.912l-32.457-95.139c3.2-2.227,23.017-16.473,24.087-38.991.912-19.2-11.944-41.358-31.483-44.2a35.4,35.4,0,0,0-17.8,2.4c-.305-17.9.551-32.386,1.358-42.121,1.717-20.7,5.4-75.386-10.752-78.078-12.281-2.047-28.549,35.931-36.575,79.243-1.632,8.8-5.716,20.559-5.387,25.15-7.628-6.382-23.29.824-30.257,6.631-5.613,4.679-11.881,14.608-8.932,21.437-.444-.3-9.375-6.094-19.412-2.29a19.016,19.016,0,0,0-12.487,19.219l20.224,81.239a52.612,52.612,0,0,0,15.046,25.477h0l-.751,68.282Z" style="         fill: #f8b5a4;       "/>
    <path d="M447.639,803.384a296.481,296.481,0,0,0,46.825,18.688c95.31,28.883,182.354,2.32,226.478-15.354,19.544,4.315,72.583,13.177,126.247-14.5a173.827,173.827,0,0,0,44.358-32.841q-2.886-4.614-5.771-9.227Z" style="         fill: #e56438;       "/>
    <g id="Path-i3">
      <path d="M1283.3,118.725c3.734-6.253,6.1-15.686,9.8-26.456,4.331-12.61,13.446-27.193,11.147-39.839-5.554-30.557-22.793-45.3-11.886-51s36.78,5.73,49.721,31.25c9.766,19.247,15.161,45.053,9.92,85.4a370.2,370.2,0,0,1-18.325,77.387c-4.231,5.749-12.958,42.956-17.477,48.876l-110.008-22.662c-.264-16.6-9-33.246-3.43-48.853,6.722-35.457,40.01-34.175,72.981-47.089" style="         fill: #f8b5a4;       "/>
    </g>
    <g id="Path-2-i3">
      <path d="M1294.507,88.045a.874.874,0,0,1-.749-1.326c4.766-7.9,8.213-20.342,9.156-28.548a40.013,40.013,0,0,0-5-24.423.875.875,0,1,1,1.541-.83,41.676,41.676,0,0,1,5.193,25.453c-.964,8.394-4.5,21.136-9.395,29.251A.873.873,0,0,1,1294.507,88.045Z" style="         fill: #403838;       "/>
    </g>
    <g id="Path-4-i3">
      <path d="M1226.022,212.584c-13.5-7.383-39.4-35.915-52.989-69.926-12.192-30.519-15.907-64.087-1.408-68.162,26.713-7.514,19.887,23.971,50.263,55.709,21.6,22.571,30.807,17.41,48.642,24.719C1253.113,162.659,1243.436,204.85,1226.022,212.584Z" style="         fill: #f8b5a4;       "/>
    </g>
    <g id="Oval-i3">
      <path d="M1237.427,92.2c-.95-10.676,16.4-21.277,38.811-22.939,26.662-1.976,41.3,5.048,42.252,15.724s-16.426,20.946-38.811,22.938S1238.378,102.879,1237.427,92.2Z" style="         fill: #f8b5a4;       "/>
    </g>
    <g id="Path-6-i3">
      <path d="M1262.347,92.013a22.864,22.864,0,0,1-9.947-2.267c-2.322-1.233-3.553-2.792-3.561-4.509-.007-1.433.842-2.985,2.457-4.488,2.46-2.29,7-4.612,11.188-4.29a8.675,8.675,0,0,1,7.776,6.7c.814,3.114-.041,6.143-2.128,7.539A10.769,10.769,0,0,1,1262.347,92.013ZM1261.7,78.18a14.931,14.931,0,0,0-9.216,3.85,5,5,0,0,0-1.9,3.2c.006,1.374,1.651,2.452,2.631,2.973,4.2,2.23,11.363,2.765,13.939,1.042h0c1.468-.981,2.034-3.248,1.408-5.64a6.962,6.962,0,0,0-6.218-5.4Q1262.03,78.18,1261.7,78.18Z" style="         fill: #403838;       "/>
    </g>
    <g id="Path-7-i3">
      <path d="M1169.256,110.05a.875.875,0,0,1-.716-1.377c4.2-5.993,5.446-22.558,2.124-28.134a.875.875,0,1,1,1.5-.895c3.641,6.11,2.37,23.513-2.193,30.033A.874.874,0,0,1,1169.256,110.05Z" style="         fill: #403838;       "/>
    </g>
    <g id="Path-2-2-i3" data-name="Path">
      <path d="M1236.967,213.532c-13.735-15.979-18.831-35.721-11.59-50.09,7.119-14.122,23.782-18.342,37.533-21.823,22.591-7.805,32.476,11.025,33.416,45.969C1271.4,211.488,1261.888,189.633,1236.967,213.532Z" style="         fill: #dda094;       "/>
    </g>
    <g id="Path-3-i3" data-name="Path">
      <path d="M1258.31,105.573c16.51-11.533,34.392-14.4,39.937-6.418s34.976,45.606,18.466,57.138c-4.668,3.262-2.779,37.249-11.753,36.576-9.083-.681-16.679-47.568-25.7-51.583-13.582-6.048-35.532,9.5-40.8-.366C1233.872,132.343,1241.8,117.106,1258.31,105.573Z" style="         fill: #f8b5a4;       "/>
    </g>
    <g id="Path-4-2-i3" data-name="Path">
      <path d="M1290.031,160.593a.874.874,0,0,1-.775-.468l-8.032-15.291a7.706,7.706,0,0,0-8.173-4l-17.757,4.054a29.138,29.138,0,0,1-11.6.291l-2.522-.441a.875.875,0,0,1,.3-1.723l2.523.441a27.4,27.4,0,0,0,10.91-.274l17.8-4.064a9.461,9.461,0,0,1,10.066,4.9l8.032,15.291a.874.874,0,0,1-.368,1.181A.863.863,0,0,1,1290.031,160.593Z" style="         fill: #403838;       "/>
    </g>
    <g id="Path-9-i3">
      <path d="M1243.857,139.868A4.688,4.688,0,0,1,1240,138.3c-.943-1.177-1.272-3.09-.927-5.39.485-3.227,2.478-7.7,5.707-9.893a8.52,8.52,0,0,1,9.935.455c2.72,1.982,4.067,4.964,3.351,7.418-1.1,3.789-7.437,7.82-12.152,8.758A10.594,10.594,0,0,1,1243.857,139.868Zm5.413-16.493a6.161,6.161,0,0,0-3.5,1.09c-2.393,1.626-4.432,5.206-4.958,8.7a5.47,5.47,0,0,0,.561,4.035c.943,1.175,3.041.96,4.207.727,4.535-.9,9.992-4.7,10.814-7.531h0c.5-1.721-.609-3.989-2.7-5.514A7.661,7.661,0,0,0,1249.27,123.375Z" style="         fill: #403838;       "/>
    </g>
    <path d="M1257.371,105.442c6.021-7.524,25.486-12.355,33.652-10.164,5.365,1.439,11.26,1.069,13.824,6.076,1.116,2.178,8.9,7.539,10.666,12.3,1.715,4.622-2.261,7.819-1.059,10.108-.971-2.2-9.147-19.27-24.082-24.119C1280.213,96.347,1260.633,104.386,1257.371,105.442Z" style="         fill: #dda094;       "/>
    <path d="M1301.876,69.335c6.234-2.749,9.727-.178,14.13,3.865,2.893,2.656,7.055,6.53,7.026,10.508-.013,1.729,1.233,7.038.784,10.6a57.575,57.575,0,0,0-.369,8.03c.112-1.7-2.07-15.864-9.848-23.785C1308.308,73.166,1304.266,69.739,1301.876,69.335Z" style="         fill: #dda094;       "/>
    <g id="Path-8-i3">
      <path d="M1314.131,126.219a.875.875,0,0,1-.819-.568c-5.149-13.768-11.38-21.693-19.612-24.941-8.907-3.513-20.585-1.568-35.7,5.95a.875.875,0,0,1-.779-1.568c15.587-7.75,27.73-9.715,37.125-6.009,8.725,3.442,15.273,11.69,20.608,25.955a.874.874,0,0,1-.82,1.181Z" style="         fill: #403838;       "/>
    </g>
    <g id="Path-5-i3">
      <path d="M1322.952,103.093a.81.81,0,0,1-.8-.583c-7.921-26.384-10.874-36.22-40.416-30.864a.875.875,0,0,1-.313-1.722c31.077-5.638,34.387,5.378,42.377,31.992a.917.917,0,0,1-.573,1.135A.967.967,0,0,1,1322.952,103.093Z" style="         fill: #403838;       "/>
    </g>
    <path d="M167.089,518.585c16.3-28.465,190.6-240.182,451.476-267.734,119.394-12.61,215.788,22.337,267.293,46.041,8.224-4.412,46.826,11.363,56.754,10.26,92.112-10.235,126.974,7.45,176.06,19.073,1.6-6.357,3.071-18.422,26.734-32.955-1.07-11.268,1.572-28.095,14.181-41.385,13.239-13.954,26.1-7.291,31.751-7.537,39.379,8.9,83.874,9.613,123.252,18.514,12.426,2.808,27.374,19.64,34.713,42.149,8.122,24.91,1.56,53.423-12.632,71.364-10.667,13.485-31.647,28.586-31.728,28.657h0c-22.57,41.018-62.018,97.166-127.933,141.239,0,0-99.342,66.865-247.186,56.172-1.893-.137-6.375-.257-9.122-3.58-5.309-6.42,1.608-19.943.171-28.926,4.462,27.889,10.838,37.212,16.274,72.987,4.892,32.2.392,93.97-14.619,109.771-3.349,3.527-16.057,16.9-34.182,15.7-13.318-.883-22.429-9.163-25.649-12.406a237.2,237.2,0,0,1-96.579,53.236c-71.689,19.567-131.445-1.134-152.17-9.422-35.993,18.335-93.741,40.812-161.121,37.218-43.312-2.31-62.805-13.909-73.244-21.911-4.6-3.524-30.159-24.3-38.41-58.178-9.778-40.153,10.818-14.612,4.876-17.294-14.668-6.623,9.015,189.755-171.075,189.911-64.023.056-101.99-41.071-101.99-41.071-24.556-27.6-29.2-59.613-30.354-73.042a229.96,229.96,0,0,1-38.4-88.3c-17.989-90.694,26.551-163.029,38.5-181.2Z" style="         fill: #ff914d;       "/>
    <path d="M553.545,253.4c-8.425,7.9-12.736,17.737-14.99,26.237a16.764,16.764,0,0,0,5.37,17.037A606.332,606.332,0,0,1,674.274,452.593a13.491,13.491,0,0,0,23.707-.8A705.726,705.726,0,0,0,743.2,337.577c7.01-23.522,12.359-45.97,16.44-67.014a16.827,16.827,0,0,0-10.462-18.9A266.875,266.875,0,0,0,680.2,235.15c-24.816-2.525-41.67-.705-73.39,2.721C570.38,241.805,560.709,246.681,553.545,253.4Z" style="         fill: #e56438;       "/>
    <path d="M693.293,412.262a8.242,8.242,0,0,1-15.293.207,521.524,521.524,0,0,0-90.964-144.518,8.246,8.246,0,0,1,4.8-13.618,441.188,441.188,0,0,1,125.054-3.109,8.257,8.257,0,0,1,7.279,8.48,464.112,464.112,0,0,1-30.879,152.558Z" style="         fill: #be512d;       "/>
    <path d="M345.544,740.482a.876.876,0,0,1-.861-.725,293.888,293.888,0,0,1,9.826-140.56.875.875,0,0,1,1.667.533,292.143,292.143,0,0,0-9.769,139.727.875.875,0,0,1-.712,1.012A.864.864,0,0,1,345.544,740.482Z" style="         fill: #403838;       "/>
    <path d="M908.863,324.03a.874.874,0,0,1-.721-.378,120.088,120.088,0,0,0-10.294-12.9,128.532,128.532,0,0,0-15.565-14.36.875.875,0,1,1,1.079-1.379,130.387,130.387,0,0,1,15.776,14.556,121.765,121.765,0,0,1,10.444,13.085.875.875,0,0,1-.719,1.372Z" style="         fill: #403838;       "/>
    <path d="M1177.053,255.486l15.942-42.48a12.778,12.778,0,0,1,15.265-7.862c14.95,4,61.994,12.4,101.654,18.185a31.672,31.672,0,0,1,27.11,30.929q.357,27.493.712,54.987Z" style="         fill: #ff914d;       "/>
    <path d="M42.457,546.182l-4.684-41.206a14.8,14.8,0,0,1,11.572-16.14l124.423-26.977a14.034,14.034,0,0,1,16.751,11.048l13.579,70.17Z" style="         fill: #ff914d;       "/>
    <path d="M193.814,489.933a350.941,350.941,0,0,1,5.786,49.173c11.195,10.148,30.2,29.692,44.009,51.174,7.269,11.305,18.753,28.788,25.586,54.243,3.395,12.645,9.036,34.6,4.094,62.432a130.17,130.17,0,0,1-18.422,47.079c9.422-7.742,39.767-34.676,45.032-77.783,6.315-51.694-26.018-105.509-81.5-132.078-3.513-2.52-8.257-6.764-10.615-13.254-3.6-9.925,1.41-16.74-2.046-26.61C204.385,500.437,201.378,495.1,193.814,489.933Z" style="         fill: #e56438;                fill-rule: evenodd;       "/>
    <path d="M252.005,757.877a.874.874,0,0,1-.712-1.382,125.576,125.576,0,0,0,19.781-42.285c9.2-36.725.708-76.32-25.235-117.687a280.61,280.61,0,0,0-47.163-56.66.875.875,0,0,1,1.165-1.305,282.454,282.454,0,0,1,47.48,57.035c26.206,41.786,34.769,81.838,25.45,119.042a127.285,127.285,0,0,1-20.053,42.874A.871.871,0,0,1,252.005,757.877Z" style="         fill: #403838;       "/>
    <path d="M46.08,817.489c3.521,1.891,7.835,3.617,15.352,5.118.916.182,11.007,2.164,18.422,2.046,21.215-.337,47.521-12.066,50.15-14.328-6.665,18.336-20.287,17.649-26.61,20.469a37.338,37.338,0,0,1-22.857,2.352,26.582,26.582,0,0,0-16.29,1.912,14.776,14.776,0,0,1-9.979.854c-7.841-2.14-10.288-10.056-10.418-10.5l-1.22-9.967C43.441,815.971,44.617,816.7,46.08,817.489Z" style="         fill: #e56438;       "/>
    <rect x="62.455" y="491.003" width="15.352" height="53.22" rx="7.5" transform="translate(-44.015 7.895) rotate(-4.907)" style="         fill: #e56438;       "/>
    <rect x="111.582" y="483.839" width="15.352" height="53.22" rx="7.5" transform="translate(-67.52 20.659) rotate(-7.724)" style="         fill: #e56438;       "/>
    <rect x="163.782" y="473.604" width="15.352" height="53.22" rx="7.5" transform="translate(-132.562 67.567) rotate(-16.175)" style="         fill: #e56438;       "/>
    <path d="M63.52,531.355a1,1,0,0,1-1-.915l-2.657-30.949a8.676,8.676,0,0,1,17.288-1.484,1,1,0,0,1-1.992.171,6.676,6.676,0,0,0-13.3,1.142l2.657,30.949a1,1,0,0,1-.911,1.082A.838.838,0,0,1,63.52,531.355Z" style="         fill: #c6a589;       "/>
    <rect x="1201.467" y="216.629" width="15.352" height="53.22" rx="7.5" transform="translate(125.087 -344.991) rotate(17.111)" style="         fill: #e56438;       "/>
    <rect x="1254.931" y="227.459" width="15.352" height="53.22" rx="7.5" transform="translate(74.676 -243.472) rotate(11.348)" style="         fill: #e56438;       "/>
    <path d="M1268.9,262.754a.957.957,0,0,1-.2-.02,1,1,0,0,1-.784-1.177l4.965-24.738a6.676,6.676,0,0,0-13.091-2.628l-3.075,15.324a1,1,0,0,1-1.961-.394l3.075-15.323a8.676,8.676,0,0,1,17.013,3.414l-4.965,24.739A1,1,0,0,1,1268.9,262.754Z" style="         fill: #c6a589;       "/>
    <rect x="1306.254" y="234.754" width="15.352" height="53.22" rx="7.5" transform="translate(13.817 -61.791) rotate(2.708)" style="         fill: #e56438;       "/>
    <path d="M1321.343,268.134h-.049a1,1,0,0,1-.951-1.046l1.15-24.321a6.676,6.676,0,0,0-13.337-.63,1,1,0,0,1-2-.095,8.676,8.676,0,0,1,17.333.82l-1.15,24.321A1,1,0,0,1,1321.343,268.134Z" style="         fill: #c6a589;       "/>
    <path d="M1198.239,253.573a.974.974,0,0,1-.3-.045,1,1,0,0,1-.662-1.25l9.14-29.688a8.676,8.676,0,0,1,16.583,5.106,1,1,0,1,1-1.911-.589,6.676,6.676,0,0,0-12.761-3.928l-9.139,29.688A1,1,0,0,1,1198.239,253.573Z" style="         fill: #c6a589;       "/>
    <path d="M127.362,514.1a1,1,0,0,1-.99-.865l-3.043-22.441a6.677,6.677,0,0,0-13.232,1.795l2.188,16.129a1,1,0,1,1-1.982.268l-2.187-16.129a8.676,8.676,0,0,1,17.194-2.332l3.044,22.441a1,1,0,0,1-.857,1.125A1.032,1.032,0,0,1,127.362,514.1Z" style="         fill: #c6a589;       "/>
    <path d="M183.512,517.71a1,1,0,0,1-.968-.756l-9.22-36.729a6.676,6.676,0,0,0-12.951,3.25l3.015,12.009a1,1,0,0,1-1.94.487l-3.014-12.009a8.676,8.676,0,0,1,16.829-4.224l9.22,36.728a1,1,0,0,1-.726,1.214A1.033,1.033,0,0,1,183.512,517.71Z" style="         fill: #c6a589;       "/>
    <path d="M76.585,825.609a68.441,68.441,0,0,1-34.4-9.414.875.875,0,1,1,.882-1.511,66.525,66.525,0,0,0,36.74,9.1c25.987-1.278,46.253-10.7,49.57-14.069a.875.875,0,0,1,1.246,1.229c-4.25,4.313-26.009,13.372-50.73,14.588Q78.217,825.611,76.585,825.609Z" style="         fill: #403838;       "/>
    <path d="M896.58,417.314a348.173,348.173,0,0,1,26.61,165.8l5.118,19.446c3.423.485,7.19.858,11.258,1.024,3.27.133,6.349.116,9.211,0,8.657-25.1,7.764-44.2,5.117-57.314-6.835-33.878-28.936-45.536-26.61-77.784.842-11.673,4.36-18.776,0-28.657C921.589,426.923,907.454,420.614,896.58,417.314Z" style="         fill: #e56438;       "/>
    <path d="M923.7,584.474l-.067,0a.875.875,0,0,1-.806-.939,355.836,355.836,0,0,0-27.84-167.384.875.875,0,0,1,1.608-.69,357.575,357.575,0,0,1,27.977,168.207A.875.875,0,0,1,923.7,584.474Z" style="         fill: #403838;       "/>
    <path d="M1152.7,340.279a.866.866,0,0,1-.346-.072c-5.488-2.369-11.111-4.632-16.713-6.727-7.448-2.786-15.09-5.361-22.711-7.652a.875.875,0,1,1,.5-1.676c7.658,2.3,15.336,4.889,22.821,7.689,5.628,2.105,11.278,4.379,16.792,6.76a.875.875,0,0,1-.347,1.678Z" style="         fill: #403838;       "/>
    <path d="M27.657,388.657A122.766,122.766,0,0,0,46.08,424.478c5.507,7.345,12.625,16.837,18.422,15.352,7.928-2.031,7.159-23,13.305-23.54,4.405-.388,6.041,10.27,15.352,13.305,5.437,1.773,10.5-.027,13.3-1.023,16.878-6,21.952-28.085,22.517-30.7Q154.01,372.29,151.5,369.211q-2.994-3.665-45.033,24.563c.993,4.507,4,13.331,3.074,21.493-.49,4.315-2.811,4.44-4.1,5.117-3.153,1.661-9.656-4.611-27.634-24.563-8.779-9.743-15.785-17.954-20.469-23.54a135.294,135.294,0,0,1,8.188,28.657c1.775,10.469,2.828,17.685,0,19.446C62.445,422.3,53.761,418.321,27.657,388.657Z" style="         fill: #dda094;       "/>
    <path d="M105.326,421.271c-3.388,0-9.934-3.51-24.82-20.459-10.217-11.633-23.3-28.422-38.877-49.9a.875.875,0,1,1,1.417-1.027c15.547,21.433,28.593,38.178,38.774,49.771,16.88,19.219,22.652,20.548,24.592,19.627,3.75-1.781,5.262-16.5-26.741-95.093a.875.875,0,0,1,1.621-.66c14.17,34.8,23.208,60.6,26.864,76.683,2.824,12.426,2.509,18.988-.993,20.651A4.185,4.185,0,0,1,105.326,421.271Z" style="         fill: #403838;       "/>
    <path d="M63.458,422.193c-5.224,0-17.125-8.084-51.05-52.671a.875.875,0,0,1,1.393-1.06c35.057,46.075,46.968,53.563,50.783,51.738,2.662-1.275,4.855-9.762-10.365-52.291a.875.875,0,0,1,1.647-.59c16.157,45.144,13.145,52.7,9.474,54.459A4.267,4.267,0,0,1,63.458,422.193Z" style="         fill: #403838;       "/>
    <path d="M151.951,366.708c-6.3,6.352-17.73,17.82-35.355,24.432-18.229,6.838-45.037,10.2-48.607,2.838-2.321-4.789,6.329-16.738,57.927-49.341" style="         fill: #f8b5a4;       "/>
    <path d="M79.728,399.157c-6.143,0-10.76-1.134-12.187-3.911-2.3-4.481,1.216-14.642,58.145-50.992a.875.875,0,0,1,.941,1.475c-51.383,32.809-59.646,44.6-57.53,48.717,3.022,5.877,28.966,2.319,47.3-4.608A97.039,97.039,0,0,0,151.628,366.8a.875.875,0,0,1,1.25,1.224,98.768,98.768,0,0,1-35.867,23.452C105.849,395.693,90.461,399.157,79.728,399.157Z" style="         fill: #403838;       "/>
    <path d="M70.557,394.272c-2.54,0-3.042-.8-3.3-1.21a.875.875,0,0,1,1.482-.932c.524.836,5.658.937,21.318-4.667a4.925,4.925,0,0,0,2.842-2.606,4.817,4.817,0,0,0,.124-3.764q-.171-.444-.389-.9c-1.463-3.03-5.3-5.148-6.738-5.944l-.331-.185a.875.875,0,0,1,.862-1.523l.315.176c1.577.87,5.763,3.183,7.467,6.715.168.347.316.692.447,1.031a6.548,6.548,0,0,1-.166,5.122,6.663,6.663,0,0,1-3.843,3.523C79.267,393.182,73.523,394.272,70.557,394.272Z" style="         fill: #403838;       "/>
    <path d="M63,417.063a6.833,6.833,0,0,1-2.5-.521c-3.5-1.389-6.308-5.826-6.386-10.1a8.511,8.511,0,0,1,4.042-7.63,5.569,5.569,0,0,1,5.518-.39,6.819,6.819,0,0,1,2.578,3.073.875.875,0,0,1-1.573.765,5.255,5.255,0,0,0-1.87-2.317,3.847,3.847,0,0,0-3.759.373,6.786,6.786,0,0,0-3.186,6.095c.064,3.561,2.433,7.377,5.279,8.506.828.327,2.374.749,3.429-.114a6.637,6.637,0,0,0,1.787-2.823.875.875,0,1,1,1.656.565,8.368,8.368,0,0,1-2.336,3.614A4.146,4.146,0,0,1,63,417.063Z" style="         fill: #403838;       "/>
    <path d="M106.965,414.884a12.4,12.4,0,0,1-7.985-2.854,9.455,9.455,0,0,1-3.625-7c.006-4.314,4.134-9.33,10.8-9.913a.875.875,0,1,1,.152,1.743c-5.5.481-9.192,4.614-9.2,8.172a7.707,7.707,0,0,0,3,5.655,10.825,10.825,0,0,0,8.912,2.261.875.875,0,1,1,.311,1.722A13.237,13.237,0,0,1,106.965,414.884Z" style="         fill: #403838;       "/>
  </g>
</svg></g><!--ITEM: Illustration component 4--><g transform="translate(500.0 1710.9375) rotate(-90.00000000000001 238.28125 -350.78125)  scale(1.647591340303131 -1.6489001652278759)"><svg width="289.248" height="425.473" viewBox="0.0 0.0 289.248 425.473"><g>
    <path d="M163.981,191.873S157.551,191,145,183.218a173.562,173.562,0,0,1-20.124-14.775c-5.637-58.077,4.583-120.762,25.537-79.753-9.9-63.768,24.7-74.728,25.172-38.741,9.271-33.156,26.168-74.4,41.584-31.686,54.876-29.567,77.2-15.154,30.951,20.393.107-.041.213-.081.314-.114,65.929-23.531,45.737,29.913-16.026,56.97,46.357,1.33,18.2,29.765-12.119,42.505l1.543.06c.348.024.7.04,1.058.069.023,0,.036,0,.059,0C255.547,140.834,214.211,181.492,163.981,191.873Z" style="         fill: #25a77b;       "/>
    <path d="M163.981,191.873S157.551,191,145,183.218a108.9,108.9,0,0,1,10.56-44.985c18.309-37.961,49.451-37.625,46.044-17.031,29.384-15.917,47.1,1.177,18.685,16.815l1.543.06c.348.024.7.04,1.058.069.023,0,.036,0,.059,0C255.547,140.834,214.211,181.492,163.981,191.873Z" style="         fill: #2fcd99;       "/>
    <path d="M155.555,139.233a1,1,0,0,1-.9-1.435c11.87-24.611,29.741-34.261,40.529-30.844,5.288,1.675,8.056,6.273,7.629,12.483,15.851-8.031,28.608-6.667,31.983-.485,2.48,4.543.1,12.168-14.029,19.941a1,1,0,1,1-.965-1.752c12.854-7.073,15.165-13.7,13.238-17.231-2.959-5.42-15.639-6.131-30.965,2.171a1,1,0,0,1-1.463-1.042c1.026-6.2-1.173-10.64-6.032-12.179-14.21-4.5-30.848,14.722-38.124,29.807A1,1,0,0,1,155.555,139.233Z" style="         fill: #403838;       "/>
    <path d="M164.925,237.788c-32.223,35.486-78.881,93.5-122.242,149.35C22.075,413.676,8.5,426.258,2.9,425.435c-6.377-.926-2.374-19.262,13.41-54.153C51.829,292.747,72.985,242.27,94.5,186.7c5.736-14.818,20.092-24.54,33.189-22.388,14.294,2.345,28.77,10.287,39.694,19.769a24.9,24.9,0,0,1,1.876,1.812C181.139,198.521,179.3,221.968,164.925,237.788Z" style="         fill: #ff5e43;       "/>
    <path d="M164.925,237.788c-32.223,35.486-78.881,93.5-122.242,149.35C22.075,413.676,8.5,426.258,2.9,425.435c53.96-72.654,111.394-147.378,151.384-193.7,11.745-13.607,16.861-30.986,14.978-45.835C181.139,198.521,179.3,221.968,164.925,237.788Z" style="         fill: #e54630;       "/>
    <path d="M150.522,245.685a1,1,0,0,1-1-.981c-.109-5.748-11.242-18.028-24.44-19.256a1,1,0,0,1,.185-1.991c13.794,1.283,26.121,14.127,26.255,21.209a1,1,0,0,1-.981,1.019Z" style="         fill: #403838;       "/>
    <path d="M107.819,237.448a.991.991,0,0,1-.554-.168c-5.076-3.389-11.071-4.976-18.87-5a1,1,0,0,1-1-1,1.014,1.014,0,0,1,1-1c8.21.02,14.557,1.714,19.975,5.332a1,1,0,0,1-.556,1.831Z" style="         fill: #403838;       "/>
    <path d="M91.951,320.377a1,1,0,0,1-.938-.652c-1.964-5.3-12.24-13.409-19.289-15.23a1,1,0,0,1,.5-1.937c7.823,2.021,18.445,10.488,20.664,16.471a1,1,0,0,1-.937,1.348Z" style="         fill: #403838;       "/>
    <path d="M51.5,338.227a1.006,1.006,0,0,1-.517-.144,30.4,30.4,0,0,0-13.514-3.447,1,1,0,0,1,.066-2,31.817,31.817,0,0,1,14.486,3.736,1,1,0,0,1-.521,1.854Z" style="         fill: #403838;       "/>
    <path d="M46.992,345.649a1,1,0,0,1-.516-.144,28.747,28.747,0,0,0-9.953-3.141,1,1,0,0,1,.277-1.981A30.131,30.131,0,0,1,47.513,343.8a1,1,0,0,1-.521,1.854Z" style="         fill: #403838;       "/>
    <path d="M248.115,38.656c.107-.041.213-.081.314-.114-8.972,5.256-16.663,11.734-24.421,18.746-3.748-39.344-59.919,1.85-73.6,31.4-9.9-63.768,24.7-74.728,25.172-38.741,9.271-33.156,26.168-74.4,41.584-31.686C272.04-11.3,294.361,3.109,248.115,38.656Z" style="         fill: #2fcd99;       "/>
    <path d="M150.408,89.691a1,1,0,0,1-.907-1.421c10.4-22.461,44.784-51.024,63.092-47.894,4.74.81,10.562,4.085,12.175,14.883,6.909-6.187,14.489-12.5,23.156-17.58a1,1,0,0,1,1.011,1.726c-9.114,5.338-17.044,12.106-24.256,18.625a1,1,0,0,1-1.666-.647c-.849-8.9-4.468-13.961-10.757-15.036-8.071-1.38-20.172,3.743-33.2,14.055-12.266,9.708-22.895,22.241-27.741,32.708A1,1,0,0,1,150.408,89.691Z" style="         fill: #403838;       "/>
  </g>
</svg></g><!--ITEM: Illustration component 5--><g transform="translate(1210.9375 87.5) rotate(0.0 217.1875 232.03125)  scale(1.5677898809652713 1.569772751874002)"><svg width="277.062" height="295.624" viewBox="0.0 0.0 277.062 295.624"><g>
    <g id="Oval-2-i5">
      <ellipse cx="250.09" cy="158.428" rx="26.982" ry="26.962" transform="translate(19.538 344.143) rotate(-71.206)" style="         fill: #dda094;       "/>
    </g>
    <g id="Oval-i5">
      <ellipse cx="128.423" cy="160.171" rx="128.473" ry="128.378" transform="translate(-64.582 230.144) rotate(-71.206)" style="         fill: #2b2929;       "/>
    </g>
    <g id="Combined-Shape-i5">
      <path d="M93.164,90.105c-49.058,32.83-62.628,133.773-62.628,133.773l10.776,15.143a134.677,134.677,0,0,0,144.826,51.943,103.184,103.184,0,0,0,37.348-15.585c42.3-28.31,56.609-81.178,31.951-118.081a70.8,70.8,0,0,0-15.175-16.384,67.743,67.743,0,0,0-11.095-39.663C203.891,63.426,142.229,57.269,93.164,90.105Z" style="         fill: #f8b5a4;                fill-rule: evenodd;       "/>
    </g>
    <g id="Combined-Shape-2-i5" data-name="Combined-Shape">
      <path d="M186.138,290.964a103.2,103.2,0,0,0,37.348-15.585C265.79,247.068,280.1,194.2,255.437,157.3c-4.16-6.23-9.269-10.614-4.981,5.912a174.209,174.209,0,0,1,4.735,23.88c2.06,20.955-4.247,38.359-18.045,58.763C229.291,257.47,209.994,274.759,186.138,290.964Z" style="         fill: #dda094;                fill-rule: evenodd;       "/>
    </g>
    <g id="Path-11-i5">
      <path d="M192.385,198.5a.875.875,0,0,1-.725-1.363l5.959-8.868a5.322,5.322,0,0,0-2.836-8.052l-4.217-1.308a.875.875,0,1,1,.519-1.671l4.217,1.308a7.071,7.071,0,0,1,3.769,10.7l-5.959,8.868A.873.873,0,0,1,192.385,198.5Z" style="         fill: #403838;       "/>
    </g>
    <g id="Path-13-i5">
      <path d="M164.481,56.454c-7.351,17.1-17.737,47.234-38.893,75.056S81.579,187.8,16.689,212.647q-21.972-57.976,5.9-102.711C41.156,80.111,94.34,61.152,164.481,56.454Z" style="         fill: #2b2929;                fill-rule: evenodd;       "/>
    </g>
    <g id="Oval-7-i5">
      <ellipse cx="32.096" cy="219.595" rx="28.225" ry="28.28" transform="translate(-61.795 18.507) rotate(-16.713)" style="         fill: #f8b5a4;       "/>
    </g>
    <g id="Path-15-i5">
      <path d="M132.455,51.313c9.509,26.977,63.752,62.8,113.9,77.865L231.005,91.31C212.432,59.61,170.365,43.892,132.455,51.313Z" style="         fill: #2b2929;                fill-rule: evenodd;       "/>
    </g>
    <g id="Path-9-i5">
      <path d="M32.815,241.664a.875.875,0,0,1-.183-.019c-10.52-2.231-17.19-7.643-19.823-16.086-2.643-8.47-.091-16.324,7.584-23.342a.875.875,0,0,1,1.18,1.291c-7.23,6.612-9.55,13.655-7.093,21.53,2.431,7.794,8.66,12.8,18.515,14.895a.875.875,0,0,1-.18,1.731Z" style="         fill: #403838;       "/>
    </g>
    <path d="M205.447,210.956a4.347,4.347,0,0,0-1.906-.467,4.562,4.562,0,0,0-1.131.11l-28.889,6.614a2.561,2.561,0,0,0-1.233.679,2.7,2.7,0,0,0-.688,1.228c-.218,1.283,9.129,7.25,20.49,5.911,3.029-.358,9.318-1.1,12.305-5.788C206.352,216.172,206.689,211.726,205.447,210.956Z" style="         fill: #fff;       "/>
    <g>
      <path d="M125.268,159.615a21.477,21.477,0,0,0,14.324,31.536c10.141-4.912,16.351-12.467,14.938-19.508C152.8,163.014,140.208,158.09,125.268,159.615Z" style="         fill: #2b2929;                fill-rule: evenodd;       "/>
      <path d="M122.518,170.117a21.376,21.376,0,0,1,2.75-10.5c-1.763.18-3.556.444-5.37.808-17.19,3.451-29.556,14.068-27.62,23.716s17.442,14.67,34.632,11.22a53.252,53.252,0,0,0,12.682-4.208A21.5,21.5,0,0,1,122.518,170.117Z" style="         fill: #fff;       "/>
    </g>
    <g>
      <path d="M222.5,133.005a21.476,21.476,0,0,0,14.325,31.535c10.14-4.911,16.351-12.466,14.937-19.507C250.027,136.4,237.437,131.48,222.5,133.005Z" style="         fill: #2b2929;                fill-rule: evenodd;       "/>
      <path d="M219.747,143.507a21.386,21.386,0,0,1,2.75-10.5c-1.762.18-3.555.444-5.369.808-17.191,3.451-29.557,14.068-27.621,23.716s17.442,14.67,34.632,11.219a53.23,53.23,0,0,0,12.683-4.208A21.5,21.5,0,0,1,219.747,143.507Z" style="         fill: #fff;       "/>
    </g>
    <rect x="89.679" y="131.703" width="53.247" height="19.837" rx="9.5" transform="translate(-38.55 43.624) rotate(-18.279)" style="         fill: #2b2929;       "/>
    <rect x="189.074" y="108.061" width="47.526" height="19.446" rx="9.5" transform="translate(-16.185 35.8) rotate(-9.264)" style="         fill: #2b2929;       "/>
    <ellipse cx="79.606" cy="38.795" rx="12.194" ry="30.755" transform="translate(15.157 99.529) rotate(-69.282)" style="         fill: #2b2929;       "/>
    <ellipse cx="104.525" cy="27.67" rx="28.547" ry="12.194" transform="translate(49.415 120.696) rotate(-74.184)" style="         fill: #2b2929;       "/>
  </g>
</svg></g><!--ITEM: Illustration component 6--><g transform="translate(2409.375 964.0625) rotate(0.0 135.9375 160.9375)  scale(1.6959751974349055 1.688542306017637)"><svg width="160.306" height="190.623" viewBox="0.0 0.0 160.306 190.623"><g>
    <path d="M138.252,162.026c-19.855,30.61-62.362,36.3-95.585,18.727a83.16,83.16,0,0,1-31.185-28.595c-.007,0-.007-.007-.015-.015-4.433-6.9-9.15-36.066-5.777-40.671,9.278-12.689,28.953-26.408,44.187-43.807C62.887,52.8,75.606,37.16,87.72,24.874c7.979-8.106,15.7-14.749,23.057-18.75,8.367-4.568,16.286-5.717,23.608-1.732.5.269,1,.568,1.493.889C165.391,24.426,170.489,112.322,138.252,162.026Z" style="         fill: #25a77b;       "/>
    <path d="M138.252,162.026c-19.855,30.61-62.362,36.3-95.585,18.727a83.16,83.16,0,0,1-31.185-28.595c-.007,0-.007-.007-.015-.015-4.433-6.9-9.15-36.066-5.777-40.671,9.278-12.689,28.953-26.408,44.187-43.807C62.887,52.8,75.606,37.16,87.72,24.874c7.979-8.106,15.7-14.749,23.057-18.75,8.367-4.568,16.286-5.717,23.608-1.732.5.269,1,.568,1.493.889C165.391,24.426,170.489,112.322,138.252,162.026Z" style="         fill: #25a77b;       "/>
    <path d="M135.05,94.894c-.978,46.411-40.351,98.884-93.114,78.761a83.92,83.92,0,0,1-7.92-3.531,66.271,66.271,0,0,1-22.534-17.966c-.007,0-.007-.007-.015-.015A53.217,53.217,0,0,1,.943,128.728q-.336-1.847-.56-3.717C-2.8,97.26,14.14,66.254,41.757,48.423,62.8,34.831,84.772,14.267,103.805,4.93c10.838-5.33,20.728-7,28.946-1.672.567.373,1.112.746,1.634,1.134C155.9,20.3,136.02,49.214,135.05,94.894Z" style="         fill: #2fcd99;       "/>
    <path d="M44.947,51.276c30.8-20.536,63.986-57.212,84.6-43.844,21.962,14.244,2.272,41.948.56,85.774-1.782,45.625-42.617,98.225-94.359,72.171C-13.707,140.476,2.655,79.48,44.947,51.276Z" style="         fill: #ffe3c3;       "/>
    <path d="M41.562,168q-2.887-1.143-5.821-2.62c-49.45-24.9-33.089-85.9,9.2-114.1,17.563-11.711,35.909-28.669,52.248-38.6C58.409,59.8,38.875,115.913,41.562,168Z" style="         fill: #ffdc83;       "/>
    <path d="M35.546,129.156a42.014,42.014,0,0,0,5.283,6.838,7.432,7.432,0,0,0,5.835,2.295c42.154-2.557,52.874-49.356,44.266-67.546a7.528,7.528,0,0,0-4.568-3.969,45.27,45.27,0,0,0-8.421-1.782C43.469,61.147,17.879,100.584,35.546,129.156Z" style="         fill: #494242;       "/>
    <path d="M35.546,129.156a42.014,42.014,0,0,0,5.283,6.838,7.432,7.432,0,0,0,5.835,2.295c42.154-2.557,52.874-49.356,44.266-67.546a7.528,7.528,0,0,0-4.568-3.969,45.27,45.27,0,0,0-8.421-1.782C81.106,78.043,65.3,120.39,35.546,129.156Z" style="         fill: #403838;       "/>
  </g>
</svg></g><!--ITEM: Illustration component 7--><g transform="translate(279.6875 248.4375) rotate(44.920907518595385 141.40625 184.375)  scale(1.4920756767593633 1.4957429634166624)"><svg width="189.543" height="246.533" viewBox="0.0 0.0 189.543 246.533"><g>
    <path d="M59.2,114.571c15.143,16.29,59.08,60.6,76.491,80.514s24.573-.7,23.268-24.508-9.123-76.82-5.131-96.672S29.135,82.228,59.2,114.571Z" style="         fill: #25a77b;       "/>
    <path d="M189.238,230.306c.679,3.238.358,6.553-2.352,8.451a42.569,42.569,0,0,1-25.546,7.77c-2.334-.039-4.188-1.515-5.683-3.308-34.815-41.773-61.072-73.475-99.8-116.794l33.7,12.993c7.494,13.589,20.814,25.046,32.7,32.815,6.6,4.312,8.221-.864,7.679-3.452-3.842-18.341-16.674-36.885-23.1-46.468l22.946-8.183a146.363,146.363,0,0,0,12.011,49.308,32.268,32.268,0,0,0,2.548,4.929,2.191,2.191,0,0,0,4.007-.889,40.6,40.6,0,0,0-.2-9.044c-1.57-15.813-3.405-32.029.662-47.395l18.018-7.263C169.511,131.608,182.568,198.478,189.238,230.306Z" style="         fill: #2fcd99;       "/>
    <path d="M182.617,76.766a74.738,74.738,0,0,1-4.365,13.024c-9.743,21.777-33.3,33.764-49.113,25.969-3.539,29.346-48.79,37.076-61.847,15.707q-1.109.811-2.26,1.541c-.81.514-1.629,1-2.464,1.452-12.5,6.852-27.99,7.326-42.053,1.05C-3.514,124.775-3.958,101.887,6.539,87.794c.646-.873,1.337-1.711,2.063-2.511.329-.36.661-.71,1.006-1.054C19.866,73.852,36.178,69.623,37.75,66.423a5.2,5.2,0,0,0,.306-2.512c-.267-4.707-3.067-13.742-1.163-24.324,1.26-7.008,4.823-13.416,10.389-16.043,5.854-2.757,12.876-1.064,19.453.657,25.188,6.6,25.676,7.046,28.339,6.384,4.369-1.085,6.395-6.639,7.2-11.816s1.039-10.9,3.855-14.752c4.381-6,13.307-4.7,19.643.1,8.81,6.685,15.428,19.858,19.9,22.342,7.5,4.165,17.69-8.373,26.81-2.478C185.288,32.259,187.523,56.352,182.617,76.766Z" style="         fill: #2fcd99;       "/>
    <path d="M49.848,127.084a54.293,54.293,0,0,0,23.237-5.678c1.175-.569,2.107.523,1.346,1.625a41.426,41.426,0,0,1-11.863,11.428c-12.5,6.852-27.99,7.326-42.053,1.05C-3.514,124.775-3.958,101.887,6.539,87.794c.646-.873,1.337-1.711,2.063-2.511.329-.36.661-.71,1.006-1.054A36.555,36.555,0,0,0,8.692,91.3C8.314,111.463,29.674,127.224,49.848,127.084Z" style="         fill: #25a77b;       "/>
    <path d="M49.59,128.085a46.335,46.335,0,0,1-31.853-13.421C11.1,107.952,7.535,99.646,7.692,91.278a37.413,37.413,0,0,1,.94-7.264,1,1,0,0,1,1.953.43,35.515,35.515,0,0,0-.894,6.871c-.187,10.029,5.045,17.469,9.468,21.943a44.2,44.2,0,0,0,30.683,12.826,53.147,53.147,0,0,0,22.807-5.578,1,1,0,1,1,.871,1.8,55.136,55.136,0,0,1-23.664,5.778Z" style="         fill: #403838;       "/>
    <path d="M182.617,76.766c.158-6.94-.35-13.424-1.946-18.358-4.422-13.619-16.662-21.265-29.8-15.294C138,48.971,127.408,59.72,123.616,73.259,113.1,50.748,84.784,38.343,61.11,45.877c-9.535,3.027-18.4,9.234-23.054,18.034-.267-4.707-3.067-13.742-1.163-24.324,1.26-7.008,4.823-13.416,10.389-16.043,5.854-2.757,12.876-1.064,19.453.657,25.188,6.6,25.676,7.046,28.339,6.384,4.369-1.085,6.395-6.639,7.2-11.816s1.039-10.9,3.855-14.752c4.381-6,13.307-4.7,19.643.1,8.81,6.685,15.428,19.858,19.9,22.342,7.5,4.165,17.69-8.373,26.81-2.478C185.288,32.259,187.523,56.352,182.617,76.766Z" style="         fill: #25a77b;       "/>
    <path d="M182.618,77.766h-.024a1,1,0,0,1-.977-1.023c.172-7.538-.466-13.6-1.9-18.027-2.306-7.1-6.892-12.615-12.581-15.123a18.97,18.97,0,0,0-15.859.431c-13.429,6.112-23.161,16.866-26.7,29.5a1,1,0,1,1-1.925-.54c3.7-13.208,13.831-24.429,27.8-30.785a20.917,20.917,0,0,1,17.494-.441c6.209,2.737,11.194,8.691,13.676,16.336,1.5,4.638,2.172,10.926,1.995,18.69A1,1,0,0,1,182.618,77.766Z" style="         fill: #403838;       "/>
  </g>
</svg></g><!--ITEM: Illustration component 8--><g transform="translate(1851.5625 378.125) rotate(0.0 84.375 91.40625)  scale(1.9881242710211005 2.0046988770944822)"><svg width="84.879" height="91.192" viewBox="0.0 0.0 84.879 91.192"><g>
    <path d="M82.467,70.137c-1.54,15.2-22.206,25.718-33.333,18.973Z" style="         fill: #d1ae8b;       "/>
    <path d="M71.782,52.8,82.467,70.137,49.134,89.11c-6.585-10.9-9.2-15.313-9.2-15.313S11.767,82.6,1.478,54.05C-10.166,21.74,49.967-19.395,77.105,10.17,97.293,32.157,71.782,52.8,71.782,52.8Z" style="         fill: #ffe3c3;       "/>
    <path d="M33.883,63.178C21.015,66.809,16.455,55.363,23.069,44.2Z" style="         fill: #d1ae8b;       "/>
    <path d="M67.328,44.2c9.717-9.183,2.231-18.968-10.747-19.019Z" style="         fill: #d1ae8b;       "/>
    <path d="M49.135,90.11a1,1,0,0,1-.866-.5L22.2,44.7a1,1,0,0,1,1.73-1L50,88.608a1,1,0,0,1-.864,1.5Z" style="         fill: #403838;       "/>
  </g>
</svg></g><!--ITEM: Illustration component 9--><g transform="translate(2035.9375 431.25) rotate(0.0 84.375 84.375)  scale(1.916263541595694 1.900166651653004)"><svg width="88.062" height="88.808" viewBox="0.0 0.0 88.062 88.808"><g>
    <path d="M.345,28.208c-2.3,16.155,7.166,30.5,20.573,39.874l.014.007q.491.346.988.681c.578.385,1.161.763,1.754,1.129.01.006.021.017.031.023C40.934,80.675,63.4,83.449,76.222,72.215c20.87-18.287,11.354-41.551-6.969-56.654C45.148-4.314,5.794-10.069.345,28.208Z" style="         fill: #ffe3c3;       "/>
    <path d="M22.245,68.959l1.429.94c.01.006.021.017.031.023C40.934,80.675,63.4,83.449,76.222,72.215c20.87-18.287,11.354-41.551-6.969-56.654C98.705,50.105,57.331,89.2,22.245,68.959Z" style="         fill: #eacaac;       "/>
    <path d="M3.989,64.414C-.852,72.761,36.952,95.259,41.727,87.026a5.188,5.188,0,0,0,.331-3.627C40.128,73.444,13.668,59.32,6.213,62.61A4.606,4.606,0,0,0,3.989,64.414Z" style="         fill: #d1ae8b;       "/>
    <path d="M41.359,35.858a18,18,0,0,0-24.6,6.54L3.989,64.414a4.606,4.606,0,0,1,2.224-1.8C13.668,59.32,40.128,73.444,42.058,83.4a5.188,5.188,0,0,1-.331,3.627L54.81,64.467a18,18,0,0,0-6.54-24.6Z" style="         fill: #ffe3c3;       "/>
    <path d="M52.746,68.537c-.028-.115-.059-.231-.093-.35l-3.3,5.685C52.135,73.635,53.578,72.041,52.746,68.537Z" style="         fill: #be512d;       "/>
    <path d="M11.58,51.327l3.3-5.691a5.182,5.182,0,0,0-1.111.295C11.03,47.011,10.54,48.951,11.58,51.327Z" style="         fill: #be512d;       "/>
    <path d="M49.357,74.87a1,1,0,0,1-.085-2,3.02,3.02,0,0,0,2.3-.994,3.858,3.858,0,0,0,.2-3.113c-1.108-4.666-8.781-11.419-19.094-16.8-8.1-4.23-15.553-6.28-18.542-5.1a3.168,3.168,0,0,0-1.914,1.554,3.25,3.25,0,0,0,.273,2.509,1,1,0,0,1-1.832.8,5.119,5.119,0,0,1-.29-4.074A5.043,5.043,0,0,1,13.4,45c4.31-1.7,13.262,1.567,20.2,5.19,8.327,4.348,18.591,11.7,20.114,18.114a5.665,5.665,0,0,1-.531,4.747,4.873,4.873,0,0,1-3.743,1.814A.844.844,0,0,1,49.357,74.87Z" style="         fill: #403838;       "/>
  </g>
</svg></g><!--ITEM: Illustration component 10--><g transform="translate(2178.125 34.375) rotate(-21.608443631275247 176.5625 180.46875) translate(148.28279702970298 0.0) scale(1.5577646711103856 1.5565097956349805)"><svg width="131.3982168141593" height="231.889" viewBox="95.18947231227548 0.0 131.3982168141593 231.889"><g>
    <path d="M226.687,173.69s-26.909,53.633-84.018,57.925q-3.575.269-7.306.274-2.832,0-5.57-.069c-80.015-1.9-96.494-44.7-96.494-44.7l9.02-22.443L108.507,0Z" style="         fill: #ff5e43;       "/>
    <path d="M226.687,173.688s-26.908,53.628-84.018,57.925q-3.575.269-7.306.273-2.832,0-5.57-.068h-.031c-79.989-1.915-96.463-44.7-96.463-44.7l9-22.39c12.1,12.686,38.7,30.343,93.064,30.343,1.962,0,3.9-.058,5.791-.169,36.166-2.056,60.434-23.111,73.609-38.737Z" style="         fill: #ffe3c3;       "/>
    <polygon points="42.319 164.675 33.299 187.118 0 190.947 10.283 168.352 42.319 164.675" style="         fill: #eacaac;       "/>
    <polygon points="108.507 0 42.319 164.675 10.283 168.352 84.244 5.833 96.21 2.956 108.507 0" style="         fill: #e54630;       "/>
    <path d="M129.762,231.818c-7.627.068-14.8.068-14.8.068C29.17,231.886,0,190.945,0,190.945l33.3-3.829S49.773,229.9,129.762,231.818Z" style="         fill: #2fcd99;       "/>
    <path d="M124.977,66.851A6.867,6.867,0,0,1,124,71.936a6.148,6.148,0,0,1-8.923,1.645,7.2,7.2,0,0,1-2.723-4.4c-.54-2.65,1.695-8.975,4.045-12.536C119.459,58.572,124.272,63.394,124.977,66.851Z" style="         fill: #403838;       "/>
    <path d="M96.641,108a6.867,6.867,0,0,0,1.787,4.859,6.149,6.149,0,0,0,9.072.172,7.191,7.191,0,0,0,1.97-4.788c.1-2.7-3.132-8.579-6.03-11.71C100.738,98.934,96.774,104.475,96.641,108Z" style="         fill: #403838;       "/>
    <path d="M82.756,155.636a6.865,6.865,0,0,0,1.04,5.072,6.15,6.15,0,0,0,8.944,1.527A7.19,7.19,0,0,0,95.4,157.8c.506-2.656-1.813-8.951-4.21-12.481C88.164,147.285,83.415,152.17,82.756,155.636Z" style="         fill: #403838;       "/>
    <path d="M127.42,157.8a6.867,6.867,0,0,0,2.646,4.45,6.15,6.15,0,0,0,8.951-1.49,7.2,7.2,0,0,0,1.061-5.068c-.394-2.675-4.649-7.861-8.071-10.41C129.79,148.138,126.906,154.311,127.42,157.8Z" style="         fill: #403838;       "/>
    <path d="M166.453,147.463a6.865,6.865,0,0,0,3.54,3.778,6.149,6.149,0,0,0,8.421-3.379,7.188,7.188,0,0,0-.053-5.177c-.959-2.528-6.229-6.679-10.119-8.433C166.69,137.517,165.2,144.165,166.453,147.463Z" style="         fill: #403838;       "/>
    <path d="M150.509,100.584a6.865,6.865,0,0,1-.19,5.173,6.148,6.148,0,0,1-8.57,2.98,7.189,7.189,0,0,1-3.36-3.94c-.935-2.537.315-9.128,2.1-13C143.8,93.237,149.289,97.274,150.509,100.584Z" style="         fill: #403838;       "/>
  </g>
</svg></g><!--ITEM: Illustration component 11--><g transform="translate(1515.625 1109.375) rotate(-42.22530697539859 371.09375 203.90625)  scale(1.8851217145701888 1.8797100781268004)"><svg width="393.708" height="216.955" viewBox="0.0 0.0 393.708 216.955"><g>
    <path d="M217.245,56.355A65.6,65.6,0,0,0,347.14,74.882a66.418,66.418,0,0,0,.606-12.176A65.62,65.62,0,0,0,220.068,44.5,66.431,66.431,0,0,0,217.245,56.355Z" style="         fill: #e54630;       "/>
    <path d="M220.068,44.5c1,33.345,23.922,61.736,55.681,66.266s61.713-16.32,72-48.055A65.62,65.62,0,0,0,220.068,44.5Z" style="         fill: #e54630;       "/>
    <path d="M285.224,18.613c4.829-11.083,21.011-8.824,21.011-8.824s-6.678,3.934-9.148,10.679c15.931-1.343,33,11.258,33,11.258s-18.23-8.9-32.408-3.159c6.765,6.554,9.088,18.368,9.088,18.368s-11.115-13.221-20.5-15.443c-11.751,2.306-16.652,9.463-16.652,9.463s-.08-13.758,10.06-17.506C279.1,20.658,276,17.958,271.314,16,276.026,14.17,281.574,14.623,285.224,18.613Z" style="         fill: #25a77b;       "/>
    <path d="M237.6,192.463a61.832,61.832,0,0,0,28.508,20.945,61.035,61.035,0,0,0,45.491-1.8,63.82,63.82,0,0,0,14.644-9.114,65.148,65.148,0,0,0,7.94-7.8,67.876,67.876,0,0,0,15.638-52.558,65.777,65.777,0,0,0-12.958-31.809C315.325,82.1,275.651,77.615,248.233,100.3c-.527.441-1.044.872-1.544,1.336a65.5,65.5,0,0,0-8.568,9.152,66.166,66.166,0,0,0-9.4,16.71,67.677,67.677,0,0,0-2.85,9.29A66.928,66.928,0,0,0,237.6,192.463Z" style="         fill: #e54630;       "/>
    <path d="M225.867,136.788a62.715,62.715,0,0,0,101.445,42.359,63.8,63.8,0,0,0,7.849-7.437c.076-.085.152-.171.227-.257a47.8,47.8,0,0,0,3.238-58.708q-.849-1.224-1.76-2.419C315.325,82.1,275.651,77.615,248.233,100.3c-.527.441-1.044.872-1.544,1.336a65.5,65.5,0,0,0-8.568,9.152,66.166,66.166,0,0,0-9.4,16.71A67.677,67.677,0,0,0,225.867,136.788Z" style="         fill: #ff5e43;       "/>
    <path d="M128.313,117.925a63.258,63.258,0,0,0,6.033,5.082,65.6,65.6,0,0,0,75.109,2.218,64.769,64.769,0,0,0,15.4-14.077c.44-.533.861-1.079,1.275-1.646a65.607,65.607,0,0,0-91.155-92.265,65.6,65.6,0,0,0-6.664,100.688Z" style="         fill: #e54630;       "/>
    <path d="M128.313,117.925q3.49,1.452,7.23,2.637c32.477,10.329,69.591,2.875,93.34-16.536.607-.5,1.2-1,1.8-1.511a65.615,65.615,0,0,0-93.054-87.1.01.01,0,0,0-.011.009c-.891.58-1.775,1.181-2.643,1.815a65.6,65.6,0,0,0-6.664,100.688Z" style="         fill: #ff5e43;       "/>
    <path d="M137.631,15.413c39.6-13.043,59.745-1.48,86.776,13.545a65.7,65.7,0,0,0-86.776-13.545Z" style="         fill: #e54630;       "/>
    <path d="M167.269,17.228c8.763-7.658,29.788-2.645,37.08,7.842,2.17-4.792,12.661-23.615,34.348-15.4-10.85-2.227-22.494,15.029-24.683,24.357,5.523,4.491,12,15.6,10.477,26.989-2.422-10.457-8.28-15.832-13-18.634,2.828,8.043-3.519,21.289-10.842,25.127,4.046-8.105,4.955-21.467,2.4-29.793-5.954-4.473-18.707-2.816-24.984.75,7.077-7.724,16.035-9.566,20.632-8.345C190.292,19,182.265,14.84,167.269,17.228Z" style="         fill: #25a77b;       "/>
    <path d="M1.234,80.8A65.6,65.6,0,0,0,130,106a66.419,66.419,0,0,0,1.232-12.129A65.619,65.619,0,0,0,4.664,69.1,66.45,66.45,0,0,0,1.234,80.8Z" style="         fill: #e54630;       "/>
    <path d="M4.664,69.1c-.719,33.353,20.708,62.888,52.191,69.049a61.307,61.307,0,0,0,7.849,1.018c66.342,4.276,81.782-92.585,17.429-109.267q-1.933-.5-3.92-.891A65.639,65.639,0,0,0,4.664,69.1Z" style="         fill: #ff5e43;       "/>
    <path d="M55.921,38.51C31.738,32.707,7.19,60.892,11.279,81.019A70.272,70.272,0,0,1,55.921,38.51Z" style="         fill: #ffe3c3;       "/>
    <path d="M78.8,48.163c10.481-9.463,23.778-4.719,23.778-4.719S86.9,49.74,87.624,54.192c10.484,2.712,22.967,17.747,22.967,17.747s-14.457-11.9-27.332-11.932c2.819,7.71.442,18.136.442,18.136S79.122,64.185,72.807,59.076C63.122,56.819,53.982,64.5,53.982,64.5s1.288-15.952,14.209-14.39c-9.079-6.873-7.878-20.063-4.117-29.4C66.058,30.583,71.562,45.306,78.8,48.163Z" style="         fill: #25a77b;       "/>
    <path d="M53.982,65.5a1,1,0,0,1-1-1.081c.028-.346.745-8.536,6.033-12.856a11.251,11.251,0,0,1,6.467-2.527c-7.169-7.512-5.9-19.863-2.34-28.7a1,1,0,0,1,1.908.176c3.386,16.858,10.3,25.218,14.113,26.724a1,1,0,0,1-.734,1.861c-7.3-2.88-12.315-16.015-14.563-24.808-2.62,8.6-2.672,19.274,4.924,25.025a1,1,0,0,1-.723,1.79,9.947,9.947,0,0,0-7.78,2c-3.023,2.465-4.361,6.574-4.927,9.148,3.322-2.2,10.279-5.872,17.67-4.149a1,1,0,1,1-.454,1.947c-9.093-2.118-17.867,5.139-17.955,5.212A1,1,0,0,1,53.982,65.5Z" style="         fill: #403838;       "/>
    <path d="M315.929,64.226c-34.079,0-70.552-4.81-104.554-9.293-53.842-7.1-104.7-13.8-132.495.255a1,1,0,1,1-.9-1.785c28.349-14.338,79.5-7.594,133.659-.453,61.995,8.174,132.263,17.439,180.676-3.471a1,1,0,0,1,.793,1.837C370.905,60.9,344.242,64.225,315.929,64.226Z" style="         fill: #403838;       "/>
    <g>
      <path d="M315.433,100.715c-7.548-8.882-21.159-11.505-28.121-5.767-.979-5.236-8.934-8.909-20.77-11.78a35.979,35.979,0,0,0,13.381,15.284c-5.646-2.19-17.61,2.627-23.089,15.847,6.606-5.4,10-6.3,16.5-6.532-6.068,5.928-5.441,21.389-.916,28.021.215-9,7.155-21.471,13.12-27.768,7.123-1.376,15.626,5.861,19.379,11.792-2.552-9.987-8.023-17.575-11.506-18.379C298.667,97.6,308.651,97.946,315.433,100.715Z" style="         fill: #25a77b;       "/>
      <path d="M272.424,136.788a1,1,0,0,1-.827-.436c-2.313-3.391-3.727-9.079-3.688-14.845.034-5.128,1.186-9.576,3.217-12.615-5.021.405-8.159,1.686-13.659,6.181a1,1,0,0,1-1.557-1.157,29.441,29.441,0,0,1,11.9-14.181c4.453-2.624,9.233-3.473,12.477-2.215a1,1,0,0,1-.723,1.865c-4.853-1.883-14.305,1.837-19.957,11.558,4.7-3.231,8.128-3.973,13.7-4.175a1,1,0,0,1,.735,1.715c-5.515,5.387-5.181,20.3-.789,26.741a1,1,0,0,1-.825,1.564Z" style="         fill: #403838;       "/>
    </g>
    <path d="M283.908,102.429a1,1,0,0,1-.987-1.171c3.128-18.071,19.41-38.08,47.769-39.31a1,1,0,0,1,.087,2c-27.253,1.182-42.89,20.347-45.885,37.653A1,1,0,0,1,283.908,102.429Z" style="         fill: #403838;       "/>
    <path d="M337.622,63.547a.992.992,0,0,1-.443-.1c-9.484-4.7-15.709-12.019-21.729-19.1-6.909-8.129-13.436-15.807-24.255-18.772a1,1,0,0,1,.529-1.929c11.414,3.128,18.135,11.034,25.25,19.4,5.889,6.928,11.977,14.091,21.092,18.6a1,1,0,0,1-.444,1.9Z" style="         fill: #403838;       "/>
    <path d="M271.675,62.039a1,1,0,0,1-.836-.45c-5.5-8.337-16.278-17.067-28.139-22.781-12.995-6.262-25.225-7.914-33.554-4.532a1,1,0,1,1-.752-1.853c19.863-8.065,53.006,11.214,64.115,28.066a1,1,0,0,1-.834,1.55Z" style="         fill: #403838;       "/>
  </g>
</svg></g><!--ITEM: Illustration component 12--><g transform="translate(1142.1875 889.0625) rotate(-23.26767361869962 125.0 110.15625)  scale(1.9271387385720673 1.916927695118768)"><svg width="129.726" height="114.93" viewBox="0.0 0.0 129.726 114.93"><g>
    <g>
      <path d="M2.27,37.821C-7.089,67.634,13.346,100.6,47.913,111.45s70.185-4.518,79.543-34.331a49.643,49.643,0,0,0,2.068-10.325c2.422-26.749-17.11-53.708-47.717-63.316S19.773,4.833,6.474,28.167A49.646,49.646,0,0,0,2.27,37.821Z" style="         fill: #e54630;       "/>
      <path d="M6.474,28.167c-8.73,29.445,12.892,53.056,41.531,63.651,33.541,12.408,67.606.2,81.519-25.024,2.422-26.749-17.11-53.708-47.717-63.316S19.773,4.833,6.474,28.167Z" style="         fill: #ff5e43;       "/>
      <path d="M81.883,17.892c-3.666-12.807-19.246-7.866-19.246-7.866s11.269,2.788,11.016,7.75c-10.648-4.319-15.918-1.538-23.014,4.357,9.547-4.18,17.9-.944,20.9,2.359C65.4,29.692,62.9,40.606,62.9,40.606s10.647-9.665,18.612-10.983c9.566,2.716,13.935,13.608,13.935,13.608s6.448-14.163-5.626-19.017c2.049-2.336,6.248-2.5,12.01-.94C96.087,16.558,87.7,13.707,81.883,17.892Z" style="         fill: #25a77b;       "/>
    </g>
    <path d="M46.1,12.837c-17.536,3.73-27.956,32.684,14.012,35.719C43.393,40.026,30.759,27.883,46.1,12.837Z" style="         fill: #ff914d;       "/>
  </g>
</svg></g><!--ITEM: Illustration component 13--><g transform="translate(1253.125 1071.875) rotate(9.65391252494912 132.8125 111.71875)  scale(1.7854382179562152 1.7902067926705176)"><svg width="148.773" height="124.811" viewBox="0.0 0.0 148.773 124.811"><g>
    <path d="M148.719,60.685C147.408,25.242,129.325,4.159,99.1,2.678c-10.854-.531-20.311,2.792-31.082-.3C24.175-10.216-1.751,29.754.092,63.2c1.9,34.447,24.108,62.867,76.986,61.573C130.921,123.451,149.926,93.3,148.719,60.685Z" style="         fill: #ff5e43;       "/>
    <path d="M61.714,108.607l1.073-.047c2.922-.127,5.232-2.831,5.232-6.123V17.265c0-3.21-2.2-5.891-5.046-6.111A39.44,39.44,0,0,0,58.539,11c-24.464,1.011-43.577,23.682-42.7,50.633S37.259,109.618,61.714,108.607Z" style="         fill: #e54630;       "/>
    <path d="M135.426,59c-.888-25.759-19.94-45.911-42.553-45.03-.5.02-1,.049-1.487.09l-.052,0a5.788,5.788,0,0,0-5.173,5.9v81.212a5.776,5.776,0,0,0,5.1,5.9,41.316,41.316,0,0,0,4.81.151C118.684,106.345,136.305,84.751,135.426,59Z" style="         fill: #e54630;       "/>
    <path d="M115.4,74.953a3.478,3.478,0,1,0,2.864-6.34c-1.751-.791-8.736-.129-8.736-.129S113.652,74.163,115.4,74.953Z" style="         fill: #ffdc83;       "/>
    <path d="M37.381,42.3a3.478,3.478,0,1,0-3.3,6.124c1.691.912,8.7.74,8.7.74S39.073,43.208,37.381,42.3Z" style="         fill: #ffdc83;       "/>
    <path d="M57.09,93.538a3.479,3.479,0,0,1-6.315-2.921C51.582,88.873,57.3,84.8,57.3,84.8S57.9,91.794,57.09,93.538Z" style="         fill: #ffdc83;       "/>
    <path d="M104.558,33.051a3.479,3.479,0,1,0-6.126-3.3c-.911,1.692-.737,8.706-.737,8.706S103.647,34.742,104.558,33.051Z" style="         fill: #ffdc83;       "/>
    <path d="M102.3,90.338a3.478,3.478,0,1,0,4.923-4.915c-1.357-1.36-8.124-3.214-8.124-3.214S100.944,88.979,102.3,90.338Z" style="         fill: #ffdc83;       "/>
    <path d="M41.265,82.883a3.479,3.479,0,0,1-4.212-5.538c1.529-1.163,8.485-2.082,8.485-2.082S42.794,81.72,41.265,82.883Z" style="         fill: #ffdc83;       "/>
    <path d="M118.076,52.281a3.479,3.479,0,0,0-2.537-6.478c-1.789.7-6.194,6.162-6.194,6.162S116.287,52.982,118.076,52.281Z" style="         fill: #ffdc83;       "/>
    <path d="M45.239,34.618A3.478,3.478,0,1,1,50.531,30.1c1.247,1.462,2.556,8.355,2.556,8.355S46.486,36.08,45.239,34.618Z" style="         fill: #ffdc83;       "/>
    <path d="M32.55,65.925a3.478,3.478,0,1,1-.726-6.919c1.911-.2,8.334,2.624,8.334,2.624S34.46,65.725,32.55,65.925Z" style="         fill: #ffdc83;       "/>
  </g>
</svg></g></svg>