<?xml version="1.0" standalone="no"?>
<!DOCTYPE svg PUBLIC "-//W3C//DTD SVG 20010904//EN"
 "http://www.w3.org/TR/2001/REC-SVG-20010904/DTD/svg10.dtd">
<svg version="1.0" xmlns="http://www.w3.org/2000/svg"
 width="1280.000000pt" height="1280.000000pt" viewBox="0 0 1280.000000 1280.000000"
 preserveAspectRatio="xMidYMid meet">
<metadata>
Created by potrace 1.15, written by Peter Selinger 2001-2017
</metadata>
<g transform="translate(0.000000,1280.000000) scale(0.100000,-0.100000)"
fill="#001d82" stroke="none">
<path d="M5985 12790 c-40 -4 -54 -8 -43 -14 9 -4 19 -24 23 -44 4 -19 20 -62
36 -95 17 -32 29 -60 27 -61 -2 -2 -83 -11 -182 -20 -98 -10 -185 -20 -193
-23 -35 -14 23 139 76 199 17 20 31 38 31 40 0 8 -421 -50 -433 -60 -7 -5 -55
-19 -107 -31 -139 -33 -142 -33 -135 -21 8 13 10 13 -77 -5 -155 -32 -331 -79
-343 -92 -8 -7 -18 -13 -24 -13 -5 0 -16 -9 -24 -20 -10 -15 -48 -29 -132 -50
-117 -30 -160 -34 -91 -9 20 7 36 17 36 22 0 5 -7 7 -15 3 -8 -3 -63 -22 -122
-42 -129 -43 -226 -83 -233 -95 -6 -8 -138 -61 -251 -99 -73 -25 -309 -137
-332 -157 -9 -9 -38 -28 -64 -43 -25 -14 -75 -54 -112 -89 -44 -41 -105 -83
-181 -125 -63 -34 -132 -73 -152 -85 -21 -13 -38 -21 -38 -18 0 3 17 16 38 28
20 12 53 36 72 53 19 17 63 49 98 71 58 36 84 65 45 51 -68 -26 -415 -255
-420 -277 -3 -10 -9 -19 -14 -19 -5 0 -9 -6 -9 -14 0 -8 -36 -39 -80 -70 -83
-57 -100 -63 -53 -20 14 13 23 27 20 31 -15 14 -446 -333 -476 -383 -10 -16
-67 -73 -127 -125 -101 -88 -345 -338 -410 -419 -15 -19 45 39 134 130 l161
165 -20 -54 c-15 -39 -20 -75 -18 -128 l2 -75 -95 -96 c-310 -317 -610 -700
-838 -1070 -72 -117 -87 -118 -77 -5 8 86 49 172 115 241 13 14 13 16 17 47 1
11 24 51 51 88 27 38 56 79 64 90 8 12 -4 4 -26 -18 -53 -51 -117 -152 -101
-158 7 -2 -2 -18 -23 -38 -20 -19 -52 -61 -72 -94 l-36 -60 2 -115 1 -115 -48
-85 c-27 -47 -101 -191 -165 -320 -64 -129 -120 -237 -125 -239 -28 -11 -117
-117 -117 -138 0 -6 -7 -16 -15 -21 -20 -11 -89 -209 -152 -437 -43 -156 -51
-195 -43 -195 5 0 10 6 13 13 2 6 8 -5 12 -27 6 -30 -2 -82 -38 -235 -25 -108
-54 -236 -63 -286 -17 -87 -18 -89 -30 -60 -16 39 -20 27 -34 -105 -6 -58 -15
-127 -20 -155 -17 -97 -32 -368 -20 -375 7 -5 9 -35 5 -91 -14 -208 -18 -558
-6 -649 6 -52 13 -122 16 -155 16 -219 75 -636 99 -705 2 -8 10 -41 16 -73 11
-55 14 -59 56 -79 54 -25 66 -42 89 -127 9 -35 30 -92 45 -125 30 -64 53 -129
65 -183 3 -18 11 -36 17 -39 11 -7 2 66 -18 141 -51 184 -53 193 -43 229 12
45 22 50 47 28 16 -12 25 -42 37 -112 13 -82 73 -361 91 -427 5 -18 2 -23 -14
-23 -20 0 -147 127 -181 180 -8 14 -19 27 -23 30 -10 8 -68 133 -68 147 0 6
-4 14 -9 17 -5 4 -3 -15 4 -41 21 -81 56 -197 65 -218 5 -11 25 -69 45 -130
49 -145 65 -185 76 -185 5 0 9 -9 9 -20 0 -11 3 -20 8 -20 4 0 16 -16 26 -35
32 -58 91 -106 137 -110 22 -2 42 -5 44 -7 2 -1 28 -70 58 -153 66 -184 152
-384 224 -529 l54 -109 -46 39 c-56 45 -135 134 -135 150 0 7 -4 14 -8 16 -9
4 -57 102 -67 138 -4 14 -15 43 -25 65 -10 22 -26 59 -35 83 -31 73 -28 38 5
-54 38 -110 40 -115 76 -189 69 -142 294 -515 315 -523 5 -2 9 -10 9 -18 0 -8
5 -14 10 -14 6 0 10 -7 10 -15 0 -8 5 -15 10 -15 6 0 10 -6 10 -14 0 -8 7 -16
15 -20 8 -3 15 -12 15 -21 0 -8 4 -15 8 -15 4 0 13 -15 20 -33 10 -25 14 -29
22 -17 10 16 3 33 -11 25 -5 -3 -7 0 -4 7 3 7 -6 25 -20 40 -14 15 -25 31 -25
36 0 5 -11 19 -25 32 -14 13 -25 27 -25 32 0 5 -11 21 -25 36 -14 15 -25 31
-25 37 0 5 25 -17 56 -50 31 -33 60 -60 65 -60 4 0 43 -57 86 -126 123 -195
250 -369 430 -586 52 -62 90 -113 87 -113 -4 0 1 -9 11 -20 10 -11 22 -17 26
-14 5 3 9 1 9 -4 0 -24 404 -408 565 -538 134 -108 185 -144 179 -130 -3 9
-10 16 -14 16 -10 0 -181 172 -176 177 1 2 41 -14 87 -35 46 -22 109 -49 139
-61 40 -16 88 -52 170 -128 63 -57 167 -146 230 -198 63 -51 140 -119 170
-152 30 -32 80 -75 110 -94 85 -56 308 -171 319 -165 5 3 12 -1 15 -10 3 -8
11 -12 17 -9 5 4 18 1 27 -7 26 -21 262 -130 397 -183 65 -25 124 -49 130 -52
5 -2 -7 12 -28 32 -24 22 -32 35 -20 32 10 -3 38 -11 63 -17 25 -7 56 -22 70
-34 43 -37 89 -66 105 -66 8 0 15 -4 15 -10 0 -18 502 -161 516 -147 2 2 -45
18 -103 36 -98 30 -111 37 -162 88 -35 34 -49 52 -36 49 11 -3 79 -14 150 -26
119 -19 132 -23 150 -48 11 -15 34 -41 51 -58 18 -18 31 -40 31 -49 -2 -20 72
-43 208 -65 39 -6 100 -18 138 -26 37 -8 80 -14 95 -13 15 1 47 -2 72 -6 63
-11 47 0 -29 19 -117 30 -143 46 -174 110 -16 32 -26 60 -23 63 3 3 44 2 92
-3 l87 -9 54 -85 c29 -47 51 -91 48 -97 -2 -7 -1 -12 3 -11 4 1 36 -4 72 -10
85 -17 390 -39 421 -31 23 5 23 6 -8 13 -60 14 -106 58 -132 125 -13 34 -21
65 -17 68 3 3 98 2 212 -3 l208 -9 11 -52 c13 -57 31 -89 72 -128 28 -25 29
-25 203 -25 205 0 320 9 296 22 -9 5 -16 20 -16 34 0 14 -12 55 -26 90 -14 36
-24 67 -22 68 1 2 83 6 180 10 l178 7 -20 -51 c-29 -72 -69 -129 -97 -136 -33
-9 -9 -24 27 -19 14 3 110 16 215 31 104 14 194 28 198 31 5 3 6 25 2 49 -3
25 -1 60 6 83 11 37 15 41 53 45 23 2 119 14 214 26 95 12 175 20 178 18 2 -3
-22 -30 -54 -62 -51 -50 -67 -60 -150 -86 -51 -17 -99 -30 -107 -30 -8 0 -15
-4 -15 -9 0 -6 13 -6 33 0 17 5 50 11 72 14 57 7 84 13 225 46 206 49 239 64
289 133 38 51 43 54 104 66 46 8 71 9 84 1 11 -5 29 -7 41 -4 47 12 19 -17
-35 -36 -86 -32 -106 -42 -63 -35 47 8 371 123 390 138 27 22 154 82 200 95
89 25 137 45 270 112 179 90 215 120 316 265 29 42 75 100 103 129 27 30 74
87 104 127 l54 74 182 61 c99 33 181 57 181 53 0 -4 -7 -14 -17 -21 -9 -8 -41
-45 -71 -84 -78 -99 -142 -164 -180 -182 -18 -9 -54 -34 -80 -57 -26 -23 -89
-68 -140 -101 -51 -32 -90 -60 -88 -63 16 -16 437 260 523 342 51 50 73 64 88
60 13 -3 16 -2 7 4 -13 9 -6 17 43 52 15 11 14 8 -4 -13 -38 -42 -17 -32 68
32 182 139 411 341 411 364 0 4 9 17 19 29 11 11 39 58 63 104 24 47 67 115
97 152 160 201 289 383 405 571 l74 122 93 56 c112 67 190 123 241 171 21 20
40 34 42 31 3 -2 -13 -31 -35 -63 -22 -32 -38 -60 -36 -62 5 -5 128 185 212
326 37 63 85 142 106 175 55 88 238 467 237 490 -3 30 99 289 145 370 38 68
81 178 117 300 10 33 34 112 53 175 35 117 54 200 43 189 -3 -3 -19 -30 -36
-60 -16 -30 -30 -49 -30 -44 0 6 13 76 29 155 42 203 68 382 104 705 2 18 4
18 17 -5 8 -14 22 -54 31 -90 15 -56 17 -60 18 -30 1 19 6 53 11 75 9 41 33
280 45 457 6 89 5 98 -14 117 -12 12 -28 21 -36 21 -19 0 -19 10 -1 35 19 29
56 132 56 158 -1 12 -12 -12 -26 -53 -28 -84 -53 -123 -71 -112 -16 10 -21
218 -5 234 9 9 12 5 12 -19 0 -82 29 -130 31 -50 1 34 2 37 8 17 6 -22 8 -23
14 -7 4 10 10 43 13 73 4 31 11 51 17 47 14 -8 5 421 -10 438 -5 8 -13 36 -17
63 -8 67 -30 100 -56 86 -11 -6 -28 -10 -38 -8 -15 3 -17 -7 -20 -70 -2 -43
-7 -70 -12 -67 -6 4 -10 17 -10 31 0 14 -10 86 -22 161 -20 124 -20 136 -5
144 21 12 44 36 49 50 7 22 76 -17 92 -53 8 -18 15 -26 15 -18 1 33 -80 515
-93 558 -3 9 -27 30 -52 46 -40 25 -45 32 -40 55 13 56 19 188 9 194 -6 4 -8
-11 -6 -41 3 -26 0 -65 -5 -87 -9 -39 -9 -39 -19 -15 -24 56 -93 249 -109 303
-10 31 -21 57 -25 57 -10 0 15 -123 46 -225 19 -60 26 -101 22 -127 -6 -48
-10 -52 -40 -44 -20 5 -30 27 -76 163 -29 87 -77 221 -107 299 -30 78 -54 144
-54 148 0 13 38 5 61 -13 14 -10 41 -26 61 -34 27 -11 53 -39 100 -103 35 -49
72 -98 84 -110 11 -12 27 -42 34 -68 7 -25 16 -46 20 -46 15 0 -148 515 -167
529 -5 3 -29 56 -53 116 -24 61 -70 168 -102 240 -32 71 -58 135 -58 143 0 15
-124 265 -182 367 -123 214 -161 274 -171 268 -6 -3 -7 -1 -3 5 11 18 -4 37
-16 21 -7 -11 -8 -9 -4 5 7 21 -115 216 -136 216 -6 0 -3 -9 9 -22 10 -13 35
-48 55 -78 45 -71 50 -80 45 -80 -2 0 -23 27 -46 60 -23 33 -47 65 -54 72 -7
7 -39 49 -72 93 -157 212 -339 425 -543 635 -102 104 -156 168 -167 195 -17
46 -83 136 -105 143 -8 3 1 -13 20 -35 42 -49 85 -123 71 -123 -7 0 -45 44
-98 115 -27 35 -114 137 -150 174 -24 24 -43 48 -43 53 0 4 -5 8 -11 8 -12 0
-69 58 -69 70 0 7 -213 178 -301 242 -70 51 -41 12 39 -50 80 -63 204 -193
282 -296 13 -18 13 -19 0 -11 -8 5 -35 25 -60 45 -89 73 -352 260 -487 345
-172 109 -214 147 -333 299 -16 21 113 -54 279 -161 62 -41 115 -72 117 -70 5
5 -262 179 -381 247 -60 35 -114 69 -120 75 -20 23 -343 190 -352 182 -2 -3 8
-12 24 -21 15 -8 23 -15 17 -16 -5 0 -30 13 -55 28 -24 15 -60 36 -79 45 -19
10 -46 26 -60 37 -25 20 -420 183 -427 177 -1 -2 22 -21 52 -42 30 -20 55 -39
55 -41 0 -1 -31 8 -68 20 -71 25 -151 73 -152 92 0 15 -54 34 -403 140 -27 8
-57 12 -68 9 -11 -4 -62 1 -114 10 -71 13 -92 20 -88 31 3 8 -1 16 -8 18 -53
17 -377 78 -429 82 -19 1 -93 11 -165 23 -121 19 -331 41 -400 41 l-30 0 30
-19 c17 -10 38 -27 47 -37 21 -24 73 -143 65 -150 -3 -3 -98 -2 -213 3 l-208
8 -11 52 c-13 58 -36 98 -74 130 -25 21 -34 22 -211 21 -102 -1 -212 -4 -245
-8z m1430 -86 c47 -10 66 -21 87 -46 27 -32 73 -136 64 -145 -2 -2 -40 1 -84
8 l-80 12 -44 61 c-41 59 -47 68 -76 115 -13 21 -12 21 30 15 24 -4 70 -12
103 -20z m-2082 -34 c3 -11 1 -34 -4 -52 -24 -94 -36 -129 -44 -137 -6 -4 -50
-16 -100 -25 -49 -10 -161 -35 -249 -57 -87 -21 -160 -39 -162 -39 -10 0 68
111 108 155 53 58 123 91 309 144 125 36 135 37 142 11z m-283 -39 c-8 -5 -26
-11 -40 -15 -21 -5 -20 -3 5 9 32 15 60 20 35 6z m3107 -109 c16 -11 36 -28
43 -37 12 -14 11 -16 -11 -10 -13 3 -67 14 -119 24 -66 13 -112 29 -152 52
-32 19 -57 37 -58 40 -1 13 269 -49 297 -69z m-1214 39 c4 -4 -22 -43 -57 -87
-82 -99 -85 -121 -23 -200 23 -31 70 -75 104 -100 42 -30 63 -53 68 -71 8 -37
23 -56 64 -81 18 -11 29 -22 24 -25 -11 -7 -194 -25 -334 -33 l-117 -7 -11 54
c-6 30 -29 117 -51 194 -40 142 -80 320 -80 358 0 20 3 20 203 13 111 -4 206
-11 210 -15z m1124 13 c-3 -3 -12 -4 -19 -1 -8 3 -5 6 6 6 11 1 17 -2 13 -5z
m-2002 -63 c76 -150 109 -276 121 -454 l7 -108 -24 5 c-13 3 -82 8 -154 11
-143 7 -299 22 -426 41 l-36 5 33 67 c36 71 39 93 32 235 -5 79 7 185 22 201
9 9 274 43 352 45 47 1 48 1 73 -48z m1925 -31 c28 -27 50 -53 50 -59 0 -6
-16 -5 -42 3 -38 10 -45 17 -60 59 -10 28 -13 47 -7 47 5 0 32 -22 59 -50z
m-451 16 c42 -10 45 -14 67 -71 12 -33 50 -112 83 -177 l62 -116 -63 -20 c-76
-25 -199 -57 -250 -66 l-37 -7 6 38 c11 65 32 102 73 128 41 26 44 31 40 75
-3 35 -56 158 -85 197 -14 17 -25 34 -25 36 0 7 74 -3 129 -17z m604 -26 c73
-16 101 -27 112 -43 15 -21 14 -22 -27 -35 -33 -9 -56 -10 -96 -1 -54 11 -60
15 -109 77 l-26 33 24 -5 c13 -3 68 -15 122 -26z m-3563 14 c0 -3 -6 -12 -14
-20 -8 -7 -23 -25 -34 -38 -10 -14 -32 -27 -48 -30 l-29 -6 28 11 c40 16 33
25 -20 25 -74 -1 -63 19 24 42 91 23 93 24 93 16z m705 -71 c-11 -76 -23 -87
-136 -124 -58 -19 -127 -50 -160 -72 l-57 -39 -54 34 c-51 34 -118 100 -118
118 0 5 26 16 58 25 71 22 431 104 455 104 16 1 17 -5 12 -46z m2765 -40 c0
-30 -21 -72 -49 -97 -20 -18 -20 -18 -25 5 -3 13 -7 49 -9 80 l-5 56 44 -10
c37 -9 44 -14 44 -34z m76 6 c24 -6 44 -15 44 -20 0 -13 -45 -29 -81 -29 -26
0 -29 3 -29 30 0 34 3 35 66 19z m-3636 -5 c0 -4 -10 -23 -22 -43 -13 -19 -28
-45 -33 -56 -7 -14 -51 -35 -137 -66 -69 -25 -145 -53 -167 -62 -23 -9 -41
-15 -41 -13 0 9 73 132 86 146 8 8 79 34 157 57 154 45 157 46 157 37z m-180
-29 c-41 -13 -76 -23 -78 -21 -11 12 69 44 108 44 45 0 45 0 -30 -23z m4391
-26 c46 -15 78 -35 114 -69 50 -47 116 -90 138 -90 7 0 28 -14 47 -30 19 -16
38 -30 43 -30 4 0 7 -4 7 -9 0 -5 -54 13 -119 39 -66 27 -128 51 -139 54 -22
7 -181 156 -166 156 6 0 39 -10 75 -21z m-3917 -46 l34 -38 -46 -17 c-65 -25
-72 -24 -62 10 9 31 32 82 36 82 2 0 19 -17 38 -37z m3312 16 c40 -18 59 -21
118 -15 67 6 72 5 115 -25 48 -32 98 -88 70 -77 -8 3 -92 32 -187 64 -94 33
-172 62 -172 67 0 10 2 10 56 -14z m-4203 -27 c-88 -68 -298 -190 -310 -179
-6 6 97 94 133 114 43 23 177 82 189 82 6 0 0 -7 -12 -17z m4297 -33 c212 -74
230 -81 230 -83 0 -1 18 -55 40 -120 22 -65 40 -119 40 -120 0 -1 -105 50
-234 114 l-235 115 -21 54 c-19 51 -19 55 -4 72 10 11 22 19 28 19 6 0 76 -23
156 -51z m-3780 -9 c0 -23 -83 -98 -164 -150 -48 -30 -126 -89 -174 -131 -52
-45 -130 -99 -192 -134 -123 -67 -201 -114 -375 -225 -70 -44 -130 -80 -134
-80 -10 0 -61 54 -61 64 0 15 94 168 106 173 6 2 24 -7 39 -21 15 -14 36 -28
47 -32 45 -14 93 21 68 51 -14 16 -60 104 -60 114 0 8 18 17 169 88 88 41 93
42 77 19 -23 -36 -21 -55 7 -49 30 8 44 20 87 78 25 33 52 56 79 67 45 18 47
16 26 -22 -8 -14 -14 -33 -15 -42 -1 -46 73 5 111 76 22 43 30 48 114 81 98
38 225 83 238 84 4 1 7 -4 7 -9z m465 -21 c20 -12 34 -26 33 -31 -4 -10 -115
-71 -168 -93 -34 -14 -39 -45 -8 -45 53 -1 49 -17 -12 -49 -34 -18 -63 -31
-65 -29 -2 2 3 26 11 53 9 28 19 77 23 110 l6 59 55 22 c70 28 81 28 125 3z
m-869 -34 c-14 -56 -27 -75 -66 -95 -22 -11 -40 -16 -40 -11 0 5 4 12 9 15 5
3 25 31 46 61 38 58 61 72 51 30z m4979 -70 c77 -31 105 -50 105 -73 0 -27 71
-157 96 -175 14 -10 40 -21 59 -24 32 -5 35 -3 36 18 2 42 -3 63 -22 101 -11
21 -16 38 -12 38 5 -1 49 -22 98 -48 l90 -47 -2 -45 c-2 -27 6 -68 18 -102 34
-93 28 -93 -116 -10 -71 41 -204 112 -295 158 -107 54 -180 98 -207 124 -101
98 -2 71 131 -36 73 -58 116 -79 116 -55 0 14 -136 132 -205 178 -34 23 -67
48 -75 57 -14 18 9 10 185 -59z m-5170 57 c-6 -5 -22 -18 -37 -29 -15 -11 -66
-56 -113 -98 -80 -73 -102 -104 -72 -105 6 -1 -10 -12 -36 -26 -54 -28 -73
-26 -86 8 -10 26 18 81 64 130 30 32 58 39 30 8 -30 -33 -3 -23 70 26 82 55
220 121 180 86z m76 -10 c-5 -9 -19 -26 -31 -37 -11 -10 -31 -37 -43 -58 -21
-38 -52 -59 -157 -103 -34 -15 -2 18 175 179 43 40 72 49 56 19z m5355 -39
c33 -14 68 -36 80 -47 24 -24 94 -127 94 -138 0 -4 -46 15 -102 42 -79 39
-108 58 -126 86 -21 32 -21 35 -5 34 44 -5 48 1 18 25 -38 32 -31 31 41 -2z
m-1473 -30 c9 -25 16 -47 14 -49 -5 -5 -107 57 -107 65 0 7 44 25 70 30 3 1
13 -20 23 -46z m506 -75 c216 -109 225 -115 248 -158 14 -25 32 -51 41 -57 25
-20 52 -16 52 7 0 11 3 20 6 20 5 0 90 -50 159 -93 241 -151 477 -315 470
-327 -8 -12 -228 -103 -338 -139 l-98 -33 -112 104 c-62 57 -150 136 -197 175
-47 39 -158 148 -247 241 -150 157 -165 176 -192 244 -38 97 -45 128 -29 128
7 0 114 -51 237 -112z m-3269 87 c0 -19 -58 -153 -91 -208 -23 -38 -57 -101
-76 -140 -29 -62 -56 -93 -182 -217 -81 -80 -197 -198 -258 -264 l-109 -118
-142 36 c-79 20 -199 54 -268 77 l-126 41 33 29 c40 34 308 242 326 253 9 5
12 -7 10 -46 -2 -52 -2 -53 29 -56 43 -4 64 24 90 124 12 47 24 87 26 88 8 6
94 63 106 70 11 6 13 -13 11 -99 -1 -82 2 -109 12 -116 23 -14 38 -10 63 14
20 20 25 38 31 118 4 52 8 109 10 128 1 18 10 40 19 49 15 16 18 15 41 -13 14
-17 30 -48 36 -70 25 -91 40 -102 87 -69 33 23 30 68 -13 219 -5 17 6 28 70
64 109 62 265 124 265 106z m2702 -37 c29 -17 61 -38 71 -46 21 -19 22 -70 1
-137 -16 -52 -19 -116 -9 -198 3 -26 3 -51 0 -56 -2 -5 -68 55 -145 133 -76
77 -166 164 -199 191 -65 55 -73 71 -38 84 28 11 226 59 249 60 10 1 41 -13
70 -31z m904 -25 c9 -21 39 -86 69 -145 29 -60 50 -108 48 -108 -3 0 -29 14
-59 30 -48 28 -54 35 -70 88 -18 64 -33 159 -26 167 13 12 24 2 38 -32z m183
-71 c42 -43 101 -107 132 -141 37 -42 62 -62 74 -60 39 8 32 21 -73 149 l-34
40 49 -23 c84 -39 314 -162 427 -228 87 -51 112 -70 119 -94 9 -27 7 -32 -40
-75 -27 -25 -78 -62 -112 -83 l-63 -37 -101 74 c-56 40 -155 108 -219 151 -81
54 -118 84 -118 97 0 20 -36 101 -101 231 -21 43 -34 77 -27 77 6 0 46 -35 87
-78z m-5455 27 c-10 -11 -28 -25 -39 -31 -12 -5 -7 3 13 21 37 35 55 42 26 10z
m2298 2 c5 -4 -18 -38 -49 -75 l-57 -69 -12 34 c-9 27 -8 44 2 79 8 25 14 46
14 48 0 6 95 -10 102 -17z m1538 1 c0 -5 -13 -62 -30 -128 -16 -65 -30 -127
-30 -136 0 -10 -4 -18 -10 -18 -5 0 -10 4 -10 8 0 5 -31 61 -70 126 -38 65
-67 122 -64 127 3 5 26 9 52 10 38 1 96 7 155 18 4 0 7 -3 7 -7z m-1275 -23
c88 -7 161 -13 163 -15 7 -4 -111 -340 -125 -356 -8 -9 -47 -33 -86 -54 -40
-20 -90 -49 -112 -64 -22 -14 -69 -43 -105 -62 -85 -48 -123 -87 -118 -124 3
-26 7 -29 43 -32 34 -2 56 7 139 58 94 56 182 98 190 89 3 -2 -5 -38 -16 -79
-21 -81 -61 -141 -167 -255 -31 -33 -63 -71 -72 -84 l-15 -24 -140 12 c-223
19 -469 43 -472 47 -11 8 206 358 342 553 l100 143 19 -56 c22 -67 47 -85 84
-61 23 15 24 21 20 73 -2 31 -11 78 -20 104 l-16 48 66 81 c65 78 68 81 102
76 20 -3 108 -11 196 -18z m1671 -183 l197 -194 -7 -39 c-4 -21 -9 -83 -13
-138 -5 -91 -4 -102 15 -125 17 -20 24 -23 39 -14 14 9 21 33 29 103 11 87 18
111 29 100 2 -3 5 -82 5 -175 2 -174 8 -206 42 -228 35 -21 47 10 53 139 3 65
8 121 11 124 9 9 33 -35 43 -79 20 -85 28 -186 17 -197 -12 -13 -570 -78 -585
-68 -5 2 -28 51 -51 107 -24 57 -83 186 -132 287 -48 101 -88 188 -88 193 0 4
6 8 14 8 21 0 54 47 67 94 6 22 26 73 44 113 18 40 39 97 46 128 7 30 16 55
20 55 5 0 97 -87 205 -194z m-603 127 c90 -148 137 -237 137 -263 0 -19 9 -35
25 -48 35 -28 306 -594 291 -609 -9 -9 -340 -32 -557 -39 l-236 -7 -6 44 c-4
24 -12 98 -18 164 l-11 120 38 63 c44 74 48 72 69 -45 26 -141 39 -171 93
-208 42 -28 116 -34 147 -12 23 18 20 31 -44 182 -46 109 -50 127 -51 197 0
69 -14 145 -62 326 -6 24 -31 67 -54 96 -65 78 -61 85 44 89 48 1 103 4 123 5
34 2 38 -2 72 -55z m-809 39 c3 -5 -8 -27 -23 -48 -16 -21 -44 -73 -62 -114
-31 -71 -88 -164 -96 -156 -3 3 70 229 98 304 7 17 16 22 43 22 19 0 37 -4 40
-8z m-2902 -72 c-20 -27 -38 -48 -39 -46 -7 7 17 56 37 76 38 38 39 20 2 -30z
m-51 -26 c-9 -25 -37 -70 -62 -99 -25 -29 -56 -69 -68 -88 -16 -26 -76 -72
-209 -160 -216 -143 -417 -291 -587 -434 -126 -105 -143 -121 -212 -186 -24
-23 -45 -38 -49 -35 -10 11 108 247 127 253 10 4 42 33 71 67 29 33 68 74 87
92 18 17 59 55 90 84 99 94 261 224 261 208 0 -3 -16 -22 -36 -43 -45 -48 -89
-112 -81 -119 16 -16 113 72 243 223 52 59 117 103 339 227 55 31 100 56 101
56 1 0 -6 -21 -15 -46z m920 19 c-5 -10 -21 -29 -36 -43 -33 -30 -63 -77 -121
-186 -46 -85 -54 -118 -30 -127 28 -11 82 41 131 124 49 86 143 197 112 134
-8 -16 -23 -58 -32 -93 l-18 -63 -161 -124 c-89 -69 -177 -139 -197 -156 l-36
-30 -93 40 c-92 40 -245 125 -255 142 -9 13 292 204 462 294 l88 46 -53 -48
c-53 -49 -63 -69 -38 -79 23 -9 84 29 181 110 91 77 113 90 96 59z m259 -59
c0 -18 -13 -32 -52 -58 -29 -19 -55 -32 -56 -31 -2 2 9 27 24 55 38 70 84 89
84 34z m1001 9 c6 -16 22 -40 36 -55 l25 -26 -95 -134 c-97 -136 -250 -377
-322 -507 l-40 -72 -55 6 c-137 15 -607 99 -619 110 -5 6 16 31 121 140 42 44
85 91 96 105 11 14 72 74 134 132 l115 107 -13 -51 c-15 -58 -7 -78 32 -78 28
0 55 34 114 143 23 43 44 76 47 73 3 -2 -16 -51 -42 -108 -26 -57 -53 -122
-61 -145 -11 -37 -11 -43 5 -57 37 -34 73 -14 118 64 11 19 47 87 79 150 65
130 102 190 116 190 6 0 8 -12 4 -27 -4 -16 -11 -59 -15 -98 -5 -38 -14 -107
-21 -153 -12 -74 -11 -85 3 -99 10 -11 24 -13 42 -9 40 10 79 106 109 267 17
96 29 137 42 146 26 19 33 16 45 -14z m-2471 -77 c0 -3 -4 -8 -10 -11 -5 -3
-10 -1 -10 4 0 6 5 11 10 11 6 0 10 -2 10 -4z m5401 -186 c76 -71 148 -113
169 -100 13 8 13 13 1 31 -10 18 -4 15 29 -11 60 -48 281 -252 277 -256 -10
-10 -498 -124 -531 -124 -7 0 -11 34 -11 97 0 54 -3 127 -7 163 -13 113 -13
260 1 260 4 0 37 -27 72 -60z m1727 -17 c148 -97 306 -211 449 -325 127 -101
147 -132 118 -188 -9 -17 -19 -72 -23 -123 l-8 -92 -20 34 c-32 57 -232 282
-333 375 -90 83 -135 136 -117 136 10 0 140 -91 206 -145 87 -71 129 -99 137
-91 15 15 -59 89 -177 176 -18 14 -38 30 -44 35 -6 6 -31 26 -56 45 -25 19
-50 39 -56 45 -6 5 -36 30 -65 55 -58 48 -146 140 -135 140 4 0 59 -34 124
-77z m-7018 37 c0 -5 -4 -10 -9 -10 -8 0 -101 -132 -101 -144 0 -4 -11 -24
-24 -45 -28 -43 -22 -68 9 -43 12 10 37 44 57 77 61 99 94 131 45 44 -77 -138
-122 -238 -111 -249 19 -19 54 21 100 113 50 99 124 220 130 214 3 -2 -11 -36
-29 -75 -19 -39 -45 -104 -58 -143 -20 -59 -31 -78 -68 -108 -291 -238 -490
-420 -700 -638 l-159 -165 -79 79 c-53 52 -90 99 -112 143 l-33 65 114 108
c138 132 360 320 528 447 128 97 479 339 493 340 4 0 7 -4 7 -10z m6496 -52
c4 -18 8 -73 8 -123 l1 -90 46 -23 c37 -18 51 -21 72 -13 36 14 42 47 22 119
-29 101 -17 100 75 -9 92 -109 171 -220 300 -424 138 -216 229 -323 254 -298
16 16 1 56 -51 133 -31 47 -83 130 -116 184 -33 55 -79 129 -103 164 -24 36
-42 67 -40 69 11 11 52 -29 104 -101 31 -43 72 -97 90 -120 18 -22 71 -93 119
-156 104 -139 142 -180 164 -180 46 0 22 49 -110 227 -25 33 -70 94 -98 135
-29 40 -67 90 -84 111 -17 20 -28 37 -25 37 15 0 249 -205 304 -268 35 -39 77
-75 94 -81 21 -7 28 -15 25 -26 -10 -23 42 -78 69 -72 39 7 107 -74 128 -152
16 -61 16 -64 -1 -83 -30 -34 -169 -135 -238 -173 l-65 -37 -27 33 c-89 107
-296 332 -408 444 -200 201 -383 361 -705 618 -33 26 -34 28 -16 40 10 6 44
29 76 50 31 20 70 51 85 67 16 17 32 30 36 30 4 0 11 -15 15 -32z m-6340 -77
c-30 -80 -62 -138 -72 -128 -4 3 76 193 90 215 19 31 13 0 -18 -87z m147 71
l27 -28 -60 -42 c-33 -22 -60 -39 -60 -36 0 2 11 27 25 56 14 28 25 58 25 65
0 20 14 16 43 -15z m4547 -7 c0 -8 -4 -15 -10 -15 -5 0 -7 7 -4 15 4 8 8 15
10 15 2 0 4 -7 4 -15z m-4337 -129 c56 -29 122 -60 146 -70 l44 -17 -39 -32
c-80 -65 -304 -280 -458 -438 -171 -176 -325 -352 -475 -544 -52 -66 -100
-126 -107 -134 -11 -12 -25 -9 -92 18 -108 44 -276 129 -362 185 l-72 47 90
97 c170 183 402 402 627 591 109 91 155 125 141 102 -4 -6 0 -14 9 -17 21 -8
54 22 72 68 16 41 63 80 63 53 0 -38 44 -8 74 52 10 19 48 55 94 87 l77 54 33
-25 c18 -14 79 -49 135 -77z m4467 1 c0 -62 -1 -62 -18 -39 -17 22 -19 60 -6
100 10 32 24 -4 24 -61z m-1999 42 c10 -19 4 -28 -56 -86 -37 -35 -69 -62 -72
-60 -2 3 5 37 16 75 18 59 26 72 49 80 41 15 50 14 63 -9z m2119 -3 c0 -3 9
-51 19 -108 23 -117 35 -208 28 -208 -20 0 -39 66 -52 173 -18 147 -18 147 -5
147 6 0 10 -2 10 -4z m1213 -83 c213 -161 490 -405 692 -608 149 -150 408
-438 413 -459 5 -21 -296 -148 -526 -221 l-103 -33 -51 77 c-218 324 -500 670
-779 956 l-159 163 112 37 c62 21 160 59 218 85 58 26 109 48 113 49 5 1 36
-20 70 -46z m-5483 -88 c58 -20 175 -54 260 -76 85 -23 156 -42 158 -44 2 -2
-39 -54 -90 -117 -259 -315 -459 -601 -673 -960 -48 -82 -93 -148 -99 -148
-49 0 -548 142 -687 195 l-70 27 28 37 c61 82 184 234 292 361 177 208 736
760 770 760 3 0 53 -16 111 -35z m2279 16 c21 -14 8 -49 -59 -150 -33 -50 -69
-109 -81 -132 l-21 -42 -60 7 c-34 3 -74 6 -89 6 -16 0 -29 5 -29 12 0 16 296
308 312 308 7 0 19 -4 27 -9z m4050 -87 l86 -87 -80 61 c-45 34 -92 73 -105
87 -20 22 -21 25 -6 25 10 0 57 -39 105 -86z m-3582 -141 l8 -91 -29 -6 c-33
-7 -146 -8 -146 -2 0 19 67 173 102 234 l43 75 7 -59 c4 -32 11 -100 15 -151z
m2381 -8 c94 -97 226 -242 295 -323 221 -262 526 -677 510 -693 -25 -25 -843
-212 -858 -197 -2 2 -23 46 -48 98 -114 247 -341 642 -536 935 -143 215 -137
205 -120 205 6 0 17 6 23 13 6 7 72 25 146 40 74 15 191 42 260 61 69 19 132
34 141 35 9 1 94 -78 187 -174z m-2668 88 c0 -25 -49 -165 -62 -178 -3 -3 -24
-3 -46 1 l-41 6 44 87 c39 78 65 107 98 110 4 1 7 -11 7 -26z m-1935 -8 c101
-22 459 -83 533 -91 34 -4 61 -10 60 -14 -2 -3 -65 -130 -140 -281 -159 -319
-238 -498 -365 -829 -30 -80 -59 -149 -63 -154 -5 -5 -47 -3 -97 3 -83 11
-128 18 -368 57 -110 17 -497 92 -501 97 -11 11 297 497 455 717 154 216 391
510 410 510 4 0 38 -7 76 -15z m3779 -12 c19 -23 19 -23 -6 -23 -22 0 -25 4
-20 25 2 14 5 25 6 23 1 -2 10 -13 20 -25z m-6140 -90 c-24 -43 -51 -104 -60
-136 -9 -32 -21 -60 -25 -63 -5 -3 -9 -18 -9 -33 0 -15 -9 -36 -20 -46 -18
-17 -20 -17 -26 -1 -11 29 3 128 25 179 19 44 133 177 152 177 4 0 -12 -35
-37 -77z m6253 -70 c190 -277 374 -589 539 -915 57 -114 104 -209 104 -211 0
-2 -21 -7 -47 -10 -27 -4 -93 -14 -148 -22 -189 -30 -348 -51 -704 -90 -74 -8
-136 -13 -138 -11 -2 1 -36 117 -77 257 -99 338 -262 817 -340 1000 l-15 37
82 7 c80 6 472 53 492 59 6 1 15 -11 20 -28 18 -55 85 -44 85 14 0 28 10 38
42 39 11 1 48 -44 105 -126z m-3012 42 c83 -8 188 -18 235 -21 114 -8 116 -8
91 -40 -27 -34 -26 -54 0 -88 34 -43 64 -32 129 46 30 36 56 65 57 64 2 -2
-13 -72 -31 -157 -55 -245 -143 -701 -191 -993 -13 -82 -27 -151 -30 -154 -11
-12 -544 31 -988 80 -108 12 -108 12 -102 36 10 42 170 440 240 597 72 163
246 518 296 604 l31 54 56 -7 c32 -4 125 -13 207 -21z m2207 -95 c144 -369
405 -1186 385 -1206 -13 -13 -856 -63 -1068 -64 l-65 0 -18 273 c-21 334 -60
878 -71 995 l-5 52 162 1 c90 0 249 7 353 14 105 7 214 12 244 11 l54 -1 29
-75z m-1503 44 c6 -6 -54 -127 -112 -223 -31 -52 -57 -104 -57 -116 0 -32 37
-75 65 -75 35 0 73 44 155 181 65 109 115 185 151 227 9 11 64 9 77 -3 8 -7
-46 -159 -90 -253 -59 -125 -68 -164 -43 -192 10 -11 31 -20 46 -20 56 0 147
141 243 380 l34 85 84 5 c45 3 86 3 90 0 11 -9 61 -663 83 -1095 3 -60 8 -134
12 -164 l6 -54 -534 7 c-294 4 -555 9 -581 12 -56 7 -57 10 -33 139 8 44 38
208 66 365 47 266 65 355 134 680 l27 125 87 -4 c47 -1 88 -5 90 -7z m5355
-509 c61 -71 151 -179 198 -240 90 -116 317 -438 313 -443 -2 -2 -19 14 -39
35 -35 37 -36 37 -26 9 13 -36 68 -111 110 -151 34 -32 65 -83 56 -92 -3 -3
-17 2 -31 11 -23 15 -25 15 -25 1 0 -9 13 -35 28 -58 27 -40 28 -44 17 -88
-14 -52 -65 -151 -80 -156 -5 -1 -28 30 -50 69 -149 265 -430 658 -667 933
-69 81 -108 136 -131 187 -48 105 -83 206 -74 214 13 13 60 -61 151 -238 49
-95 87 -140 103 -124 7 7 -68 163 -122 252 -25 40 -45 76 -45 79 0 3 15 -11
33 -32 17 -21 38 -44 45 -52 7 -7 34 -45 59 -85 26 -39 51 -74 57 -78 15 -10
26 -10 26 0 0 11 -109 174 -182 272 -30 41 -65 94 -76 117 -12 23 -26 44 -32
48 -5 3 -10 12 -9 18 0 16 253 -246 393 -408z m-599 342 c4 -28 12 -63 17 -77
8 -23 6 -22 -26 9 -40 39 -40 40 -25 94 13 49 25 40 34 -26z m-8811 -150 c21
-44 53 -85 112 -143 l83 -82 -21 -18 c-39 -35 -262 -308 -380 -464 -147 -197
-340 -490 -457 -694 -50 -88 -93 -161 -95 -164 -3 -2 -16 4 -29 14 l-24 19 38
51 c26 34 39 61 39 82 0 18 -4 32 -9 32 -5 0 -34 -26 -65 -57 l-57 -58 -49 54
c-49 53 -120 175 -120 204 0 41 296 481 479 712 151 190 500 576 520 574 3 0
19 -28 35 -62z m8941 13 c8 -36 -5 -63 -16 -34 -11 27 -11 76 0 69 5 -3 12
-19 16 -35z m37 -85 c10 -19 15 -35 12 -35 -10 0 -43 44 -44 58 0 23 15 12 32
-23z m5 -56 c20 -22 50 -68 67 -101 33 -66 61 -92 74 -70 18 28 387 -440 576
-730 89 -138 216 -348 216 -359 0 -4 -12 -21 -26 -38 -21 -25 -29 -29 -45 -21
-17 9 -19 7 -19 -16 0 -32 -26 -64 -52 -64 -10 0 -18 -7 -18 -15 0 -22 -271
-198 -284 -184 -2 2 -48 85 -101 183 -109 203 -248 431 -373 616 -78 115 -331
456 -402 541 l-30 36 80 47 c44 25 115 75 160 111 l80 64 16 -24 c30 -47 57
-27 43 33 -4 17 -5 32 -3 32 2 0 21 -18 41 -41z m-8491 -264 c63 -30 139 -65
169 -76 30 -11 55 -23 55 -26 0 -3 -33 -51 -73 -106 -243 -338 -498 -767 -683
-1151 -41 -86 -76 -156 -78 -156 -5 0 -76 29 -123 51 -24 10 -45 19 -48 19 -3
0 -61 27 -128 61 -155 77 -284 158 -290 181 -3 12 -11 16 -21 12 -9 -3 -16 -3
-16 0 0 25 198 358 333 561 169 253 445 612 574 746 l45 47 85 -54 c47 -30
137 -79 199 -109z m8227 -175 c182 -235 319 -435 464 -675 123 -202 280 -492
272 -500 -6 -5 -188 -95 -194 -95 -2 0 -28 -11 -57 -24 -147 -66 -517 -191
-530 -178 -3 4 -34 72 -68 152 -141 332 -371 770 -587 1117 -52 83 -96 155
-97 158 0 3 58 26 129 49 162 54 282 102 405 160 l95 44 28 -31 c16 -18 79
-97 140 -177z m-7434 -101 c108 -27 201 -51 208 -54 7 -2 -9 -40 -43 -102
-180 -322 -435 -887 -563 -1248 -18 -50 -36 -97 -41 -105 -7 -11 -35 -7 -162
24 -266 66 -715 202 -775 235 -24 13 258 556 448 861 94 152 245 378 321 481
l56 76 178 -60 c98 -32 266 -81 373 -108z m6706 -84 c131 -206 290 -490 417
-745 105 -212 248 -529 248 -549 0 -22 -668 -184 -950 -231 -36 -6 -75 -13
-88 -15 -27 -7 -24 -14 -97 220 -121 382 -268 767 -433 1130 l-59 130 211 42
c116 23 306 67 421 97 116 29 218 53 228 52 12 -1 48 -46 102 -131z m-6276
-15 c257 -51 541 -98 709 -115 59 -7 64 -9 59 -29 -3 -11 -40 -122 -82 -245
-102 -302 -201 -640 -282 -966 -37 -148 -68 -271 -69 -273 -4 -7 -466 61 -729
108 -122 21 -458 90 -462 94 -1 1 19 60 46 132 164 438 326 798 523 1167 80
149 93 168 112 163 11 -3 90 -19 175 -36z m5374 -210 c79 -178 201 -475 253
-618 135 -368 239 -692 226 -703 -14 -13 -569 -93 -932 -134 -19 -2 -87 -9
-150 -15 -63 -6 -132 -12 -152 -14 -36 -4 -38 -3 -44 32 -67 396 -168 874
-268 1273 l-52 206 201 22 c294 32 597 72 725 96 125 23 114 31 193 -145z
m-4388 60 c213 -24 451 -45 713 -61 l204 -13 -7 -30 c-8 -40 -42 -266 -49
-331 -4 -27 -8 -61 -11 -75 -15 -78 -80 -621 -111 -925 -9 -88 -18 -162 -20
-164 -8 -9 -862 57 -1079 84 -16 2 -82 9 -145 16 -63 6 -119 15 -123 19 -22
19 171 724 325 1190 95 287 104 310 121 310 6 0 89 -9 182 -20z m3259 -52 c45
-162 134 -533 187 -783 46 -214 139 -706 135 -712 -2 -3 -249 -23 -466 -38
-272 -18 -371 -22 -691 -31 l-247 -7 -6 189 c-7 209 -41 932 -55 1174 -5 85
-7 158 -5 161 2 4 106 10 231 13 221 7 848 43 868 51 26 9 43 3 49 -17z
m-1517 -38 l351 0 6 -82 c14 -200 66 -1331 66 -1420 l0 -38 -322 0 c-402 0
-1093 22 -1106 34 -4 5 4 85 39 391 35 301 69 578 84 675 8 52 17 118 20 145
3 28 12 86 20 130 7 44 16 102 20 129 l7 49 231 -6 c128 -4 390 -7 584 -7z
m5613 -93 c0 -5 -4 -5 -10 -2 -5 3 -10 14 -10 23 0 15 2 15 10 2 5 -8 10 -19
10 -23z m62 -146 c51 -47 139 -210 174 -321 9 -30 26 -73 36 -95 17 -36 19
-37 14 -10 l-5 30 14 -30 c7 -16 30 -68 50 -115 l36 -85 -38 43 c-35 40 -43
44 -98 49 -80 8 -106 22 -159 92 -26 33 -54 62 -64 65 -10 3 -30 30 -44 59
-15 28 -43 79 -62 112 l-35 61 31 49 c26 42 38 69 64 154 5 16 12 11 86 -58z
m-11085 -140 c14 -20 41 -52 60 -72 l34 -36 -31 -47 c-19 -28 -48 -55 -73 -68
-23 -11 -67 -42 -97 -68 -50 -43 -277 -177 -286 -168 -5 6 160 341 238 480
l71 128 29 -57 c16 -31 40 -73 55 -92z m10948 -113 c51 -98 49 -99 -38 -18
-27 25 -53 47 -58 48 -9 4 30 60 42 61 3 1 27 -41 54 -91z m-84 -59 c71 -61
105 -111 43 -62 -21 17 -59 40 -84 53 -25 12 -47 24 -49 26 -4 4 19 34 26 34
3 0 32 -23 64 -51z m-10682 -9 c20 -18 22 -22 10 -38 -8 -9 -20 -21 -27 -25
-7 -5 -38 -29 -68 -53 -30 -24 -54 -39 -54 -32 0 22 90 168 103 168 7 -1 23
-10 36 -20z m10581 -50 c24 -22 47 -40 52 -40 5 0 38 -23 73 -52 76 -60 89
-93 23 -54 -24 13 -62 27 -85 31 -22 3 -49 13 -60 20 -28 22 -43 18 -43 -12 0
-46 42 -87 137 -133 48 -23 94 -46 102 -49 8 -4 16 -12 18 -18 4 -12 -90 6
-139 25 -33 13 -40 5 -32 -37 7 -35 83 -91 167 -123 28 -11 64 -30 81 -43 69
-54 69 -54 62 -104 -3 -25 -9 -80 -12 -122 -10 -114 10 -168 33 -96 6 17 24
66 40 107 16 41 35 101 43 133 14 59 23 70 35 40 79 -200 199 -542 193 -549
-2 -1 -24 2 -50 8 -62 15 -82 0 -73 -51 9 -45 19 -58 69 -83 51 -25 106 -77
106 -99 0 -13 -13 -18 -59 -23 -82 -9 -96 -22 -93 -84 2 -49 0 -52 -41 -85
-57 -46 -148 -106 -228 -150 l-65 -37 -43 163 c-98 367 -276 855 -445 1214
-42 90 -76 166 -76 170 0 5 24 20 53 35 28 16 86 52 127 82 41 30 78 55 81 55
3 1 25 -17 49 -39z m-10436 -54 c82 -54 338 -180 464 -228 50 -19 62 -33 43
-53 -12 -14 -120 -274 -184 -445 -117 -309 -196 -561 -282 -902 -27 -104 -51
-188 -56 -188 -4 0 -65 25 -136 56 -70 30 -135 58 -145 61 -9 3 -19 20 -22 39
-8 41 -22 51 -45 30 -23 -21 -33 -20 -75 5 -21 12 -33 26 -29 32 3 7 31 50 61
96 65 101 82 139 82 185 0 95 -25 87 -110 -36 -118 -170 -142 -198 -159 -188
-43 25 -44 22 13 156 30 71 73 164 96 207 46 84 62 139 53 175 -9 38 -31 25
-71 -45 -42 -73 -176 -354 -187 -390 -3 -13 -11 -23 -16 -23 -5 0 -9 1 -9 3 0
28 193 643 206 656 2 2 7 -5 11 -15 4 -10 24 -46 45 -78 21 -33 38 -67 38 -78
0 -32 28 -19 40 18 17 52 6 134 -30 227 -43 111 -39 136 13 77 29 -33 90 -53
145 -48 33 3 38 7 49 41 19 57 -1 99 -55 115 -25 8 -49 24 -63 43 -11 17 -20
31 -18 33 2 1 24 8 48 15 77 22 149 58 165 83 8 12 18 42 22 65 9 56 -9 63
-90 34 -108 -38 -116 -29 -62 77 28 56 45 75 101 115 42 30 70 59 77 77 5 17
12 30 15 30 3 0 29 -15 57 -34z m10130 -127 c10 -22 40 -87 66 -142 173 -368
321 -773 430 -1175 28 -100 50 -185 50 -188 0 -8 -193 -97 -345 -159 -133 -55
-524 -190 -529 -183 -2 1 -22 86 -45 188 -90 398 -228 857 -371 1228 -34 89
-61 164 -59 166 2 1 86 30 185 64 238 81 491 184 559 229 31 20 40 16 59 -28z
m-10410 -91 c-33 -66 -34 -67 -34 -35 0 21 42 87 56 87 2 0 -8 -24 -22 -52z
m982 -98 c161 -55 457 -140 649 -186 66 -15 121 -29 123 -30 2 -1 -23 -85 -56
-186 -140 -428 -250 -856 -333 -1298 -11 -63 -22 -116 -23 -117 -3 -3 -158 33
-321 76 -211 56 -418 118 -590 179 -161 57 -149 34 -109 202 79 333 207 732
349 1085 119 295 138 335 151 331 6 -2 78 -27 160 -56z m8667 -235 c118 -306
242 -695 321 -1010 30 -122 96 -408 96 -419 0 -2 -10 -6 -22 -9 -13 -2 -115
-29 -228 -60 -263 -70 -504 -124 -765 -172 -77 -14 -149 -28 -161 -30 -19 -4
-22 2 -33 78 -38 259 -124 696 -196 990 -28 118 -122 469 -141 529 -4 13 8 18
68 28 227 37 766 161 928 214 25 8 52 13 60 13 9 -2 36 -59 73 -152z m-9954
31 c6 -7 18 -49 27 -92 8 -44 21 -98 29 -121 13 -40 12 -46 -46 -214 -33 -94
-78 -238 -100 -318 -49 -178 -48 -175 -54 -169 -6 5 49 223 90 357 34 113 33
181 -3 138 -13 -15 -55 -142 -108 -325 l-39 -134 -82 86 c-59 62 -93 108 -122
167 -23 45 -41 88 -41 97 0 44 73 243 110 299 45 70 102 129 134 139 11 4 34
16 50 27 33 23 128 77 137 77 4 0 12 -6 18 -14z m2249 -52 c170 -36 470 -88
677 -118 99 -15 204 -31 234 -36 30 -6 67 -10 83 -10 15 0 28 -1 28 -3 0 -2
-13 -64 -29 -138 -102 -466 -178 -918 -236 -1394 -9 -75 -11 -84 -17 -91 -7
-6 -222 23 -588 82 -129 20 -501 90 -630 117 l-105 23 3 34 c7 75 76 403 139
660 70 286 230 827 265 893 7 14 16 17 35 13 13 -4 77 -18 141 -32z m6595
-201 c71 -250 149 -568 196 -798 58 -283 125 -675 117 -683 -7 -7 -351 -62
-601 -96 -178 -24 -399 -50 -697 -80 l-127 -12 -5 40 c-2 23 -12 120 -21 216
-9 96 -23 227 -30 290 -8 63 -17 140 -20 170 -3 30 -8 66 -10 80 -2 14 -7 52
-10 85 -13 126 -99 700 -111 736 -4 14 12 18 113 28 271 27 577 64 788 96 94
14 204 30 245 36 41 6 77 13 79 15 2 2 16 4 31 4 26 0 29 -5 63 -127z m-5298
2 c125 -15 297 -32 400 -40 33 -2 114 -9 180 -14 66 -5 209 -15 319 -22 l198
-12 -6 -81 c-4 -45 -11 -130 -16 -191 -19 -217 -40 -461 -44 -530 -3 -38 -12
-173 -21 -300 -8 -126 -19 -296 -23 -377 -4 -81 -11 -151 -15 -154 -16 -16
-804 42 -1222 91 -66 7 -152 17 -191 20 -39 4 -77 10 -84 15 -14 8 -13 13 21
275 21 168 74 502 109 695 22 122 71 365 102 509 l32 143 70 -6 c39 -4 125
-13 191 -21z m3969 -60 c3 -12 10 -53 16 -91 5 -38 17 -114 25 -169 13 -82 62
-437 80 -575 17 -131 35 -293 46 -400 6 -69 17 -179 24 -245 7 -66 9 -123 6
-128 -24 -26 -1546 -102 -1561 -78 -4 7 -10 193 -13 414 -6 360 -21 966 -29
1152 l-3 70 275 7 c151 3 347 11 435 17 88 6 237 16 330 21 94 6 202 14 240
18 120 12 123 12 129 -13z m-7948 -105 c-16 -52 -24 -69 -29 -56 -12 32 -7 55
21 95 15 21 28 38 29 37 1 -1 -8 -35 -21 -76z m5509 60 c209 -5 522 -10 696
-10 l316 0 6 -122 c9 -171 27 -778 35 -1181 l7 -337 -445 0 c-245 0 -604 5
-797 12 l-353 12 0 61 c0 34 7 160 15 281 16 236 21 305 30 459 10 168 58 704
71 803 5 33 10 42 23 38 9 -3 187 -10 396 -16z m-5442 -367 c20 -27 63 -75 96
-108 46 -45 60 -64 55 -80 -18 -66 -54 -139 -101 -207 -29 -42 -53 -80 -53
-85 0 -4 -9 -22 -19 -39 -19 -31 -20 -31 -66 -21 -50 12 -105 63 -123 116 -9
28 30 246 82 451 37 147 34 143 66 78 16 -32 44 -79 63 -105z m12151 -179 c11
-27 6 -61 -9 -74 -8 -7 -15 -18 -15 -24 0 -7 -16 -36 -35 -66 -38 -60 -47
-130 -22 -164 13 -17 18 -13 60 52 26 38 47 77 47 85 0 22 17 30 24 11 11 -29
6 -158 -8 -205 -22 -70 -25 -174 -5 -167 14 5 59 135 59 173 1 49 16 9 30 -75
6 -41 13 -86 16 -100 22 -139 14 -181 -29 -142 -73 66 -102 48 -101 -61 1
-109 48 -186 114 -187 55 -1 59 -13 69 -201 5 -96 7 -176 5 -178 -2 -2 -29 18
-60 45 -38 34 -62 65 -77 101 -18 41 -33 59 -76 88 -34 22 -65 35 -86 35 -28
0 -42 10 -89 62 -72 79 -80 73 -74 -59 4 -113 21 -154 77 -184 69 -37 69 -35
-1 -158 -61 -109 -112 -181 -127 -181 -4 0 -12 91 -19 203 -21 348 -66 654
-163 1097 -10 45 -9 56 2 62 143 84 200 120 259 165 39 30 74 52 79 49 6 -4
101 5 142 13 4 0 10 -6 13 -15z m-11945 -88 c-9 -8 -10 -7 -5 7 3 10 7 26 7
35 1 9 4 6 6 -7 3 -13 -1 -28 -8 -35z m35 19 c-4 -8 -8 -15 -10 -15 -2 0 -4 7
-4 15 0 8 4 15 10 15 5 0 7 -7 4 -15z m101 -51 l25 -16 -22 -37 c-63 -104 -70
-114 -78 -102 -10 16 4 88 26 134 10 21 19 37 21 37 2 0 15 -7 28 -16z m205
-124 c0 -20 -213 -249 -232 -250 -14 0 -8 43 12 84 11 23 38 63 61 91 22 27
50 67 60 88 l20 38 39 -22 c22 -13 40 -25 40 -29z m11093 -17 c3 -16 18 -82
32 -148 59 -276 105 -592 130 -890 25 -299 28 -279 -60 -386 -73 -90 -145
-211 -145 -243 0 -26 -208 -111 -515 -211 l-160 -52 -7 176 c-12 332 -35 615
-73 901 -3 19 -7 55 -10 80 -6 48 -47 293 -66 398 -6 35 -10 64 -8 66 2 2 76
26 164 55 186 61 471 173 600 236 50 24 95 44 101 44 6 1 14 -11 17 -26z
m-10938 -51 c17 -8 77 -35 135 -58 63 -26 104 -48 102 -55 -27 -108 -95 -511
-117 -689 -34 -276 -44 -410 -51 -668 l-7 -243 -25 6 c-124 31 -580 265 -689
354 l-22 18 9 248 c5 136 11 249 14 253 4 3 20 -5 37 -17 23 -17 39 -22 62
-17 29 6 37 1 94 -59 37 -38 68 -63 74 -59 8 4 10 40 7 109 -6 123 -22 158
-90 195 -26 14 -50 29 -54 33 -12 11 148 266 191 305 95 86 225 262 247 334
12 42 20 43 83 10z m408 -162 c199 -69 436 -139 686 -201 l213 -53 -5 -41 c-3
-22 -17 -117 -31 -211 -51 -339 -83 -706 -95 -1087 -5 -153 -11 -281 -14 -283
-8 -8 -419 97 -630 160 -171 52 -426 138 -447 151 -29 18 9 663 60 1029 22
153 97 563 106 578 7 11 3 13 157 -42z m9638 -141 c19 -104 79 -471 84 -514 3
-27 10 -86 15 -130 21 -161 39 -405 45 -595 3 -107 8 -227 11 -267 l5 -72 -84
-25 c-232 -71 -928 -228 -1114 -252 l-53 -7 0 219 c0 346 -23 671 -82 1152
-16 139 -28 255 -25 258 2 3 56 14 118 25 283 50 838 178 1009 233 58 19 64
17 71 -25z m-8539 -154 c298 -62 706 -130 1056 -176 l94 -12 -7 -61 c-7 -66
-7 -64 -29 -301 -14 -146 -29 -351 -41 -560 -3 -44 -8 -223 -12 -398 l-6 -319
-56 6 c-91 11 -314 44 -576 86 -244 40 -736 137 -746 148 -7 7 4 381 16 582
13 230 78 800 106 944 18 91 19 96 28 96 5 0 83 -16 173 -35z m-2466 -76 c16
-5 68 -40 118 -77 77 -57 92 -74 113 -122 14 -30 33 -62 44 -70 18 -14 19 -24
13 -142 l-7 -126 -25 36 c-30 46 -39 52 -77 52 -17 0 -41 7 -53 16 -18 13 -22
25 -22 74 0 74 -15 117 -34 101 -11 -9 -15 -5 -20 20 -3 17 -6 42 -6 55 0 15
-6 24 -15 24 -9 0 -15 -9 -15 -25 0 -15 -5 -24 -12 -22 -8 1 -14 -11 -16 -30
-2 -18 -7 -33 -12 -33 -5 0 -11 -30 -13 -67 -2 -54 -3 -48 -5 33 -2 95 8 314
14 314 1 0 15 -5 30 -11z m9818 -234 c50 -399 74 -726 82 -1097 l7 -306 -29
-5 c-16 -3 -58 -10 -94 -16 -36 -6 -108 -17 -160 -25 -139 -23 -353 -53 -450
-65 -236 -29 -494 -57 -595 -66 -33 -3 -81 -8 -107 -11 l-48 -6 0 184 c-1 339
-31 996 -65 1390 l-6 66 28 6 c15 3 87 10 158 16 260 21 774 88 1110 143 114
20 131 20 137 7 4 -8 18 -105 32 -215z m-6024 100 c62 -8 163 -19 224 -25 61
-5 208 -19 326 -30 302 -28 621 -50 713 -50 63 0 79 -3 84 -17 4 -9 1 -136 -6
-282 -10 -207 -24 -816 -31 -1314 l0 -37 -112 5 c-161 9 -713 51 -903 70 -131
13 -288 30 -410 44 l-140 17 1 260 c1 315 26 772 59 1094 8 74 17 168 21 208
7 85 -5 81 174 57z m4554 -142 c29 -381 36 -500 45 -728 6 -143 13 -387 16
-542 l6 -281 -53 -6 c-238 -26 -877 -64 -1188 -71 -113 -3 -247 -7 -297 -10
l-93 -4 0 427 c0 235 -3 605 -7 823 l-6 397 209 6 c465 13 941 39 1224 65 153
15 136 24 144 -76z m-2234 8 l645 -6 5 -280 c3 -154 7 -525 8 -824 l2 -544
-662 7 c-365 4 -697 9 -738 12 -41 2 -117 7 -169 10 l-93 6 6 232 c3 127 8
366 11 531 6 328 22 765 31 834 l6 43 151 -7 c84 -4 442 -11 797 -14z m-5921
-435 c12 -13 36 -26 52 -30 23 -4 29 -11 29 -31 0 -18 -4 -24 -12 -19 -25 15
-108 89 -108 97 0 14 17 7 39 -17z m34 -72 c44 -39 59 -64 38 -64 -13 0 -61
-143 -68 -201 -5 -43 -12 -55 -44 -81 -22 -17 -39 -38 -39 -45 0 -16 -24 -11
-72 13 -39 20 -44 35 -58 170 -12 120 -10 178 5 119 13 -49 32 -64 73 -58 21
3 40 8 44 12 4 3 10 44 13 91 4 47 9 93 12 103 5 20 8 18 96 -59z m149 -108
c154 -100 424 -235 599 -300 l46 -18 7 -246 c3 -136 11 -290 16 -342 6 -52 13
-120 16 -150 18 -192 56 -430 105 -664 16 -77 27 -141 25 -143 -6 -6 -90 36
-135 69 -24 17 -76 43 -114 57 -86 32 -101 54 -30 45 26 -4 63 -13 82 -20 47
-19 51 -18 51 16 0 46 -56 92 -170 139 -77 32 -149 82 -156 108 -3 13 -1 37 6
55 6 18 14 71 17 118 4 68 2 89 -11 105 -12 15 -16 16 -16 5 0 -8 -14 -42 -30
-75 -17 -33 -30 -65 -30 -72 0 -7 -7 -27 -15 -45 -8 -18 -21 -59 -30 -90 -15
-57 -16 -58 -53 -58 -20 0 -44 6 -54 13 -18 14 -71 226 -108 427 -11 63 -23
124 -25 136 -4 20 -4 20 56 5 59 -15 61 -15 75 4 10 14 13 31 9 55 -9 46 -20
58 -66 71 -52 16 -109 65 -109 93 0 20 6 24 50 30 97 13 114 31 100 106 -8 45
-26 64 -50 54 -8 -4 -39 -8 -67 -10 l-53 -5 0 45 c0 45 15 80 66 155 26 39 32
106 13 142 -13 26 -28 15 -64 -48 -15 -24 -28 -43 -29 -41 -5 5 -16 328 -11
328 2 0 42 -24 87 -54z m11788 -18 c0 -32 -14 -56 -36 -67 -32 -14 -34 -14
-34 6 0 17 47 73 62 73 4 0 8 -6 8 -12z m-80 -78 c0 -5 -10 -15 -22 -21 -23
-12 -23 -12 -4 10 21 23 26 26 26 11z m-11806 -211 c-5 -17 -13 -30 -19 -30
-16 1 -18 130 -4 191 l13 55 10 -93 c5 -54 5 -105 0 -123z m11844 179 c-20
-28 -23 -30 -26 -14 -3 11 4 26 14 33 31 23 36 14 12 -19z m-38 -24 c0 -14
-11 -40 -24 -57 -13 -18 -31 -48 -41 -67 -10 -19 -49 -86 -88 -149 -62 -100
-71 -121 -74 -170 -4 -57 6 -89 25 -77 5 3 40 50 76 103 36 54 77 112 92 128
l26 30 -7 -109 c-6 -107 -8 -112 -61 -217 -42 -83 -54 -117 -54 -152 0 -72 22
-72 59 1 12 23 23 42 24 42 3 0 -21 -209 -26 -224 -5 -15 -64 78 -72 114 -9
40 -26 34 -43 -16 -17 -50 -10 -104 29 -222 18 -51 29 -96 25 -100 -4 -3 -20
8 -37 26 -32 34 -91 55 -142 50 -42 -4 -64 -45 -51 -97 7 -29 18 -40 52 -57
24 -11 55 -34 68 -51 l23 -30 -32 -6 c-55 -9 -164 -63 -182 -91 -9 -14 -19
-43 -22 -65 -7 -54 9 -59 91 -31 75 27 116 22 116 -13 0 -40 -30 -67 -116
-107 -215 -99 -704 -274 -704 -252 0 4 14 77 30 162 66 340 112 771 126 1182
l7 196 101 32 c133 42 388 133 486 174 l78 33 9 -30 c4 -17 14 -32 20 -34 6
-2 34 26 62 62 31 41 66 75 93 89 56 30 58 30 58 0z m508 -4 c12 0 -39 -411
-78 -625 -47 -262 -68 -336 -115 -407 -38 -57 -99 -118 -118 -118 -3 0 -41
-22 -84 -50 -43 -27 -82 -50 -86 -50 -14 0 -36 66 -48 142 -6 40 -19 93 -28
118 -13 32 -15 57 -10 85 4 22 13 89 20 149 11 101 16 119 67 220 30 61 67
146 83 189 38 102 49 121 60 110 14 -14 -31 -207 -105 -457 -28 -95 -32 -131
-16 -141 18 -11 82 166 142 395 37 142 70 225 124 307 30 45 59 95 65 110 19
50 26 53 77 37 26 -7 48 -14 50 -14z m-388 -92 c0 -18 -12 -60 -26 -93 -13
-33 -39 -96 -56 -140 -17 -44 -34 -83 -38 -88 -3 -4 -4 34 -2 85 4 89 7 96 54
181 27 48 53 87 59 87 5 0 9 -15 9 -32z m-11049 -119 c252 -90 702 -218 926
-264 18 -4 36 -11 39 -16 3 -6 10 -128 15 -272 7 -230 20 -443 34 -572 27
-241 39 -333 61 -470 41 -248 39 -228 18 -222 -11 3 -109 28 -220 56 -363 91
-798 230 -814 261 -14 27 -86 385 -105 525 -3 22 -8 54 -10 70 -16 98 -38 318
-50 500 -13 192 -20 445 -12 445 2 0 55 -18 118 -41z m10005 -181 c-3 -35 -8
-151 -11 -258 -6 -191 -27 -465 -45 -585 -5 -33 -11 -82 -15 -110 -16 -129
-87 -521 -96 -529 -5 -5 -190 -56 -339 -95 -164 -42 -448 -104 -640 -141 -91
-17 -175 -33 -187 -36 -14 -2 -23 0 -23 7 0 7 13 107 29 223 54 390 80 747 81
1088 l0 217 53 10 c28 5 115 22 192 36 278 52 700 151 890 209 120 36 116 37
111 -36z m-8878 -128 c344 -73 1113 -200 1212 -200 l27 0 6 -312 c4 -172 9
-349 12 -393 17 -275 41 -547 70 -782 5 -37 3 -53 -5 -53 -72 0 -736 108
-1052 171 -136 27 -250 49 -252 49 -14 0 -27 49 -50 190 -14 85 -27 173 -30
195 -3 22 -10 76 -15 120 -32 247 -47 443 -56 705 -3 96 -8 212 -10 258 -3 45
-3 82 0 82 2 0 67 -13 143 -30z m7619 -383 c-6 -241 -30 -615 -52 -802 -23
-198 -60 -432 -69 -441 -25 -24 -983 -156 -1306 -179 -41 -3 -85 -8 -98 -11
-22 -5 -23 -3 -17 53 34 351 64 962 65 1299 l0 180 173 17 c361 37 520 56 877
108 230 34 411 62 429 68 2 0 1 -131 -2 -292z m-6127 148 c407 -44 795 -78
1116 -96 l211 -13 6 -179 c4 -99 7 -286 7 -416 1 -130 5 -324 10 -431 5 -107
12 -264 16 -349 l7 -154 -149 7 c-180 8 -574 38 -814 61 -248 24 -548 60 -555
66 -3 4 -37 308 -50 449 -17 188 -36 557 -42 804 l-6 279 54 -6 c30 -4 115
-14 189 -22z m4632 -351 c-4 -338 -24 -793 -47 -1024 -8 -85 -15 -167 -15
-182 0 -30 31 -25 -340 -53 -362 -26 -1215 -64 -1225 -53 -2 2 -2 346 2 765
l6 760 206 7 c432 14 943 42 1206 66 105 9 195 16 200 15 6 -1 9 -107 7 -301z
m-2907 226 c132 -6 474 -10 759 -10 l519 0 -6 -761 c-4 -419 -8 -764 -11 -766
-9 -10 -914 -3 -1243 8 l-352 13 -6 40 c-17 135 -52 1466 -39 1487 3 6 33 8
72 4 37 -3 175 -10 307 -15z m6740 -745 c-15 -41 -29 -74 -31 -72 -2 1 3 27
11 57 8 30 12 56 10 58 -8 8 -39 -83 -70 -205 -25 -98 -76 -183 -146 -240
-102 -84 -138 -121 -153 -155 -7 -18 -11 -36 -9 -40 2 -5 25 3 51 17 27 14 48
21 50 15 2 -6 -38 -54 -88 -107 -85 -88 -130 -156 -115 -171 3 -4 38 27 76 67
39 40 72 72 74 70 3 -4 -70 -118 -92 -144 -30 -35 -93 -125 -107 -152 -38 -75
-7 -45 69 65 54 80 77 104 46 48 -61 -107 -121 -175 -232 -261 -51 -40 -231
-155 -236 -151 -1 1 55 116 125 256 129 258 211 453 297 702 46 134 48 138 88
158 22 12 66 44 96 71 31 28 101 75 156 106 55 30 111 63 125 73 14 10 27 16
29 14 2 -2 -9 -37 -24 -79z m-498 -3 c-9 -10 -41 -36 -72 -58 -53 -38 -67 -59
-81 -116 -4 -20 -2 -29 9 -34 16 -6 121 63 167 110 17 16 33 27 37 23 12 -13
-44 -109 -120 -206 -58 -75 -74 -108 -63 -137 8 -21 20 -11 98 79 32 37 58 66
58 64 0 -9 -37 -114 -83 -237 -88 -236 -203 -486 -329 -717 l-51 -91 -116 -55
c-150 -71 -319 -137 -503 -198 -81 -27 -150 -49 -152 -49 -2 0 25 64 61 143
164 356 259 638 396 1171 l13 48 174 58 c168 55 394 141 510 194 67 30 67 30
47 8z m-11061 -93 c7 -6 30 -33 51 -60 21 -28 58 -62 83 -76 25 -15 72 -49
105 -78 102 -87 135 -102 135 -61 0 23 -22 48 -103 117 -21 17 -43 41 -49 53
-10 18 -7 17 23 -6 35 -28 149 -94 181 -104 14 -4 18 0 18 21 0 43 -16 62
-103 119 -127 84 -182 143 -90 99 21 -11 63 -25 93 -32 30 -8 61 -18 67 -23
22 -18 44 -1 37 27 l-6 26 38 -16 c21 -8 39 -17 40 -18 1 -1 18 -65 39 -142
91 -351 218 -694 380 -1031 66 -138 80 -184 55 -184 -15 0 -219 93 -317 145
-56 29 -137 77 -180 105 -73 48 -83 58 -132 143 -80 140 -253 495 -316 652
-49 119 -135 351 -135 362 0 5 72 -26 86 -38z m703 -76 c157 -55 517 -159 728
-209 l162 -39 6 -40 c15 -89 98 -434 141 -580 63 -214 211 -625 255 -706 14
-27 6 -26 -214 30 -298 77 -632 181 -706 220 -10 6 -44 59 -74 118 -166 326
-313 708 -417 1088 -46 165 -48 180 -22 170 9 -4 73 -27 141 -52z m9605 -110
c-85 -391 -235 -838 -402 -1198 l-70 -150 -58 -18 c-93 -29 -387 -103 -544
-137 -134 -30 -443 -90 -460 -90 -4 0 13 55 37 123 95 260 202 660 263 977 17
91 34 181 38 200 9 39 -8 34 262 85 265 50 728 159 880 209 59 19 59 19 54 -1z
m-8532 -177 c64 -14 219 -43 345 -65 125 -22 251 -45 278 -50 28 -5 159 -24
292 -42 240 -33 242 -34 248 -59 6 -31 10 -56 30 -195 45 -312 137 -740 224
-1037 18 -63 18 -68 3 -68 -110 1 -1067 166 -1155 199 -65 25 -304 735 -402
1196 -14 66 -28 129 -31 139 -5 16 -2 18 22 13 16 -3 81 -17 146 -31z m7322
-118 c-39 -233 -118 -581 -183 -804 -42 -147 -144 -452 -161 -483 -5 -11 -25
-21 -47 -24 -21 -3 -110 -17 -198 -32 -219 -35 -949 -125 -1018 -125 -24 0
-25 2 -16 32 8 29 46 218 84 423 21 115 70 464 90 645 24 219 24 220 41 220
16 0 185 18 474 51 182 21 673 89 820 114 121 20 120 20 114 -17z m-5947 -97
c189 -23 419 -46 603 -61 338 -27 541 -40 618 -40 101 0 97 7 106 -180 4 -74
14 -205 21 -290 8 -85 17 -186 20 -225 5 -72 25 -252 51 -475 7 -69 14 -131
14 -138 0 -17 -60 -16 -381 8 -349 26 -473 37 -634 55 -71 8 -175 20 -230 27
-55 6 -103 14 -107 17 -25 22 -163 599 -218 906 -15 86 -60 386 -60 402 0 17
10 17 197 -6z m4508 -78 c-3 -16 -12 -91 -21 -168 -25 -229 -32 -285 -49 -395
-33 -222 -102 -599 -126 -692 -7 -28 -15 -38 -37 -42 -56 -11 -979 -68 -990
-61 -1 1 11 19 28 40 39 49 47 82 29 114 -11 20 -23 26 -49 26 -34 0 -52 -17
-160 -154 -24 -30 -29 -32 -117 -38 -64 -4 -93 -3 -93 5 0 20 88 201 144 296
31 52 56 107 56 121 0 30 -41 75 -68 75 -22 0 -69 -48 -112 -115 l-31 -50 5
140 c3 77 9 293 12 480 4 187 11 345 15 351 6 7 97 13 256 17 335 9 984 45
1183 66 133 14 130 15 125 -16z m-2630 -53 c154 -5 452 -10 663 -10 l382 0 0
-102 c0 -57 -5 -278 -11 -493 -8 -293 -14 -398 -25 -424 -8 -18 -40 -72 -72
-120 -32 -47 -65 -104 -74 -126 -15 -38 -18 -40 -62 -43 -43 -3 -46 -1 -38 15
5 10 24 63 42 118 18 55 54 148 81 207 60 131 67 160 45 193 -45 69 -126 -2
-215 -188 -62 -130 -114 -260 -126 -316 l-7 -34 -362 7 c-370 7 -632 19 -641
28 -12 11 -57 369 -76 603 -5 66 -19 227 -29 357 -11 130 -20 262 -20 294 l0
57 133 -7 c72 -4 258 -11 412 -16z m-4704 -222 c16 -32 28 -58 25 -58 -8 0
-156 170 -156 180 0 5 22 -7 50 -28 33 -24 60 -57 81 -94z m396 -331 c79 -40
143 -78 143 -85 0 -13 118 -246 151 -300 29 -45 1 -32 -31 15 -14 20 -30 41
-35 47 -6 6 -28 38 -50 71 -98 149 -122 134 -30 -19 29 -47 122 -176 135 -186
3 -3 22 -34 42 -70 19 -36 48 -83 64 -106 16 -23 60 -86 99 -140 38 -54 72
-101 75 -104 3 -3 25 -30 49 -60 36 -44 26 -37 -53 40 -285 277 -541 590 -755
923 -44 69 -81 128 -81 131 0 3 30 -15 68 -40 37 -25 131 -77 209 -117z m9830
-99 c-108 -174 -262 -391 -399 -562 -22 -26 -23 -10 -3 37 18 43 20 87 4 87
-22 0 -58 -54 -90 -134 -68 -172 -74 -181 -216 -326 -144 -147 -211 -191 -295
-196 -24 -1 -46 -11 -65 -28 -15 -15 -53 -36 -83 -47 -92 -35 -280 -99 -291
-99 -6 0 18 33 54 73 229 258 413 526 638 930 l44 79 165 54 c205 68 365 130
495 193 55 26 101 47 103 46 2 -2 -26 -50 -61 -107z m-9505 -129 c48 -115 81
-222 66 -217 -21 7 -198 317 -198 348 0 4 21 -2 46 -14 43 -21 48 -27 86 -117z
m193 15 c160 -55 466 -143 641 -184 l131 -31 47 -102 c53 -115 174 -340 251
-467 41 -66 52 -95 54 -131 1 -26 6 -62 11 -80 20 -69 12 -73 -36 -17 -95 111
-203 256 -244 328 -75 130 -245 383 -285 423 -21 21 -45 36 -54 35 -32 -7 -15
-55 63 -178 161 -258 236 -384 230 -389 -9 -9 -93 87 -159 181 -128 183 -271
367 -296 382 -57 34 -52 -20 10 -109 27 -39 80 -115 118 -170 37 -54 107 -148
156 -209 48 -60 87 -113 87 -117 0 -27 -41 7 -175 144 -83 84 -179 186 -215
227 -47 53 -70 72 -82 67 -26 -9 -12 -38 59 -123 81 -97 149 -170 283 -303 58
-58 99 -106 93 -108 -16 -6 -130 70 -228 152 -42 35 -85 67 -96 70 -10 3 -50
45 -88 93 l-69 87 2 60 c2 33 6 76 10 95 6 29 3 40 -16 63 -13 15 -31 27 -40
27 -21 0 -48 -38 -48 -67 0 -13 -4 -23 -10 -23 -13 0 -26 28 -34 75 -15 81
-68 251 -87 274 -12 15 -25 21 -35 17 -16 -6 -16 -30 2 -116 6 -28 -28 21 -85
124 -27 48 -29 57 -14 52 10 -4 77 -28 148 -52z m8544 -161 c-182 -333 -348
-580 -565 -838 -132 -158 -171 -192 -101 -90 61 90 97 156 97 180 0 33 -26 7
-86 -83 -59 -90 -110 -153 -66 -82 30 48 110 211 127 259 8 22 10 43 6 45 -19
12 -55 -32 -97 -117 -38 -75 -106 -198 -121 -216 -2 -2 -5 -2 -9 1 -3 3 8 32
24 64 29 58 99 238 109 282 4 15 1 22 -9 22 -34 0 -85 -87 -159 -272 -35 -90
-59 -136 -59 -116 0 4 21 66 46 138 25 73 43 134 41 137 -25 25 -97 -91 -167
-272 -13 -33 -35 -79 -49 -102 -22 -36 -32 -44 -74 -53 -32 -7 -54 -7 -67 0
-31 16 -60 12 -83 -14 -18 -20 -48 -29 -156 -50 -167 -33 -170 -33 -144 -3 11
12 49 67 85 122 178 275 277 471 448 883 6 13 18 22 32 22 78 0 777 156 958
214 85 27 86 25 39 -61z m-8600 1 c17 -29 31 -87 17 -73 -7 7 -46 109 -42 109
2 0 13 -16 25 -36z m1111 -112 c253 -50 395 -74 620 -107 255 -36 302 -44 304
-47 1 -2 23 -68 50 -148 80 -241 163 -442 276 -666 90 -180 104 -213 86 -209
-12 2 -38 7 -58 10 -28 4 -42 14 -58 40 -23 37 -67 56 -80 36 -4 -7 -5 -23 -2
-37 4 -23 2 -25 -24 -19 -16 3 -38 8 -49 10 -12 3 -31 25 -45 52 -30 57 -70
84 -94 64 -14 -12 -14 -17 -1 -48 8 -20 15 -39 15 -43 0 -13 -125 15 -153 34
-23 16 -33 17 -47 8 -15 -9 -51 -5 -167 19 -81 16 -157 33 -168 38 -11 5 -57
56 -103 114 l-82 105 0 91 0 91 -32 21 c-24 14 -45 19 -75 16 l-41 -4 -60 101
c-116 195 -272 495 -272 523 0 6 0 6 260 -45z m6436 -89 c-29 -81 -116 -275
-186 -413 -84 -167 -126 -243 -223 -393 -55 -85 -74 -107 -89 -104 -17 5 -85
-35 -172 -103 -56 -43 -75 -39 -38 8 42 53 132 228 132 256 0 72 -85 14 -140
-94 -23 -46 -109 -164 -115 -158 -2 2 5 30 16 63 26 76 49 180 49 222 0 34
-23 50 -58 39 -27 -9 -42 -41 -72 -156 -43 -168 -118 -278 -134 -198 -3 17 -6
88 -6 159 l0 129 -28 0 c-52 0 -69 -33 -78 -145 -5 -55 -8 -124 -7 -152 1 -43
-2 -53 -16 -52 -27 1 -71 64 -88 126 -23 80 -45 92 -87 50 -21 -21 -23 -28
-15 -73 5 -27 11 -68 15 -90 l6 -42 -48 -6 c-118 -14 -206 -18 -203 -9 2 5 36
74 76 153 72 145 106 242 97 277 -3 11 11 72 30 137 20 65 54 188 76 273 21
86 43 159 47 163 4 4 85 15 178 24 177 18 450 49 570 66 129 17 409 60 455 69
73 14 71 15 56 -26z m-7396 -33 c0 -5 -2 -10 -4 -10 -3 0 -8 5 -11 10 -3 6 -1
10 4 10 6 0 11 -4 11 -10z m2070 -49 c486 -51 753 -74 995 -86 66 -3 136 -8
156 -11 36 -5 37 -6 44 -62 16 -140 86 -539 125 -710 14 -67 17 -98 10 -112
-5 -10 -15 -41 -21 -69 l-11 -51 -41 0 c-23 0 -118 7 -212 15 -93 8 -175 15
-182 15 -8 0 -7 15 5 53 11 36 16 93 17 187 0 74 6 171 12 215 21 148 10 235
-31 235 -25 0 -35 -26 -45 -112 -5 -47 -16 -100 -23 -117 -11 -28 -13 -7 -12
165 1 108 -2 209 -7 224 -13 35 -52 55 -69 35 -7 -8 -14 -67 -17 -137 -7 -169
-16 -241 -30 -246 -10 -3 -13 14 -15 60 -1 35 -2 70 -3 78 -3 29 -17 125 -22
145 -2 11 -5 55 -7 97 -2 43 -9 84 -16 93 -16 20 -44 19 -61 -1 -19 -23 -21
-222 -4 -344 7 -52 11 -98 9 -102 -10 -16 -24 4 -24 35 -1 18 -7 59 -15 92 -8
33 -18 95 -21 138 -8 90 -30 130 -61 111 -23 -14 -31 -95 -21 -219 16 -201 20
-343 9 -350 -7 -3 -48 26 -94 67 -45 41 -96 80 -114 87 -32 13 -53 9 -53 -10
0 -17 156 -195 308 -352 47 -48 82 -90 79 -93 -9 -10 -266 28 -276 40 -26 31
-187 360 -246 500 -53 129 -185 494 -185 513 0 3 17 2 38 -1 20 -3 80 -10 132
-15z m4040 -64 c0 -21 -75 -309 -112 -432 -28 -92 -37 -111 -54 -113 -31 -4
-56 -36 -103 -127 -57 -113 -76 -135 -51 -61 11 32 24 64 29 70 5 6 23 46 41
88 37 88 35 124 -6 134 -40 10 -69 -26 -151 -191 -88 -176 -123 -235 -140
-235 -15 0 -16 10 -4 42 4 13 11 51 15 85 11 104 17 146 26 182 12 44 3 79
-21 86 -62 20 -109 -80 -145 -308 -13 -85 -21 -110 -36 -118 -25 -14 -48 -5
-48 19 0 10 -13 31 -29 46 -17 16 -32 43 -35 64 -17 99 -64 145 -106 107 -32
-29 -29 -55 36 -267 7 -25 11 -60 8 -77 -6 -26 -11 -31 -48 -36 -70 -9 -521
-23 -528 -16 -3 3 0 58 7 122 23 214 52 245 433 462 69 39 116 78 134 110 7
13 5 25 -7 44 -15 22 -21 24 -53 18 -21 -4 -75 -31 -122 -61 -47 -29 -132 -72
-188 -95 -99 -39 -104 -40 -117 -23 -18 25 -9 40 74 116 38 34 97 97 130 138
33 41 82 99 109 129 l49 54 199 8 c217 8 503 26 629 38 133 13 185 13 185 -2z
m-2182 -54 c341 -6 342 -6 336 -27 -9 -28 -34 -75 -124 -233 -71 -124 -76
-131 -87 -109 -7 13 -17 54 -23 92 -26 169 -77 234 -184 234 -37 0 -48 -5 -61
-24 -15 -22 -14 -28 8 -77 70 -156 90 -222 89 -297 -1 -52 7 -108 28 -190 17
-64 30 -123 30 -131 1 -21 26 -66 78 -141 23 -34 42 -73 42 -87 l0 -24 -152 6
c-84 3 -198 8 -254 11 l-101 6 18 76 c19 79 44 195 52 247 7 41 -25 85 -63 85
-36 0 -75 -45 -91 -103 -16 -59 -40 -117 -49 -117 -4 0 -10 15 -13 33 -3 17
-13 64 -21 102 -28 126 -114 632 -116 679 0 5 66 6 158 3 86 -4 311 -10 500
-14z m-3727 -103 c41 -52 129 -155 196 -229 67 -74 121 -136 119 -138 -2 -2
-59 21 -127 52 -141 63 -169 87 -255 211 -62 91 -73 137 -40 173 9 10 16 24
16 31 0 17 -3 20 91 -100z m4701 103 c2 -5 -43 -53 -100 -108 l-104 -100 7 80
c10 133 4 124 93 128 42 1 82 4 89 5 6 1 13 -1 15 -5z m-372 -8 c0 -21 -53
-103 -73 -114 -48 -26 -55 4 -20 87 12 28 18 32 53 32 22 0 40 -2 40 -5z m165
-122 c-9 -99 -12 -109 -40 -127 -29 -19 -65 -7 -65 22 0 20 90 172 103 172 5
0 6 -30 2 -67z m-4212 -238 c135 -107 186 -150 186 -157 1 -4 -22 1 -49 12
-28 11 -52 20 -54 20 -1 0 -42 43 -90 95 -48 52 -85 95 -81 95 3 0 43 -29 88
-65z m7842 -43 c-6 -4 -46 -39 -90 -78 -44 -38 -105 -90 -135 -114 -56 -44
-53 -39 28 50 18 19 42 49 54 66 13 19 45 42 77 57 58 26 83 34 66 19z m-7666
-132 c32 -12 65 -36 92 -67 24 -26 77 -82 119 -123 41 -41 82 -84 90 -95 31
-40 -196 148 -354 296 -15 14 -2 11 53 -11z m663 -166 c6 -8 -4 -8 -37 -1 -25
6 -45 16 -45 22 0 7 -11 38 -25 69 -14 31 -25 61 -25 67 0 8 49 -50 132 -157z
m3 -23 c11 -3 41 -29 67 -56 44 -47 46 -53 39 -86 -10 -42 13 -111 52 -162 13
-18 32 -47 41 -65 l18 -34 -31 7 c-39 8 -41 -7 -5 -40 24 -22 25 -25 8 -25
-40 0 -121 58 -158 114 -70 105 -89 153 -82 205 4 34 1 63 -13 104 l-20 56 32
-6 c18 -3 41 -9 52 -12z m6039 -3 c-20 -36 -26 -39 -46 -21 -18 17 -19 18 -1
24 30 12 55 10 47 -3z m-5817 -44 l138 -27 70 -90 c39 -50 95 -115 125 -146
49 -50 52 -56 33 -59 -33 -5 -81 22 -158 88 -67 59 -108 80 -123 65 -9 -9 137
-145 210 -194 32 -22 86 -72 120 -112 l63 -74 -70 50 c-173 121 -358 286 -387
343 -10 22 -36 50 -61 65 -60 38 -150 132 -120 124 13 -3 85 -17 160 -33z
m5678 -47 c16 -34 40 -77 52 -95 22 -34 22 -34 4 -70 -23 -45 -51 -71 -81 -77
-24 -5 -44 -17 -147 -87 -38 -25 -82 -49 -98 -53 -30 -6 -30 -6 10 26 74 61
215 202 215 216 0 15 -18 17 -38 5 -7 -5 -65 -58 -128 -118 -103 -97 -154
-136 -154 -117 0 4 6 14 14 22 30 34 146 214 146 227 0 8 -10 14 -25 14 -28 0
-50 -27 -168 -200 -90 -132 -104 -106 -31 57 29 64 30 73 3 73 -33 0 -74 -52
-134 -173 -74 -146 -87 -165 -146 -206 -42 -29 -62 -35 -128 -41 -42 -4 -92
-14 -111 -23 -34 -18 -47 -17 -35 2 3 6 50 46 103 88 125 100 337 313 432 436
64 82 80 98 110 103 19 3 87 16 150 29 161 33 150 35 185 -38z m-5335 -17 c16
-3 31 -19 40 -40 8 -18 32 -67 52 -108 21 -42 36 -77 34 -80 -11 -10 -43 12
-69 46 -16 20 -45 55 -65 77 -43 45 -92 109 -92 118 0 6 54 -1 100 -13z m4893
-52 c-76 -97 -234 -266 -319 -343 -88 -79 -168 -145 -176 -145 -3 0 14 40 38
88 48 101 73 126 214 218 52 35 136 103 185 152 50 48 94 89 98 90 5 1 -13
-26 -40 -60z m-2144 -25 c-5 -37 -8 -74 -8 -81 -1 -9 -14 -12 -43 -10 -53 4
-53 18 3 91 21 29 39 58 39 65 0 7 4 11 8 8 5 -3 5 -35 1 -73z m2018 42 c-37
-33 -57 -32 -27 0 13 14 31 25 39 25 11 -1 8 -8 -12 -25z m-4580 9 c28 -6 31
-11 47 -80 18 -83 21 -144 7 -144 -9 0 -91 163 -106 210 -7 22 1 24 52 14z
m215 -30 c34 -6 43 -15 110 -117 40 -62 110 -157 154 -213 l82 -101 -48 13
c-35 9 -59 10 -89 2 -54 -14 -83 -5 -132 39 -47 42 -70 85 -94 168 -9 33 -25
83 -34 110 -33 93 -34 105 -9 105 13 0 40 -3 60 -6z m253 -30 c39 -3 75 -11
82 -18 16 -16 60 -152 67 -209 3 -26 15 -66 27 -90 21 -39 43 -177 29 -177 -7
0 -115 119 -186 206 -45 55 -214 297 -214 306 0 3 28 1 63 -4 34 -4 94 -10
132 -14z m3543 -24 c10 -17 10 -30 -3 -73 -9 -29 -22 -95 -29 -149 -12 -83
-21 -111 -67 -203 -88 -174 -72 -163 -289 -191 -276 -35 -256 -35 -252 5 2 21
21 56 51 95 26 33 62 82 79 107 25 38 40 49 76 58 24 6 64 26 88 44 23 18 72
50 108 72 36 21 72 44 80 51 8 7 35 18 59 25 76 23 65 63 -17 62 -29 0 -84
-14 -135 -34 -48 -18 -90 -30 -93 -27 -7 8 46 141 60 150 6 4 36 8 66 9 30 0
78 4 105 9 84 13 99 11 113 -10z m-2865 -35 c151 -8 153 -9 117 -67 -11 -18
-20 -43 -20 -54 0 -42 -31 -95 -70 -122 -22 -15 -42 -37 -46 -48 -8 -32 47
-179 94 -253 23 -35 42 -67 42 -71 0 -8 -113 -3 -157 6 -17 3 -27 21 -48 85
-15 45 -61 151 -102 235 -64 133 -118 287 -108 305 2 3 39 2 82 -2 43 -4 140
-10 216 -14z m746 -34 l105 -6 52 -205 c52 -203 91 -406 81 -416 -3 -3 -100
-2 -216 2 -192 6 -211 8 -211 25 0 9 31 59 69 109 63 84 69 96 64 128 -8 47
-77 131 -154 189 -32 25 -59 52 -59 61 -1 46 -73 112 -122 112 -15 0 -28 4
-28 10 0 9 198 5 419 -9z m1231 14 c0 -3 -17 -38 -37 -78 l-37 -72 -2 -180
c-1 -128 -6 -195 -17 -234 -9 -29 -17 -54 -19 -56 -2 -1 -86 -6 -188 -9 l-186
-7 -23 53 c-13 29 -39 90 -57 135 l-34 82 21 173 c12 95 23 175 25 177 8 9
554 25 554 16z m-3544 -46 c47 -51 210 -180 330 -262 106 -73 160 -119 124
-105 -8 3 -41 11 -73 18 -50 12 -64 21 -116 74 -74 78 -84 86 -154 120 -75 36
-131 93 -145 145 -5 23 -7 41 -3 41 4 0 20 -14 37 -31z m2970 4 c-3 -16 -10
-80 -16 -143 -7 -63 -15 -119 -19 -123 -9 -9 -27 95 -37 208 -3 39 -8 73 -11
78 -2 4 17 7 42 7 45 0 46 -1 41 -27z m2538 -98 c-53 -65 -122 -112 -214 -146
-45 -16 -79 -25 -76 -20 4 5 64 46 134 90 70 44 138 90 152 101 42 33 43 23 4
-25z m-1623 -242 c-23 -32 -51 -69 -62 -83 l-21 -25 7 55 c7 62 16 76 59 95
55 24 58 16 17 -42z m-2828 -17 c44 -42 79 -117 63 -133 -12 -12 -289 37 -308
54 -26 23 -23 30 20 43 20 7 46 23 58 37 14 16 37 27 70 32 27 5 49 9 50 10 0
0 21 -19 47 -43z m3547 -72 c0 -2 -9 -4 -21 -4 -11 0 -18 4 -14 10 5 8 35 3
35 -6z"/>
<path d="M8530 12430 c8 -5 20 -10 25 -10 6 0 3 5 -5 10 -8 5 -19 10 -25 10
-5 0 -3 -5 5 -10z"/>
<path d="M10730 11120 c0 -5 5 -10 11 -10 5 0 7 5 4 10 -3 6 -8 10 -11 10 -2
0 -4 -4 -4 -10z"/>
<path d="M10917 10934 c26 -36 51 -59 58 -52 6 5 -28 44 -60 68 -17 13 -17 12
2 -16z"/>
<path d="M11060 10797 c0 -4 11 -19 24 -32 13 -13 31 -34 40 -47 9 -12 19 -19
23 -15 4 4 -14 29 -40 55 -26 26 -47 43 -47 39z"/>
<path d="M11170 10672 c0 -13 39 -52 52 -52 7 0 -1 14 -17 30 -31 32 -35 35
-35 22z"/>
<path d="M1565 10600 c-3 -5 -2 -10 4 -10 5 0 13 5 16 10 3 6 2 10 -4 10 -5 0
-13 -4 -16 -10z"/>
<path d="M1515 10540 c-3 -5 -1 -10 4 -10 6 0 11 5 11 10 0 6 -2 10 -4 10 -3
0 -8 -4 -11 -10z"/>
<path d="M660 9257 c-18 -37 -30 -70 -27 -73 6 -7 47 60 47 78 0 8 5 19 11 25
6 6 9 17 7 25 -3 7 -20 -18 -38 -55z"/>
<path d="M12256 3813 c-6 -14 -5 -15 5 -6 7 7 10 15 7 18 -3 3 -9 -2 -12 -12z"/>
<path d="M1197 2676 c-3 -8 4 -22 15 -33 14 -11 18 -13 12 -3 -4 8 -7 23 -6
33 4 20 -14 23 -21 3z"/>
<path d="M11280 2273 c-16 -6 -79 -73 -80 -85 0 -4 -6 -13 -12 -20 -7 -7 -28
-36 -46 -63 l-34 -50 46 50 c25 28 46 56 46 63 0 7 4 11 9 7 6 -3 15 3 20 14
6 11 17 26 23 33 28 30 51 58 47 57 -2 0 -11 -3 -19 -6z"/>
<path d="M11069 2053 c-14 -16 -40 -50 -59 -78 -19 -27 -38 -51 -42 -53 -4 -2
-8 -9 -8 -15 0 -7 20 10 45 37 25 26 45 52 45 57 0 5 7 9 15 9 8 0 14 3 14 8
-3 18 2 33 9 28 4 -2 8 4 8 15 0 10 -1 19 -1 19 -1 0 -12 -12 -26 -27z"/>
<path d="M10860 1813 c-28 -19 -38 -29 -60 -58 -17 -22 59 35 80 60 16 20 10
19 -20 -2z"/>
<path d="M2575 1260 c10 -11 20 -18 23 -16 5 6 -23 36 -34 36 -4 0 1 -9 11
-20z"/>
<path d="M7588 113 c7 -3 16 -2 19 1 4 3 -2 6 -13 5 -11 0 -14 -3 -6 -6z"/>
</g>
</svg>
