<svg xmlns="http://www.w3.org/2000/svg" version="1.1" viewBox="0 0 3000 1843" width="3000" height="1843">
<defs/><!--ITEM: Illustration component 1--><g transform="translate(398.4375 71.875) rotate(0.0 505.46875 489.0625)  scale(1.71606238637386 1.7248448190731465)"><svg width="589.103" height="567.08" viewBox="0.0 0.0 589.103 567.08"><g fill="#0e1049"><path d="m547.865 481.572c-.217 0-.438-.056-.637-.175-.594-.353-.79-1.119-.438-1.713 13.208-22.245 17.894-33.005.978-76.481-5.307-13.639 1.917-20.099 11.062-28.277 12.561-11.232 29.762-26.615 26.844-70.848-.046-.689.476-1.284 1.165-1.33.682-.052 1.284.476 1.329 1.165 2.999 45.449-14.728 61.302-27.671 72.876-9.079 8.119-15.077 13.483-10.398 25.507 17.34 44.568 12.492 55.674-1.157 78.664-.235.394-.65.612-1.077.612z"/><path d="m536.897 367.013.002-.007c29.754-5.841 52.204-32.054 52.204-63.519 0-18.509-7.779-35.19-20.231-46.99l.005-.017c-11.686-12.257-6.184-36.999-2.211-49.785 5.601-18.025 11.51-36.308 11.51-56.16 0-83.139-71.656-150.535-160.048-150.535-62.915 0-117.087 34.284-143.504 83.805-25.677 48.135-141.368 71.286-178.339 120.286-35.171 46.615 6.78 102.314-22.251 115.416-38.164 17.224-89.399 41.273-69.655 101.743 7.823 23.96 91.099 94.77 206.395 123.077 118.856 29.18 193.682 34.923 291.133-10.518l.001-.008c30.045-12.529 51.168-42.174 51.168-76.761 0-26.613-12.519-50.287-31.973-65.505l.003-.022c-13.118-10.045 1.494-20.32 15.791-24.5z"/><path d="m113.01 255.249c-.149 0-.302-.027-.45-.084-.644-.248-.965-.972-.716-1.616 5.488-14.229 2.372-31.268-.926-49.307-5.912-32.332-12.024-65.764 30.345-87.53 19.959-10.253 42.357-14.031 64.018-17.686 35.633-6.011 69.289-11.689 91.022-44.289.384-.575 1.16-.729 1.733-.347.574.383.729 1.159.347 1.733-22.333 33.499-56.507 39.264-92.687 45.368-21.473 3.623-43.677 7.368-63.291 17.444-40.719 20.917-34.775 53.422-29.028 84.856 3.363 18.395 6.541 35.77.799 50.656-.191.497-.664.802-1.166.802z"/></g><path d="m466.643 76.588c-65.03-21.263-130.311-.076-145.809 47.322-3.463 10.592-4.14 21.597-2.388 32.538-5.401 5.367-9.841 11.574-13.1 18.591-20.297 43.695 12.657 102.068 73.606 130.379s126.811 15.842 147.108-27.853c6.051-13.025 7.366-27.354 4.622-41.803 12.062-9.025 21.048-20.784 25.647-34.852 15.498-47.398-24.656-103.059-89.686-124.322z" fill="#f8b5a4"/><path d="m458.625 248.508c-.498 0-.93-.372-.991-.878-.067-.548.322-1.047.871-1.114 3.911-.479 10.419-2.213 11.232-4.824.333-1.065.109-4.975-2.834-12.871-.193-.517.069-1.093.587-1.286.517-.193 1.094.07 1.286.588 2.485 6.665 3.559 11.96 2.871 14.165-1.461 4.687-11.733 6.071-12.9 6.214-.04.004-.081.006-.122.006z" fill="#403838"/><path d="m430.889 266.186c-14.361-6.686-23.942-17.407-27.74-25.076-1.33-2.686-7.234 16.209-.215 26.866 11.011 16.717 33.245.673 27.955-1.79z" fill="#fff"/><path d="m558.786 75.459c-14.353-24.518-36.195-44.964-64.115-57.432-36.452-16.278-76.115-15.794-110.412-1.913-32.616 13.201-60.38 38.514-75.86 73.179-3.322 7.44-5.907 15.018-7.864 22.653 21.163 20.914 65.167 33.784 115.226 31.024 39.45-2.175 74.086-13.591 96.174-29.64-.543 15.679 4.138 34.051 14.212 51.5 10.651 18.448 25.21 32.189 39.876 39.261 19.185-43.142 14.934-90.758-7.237-128.632z" fill="#0e1049"/><path d="m472.926 160.47c-2.161 0-4.33-.774-6.055-2.344-10.601-9.646-31.584-21.023-48.352-23.365-4.923-.688-8.355-5.235-7.668-10.158s5.234-8.354 10.158-7.669c21.202 2.961 45.215 16.266 57.977 27.879 3.676 3.345 3.944 9.037.599 12.713-1.775 1.953-4.212 2.944-6.659 2.944z" fill="#0e1049"/><path d="m558.456 197.299c-1.983 0-3.979-.653-5.645-1.995-9.958-8.032-29.231-14.229-39.121-15.887-4.901-.822-8.209-5.463-7.387-10.365.821-4.903 5.459-8.207 10.365-7.387 11.727 1.967 34.039 8.818 47.443 19.628 3.869 3.12 4.476 8.787 1.355 12.655-1.777 2.206-4.383 3.351-7.01 3.351z" fill="#0e1049"/><path d="m375.955 293.267c-52.925-38.523-76.815-97.367-57.522-136.794-5.392 5.362-9.832 11.556-13.088 18.565-20.297 43.695 12.657 102.068 73.606 130.379 16.216 7.533 32.774 12.151 48.735 14.089-17.402-5.377-35.082-14.12-51.731-26.239z" fill="#dda094"/><circle cx="308.171" cy="150.533" fill="#f8b5a4" r="42.95"/><path d="m292.649 176.168c-.183 0-.366-.05-.532-.154-6.807-4.289-11.535-10.971-13.316-18.816-1.78-7.845-.399-15.914 3.89-22.72 8.854-14.05 27.486-18.278 41.535-9.427.467.294.607.912.312 1.379-.293.468-.91.606-1.379.313-13.117-8.265-30.512-4.316-38.777 8.801-4.003 6.354-5.293 13.887-3.631 21.211 1.663 7.324 6.078 13.562 12.433 17.566.467.294.607.912.312 1.379-.19.303-.515.468-.847.468z" fill="#403838"/><ellipse cx="427.523" cy="183.57" fill="#fff" rx="21.468" ry="33.686" transform="matrix(.4308 -.9024 .9024 .4308 77.6675 490.2872)"/><path d="m448.828 176.011c-13.884-6.628-30.548-.672-37.22 13.305-1.249 2.616-2.059 5.328-2.46 8.052 2.713 2.081 5.77 3.973 9.126 5.575 16.789 8.016 34.54 5.84 39.648-4.859 2.427-5.083 1.558-11.174-1.816-17.028-2.087-2.01-4.521-3.728-7.278-5.045z" fill="#2b2929"/><ellipse cx="512.38" cy="219.079" fill="#fff" rx="18.514" ry="28.195" transform="matrix(.3108 -.9505 .9505 .3108 144.9117 638.0018)"/><path d="m493.765 229.748c3.491 2.87 7.868 5.296 12.861 6.929 14.801 4.839 29.375.884 32.553-8.835 1.296-3.965.495-8.276-1.912-12.32-2.302-1.65-4.889-2.983-7.724-3.91-14.889-4.868-30.904 3.252-35.778 18.136z" fill="#2b2929"/></svg></g><!--ITEM: Illustration component 2--><g transform="translate(67.1875 584.375) rotate(0.0 1137.5 587.5)  scale(1.740627390971691 1.740856797860598)"><svg width="1307.0" height="674.955" viewBox="0.0 0.0 1307.0 674.955"><path d="m1165.102 352.553c14.325 10.434-35.082 52.043-26.825 63.346 9.2 12.594 38.687 5.393 58.375-19.486 17.054-21.552 28.41-65.591 55.454-58.015 9.052 2.536 4.572 28.538-1.787 43.501s-12.542 29.089-19.615 43.728c-5.625 34.923-34.678 102.5-65.764 106.095-31.529 3.646-31.31 3.967-63.041 4.693-20.275.464-43.641 2.219-57.53-12.559-14.468-15.393-10.278-40.094-3.454-60.087 15.298-44.827 92.972-133.953 124.187-111.216z" fill="#f8b5a4"/><path d="m1092.596 491.318c6.661-.698 14.705-12.275 38.884-14.377 28.434-2.472 33.721 3.309 43.915-1.977 10.195-5.286 40.571-28.539 38.034-34.227s-16.49-13.494-33.721-12.547c-11.835.65-26.769 3.037-32.021 6.362-10.583 6.699-5.838 17.229-25.094 25.204-39.566 16.384-43.787 33.007-29.997 31.562z" fill="#dda094"/><path d="m1138.459 483.177-18.051-37.541c-2.259-5.399-1.271-11.612 2.55-16.045l134.007-155.454c7.01-8.132 19.974-6.807 25.194 2.574l22.892 38.813c3.21 5.769 2.399 12.94-2.019 17.845l-138.847 154.181c-7.584 8.423-21.353 6.082-25.726-4.373z" fill="#25a77b"/><path d="m1137.455 465.56-9.231-21.723c-1.76-4.208-.991-9.048 1.987-12.503l122.18-141.125c5.463-6.337 15.565-5.305 19.633 2.006l13.003 22.714c2.501 4.495 1.869 10.083-1.573 13.906l-125.952 140.133c-5.91 6.563-16.639 4.738-20.047-3.408z" fill="#25a77b"/><g fill="#25a77b"><path d="m1282.034 301.909-5.572-10.133c-.493-.897-.166-2.025.731-2.518l.535-.294c.897-.493 2.025-.166 2.518.731l5.572 10.133c.493.897.166 2.025-.731 2.518l-.535.294c-.898.493-2.025.166-2.518-.731z"/><ellipse cx="1287.617" cy="306.26" rx="2.896" ry="2.342" transform="matrix(.8325 -.5541 .5541 .8325 46.0266 764.7419)"/><path d="m1282.456 348.075-8.312 9.294c-.968 1.082-2.63 1.175-3.712.208-1.082-.968-1.174-2.629-.206-3.712l8.312-9.294c.968-1.082 2.63-1.175 3.712-.208 1.081.967 1.174 2.629.206 3.712z"/><path d="m1268.45 363.738-8.312 9.294c-.968 1.082-2.63 1.175-3.712.208-1.082-.968-1.174-2.629-.207-3.712l8.312-9.294c.968-1.082 2.63-1.175 3.712-.208 1.083.968 1.175 2.63.207 3.712z"/></g><ellipse cx="1153.864" cy="437.22" fill="#25a77b" rx="10.628" ry="5.16" transform="matrix(.7071 -.7071 .7071 .7071 28.7979 943.9636)"/><ellipse cx="1216.783" cy="367.099" fill="#fff" rx="46.038" ry="17.654" transform="matrix(.6449 -.7643 .7643 .6449 151.5371 1060.3326)"/><ellipse cx="1225.227" cy="357.091" fill="#25a77b" rx="19.957" ry="8.699" transform="matrix(.6449 -.7643 .7643 .6449 162.1847 1063.2324)"/><path d="m1193.471 394.744-2.145-4.617c-.326-.702-.218-1.529.278-2.123l12.859-15.426c.939-1.127 2.732-.893 3.35.438l2.145 4.617c.326.702.218 1.529-.278 2.123l-12.859 15.426c-.939 1.127-2.732.892-3.35-.438z" fill="#25a77b"/><path d="m1238.974 371.858c-13.499 0-19.773 15.466-23.396 32.754-11.326-6.616-21.293 13.407-24.005 31.14-1.902 12.44-.101 28.134-16.177 39.211-3.502 9.701-19.625 34.325-16.04 56.832 23.04-.625 42.049-15.866 52.898-32.121 13.192-8.485 27.997-28.18 33.666-41.946 10.161-24.674 7.774-85.87-6.946-85.87z" fill="#25a77b"/><path d="m1215.581 405.596c-.068 0-.137-.007-.206-.021-.541-.113-.887-.643-.773-1.184 3.018-14.395 8.827-33.533 24.372-33.533 6.343 0 10.517 6.676 12.762 20.409.089.545-.281 1.059-.826 1.148-.544.088-1.059-.28-1.148-.826-2.031-12.429-5.66-18.731-10.787-18.731-10.724 0-17.846 10.15-22.415 31.943-.1.471-.516.795-.979.795z" fill="#25a77b"/><path d="m1209.292 504.828c-.212 0-.425-.067-.606-.206-.438-.335-.522-.963-.187-1.402 5.787-7.568 9.94-15.804 11.695-23.19 6.113-25.741 5.45-64.324-1.225-71.178-3.505-3.601-6.979-4.881-10.329-3.809-7.843 2.514-14.025 17.428-16.08 30.861-.337 2.208-.555 4.497-.785 6.92-1.051 11.068-2.241 23.612-15.812 32.963-.454.314-1.078.199-1.391-.256s-.199-1.078.256-1.391c12.803-8.822 13.947-20.874 14.957-31.506.232-2.453.452-4.77.799-7.034 2.081-13.609 8.429-29.572 17.446-32.462 4.131-1.326 8.293.128 12.373 4.318 6.698 6.88 8.744 43.533 1.736 73.036-1.817 7.653-6.098 16.156-12.053 23.943-.195.257-.493.393-.794.393z" fill="#25a77b"/><path d="m1215.522 432.693c-1.328 0-2.748-.228-4.115-.869-1.051-.493-2.296-1.762-2.263-5.01.056-5.57 4.074-15.072 7.954-16.798.506-.225 1.097.003 1.32.507.224.504-.003 1.095-.508 1.32-2.857 1.271-6.715 9.817-6.767 14.991-.01.988.121 2.714 1.112 3.179 3.745 1.755 8.27-.448 8.314-.471.497-.247 1.095-.044 1.341.451s.044 1.095-.45 1.34c-.153.078-2.785 1.36-5.938 1.36z" fill="#25a77b"/><path d="m1244.904 401.346c-1.739 0-3.528-.467-4.793-1.969-2.668-3.168-1.859-8.987-1.388-11.342.743-3.712 2.45-8.175 4.439-9.199.489-.253 1.094-.06 1.347.431s.061 1.094-.431 1.347c-.834.429-2.522 3.458-3.395 7.813-.863 4.313-.506 7.925.956 9.662 2.306 2.736 7.974.192 8.03.167.5-.229 1.096-.009 1.325.493s.01 1.095-.492 1.325c-.176.08-2.822 1.272-5.598 1.272z" fill="#25a77b"/><path d="m1087.042 527.857-15.541-105.094c-1.196-8.091-8.149-13.991-16.1-13.665l-33.464 1.375c-9.001-15.756-21.578-28.177-37.954-34.674-43.63-17.307-107.364-23.253-165.17-10.761-10.926-110.417-84.141-215.906-188.755-274.946 1.064-6.094 1.647-11.592 1.658-16.127.036-15.084-41.607-51.18-102.783-65.469s-110.856-8.935-118.446 4.1c-5.102 8.762-6.851 17.882-5.962 27.154-177.358 7.951-281.49 123.418-341.932 237.598-20.642 38.995-35.087 74.114-44.01 105.768-.411 1.338-.793 2.715-1.137 4.144-3.101 11.519-5.462 22.575-7.11 33.182-26.587 135.489-10.957 224.558 156.249 222.643 10.015-.115 20.067-.322 30.117-.631 53.122 14.075 114.359 22.842 179.609 28.795 66.714 6.087 119.748 5.633 157.481-8.657 20.851-7.896 27.501-18.109 32.146-19.684 30.443-10.322 101.776-39.044 160.857-82.693 2.417 2.099 4.892 4.194 7.421 6.289 49.511 41.012 156.942 46.407 243.919 27.804 18.234-3.9 32.623-16.831 42.863-34.625l54.587-14.087c7.706-1.988 12.654-9.648 11.457-17.739z" fill="#2fcd99"/><path d="m1022.42 447.278c-4.52 0-8.281-3.561-8.484-8.122-.209-4.69 3.423-8.661 8.113-8.87l33.167-1.478c4.66-.19 8.66 3.423 8.869 8.113s-3.423 8.661-8.113 8.87l-33.167 1.478c-.128.006-.257.009-.385.009z" fill="#25a77b"/><path d="m1029.704 493.611c-4.182 0-7.826-3.087-8.41-7.346-.639-4.651 2.615-8.938 7.266-9.577l31.838-4.367c4.647-.636 8.938 2.615 9.576 7.266.639 4.651-2.615 8.938-7.266 9.577l-31.838 4.367c-.392.054-.781.08-1.166.08z" fill="#25a77b"/><path d="m1038.646 539.451c-3.857 0-7.35-2.644-8.268-6.562-1.071-4.571 1.766-9.144 6.336-10.215l28.857-6.763c4.567-1.07 9.144 1.765 10.215 6.336s-1.766 9.144-6.336 10.215l-28.857 6.763c-.652.152-1.304.226-1.947.226z" fill="#25a77b"/><path d="m1056.03 448.105c-.532 0-.975-.419-.998-.956-.024-.552.403-1.019.955-1.043.628-.028 1.252-.122 1.854-.28 3.985-1.045 6.743-4.796 6.56-8.918-.104-2.352-1.119-4.522-2.856-6.112-1.737-1.589-4.012-2.401-6.342-2.301l-21.424.954c-.543.018-1.02-.402-1.044-.955-.024-.552.402-1.019.954-1.043l21.424-.954c2.893-.131 5.649.874 7.781 2.824s3.376 4.613 3.505 7.499c.226 5.058-3.16 9.659-8.05 10.942-.739.194-1.504.31-2.273.343-.016-.001-.031-0-.046-0z" fill="#25a77b"/><path d="m1051.131 493.079c-.492 0-.921-.363-.99-.864-.074-.547.309-1.051.855-1.126l11.754-1.612c.354-.048.708-.119 1.051-.209 4.304-1.128 7.091-5.308 6.485-9.721-.32-2.333-1.529-4.402-3.405-5.825s-4.189-2.029-6.525-1.71c-.556.072-1.052-.308-1.126-.855-.075-.547.307-1.051.854-1.126 2.864-.393 5.704.353 8.006 2.099s3.785 4.284 4.178 7.146c.743 5.415-2.679 10.543-7.959 11.928-.42.11-.853.196-1.287.256l-11.754 1.612c-.046.005-.092.007-.137.007z" fill="#25a77b"/><path d="m1040.891 541.505c-.454 0-.864-.311-.973-.772-.126-.538.208-1.076.745-1.202l29.087-6.819c4.656-1.221 7.441-5.849 6.344-10.537-.679-2.897-2.754-5.24-5.553-6.268-.519-.19-.784-.765-.594-1.283s.763-.783 1.283-.594c3.433 1.26 5.979 4.135 6.811 7.689 1.347 5.751-2.071 11.429-7.781 12.927l-.279.069-28.86 6.763c-.077.019-.154.027-.23.027z" fill="#25a77b"/><path d="m813.683 414.899c-.426 0-.821-.274-.954-.702-5.491-17.577-1.214-38.378 6.095-48.334.325-.445.951-.542 1.397-.214.445.327.541.953.214 1.398-7.014 9.555-11.1 29.581-5.798 46.554.165.527-.129 1.088-.656 1.253-.098.03-.199.045-.298.045z" fill="#25a77b"/><path d="m873.577 571.658c-16.406-8.191-96.996-54.221-99.394-67.831-11.963-67.906-43.331-130.381-56.923-156.582.58-5.447 4.51-34.509-2.403-49.346 0 0-4.198 29.149-11.241 35.852 16.65 61.719 17.123 106.645 17.988 123.084.692 13.161.066 28.277-1.132 43.507-1.388 17.642 11.216 64.068 13.745 66.163 49.511 41.012 156.942 46.407 243.919 27.804 4.848-1.037 9.421-2.721 13.721-4.955-18.241 8.496-98.233-7.687-118.28-17.696z" fill="#25a77b"/><path d="m721.565 491.75c-.01 0-.02 0-.028 0-.553-.015-.987-.475-.973-1.027.938-33.949-.355-121.384-32.548-199.858-.21-.511.034-1.095.545-1.305.513-.208 1.096.035 1.305.546 32.338 78.827 33.64 166.596 32.698 200.672-.015.542-.46.972-.999.972z" fill="#25a77b"/><path d="m704.108 334.751c-.155 0-.313-.036-.461-.113-.489-.255-.68-.859-.425-1.349 5.327-10.241 7.616-17.884 10.648-35.56.093-.543.616-.911 1.154-.817.545.094.91.61.816 1.155-3.073 17.917-5.404 25.687-10.846 36.145-.176.343-.524.539-.886.539z" fill="#25a77b"/><path d="m615.351 76.854c-1.57 6.719-12.14 3.998-32.617 1.848-18.479-1.94-19.601 85.861-44.855 79.962-6.106-1.426-34.838-95.452-40.569-97.066-44.232-12.453-77.134-26.836-74.491-38.153 2.986-12.783 49.841-16.004 103.081-3.568s92.437 44.194 89.451 56.977z" fill="#25a77b"/><path d="m582.519 146.012c-.44 0-.844-.293-.964-.739-.145-.533.171-1.082.704-1.227 15.235-4.123 40.479-23.234 46.271-51.161.112-.541.638-.89 1.183-.776.541.112.889.641.776 1.182-5.399 26.03-28.968 47.615-47.708 52.686-.087.023-.175.035-.262.035z" fill="#25a77b"/><path d="m534.962 180.948c-.002 0-.005 0-.008 0-18.562-.138-35.761-23.424-49.58-42.135-7.943-10.755-14.804-20.043-19.069-20.708-20.118-3.135-47.025-21.234-59.979-40.346-6.376-9.407-8.857-18.265-7.176-25.617.123-.539.662-.877 1.197-.751.539.123.875.659.752 1.198-1.555 6.797.825 15.113 6.882 24.049 12.686 18.714 38.987 36.43 58.633 39.491 5.077.792 11.826 9.928 20.369 21.496 13.555 18.353 30.425 41.193 47.987 41.324.552.004.996.455.992 1.007-.004.549-.451.992-1 .992z" fill="#25a77b"/><path d="m823.801 508.205c-49.031-32.781-96.473-19.246-123.55-8.281-27.078 10.965-117.127 57.675-117.127 57.675l29.133 90.786 110.243-33.871c11.411 12.834 30.292 29.12 46.975 20.324 18.022-9.503 4.708-37.157 4.708-37.157s25.567 29.329 44.78 11.303c16.131-15.134-12.566-50.186-12.566-50.186s91.971 47.631 101.414 30.049c9.444-17.581-34.98-47.86-84.01-80.642z" fill="#25a77b"/><path d="m896.179 582.833c-.415 0-.841-.013-1.277-.038-5.489-.318-12.608-2.85-14.538-6.385-.889-1.627-.989-3.608-.293-5.729 1.464-4.455 5.955-8.585 9.438-10.209.5-.235 1.096-.017 1.329.483.233.501.017 1.096-.483 1.329-3.146 1.467-7.142 5.243-8.383 9.021-.527 1.605-.478 3 .148 4.147 1.381 2.53 7.408 5.028 12.897 5.346 3.822.224 6.738-.651 7.972-2.395.317-.451.944-.559 1.394-.239.451.319.559.943.239 1.394-1.508 2.131-4.479 3.275-8.443 3.275z" fill="#25a77b"/><path d="m774.182 598.681c-.389 0-.758-.229-.92-.609-5.147-12.096-18.909-39.988-35.495-37.755-.567.069-1.052-.311-1.125-.858s.311-1.051.857-1.125c17.967-2.415 32.276 26.437 37.603 38.954.217.508-.021 1.096-.528 1.312-.128.055-.261.081-.392.081z" fill="#25a77b"/><path d="m805.36 558.91c-.389 0-.758-.229-.92-.609-3.876-9.108-14.705-30.132-31.323-28.675-.547.052-1.035-.358-1.084-.909s.358-1.035.908-1.083c17.958-1.58 29.292 20.374 33.339 29.884.217.508-.021 1.096-.528 1.312-.128.054-.261.08-.392.08z" fill="#25a77b"/><path d="m712.836 618.483c-.398 0-.775-.241-.931-.634-.202-.514.051-1.094.564-1.297 1.762-.693 3.6-1.332 5.376-1.95 4.993-1.735 10.155-3.529 14.409-6.792.439-.336 1.067-.252 1.401.185.337.438.254 1.066-.185 1.402-4.509 3.46-9.827 5.308-14.97 7.095-1.758.611-3.576 1.243-5.3 1.922-.118.047-.242.069-.364.069z" fill="#25a77b"/><path d="m617.681 655.448-59.392-1.798c-9.647-.292-16.867-9.093-15.523-18.921l16.803-122.778c1.345-9.828 10.665-16.365 20.035-14.054l57.691 14.226c8.1 1.997 13.373 9.972 12.211 18.468l-15.101 110.349c-1.163 8.495-8.385 14.76-16.724 14.508z" fill="#2fcd99"/><path d="m564.554 644.086c-.091 0-.184-.013-.276-.04-.531-.152-.837-.707-.685-1.237 8.537-29.688 9.125-51.67 9.13-51.889.013-.544.458-.978 1-.978h.022c.552.012.989.47.978 1.022-.005.221-.594 22.442-9.208 52.397-.126.439-.527.725-.961.725z" fill="#25a77b"/><path d="m649.508 531.59c-.045 0-.091-.003-.137-.009-.547-.075-.93-.579-.855-1.126 1.098-8.016-3.829-15.479-11.459-17.361l-60.185-14.661c-.537-.131-.866-.672-.735-1.208s.671-.865 1.208-.735l60.188 14.662c8.629 2.128 14.202 10.543 12.966 19.575-.07.5-.499.863-.991.863z" fill="#25a77b"/><path d="m385.59 301.919c5.042 7.433 10.069 15.034 12.86 23.571s3.122 18.257-1.064 26.203c-2.609 4.952-7.016 10.124-5.105 15.385 1.414 3.893 5.689 5.756 9.221 7.919 9.17 5.616 14.444 18.528 14.91 29.271-39.54-3.647-74.806-5.14-113.243 0-1.511.202 41.249-13.349 41.523-54.701.408-61.646-31.753-129.626-31.767-134.416 12.261 12.689 61.816 70.664 72.665 86.768z" fill="#25a77b"/><path d="m303.169 405.269c-.402 0-.782-.245-.934-.644-.197-.516.061-1.094.576-1.291 30.289-11.578 43.327-34.162 41.033-71.073-2.002-32.203-15.033-70.305-31.861-116.769-.188-.519.081-1.092.6-1.281.52-.186 1.093.08 1.281.6 16.884 46.617 29.959 84.857 31.977 117.326 2.324 37.393-11.517 61.293-42.314 73.065-.119.045-.239.067-.358.067z" fill="#25a77b"/><path d="m574.62 530.386c-.514 0-.95-.393-.995-.914-4.076-46.919-18.941-72.863-53.021-92.533-53.245-30.733-144.285-39.907-206.692-33.085-20.013 2.188-34.565 8.084-43.249 12.646-9.411 4.943-14.15 9.428-14.197 9.473-.397.381-1.03.369-1.413-.031-.382-.399-.369-1.031.029-1.413.197-.189 4.937-4.684 14.565-9.754 8.85-4.66 23.675-10.682 44.048-12.909 39.887-4.359 82.388-2.629 122.906 5.003 33.873 6.38 64.855 16.709 85.003 28.338 34.729 20.045 49.872 46.426 54.013 94.092.048.55-.359 1.035-.909 1.083-.03.003-.059.004-.088.004z" fill="#25a77b"/><path d="m254.638 606.596c-14.417 14.313-33.037 27.365-52.599 34.168-.583.203-2.646.888-5.191 1.727 7.577 2.006 42.416 9.211 72.708 15.395 12.618 2.118 25.519 4.048 38.672 5.807-21.515-11.115-47.236-31.559-53.59-57.097z" fill="#25a77b"/><path d="m232.302 626.124c-.333 0-.659-.167-.849-.47-.293-.468-.151-1.085.317-1.378 20.994-13.136 39.387-34.331 48-55.314.21-.511.798-.754 1.305-.545.511.21.755.794.545 1.305-8.764 21.35-27.459 42.903-48.789 56.25-.165.103-.349.152-.529.152z" fill="#25a77b"/><path d="m629.245 549.072c-.664 0-1.339-.078-2.014-.242l-33.822-8.216c-4.562-1.108-7.361-5.705-6.253-10.266 1.107-4.562 5.698-7.365 10.267-6.253l33.822 8.216c4.562 1.108 7.361 5.705 6.253 10.266-.944 3.887-4.423 6.495-8.253 6.495z" fill="#25a77b"/><path d="m622.538 594.551c-.413 0-.831-.03-1.252-.092l-33.331-4.919c-4.644-.685-7.853-5.005-7.168-9.649.685-4.645 5.001-7.855 9.65-7.168l33.331 4.918c4.644.686 7.853 5.006 7.168 9.65-.623 4.224-4.253 7.26-8.398 7.26z" fill="#25a77b"/><path d="m615.823 640.03c-.15 0-.302-.004-.454-.012l-31.031-1.635c-4.688-.247-8.288-4.248-8.041-8.936.247-4.687 4.23-8.281 8.936-8.041l31.031 1.635c4.688.247 8.288 4.248 8.041 8.936-.24 4.536-3.993 8.053-8.482 8.053z" fill="#25a77b"/><path d="m627.782 550.064c-.106 0-.213-.001-.319-.004-.772-.021-1.547-.114-2.301-.279-.54-.118-.882-.651-.764-1.19.117-.54.65-.88 1.189-.764.632.138 1.28.217 1.928.234 4.275.115 8.01-2.416 8.984-6.008.503-1.854.215-3.806-.812-5.498-1.212-1.996-3.345-3.454-5.851-3.999l-32.991-7.184c-.539-.118-.882-.65-.765-1.19.118-.54.643-.883 1.19-.764l32.991 7.184c3.039.661 5.64 2.453 7.135 4.915 1.313 2.165 1.681 4.671 1.032 7.06-1.186 4.378-5.634 7.487-10.646 7.487z" fill="#25a77b"/><path d="m621.913 595.858c-.111 0-.222-.001-.333-.004-.447-.012-.902-.048-1.352-.108l-24.976-3.355c-.548-.074-.932-.577-.858-1.125.073-.546.568-.933 1.124-.858l24.976 3.355c.379.051.762.082 1.139.092 4.705.125 8.733-2.869 9.397-6.96.319-1.965-.186-3.966-1.424-5.635-1.458-1.967-3.803-3.298-6.432-3.65l-6.486-.872c-.548-.074-.932-.577-.858-1.125.073-.546.569-.928 1.124-.858l6.486.872c3.161.424 5.994 2.043 7.772 4.441 1.562 2.106 2.198 4.645 1.792 7.147-.807 4.975-5.544 8.643-11.091 8.643z" fill="#25a77b"/><path d="m614.552 641.243c-.115 0-.23-.001-.347-.005l-.292-.011-30.383-1.489c-.552-.027-.977-.497-.95-1.048.027-.552.486-.966 1.048-.95l30.631 1.499c4.853.125 9.024-3.116 9.259-7.232.146-2.556-1.224-5.008-3.663-6.559-.467-.296-.604-.914-.308-1.38s.915-.604 1.38-.307c3.061 1.945 4.775 5.07 4.587 8.36-.295 5.17-5.08 9.122-10.962 9.122z" fill="#25a77b"/></svg></g><!--ITEM: Illustration component 3--><g transform="translate(1464.0625 1587.5) rotate(0.0 601.5625 104.6875)  scale(1.7216275775224303 1.731774495045574)"><svg width="698.83" height="120.902" viewBox="0.0 0.0 698.83 120.902"><path d="m0 120.902h698.83l-122.013-120.902h-455.169z" fill="#25a77b"/><path d="m37.126 108.035h624.578l-98.876-98.27h-426.825z" fill="#fcf0e3"/><path d="m140.67 92.789c-24.464 0-43.627-7.942-43.627-18.081s19.163-18.081 43.627-18.081 43.626 7.942 43.626 18.081-19.163 18.081-43.626 18.081zm0-34.462c-22.727 0-41.928 7.501-41.928 16.381s19.201 16.381 41.928 16.381 41.927-7.501 41.927-16.381-19.201-16.381-41.927-16.381z" fill="#25a77b"/><path d="m199.348 85.147c-.354 0-.68-.223-.801-.568-.139-.394.029-.831.396-1.03 71.963-38.995 72.735-38.999 73.025-39l96.549-.523h.005c.468 0 .848.377.85.846.003.469-.376.852-.845.854l-96.407.522c-2.797 1.198-46.034 24.539-67.683 36.259l107.904-19.625c.462-.083.905.222.988.685.084.461-.222.904-.684.988l-113.143 20.578c-.052.01-.103.014-.154.014z" fill="#25a77b"/><path d="m643.244 30.92-374.345 68.229-27.95-21.494 374.345-68.229z" fill="#25a77b"/><path d="m285.032 84.931c-.181 0-.362-.058-.518-.176l-15.088-11.603c-.372-.286-.441-.82-.155-1.192.285-.372.818-.441 1.192-.156l15.088 11.603c.372.286.441.82.155 1.192-.166.218-.419.332-.674.332zm32.986-6.021c-.181 0-.362-.058-.518-.176l-15.088-11.603c-.372-.286-.441-.82-.155-1.192.285-.372.818-.442 1.192-.156l15.088 11.603c.372.286.441.82.155 1.192-.166.218-.419.332-.674.332zm32.987-6.021c-.181 0-.362-.058-.518-.176l-15.088-11.603c-.372-.286-.441-.82-.155-1.192.285-.372.818-.442 1.192-.156l15.088 11.603c.372.286.441.82.155 1.192-.167.218-.42.332-.674.332zm32.986-6.021c-.181 0-.362-.058-.518-.176l-15.087-11.603c-.372-.286-.441-.82-.155-1.192.285-.372.818-.442 1.192-.156l15.087 11.603c.372.286.441.82.155 1.192-.166.218-.419.332-.674.332zm32.987-6.021c-.181 0-.362-.058-.518-.176l-15.088-11.603c-.372-.286-.441-.82-.155-1.192.285-.372.818-.441 1.192-.156l15.088 11.603c.372.286.441.82.155 1.192-.166.218-.419.332-.674.332zm32.986-6.021c-.181 0-.362-.058-.518-.176l-15.088-11.603c-.372-.286-.441-.82-.155-1.192.285-.372.817-.442 1.192-.156l15.088 11.603c.372.286.441.82.155 1.192-.166.218-.419.332-.674.332zm32.987-6.021c-.181 0-.362-.058-.518-.176l-15.088-11.603c-.372-.286-.441-.82-.155-1.192s.817-.442 1.192-.156l15.088 11.603c.372.286.441.82.155 1.192-.166.218-.419.332-.674.332zm32.986-6.021c-.181 0-.362-.058-.518-.176l-15.088-11.603c-.372-.286-.441-.82-.155-1.192.285-.372.817-.442 1.192-.156l15.088 11.603c.372.286.441.82.155 1.192-.166.218-.419.332-.674.332zm32.986-6.021c-.181 0-.362-.058-.518-.176l-15.088-11.603c-.372-.286-.441-.82-.155-1.192.285-.372.818-.441 1.192-.156l15.088 11.603c.372.286.441.82.155 1.192-.166.218-.419.332-.674.332zm32.987-6.021c-.181 0-.362-.058-.518-.176l-15.088-11.603c-.372-.286-.441-.82-.155-1.192.285-.372.818-.442 1.192-.156l15.088 11.603c.372.286.441.82.155 1.192-.166.218-.419.332-.674.332zm32.986-6.021c-.181 0-.362-.058-.518-.176l-15.087-11.603c-.372-.286-.441-.82-.155-1.192.285-.372.818-.442 1.192-.156l15.087 11.603c.372.286.441.82.155 1.192-.166.218-.419.332-.674.332z" fill="#403838"/></svg></g><!--ITEM: Illustration component 4--><g transform="translate(1385.9375 973.4375) rotate(0.0 694.53125 393.75)  scale(1.720983406700011 1.7253240322849206)"><svg width="807.133" height="456.436" viewBox="0.0 0.0 807.133 456.436"><path d="m807.006 286.921c5.265-130.557-163.627-263.705-370.354-284.034-100.735-9.906-189.838 6.684-260.131 40.551-71.372 34.387-121.005 89.281-154.084 161.194-54.105 117.621-15.509 197.32 172.43 197.32.289 0 .566-.009.85-.012 2.008.009 3.997.012 5.958.012 31.589 0 60.415-12.49 78.854-37.65 1.009-.024 2.034-.039 3.088-.039 71.236-.01 215.87 0 257.019 0 37.375 0 82.704 27.471 111.583 29.022 14.334 4.484 32.569 6.803 55.753 6.803 73.11 0 99.161-44.922 99.161-107.407 0-1.933-.043-3.853-.127-5.76z" fill="#ff914d"/><ellipse cx="225.684" cy="339.112" fill="#e56438" rx="61.305" ry="38.607" transform="matrix(.4007 -.9162 .9162 .4007 -175.4477 409.99)"/><path d="m437.652 2.887c-39.799-3.914-78.023-3.76-114.099-.077 1.032 26.342 56.691 52.786 115.432 59.002 60.223 6.372 105.006-10.23 106.083-37.559-34.042-10.339-70.108-17.697-107.416-21.366z" fill="#e56438"/><path d="m617.583 208.691c-11.761 6.927-30.209 31.843-31.707 47.976-.585 6.303-4.277 42.009-45.184 72.005-14.519 10.646 47.14 5.249 48.999 8.985 1.581 3.178 4.705-22.219 6.117-42.951.417-19.948 15.871-43.768 15.871-43.768s-1.869-24.637 5.904-42.247z" fill="#e56438"/><ellipse cx="653.102" cy="332.083" fill="#e56438" rx="42.827" ry="62.877" transform="matrix(.866 -.5 .5 .866 -78.5424 371.0416)"/><path d="m636.692 295.899c-21.446.542-63.435 12.241-87.318 27.535-15.918 10.193-61.553 46.011-57.251 54.133 4.393 8.293 16.887 4.996 25 1.727-5.125 5.678-9.996 11.798-14.334 18.173-11.363 16.698-21.471 37.86-12.845 44.417 10.215 7.765 31.865-12.946 45.212-25.66 0 0-23.497 30.752-11.239 38.851 13.601 8.986 59.329-29.455 59.329-29.455s-20.352 19.891-13.065 27.336c8.159 8.336 24.601 1.824 54.509-29.243 12.881-13.38 26.021-29.03 29.651-34.443 5.703-8.502 11.508-6.124 24.576-19.368 20.383-20.657-7.039-77.175-42.225-74.003z" fill="#f8b5a4"/><g fill="#403838"><path d="m535.168 416.611c-.246 0-.492-.09-.686-.272-.402-.378-.421-1.011-.043-1.414 12.458-13.23 28.029-27.587 39.672-36.577.438-.338 1.066-.255 1.403.18.337.438.256 1.065-.181 1.403-11.566 8.931-27.047 23.205-39.438 36.365-.196.209-.462.315-.727.315z"/><path d="m583.256 426.007c-.202 0-.406-.061-.583-.188-.448-.323-.551-.947-.228-1.396 5.85-8.135 21.704-25.26 26.513-29.043.434-.343 1.063-.266 1.404.167s.267 1.062-.168 1.404c-4.611 3.629-20.478 20.785-26.126 28.64-.194.271-.501.416-.812.416z"/><path d="m516.291 380.621c-.237 0-.475-.083-.665-.253-.412-.367-.449-1-.082-1.412 11.303-12.697 40.997-33.599 50.907-39.775.471-.292 1.086-.149 1.378.32s.149 1.085-.319 1.377c-9.522 5.935-39.463 27.041-50.472 39.408-.198.222-.472.335-.747.335z"/><path d="m499.153 371.649c-2.082 0-3.835-.475-4.677-1.489-.353-.425-.294-1.056.131-1.408.425-.354 1.055-.293 1.408.131.963 1.159 7.515 1.243 11.72-1.938 3.469-2.622 3.613-6.467.417-11.118-.312-.455-.197-1.078.258-1.391.456-.312 1.077-.197 1.391.258 5.192 7.557 1.69 11.919-.859 13.847-2.638 1.994-6.6 3.108-9.789 3.108z"/><path d="m496.183 438.461c-1.507 0-2.747-.416-3.648-1.248-1.764-1.629-1.684-4.807-1.307-7.186.722-4.549 3.242-10.224 5.844-11.42 2.303-1.057 6.021.464 8.735 2.241 1.308.855 5.568 3.903 5.506 7.188-.059 3.092-5.134 7.155-9.803 9.146-2 .852-3.8 1.279-5.327 1.279zm2.656-18.206c-.368 0-.684.055-.932.169-1.53.703-3.969 5.283-4.704 9.917-.413 2.604-.156 4.624.688 5.403 1.165 1.077 3.719.927 6.833-.402 4.719-2.012 8.556-5.663 8.588-7.345.027-1.433-1.864-3.685-4.601-5.476-2.164-1.417-4.423-2.266-5.872-2.266z"/><path d="m531.323 451.244c-2.123 0-3.802-.588-4.855-1.749-1.243-1.371-1.501-3.688-.745-6.698 1.051-4.185 4.052-9.334 6.844-10.328 2.391-.852 5.956.996 8.501 3.004 1.227.968 5.202 4.381 4.849 7.648-.306 2.826-4.9 5.746-9.281 7.169-1.963.638-3.757.954-5.313.954zm2.57-16.991c-.248 0-.468.032-.656.099-1.657.59-4.514 4.706-5.574 8.931-.569 2.265-.465 4.04.287 4.868 1.234 1.362 4.325 1.454 8.066.237 4.47-1.453 7.757-4.056 7.911-5.483.154-1.425-1.531-3.836-4.1-5.863-2.17-1.714-4.505-2.789-5.934-2.789z"/><path d="m580.004 451.427c-1.744 0-3.039-.518-3.808-1.541-.864-1.149-.882-2.997-.053-5.494 1.354-4.075 4.998-9.582 7.491-10.31 2.444-.713 5.592 1.903 6.5 2.722 2.083 1.878 4.158 4.708 3.736 7.017-.541 2.958-6.861 6.256-10.975 7.228-1.066.252-2.033.378-2.891.378zm4.511-15.465c-.121 0-.228.014-.32.041-1.462.427-4.835 5.052-6.153 9.021-.576 1.732-.669 3.101-.248 3.661.606.805 2.341.961 4.643.419 4.695-1.11 9.223-4.301 9.468-5.641.215-1.179-1.093-3.354-3.109-5.172-1.76-1.587-3.388-2.329-4.281-2.329z"/></g><path d="m217.607 222.941c10.682-.904 26.156-6.516 27.786-14.223s3.621-18.732 4.167-25.292c.311 24.576.311 37.123 5.931 53.984 5.643 16.928 10.064 27.055 10.064 27.055s-7.446-16.402-27.509-30.121c-7.913-5.411-11.668-7.423-20.439-11.403z" fill="#e56438"/><path d="m267.288 269.453c-.379 0-.741-.216-.91-.583-7.913-17.252-22.583-31.718-42.426-41.833-17.104-8.72-37.524-13.721-56.024-13.721-.553 0-1-.448-1-1s.447-1 1-1c18.805 0 39.556 5.081 56.933 13.939 20.248 10.322 35.233 25.115 43.336 42.781.23.502.01 1.096-.492 1.326-.136.061-.279.091-.417.091z" fill="#403838"/><path d="m308.05 283.164c24.983-6.89 32.85 80.303 20.018 81.33s-50.814-72.837-20.018-81.33z" fill="#f8b5a4"/><path d="m349.977 397.27s-15.179 1.976-18.955-4.417c0 0-.001-.001-.001-.001l-75.611-128.025c-2.739-4.638-1.2-10.618 3.438-13.357l6.9-4.075c4.638-2.739 10.618-1.2 13.357 3.438l75.611 128.024c3.775 6.393-4.739 18.413-4.739 18.413z" fill="#f8a036"/><ellipse cx="265.956" cy="255.519" fill="#f8a036" rx="13.704" ry="9.283" transform="matrix(.861 -.5085 .5085 .861 -92.9829 170.7536)"/><path d="m333.93 396.384c5.589 3.214 11.963 8.572 17.553 11.786 2.215 1.274 5.044.511 6.318-1.705.419-.729.632-1.56.615-2.401-.127-6.229-1.912-15.309-2.038-21.539z" fill="#ffe3c3"/><ellipse cx="343.893" cy="387.466" fill="#ffe3c3" rx="13.67" ry="8.82" transform="matrix(.8531 -.5218 .5218 .8531 -151.6523 236.3798)"/><path d="m349.219 406.807c.879.576 8.367 5.486 8.367 5.486.701.465 1.646.273 2.111-.428.217-.328.299-.727.229-1.113l-1.676-9.766c-3.882-1.551-9.11 2.306-9.031 5.821z" fill="#000000"/><path d="m243.419 287.259c-14.89 9.949-6.074 27.375-6.074 27.375s-15.569-4.106-24.808 9.068 1.711 27.168 1.711 27.168-14.497 1.319-18.261 14.151c-3.534 12.049 5.221 27.195 38.679 37.441 20.657 6.326 29.103 3.28 35.402-1.828 5.306-4.302 4.349-11.848 4.349-11.848s17.01 4.516 22.976-3.465c6.747-9.026-.182-21.517-.182-21.517s28.718 21.911 35.693 10.029-16.929-41.999-34.424-63.084c-23.751-28.623-44.286-30.69-55.061-23.49z" fill="#f8b5a4"/><path d="m324.308 373.094c-.71 0-1.478-.073-2.297-.222-4.942-.895-10.997-4.404-11.704-7.762-.291-1.385.115-2.904 1.208-4.517 2.383-3.516 7.526-6.677 9.298-6.985 2.002-.352 4.273 1.13 6.229 4.057 2.672 4.001 4.229 9.859 2.037 13.313-.884 1.393-2.541 2.116-4.771 2.116zm-2.91-17.535c-.083 0-.164.007-.242.021h-.001c-1.081.188-5.81 2.927-7.983 6.136-.777 1.146-1.082 2.15-.907 2.983.475 2.254 5.573 5.386 10.104 6.206 2.501.452 4.332.089 5.021-.997 1.654-2.606.276-7.707-2.011-11.132-1.331-1.992-2.86-3.217-3.981-3.217zm-.414-.965h.01z" fill="#403838"/><path d="m274.898 389.112c-.246 0-.491-.09-.685-.271-7.682-7.217-24.652-18.839-34.262-23.464-.498-.239-.707-.837-.468-1.334.241-.498.839-.707 1.335-.467 9.749 4.691 26.969 16.484 34.764 23.808.402.378.423 1.011.044 1.414-.196.208-.461.314-.728.314z" fill="#403838"/><path d="m297.206 364.809c-.277 0-.554-.115-.751-.34-9.943-11.319-33.167-29.799-39.919-33.726-.478-.277-.64-.89-.361-1.367.277-.477.891-.64 1.367-.361 6.842 3.979 30.359 22.687 40.415 34.134.365.415.324 1.047-.091 1.412-.191.166-.426.248-.66.248z" fill="#403838"/><path d="m238.046 235.344c-.113 0-.229-.02-.342-.061-.52-.189-.787-.763-.598-1.282.102-.28 10.225-28.349 11.767-54.811.032-.552.479-.965 1.057-.94.551.032.972.505.939 1.057-1.559 26.761-11.78 55.096-11.884 55.379-.147.406-.53.658-.939.658z" fill="#403838"/><path d="m595.809 296.458c-.031 0-.063-.001-.096-.004-.55-.053-.953-.541-.9-1.091 3.774-39.538 31.768-73.977 73.056-89.878.513-.197 1.094.057 1.293.574.198.515-.059 1.094-.574 1.292-40.576 15.627-68.082 49.424-71.784 88.202-.049.517-.485.905-.995.905z" fill="#403838"/><path d="m611.678 251.938c-.508 0-.942-.385-.994-.9-2.134-21.275 3.829-43.89 17.246-65.399.292-.468.907-.612 1.378-.319.469.292.611.909.319 1.378-13.181 21.13-19.043 43.31-16.953 64.142.055.549-.346 1.04-.896 1.095-.033.001-.066.003-.1.003z" fill="#403838"/></svg></g><!--ITEM: Illustration component 5--><g transform="translate(2682.8125 1048.4375) rotate(0.0 134.375 332.03125)  scale(1.7401579901579902 1.7333015765295468)"><svg width="154.44" height="383.12" viewBox="0.0 0.0 154.44 383.12"><path d="m105.613 383.12h-99.403c-3.842 0-6.761-3.454-6.122-7.242l26.187-155.06 86.299 7.131-.753 148.994c-.017 3.417-2.792 6.177-6.208 6.177z" fill="#93d3fd"/><ellipse cx="69.436" cy="224.381" fill="#93d3fd" rx="12.286" ry="43.285" transform="matrix(.0825 -.9966 .9966 .0825 -159.9071 275.0731)"/><path d="m112.575 228.951c-.027 0-.056-.001-.083-.003-.551-.045-.96-.529-.915-1.079.549-6.628-21.278-13.085-41.21-14.735-11.433-.946-22.272-.575-30.524 1.046-7.633 1.5-12.323 4.009-12.547 6.713-.046.55-.542.96-1.079.914-.551-.045-.96-.529-.915-1.079.315-3.811 5.21-6.753 14.155-8.511 8.428-1.655 19.465-2.038 31.074-1.077 28.667 2.373 43.57 10.475 43.04 16.894-.044.522-.481.917-.996.917z" fill="#25a77b"/><path d="m132.104 5.028-31.359-5.028-37.847 236.063c1.807.216 3.648.406 5.524.562 9.948.823 19.182.623 26.612-.379z" fill="#ffe3c3"/><g fill="#25a77b"><path d="m113.702 20.502c-.053 0-.105-.004-.159-.013l-15.68-2.514c-.546-.087-.917-.6-.829-1.146s.596-.916 1.146-.829l15.68 2.514c.546.087.917.6.829 1.146-.08.492-.504.842-.987.842z"/><path d="m107.247 60.766c-.053 0-.105-.004-.159-.013l-15.68-2.514c-.546-.087-.917-.6-.829-1.146.087-.545.6-.921 1.146-.829l15.68 2.514c.546.087.917.6.829 1.146-.08.492-.505.842-.987.842z"/><path d="m100.792 101.03c-.053 0-.105-.004-.159-.013l-15.681-2.514c-.545-.087-.917-.6-.829-1.146s.594-.919 1.146-.829l15.681 2.514c.545.087.917.6.829 1.146-.08.492-.505.842-.987.842z"/><path d="m94.336 141.294c-.053 0-.105-.004-.159-.013l-15.68-2.514c-.546-.087-.917-.6-.829-1.146.087-.545.598-.918 1.146-.829l15.68 2.514c.546.087.917.6.829 1.146-.08.492-.505.842-.987.842z"/><path d="m87.881 181.558c-.053 0-.105-.004-.159-.013l-15.68-2.514c-.546-.087-.917-.6-.829-1.146s.601-.921 1.146-.829l15.68 2.514c.546.087.917.6.829 1.146-.08.492-.505.842-.987.842z"/><path d="m81.426 221.823c-.053 0-.105-.004-.159-.013l-15.68-2.514c-.546-.087-.917-.6-.829-1.146s.595-.92 1.146-.829l15.68 2.514c.546.087.917.6.829 1.146-.08.492-.505.842-.987.842z"/></g><path d="m149.034 102.108-8.084 8.932c-.237.262-.427.562-.563.887l-52.176 124.977c6.66-.415 12.377-1.375 16.597-2.775l48.726-116.714c.136-.326.215-.672.235-1.024l.666-12.028c.161-2.922-3.438-4.424-5.401-2.255z" fill="#25a77b"/><path d="m44.187 116.311-15.627 1.337 9.657 112.867c4.449 1.67 9.94 3.133 16.106 4.261z" fill="#25a77b"/><path d="m51.951 179.446-20.315 1.738-5.335-62.35c-.377-4.402 2.887-8.276 7.289-8.653l4.373-.374c4.402-.377 8.276 2.887 8.653 7.289z" fill="#25a77b"/><path d="m44.602 173.278-6.772.579-4.562-53.314c-.155-1.807 1.185-3.398 2.992-3.552l.227-.019c1.807-.155 3.398 1.185 3.552 2.992z" fill="#25a77b"/><path d="m80.598 238.141c-3.947 0-8.064-.172-12.257-.519-28.666-2.373-43.569-10.475-43.039-16.894.046-.55.543-.965 1.079-.914.551.045.96.529.915 1.079-.549 6.628 21.277 13.085 41.209 14.735 11.436.947 22.274.575 30.525-1.046 7.633-1.5 12.323-4.009 12.547-6.713.046-.55.541-.963 1.079-.914.551.045.96.529.915 1.079-.315 3.811-5.211 6.753-14.155 8.511-5.385 1.057-11.835 1.596-18.818 1.596z" fill="#25a77b"/></svg></g><!--ITEM: Illustration component 6--><g transform="translate(1742.1875 387.5) rotate(0.0 296.09375 285.9375)  scale(1.750097525223569 1.7449896864434709)"><svg width="338.374" height="327.724" viewBox="0.0 0.0 338.374 327.724"><circle cx="94.363" cy="251.687" fill="#dda094" r="32.303"/><circle cx="187.894" cy="179.221" fill="#2b2929" r="125.864"/><path d="m309.208 183.457c-5.037-11.518-12.642-21.28-22.099-29.105.672-12.263-1.337-24.484-6.379-36.013-20.779-47.514-85.059-65.287-143.573-39.697s-89.104 84.852-68.324 132.366c4.953 11.326 12.383 20.958 21.612 28.72-.783 12.474 1.206 24.912 6.332 36.632 20.787 47.531 85.192 65.265 143.853 39.611s89.364-84.983 68.578-132.514z" fill="#f8b5a4"/><path d="m185.577 262.104c-.011 0-.021 0-.031 0-.394-.012-9.656-.353-10.966-5.758-1.233-5.085 5.726-13.146 6.523-14.048.366-.414.997-.452 1.411-.087.414.366.453.998.087 1.412-1.975 2.236-6.916 8.797-6.078 12.253.79 3.26 6.825 4.159 9.084 4.23.552.018.985.479.968 1.03-.017.541-.461.968-.998.968z" fill="#403838"/><path d="m228.623 246.718c-5.535.949-7.692 9.103-5.485 21.98.285 1.66.626 3.267 1.013 4.808 6.537-3.876 11.281-8.989 14.377-13.924-2.476-9.68-5.309-13.652-9.905-12.864z" fill="#ff914d"/><path d="m214.148 275.699c-.489 0-.917-.359-.989-.858-.078-.546.302-1.053.848-1.132 13.166-1.892 21.85-8.516 26.548-20.252.206-.514.786-.763 1.301-.557.513.205.762.787.557 1.3-4.987 12.458-14.186 19.486-28.12 21.488-.05.008-.098.011-.145.011z" fill="#403838"/><ellipse cx="134.229" cy="244.143" fill="#fff" rx="28.045" ry="16.986" transform="matrix(.9646 -.2637 .2637 .9646 -59.6344 44.0425)"/><path d="m138.709 260.528c6.502-1.778 12.088-4.8 16.121-8.391-.075-1.733-.357-3.483-.913-5.214-3.346-10.43-14.514-16.173-24.944-12.827-10.431 3.346-16.173 14.514-12.828 24.944.154.481.342.941.529 1.401 5.913 2.124 13.848 2.325 22.035.087z" fill="#2b2929"/><ellipse cx="217.944" cy="213.511" fill="#fff" rx="28.045" ry="16.986" transform="matrix(.9095 -.4158 .4158 .9095 -69.0398 109.9403)"/><g fill="#2b2929"><path d="m225.005 228.959c6.131-2.803 11.157-6.685 14.558-10.88-.353-1.698-.914-3.38-1.741-4.999-4.984-9.755-16.931-13.622-26.686-8.639-9.754 4.984-13.622 16.931-8.639 26.686.229.45.489.873.748 1.298 6.177 1.144 14.041.063 21.76-3.466z"/><path d="m192.465 198.021c-2.312 0-4.593-1.073-6.064-3.09-2.441-3.346-1.686-8.054 1.66-10.496 4.937-3.603 21.138-8.289 27.742-8.965 4.13-.423 7.803 2.576 8.226 6.696.422 4.121-2.576 7.803-6.696 8.226-5.139.527-18 4.565-20.476 6.193-1.329.97-2.867 1.436-4.392 1.436z"/><path d="m105.388 230.812c-2.043 0-4.078-.83-5.559-2.463-2.782-3.068-2.55-7.812.52-10.594 4.827-4.376 24.271-12.164 30.278-13.432 4.051-.857 8.032 1.735 8.888 5.788s-1.735 8.032-5.788 8.888c-5.167 1.091-20.673 7.856-23.375 9.934-1.424 1.259-3.196 1.879-4.964 1.879z"/></g><circle cx="306.07" cy="176.064" fill="#f8b5a4" r="32.303"/><path d="m319.977 193.432c-.283 0-.564-.12-.762-.353-.358-.421-.307-1.052.114-1.41 4.169-3.542 6.708-8.495 7.151-13.947s-1.264-10.75-4.805-14.919c-4.694-5.524-12.05-8.172-19.197-6.904-.551.095-1.062-.267-1.159-.811s.267-1.062.81-1.159c7.847-1.387 15.919 1.515 21.07 7.579 3.888 4.576 5.761 10.391 5.274 16.376-.486 5.984-3.273 11.421-7.85 15.309-.187.161-.417.239-.646.239z" fill="#403838"/><path d="m325.14 50.86c-3.763-31.626-32.452-54.214-64.079-50.45-28.542 3.396-49.714 27.094-50.808 54.93-11.993-2.161-24.501-2.616-37.231-1.101-30.344 3.611-56.87 17.738-76.378 38.298-11.894-11.499-28.666-17.755-46.375-15.648-31.259 3.72-53.584 32.076-49.864 63.335 3.583 30.106 30.019 51.914 59.89 50.16-.083 8.846.41 17.725 1.29 25.122 1.332 11.192 1.842 21.703 4.382 32.617.379 1.629 2.018 2.624 3.638 2.211 8.237-2.101 20.787-7.449 23.897-9.626.32-.224-3.152-10.67-6.118-21.857-.891-3.36 3.751-5.223 5.447-2.189 2.886 5.164 5.355 9.16 5.573 8.962 2.195-1.987 12.278-10.191 20.389-16.338 1.381-1.047-6.259-41.119-8.322-56.057.295-.797.572-1.6.832-2.412 4.357 9.942 17.979 43.888 19.027 43.099 7.762-5.839 24.698-11.736 34.178-13.899.969-.221.024-24.83-1.315-38.096-.143-1.42 1.808-1.944 2.395-.643 5.402 11.98 15.946 34.637 17.024 34.33 11.786-3.353 40.423-6.009 54.834-5.834.528.006.935-4.813 1.481-10.804.371-4.069 6.155-4.482 7.098-.506 4.336 18.3 9.986 41.37 10.921 41.416 5.876.294 26.191 1.214 32.085 2.597.535.126-2.094-38.193-2.356-42.609-.101-1.687-2.313-14.813 14.155-16.154 2.146-.175 3.439-2.476 2.408-4.365-3.019-5.53-6.423-10.814-10.164-15.824 4.644.228 6.42-3.535.692-12.424-.311-.483-.64-.952-.957-1.43 21.637-10.372 35.324-33.655 32.331-58.811z" fill="#2b2929"/><path d="m318.404 85.444c-25.534-26.284-62.107-44.386-103.559-50.412-1.325 3.095-2.394 6.314-3.163 9.638 37.189 7.074 70.049 28.153 92.096 58.131 5.978-4.765 10.947-10.677 14.626-17.357z" fill="#e56438"/><path d="m63.089 162.711c.001-.004.002-.009.003-.013 3.52-26.734 15.547-51.187 33.552-70.162-.594-.571-1.199-1.13-1.816-1.675-.022-.019-.043-.039-.064-.059-1.25-1.1-2.546-2.147-3.885-3.137 0 0 0 0-.001-.001-23.199 26.641-39.001 62.203-43.352 102.028 4.145.697 8.42.943 12.769.691.093-9.993.922-19.946 2.794-27.672z" fill="#e56438"/></svg></g><!--ITEM: Illustration component 7--><g transform="translate(1179.6875 1432.8125) rotate(0.0 235.15625 132.8125)  scale(1.75198830300434 1.7476708687527962)"><svg width="268.445" height="151.988" viewBox="0.0 0.0 268.445 151.988"><path d="m183.157 20.603c-49.031-32.781-96.473-19.246-123.55-8.281-8.663 3.508-23.77 10.674-40.312 18.799-14.403 17.74-20.63 108.043-19.058 120.867 1.091-.335 4.273-1.313 8.787-2.7 21.424-6.582 72.833-22.377 72.833-22.377 11.411 12.834 30.292 29.12 46.975 20.324 18.022-9.503 4.708-37.157 4.708-37.157s25.567 29.329 44.78 11.303c16.131-15.134-12.566-50.186-12.566-50.186s91.971 47.631 101.414 30.049c9.443-17.58-34.98-47.859-84.011-80.641z" fill="#f8b5a4"/><g fill="#403838"><path d="m255.536 95.232c-.415 0-.841-.013-1.277-.038-5.489-.318-12.607-2.849-14.538-6.385-.889-1.627-.99-3.608-.294-5.729 1.464-4.455 5.955-8.585 9.438-10.209.5-.235 1.095-.017 1.329.484.233.5.017 1.095-.483 1.329-3.146 1.467-7.143 5.242-8.384 9.021-.527 1.605-.477 3.001.149 4.147 1.381 2.53 7.408 5.029 12.897 5.347 3.823.218 6.736-.65 7.971-2.395.317-.451.944-.558 1.394-.239.451.319.559.943.239 1.394-1.507 2.128-4.477 3.273-8.441 3.273z"/><path d="m133.54 111.079c-.389 0-.758-.229-.92-.609-5.148-12.096-18.911-39.996-35.496-37.755-.566.071-1.052-.311-1.125-.858s.311-1.051.857-1.125c17.941-2.412 32.276 26.436 37.604 38.954.217.508-.021 1.096-.528 1.312-.129.055-.261.081-.392.081z"/><path d="m164.716 71.308c-.389 0-.758-.229-.92-.609-3.876-9.108-14.692-30.136-31.322-28.675-.555.051-1.035-.358-1.084-.909s.358-1.035.908-1.083c17.983-1.574 29.292 20.374 33.338 29.884.217.508-.021 1.096-.528 1.312-.128.054-.261.08-.392.08z"/><path d="m72.192 130.882c-.398 0-.775-.24-.931-.634-.202-.514.051-1.095.564-1.297 1.763-.694 3.601-1.333 5.379-1.951 4.991-1.735 10.153-3.528 14.406-6.792.439-.336 1.067-.252 1.401.185.337.438.254 1.066-.185 1.402-4.509 3.459-9.825 5.307-14.967 7.094-1.759.611-3.578 1.243-5.303 1.923-.118.047-.242.07-.364.07z"/></g></svg></g></svg>