<svg xmlns="http://www.w3.org/2000/svg" fill="#001d82" viewBox="0 0 64 64"><g data-name="Boy Student"><path d="M13.4 45a1 1 0 0 0-1 1v0a1 1 0 0 0 1 1 1 1 0 0 0 0-2zM51.34 44.26A11 11 0 0 0 47 37.16.86.86 0 0 0 47 37V36a1 1 0 0 0-1-1H37V31.88A12 12 0 0 0 43.6 24H44a4 4 0 0 0 1-7.86V4h3V17a1 1 0 0 0 2 0V4h1a1 1 0 0 0 0-2H13a1 1 0 0 0 0 2h6V16.14a4.08 4.08 0 0 0-1.83 1A4 4 0 0 0 20 24h.4A12 12 0 0 0 27 31.88V35H18a1 1 0 0 0-1 1v1.16a11.07 11.07 0 0 0-4 5.63 1 1 0 0 0 1.92.58 9 9 0 0 1 2.29-3.79l.12.63a15 15 0 0 0 29.32 0l.12-.64a9.06 9.06 0 0 1 2.58 5L52 61.16A1 1 0 0 0 53 62h.16A1 1 0 0 0 54 60.84zm-8.55-7.17a11.33 11.33 0 0 1-.28 1.15c0 .07 0 .14-.07.21A11 11 0 0 1 22 39.58a10.84 10.84 0 0 1-.44-1.12c0-.08 0-.15-.07-.22a11.33 11.33 0 0 1-.28-1.15s0-.06 0-.09H27.1a6 6 0 0 0 .25.82c0 .08.07.15.1.23a6.45 6.45 0 0 0 .31.58l.14.22a4.64 4.64 0 0 0 .57.69A5 5 0 0 0 32 41a4.94 4.94 0 0 0 1-.1l.3-.08a4 4 0 0 0 .59-.18l.32-.15a3.84 3.84 0 0 0 .49-.27A2.28 2.28 0 0 0 35 40a4.7 4.7 0 0 0 .43-.35l.26-.25c.12-.14.24-.28.35-.43l.21-.29a3.81 3.81 0 0 0 .29-.53l.13-.27a5 5 0 0 0 .26-.83l0-.06h5.91S42.8 37.06 42.79 37.09zM30.27 32.86l.36 0a10.47 10.47 0 0 0 2.74 0l.36 0c.35 0 .69-.11 1-.19l.24-.05V36a3 3 0 1 1-6 0V32.62l.24.05C29.58 32.75 29.92 32.81 30.27 32.86zM41.69 15.19a3.56 3.56 0 0 1-.34-.6l0-.05a5.05 5.05 0 0 1-.22-.69.29.29 0 0 0 0-.09l1.81-.45.11 0v3.09l-.08-.05a4 4 0 0 1-.54-.37l-.1-.09a3.23 3.23 0 0 1-.47-.51A1.67 1.67 0 0 1 41.69 15.19zM46 20a2 2 0 0 1-2 2h0c0-.33 0-.66 0-1V19a1 1 0 0 0 .53-.15 1 1 0 0 0 .24-.23.18.18 0 0 0 0-.07.85.85 0 0 0 .15-.3h0A2 2 0 0 1 46 20zM43 4v7.22L39.76 12 32 14 24.24 12 21 11.22V4zM22.3 15.2l-.09.13a4.19 4.19 0 0 1-.49.54l-.09.07a3.58 3.58 0 0 1-.55.38l-.08.05V13.28l1.92.48a.29.29 0 0 0 0 .09A3.66 3.66 0 0 1 22.3 15.2zM20 22a2 2 0 0 1-2-2 2 2 0 0 1 .59-1.41 1.79 1.79 0 0 1 .44-.34h0a.85.85 0 0 0 .15.3.43.43 0 0 0 0 .07.92.92 0 0 0 .25.23A1 1 0 0 0 20 19v2c0 .34 0 .67 0 1zm2.16.82A10.9 10.9 0 0 1 22 21V18.11c.13-.07.25-.15.37-.23l.13-.08c.2-.14.39-.3.58-.46l.12-.13a4.89 4.89 0 0 0 .39-.4l.14-.18a4.48 4.48 0 0 0 .32-.44.86.86 0 0 0 .1-.16 4.89 4.89 0 0 0 .34-.64.42.42 0 0 0 0-.1 5.71 5.71 0 0 0 .21-.58 1.8 1.8 0 0 0 .06-.22c0-.08.05-.16.07-.24L31.76 16a1 1 0 0 0 .48 0l6.89-1.72s0 .08 0 .13c.06.23.13.46.21.68 0 .06 0 .12.07.18a5.62 5.62 0 0 0 1.27 1.89l.11.12a3.17 3.17 0 0 0 .34.28l.27.22.3.19.26.17V21a9.94 9.94 0 0 1-.16 1.82h0a10 10 0 0 1-11.68 8 12 12 0 0 1-1.8-.51A10.06 10.06 0 0 1 22.16 22.82zm22.54 17a13 13 0 0 1-25.4 0A12.14 12.14 0 0 1 19 37.56 5.24 5.24 0 0 1 19 37h.16c0 .13.05.26.07.38s.05.28.08.41a4.94 4.94 0 0 0 .13.52c0 .13.06.26.1.38s.12.37.18.56.07.21.11.32c.11.29.22.57.35.85a13 13 0 0 0 23.64 0c.13-.28.24-.57.35-.85 0-.1.06-.19.1-.28s.14-.4.2-.61.05-.21.08-.32l.15-.58.06-.35c0-.14.06-.29.08-.43H45c0 .19 0 .37 0 .61A12.39 12.39 0 0 1 44.7 39.79zM13.1 47.9a1 1 0 0 0-1.15.83L10 60.84A1 1 0 0 0 10.84 62H11a1 1 0 0 0 1-.84l1.94-12.11A1 1 0 0 0 13.1 47.9z"/><path d="M32,29.53a4.55,4.55,0,0,0,3.21-1.32,1,1,0,0,0-1.42-1.42,2.53,2.53,0,0,1-3.58,0,1,1,0,0,0-1.42,1.42A4.55,4.55,0,0,0,32,29.53Z"/></g></svg>