<svg xmlns="http://www.w3.org/2000/svg" version="1.1" xmlns:xlink="http://www.w3.org/1999/xlink" xmlns:svgjs="http://svgjs.com/svgjs" width="2500" height="1500" preserveAspectRatio="none" viewBox="0 0 2500 1500"><g mask="url(&quot;#SvgjsMask1027&quot;)" fill="none"><rect width="2500" height="1500" x="0" y="0" fill="rgba(255, 255, 255, 1)"></rect><path d="M368.53 0C377.37 0.4 372 17.05 375 17.05C377.95 17.05 371.77 0.39 380.43 0C559.27 -8.13 565.22 0 750 0C937.5 0 937.5 0 1125 0C1312.5 0 1312.5 0 1500 0C1687.5 0 1687.5 0 1875 0C2062.5 0 2062.5 0 2250 0C2437.5 0 2531.25 -93.75 2625 0C2718.75 93.75 2625 187.5 2625 375C2625 562.5 2625 562.5 2625 750C2625 937.5 2625 937.5 2625 1125C2625 1312.5 2701.44 1388.94 2625 1500C2572.38 1576.44 2485.15 1530.2 2366.88 1500C2297.65 1482.33 2319.65 1407.21 2250 1404.26C2073.71 1396.79 2062.66 1478.31 1875 1479.17C1687.66 1480.03 1689.03 1430.97 1500 1407.69C1314.03 1384.78 1290.07 1352.86 1125 1386.79C1065.54 1399.01 1109.08 1482.44 1050.93 1500C921.58 1539.05 900.47 1500 750 1500C587.5 1500 425 1558.83 425 1500C425 1423.42 583.96 1359.92 750 1229.17C822.07 1172.42 901.21 1178.32 901.21 1125C901.21 1070.43 837.68 1027.4 750 1013.39C574.58 985.37 554.74 1002.25 375 1040.95C295.55 1058.06 254.65 1054.52 231.62 1125C179.65 1284.05 297.39 1382.81 225 1500C181.58 1570.31 42.19 1570.31 0 1500C-70.31 1382.81 0 1312.5 0 1125C0 937.5 0 937.5 0 750C0 562.5 0 562.5 0 375C0 187.5 -92.93 94.57 0 0C91.33 -92.93 189.87 -8.12 368.53 0" stroke="rgba(147, 211, 253, 0.33)" stroke-width="2"></path><path d="M750 283.33C661.4 283.33 558.14 327.14 558.14 375C558.14 423.9 662.48 476.85 750 476.85C806.37 476.85 845.93 424.66 845.93 375C845.93 327.9 805.29 283.33 750 283.33" stroke="rgba(147, 211, 253, 0.33)" stroke-width="2"></path><path d="M1875 281.25C1863.41 281.25 1850.81 331.82 1850.81 375C1850.81 389.41 1863.15 396.43 1875 396.43C1886.28 396.43 1897.06 388.94 1897.06 375C1897.06 331.35 1886.53 281.25 1875 281.25" stroke="rgba(147, 211, 253, 0.33)" stroke-width="2"></path><path d="M1125 675C1073.53 683.25 1045 708.44 1045 750C1045 802.54 1063.74 851.99 1125 863.21C1291.24 893.66 1328.14 877.48 1500 833.33C1548.46 820.88 1565.63 790.59 1565.63 750C1565.63 712.46 1545.68 684.86 1500 677.08C1325.37 647.36 1301.03 646.79 1125 675" stroke="rgba(147, 211, 253, 0.33)" stroke-width="2"></path><path d="M2250 682.69C2217.5 682.69 2184.38 716.95 2184.38 750C2184.38 781.86 2217.48 812.5 2250 812.5C2281.91 812.5 2313.25 781.84 2313.25 750C2313.25 716.93 2281.93 682.69 2250 682.69" stroke="rgba(147, 211, 253, 0.33)" stroke-width="2"></path><path d="M206.9 0C300.03 121.78 221.2 204.37 286.76 375C305.25 423.12 326.27 414.61 375 437.5C557.89 523.4 576.54 493.13 750 592.59C849.04 649.38 920 672.06 920 750C920 826.66 852.89 877.38 750 901.79C580.39 942.03 551.23 838.23 375 879.31C176.23 925.64 105.89 1113.12 0 1076.61C-81.61 1048.47 0 913.3 0 750C0 562.5 0 562.5 0 375C0 187.5 -66.67 120.83 0 0C36.78 -66.67 156.65 -65.72 206.9 0" stroke="rgba(147, 211, 253, 0.33)" stroke-width="2"></path><path d="M750 179.17C638.25 83.63 516.3 49.95 516.3 0C516.3 -39.64 633.15 0 750 0C937.5 0 937.5 0 1125 0C1312.5 0 1312.5 0 1500 0C1590 0 1647.66 -60.75 1680 0C1747.46 126.75 1639.56 211.71 1699.6 375C1737.06 476.89 1789.09 530.36 1875 530.36C1956.75 530.36 1995.65 473.29 2034.93 375C2101.63 208.11 2011.79 131.06 2086.96 0C2119.33 -56.44 2168.48 0 2250 0C2328.13 0 2333.55 -22.13 2406.25 0C2521.05 34.94 2571.84 22.99 2625 114.13C2681.21 210.49 2625 244.57 2625 375C2625 562.5 2625 562.5 2625 750C2625 937.5 2625 937.5 2625 1125C2625 1312.5 2675 1362.5 2625 1500C2606.82 1550 2546.12 1529.96 2488.64 1500C2358.62 1432.22 2387.95 1338.47 2250 1304.52C2081.13 1262.95 2060.78 1359.13 1875 1348.96C1685.78 1338.6 1688.93 1298.49 1500 1263.46C1313.93 1228.96 1297.83 1263.37 1125 1209.91C1074.04 1194.14 1052.42 1167.45 1052.42 1125C1052.42 1082.55 1074.1 1056.34 1125 1040.09C1297.89 984.91 1343.2 1063.69 1500 982.14C1622.1 918.64 1682.81 863.06 1682.81 750C1682.81 645.43 1617.54 587.38 1500 546.88C1338.64 491.28 1288.63 609.41 1125 557.81C1016.1 523.47 1042.75 463.66 954.94 375C855.25 274.34 857.57 271.13 750 179.17" stroke="rgba(147, 211, 253, 0.33)" stroke-width="2"></path><path d="M2250 562.5C2159.46 562.5 2067.19 657.94 2067.19 750C2067.19 838.75 2159.4 924.11 2250 924.11C2338.9 924.11 2426.2 838.69 2426.2 750C2426.2 657.88 2338.96 562.5 2250 562.5" stroke="rgba(147, 211, 253, 0.33)" stroke-width="2"></path><path d="M550 1500C550 1452.87 651.59 1333.33 750 1333.33C844.18 1333.33 935.19 1452.2 935.19 1500C935.19 1535.53 842.6 1500 750 1500C650 1500 550 1536.21 550 1500" stroke="rgba(147, 211, 253, 0.33)" stroke-width="2"></path><path d="M45.26 0C45.26 52.68 11.6 138.16 0 138.16C-11.03 138.16 -17.05 52.03 0 0C5.58 -17.05 45.26 -16.4 45.26 0" stroke="rgba(147, 211, 253, 0.33)" stroke-width="2"></path><path d="M750 75C694.01 75 652.17 20.91 652.17 0C652.17 -16.59 701.09 0 750 0C879.81 0 1009.62 -18.37 1009.62 0C1009.62 19.13 872.74 75 750 75" stroke="rgba(147, 211, 253, 0.33)" stroke-width="2"></path><path d="M1063.95 375C1063.95 263.45 1040.21 164.14 1125 136.36C1258.23 92.71 1347.67 146.28 1500 232.14C1559.36 265.6 1548.39 310.18 1548.39 375C1548.39 402.44 1530.75 411.9 1500 416.67C1319.06 444.72 1301.03 457.45 1125 440.63C1083.01 436.62 1063.95 415.59 1063.95 375" stroke="rgba(147, 211, 253, 0.33)" stroke-width="2"></path><path d="M2172.79 375C2172.79 293.33 2174.8 203.46 2250 193.97C2400.91 174.93 2461.17 238.84 2625 317.93C2648.67 329.36 2625 346.47 2625 375C2625 562.5 2625 562.5 2625 750C2625 846.29 2645.49 942.57 2625 942.57C2602.57 942.57 2601.6 833.3 2539.16 750C2414.1 583.17 2397.42 593.2 2250 442.31C2214.24 405.7 2172.79 417.5 2172.79 375" stroke="rgba(147, 211, 253, 0.33)" stroke-width="2"></path><path d="M0 696.43C37.02 696.43 107.14 729.72 107.14 750C107.14 768.6 43.9 774.19 0 774.19C-9.67 774.19 0 762.1 0 750C0 723.21 -16.55 696.43 0 696.43" stroke="rgba(147, 211, 253, 0.33)" stroke-width="2"></path><path d="M508.93 750C508.93 729.53 635.64 708.33 750 708.33C778.67 708.33 795 729.37 795 750C795 770.29 778.32 790.18 750 790.18C635.28 790.18 508.93 770.45 508.93 750" stroke="rgba(147, 211, 253, 0.33)" stroke-width="2"></path><path d="M1800 750C1834.76 704.93 1837.5 664.29 1875 664.29C1912.5 664.29 1909.57 709.95 1950 750C2097.07 895.66 2086.7 912.59 2250 1035.71C2335.39 1100.09 2447.37 1082.36 2447.37 1125C2447.37 1166.9 2353.59 1187.82 2250 1204.79C2067.4 1234.7 2059.49 1238.91 1875 1218.75C1694.36 1199.01 1536.23 1228.06 1519.74 1125C1498.73 993.68 1657.13 935.28 1800 750" stroke="rgba(147, 211, 253, 0.33)" stroke-width="2"></path><path d="M675 1500C675 1482.33 713.1 1437.5 750 1437.5C785.32 1437.5 819.44 1482.07 819.44 1500C819.44 1513.32 784.72 1500 750 1500C712.5 1500 675 1513.58 675 1500" stroke="rgba(147, 211, 253, 0.33)" stroke-width="2"></path><path d="M2610.39 1500C2610.39 1478.79 2621.28 1446.43 2625 1446.43C2628.59 1446.43 2630.74 1478.95 2625 1500C2623.43 1505.74 2610.39 1505.58 2610.39 1500" stroke="rgba(147, 211, 253, 0.33)" stroke-width="2"></path></g><defs><mask id="SvgjsMask1027"><rect width="2500" height="1500" fill="#ffffff"></rect></mask></defs></svg>