<?xml version="1.0" standalone="no"?>
<!DOCTYPE svg PUBLIC "-//W3C//DTD SVG 20010904//EN"
 "http://www.w3.org/TR/2001/REC-SVG-20010904/DTD/svg10.dtd">
<svg version="1.0" xmlns="http://www.w3.org/2000/svg"
 width="700.000000pt" height="700.000000pt" viewBox="0 0 700.000000 700.000000"
 preserveAspectRatio="xMidYMid meet">
<metadata>
Created by potrace 1.14, written by Peter Selinger 2001-2017
</metadata>
<g transform="translate(0.000000,700.000000) scale(0.100000,-0.100000)"
fill="#000000" stroke="none">
<path d="M3268 6993 c-16 -4 -16 -8 3 -55 11 -28 18 -53 15 -56 -3 -2 3 -12
13 -21 27 -23 70 -139 76 -207 3 -32 8 -71 10 -86 3 -21 0 -28 -12 -28 -9 0
-14 -3 -10 -6 6 -7 -51 -126 -77 -159 -11 -14 -7 5 10 60 15 44 33 86 42 93
13 10 11 12 -19 11 -19 -1 -27 -3 -17 -6 14 -4 13 -13 -13 -91 -16 -48 -33
-92 -37 -98 -4 -7 -47 -35 -97 -64 -99 -58 -135 -86 -135 -107 0 -29 32 -24
104 16 84 46 96 49 97 24 0 -12 4 -8 11 10 7 19 17 27 34 27 32 0 30 -10 -11
-50 -22 -21 -35 -29 -35 -19 -1 7 -7 0 -14 -17 -13 -28 -117 -160 -139 -175
-5 -4 -9 -21 -10 -40 -3 -47 25 -50 69 -8 22 22 48 35 76 40 l43 6 -40 2 -40
1 85 85 c113 114 143 115 75 3 -19 -32 -62 -110 -95 -173 -49 -95 -58 -119
-50 -135 6 -11 19 -20 29 -20 19 0 36 23 124 163 28 44 42 57 61 57 22 0 24
-3 17 -27 -5 -16 -23 -63 -40 -105 -36 -85 -37 -111 -4 -116 29 -4 68 49 118
162 l38 86 48 0 48 0 4 -37 c3 -29 4 -26 5 17 1 33 -2 50 -7 42 -5 -9 -24 -12
-54 -10 l-47 3 37 78 c24 51 39 73 45 65 5 -9 8 -5 8 10 0 24 29 82 41 82 3 0
12 -27 18 -60 15 -75 44 -111 91 -113 45 -3 49 16 17 96 -13 34 -27 89 -31
122 -10 91 -34 176 -63 219 -20 31 -22 40 -11 47 10 7 9 9 -4 9 -9 0 -19 8
-22 18 -15 47 -76 295 -76 307 0 9 14 15 38 18 l37 4 -37 1 c-31 2 -38 6 -47
34 -6 18 -21 42 -33 55 -20 21 -29 23 -132 22 -61 -1 -119 -3 -128 -6z m186
-925 c-19 -64 -34 -88 -53 -88 -25 0 -25 2 -5 43 31 60 73 92 58 45z"/>
<path d="M3756 6968 c17 -20 44 -70 44 -83 0 -2 -17 -6 -37 -8 l-38 -4 38 -1
39 -2 -37 -50 c-46 -63 -43 -80 27 -148 29 -28 63 -64 76 -81 20 -27 21 -30 5
-35 -10 -3 -3 -4 15 -2 37 3 39 -5 21 -82 -18 -78 -19 -80 -35 -49 -24 45 -25
30 -1 -19 45 -93 146 -289 147 -283 0 4 -20 50 -46 102 l-45 96 19 28 c11 16
32 62 48 103 15 41 31 79 35 84 4 5 55 -37 112 -93 l105 -102 -2 -87 c-1 -71
2 -87 14 -87 10 0 18 18 26 55 l12 55 2 -65 c3 -102 13 -155 30 -155 11 0 18
19 26 70 10 67 11 69 23 41 6 -15 12 -49 14 -74 2 -44 0 -47 -28 -53 l-30 -7
31 -1 c18 0 34 -7 38 -16 8 -22 31 -18 42 8 10 23 10 37 0 152 -4 55 -4 62 4
35 5 -19 12 -63 15 -98 4 -51 11 -70 37 -103 39 -48 44 -49 17 -4 l-21 35 33
15 c26 11 29 14 13 15 -29 0 -34 22 -34 163 l0 117 55 -45 c54 -44 85 -56 85
-34 0 6 36 -22 81 -62 68 -62 78 -74 63 -80 -16 -6 -14 -8 8 -8 21 -1 52 -28
142 -123 158 -168 406 -483 406 -516 0 -6 -12 -15 -27 -21 -26 -10 -25 -10 9
-5 34 6 38 3 64 -35 36 -54 42 -52 9 3 l-26 44 51 17 c28 9 50 19 48 21 -2 2
-27 -4 -56 -13 -28 -9 -53 -15 -55 -12 -2 2 -36 50 -75 106 -100 142 -230 299
-356 430 l-107 111 36 12 c47 16 40 23 -7 8 l-36 -11 -136 122 c-75 68 -162
151 -194 187 -56 64 -110 166 -91 173 6 2 4 10 -5 20 -9 9 -17 28 -18 42 -3
24 -2 24 83 27 81 2 87 1 110 -24 l24 -26 -25 7 c-47 14 -55 16 -35 5 11 -5
31 -14 45 -19 20 -7 30 -22 44 -66 9 -31 15 -59 13 -61 -3 -3 -50 18 -106 45
-55 28 -104 51 -108 51 -5 -1 43 -27 106 -60 70 -35 124 -70 138 -89 18 -23
30 -30 47 -25 16 4 54 -15 141 -71 114 -72 130 -76 33 -9 -34 24 -52 47 -75
97 -54 114 -51 118 30 38 79 -78 121 -94 68 -27 -34 42 -34 54 -2 36 12 -6 21
-9 21 -6 0 2 -24 18 -54 34 -29 17 -56 38 -59 46 -4 9 -4 16 -1 16 11 0 50
-24 93 -57 45 -34 65 -37 40 -7 -8 10 -43 39 -79 67 -43 32 -56 47 -40 43 22
-6 21 -5 -5 10 -40 22 -105 85 -99 96 3 4 -1 8 -10 8 -8 0 -29 12 -46 26 -35
30 -225 94 -274 93 -17 0 -24 -3 -16 -5 79 -26 101 -37 96 -50 -3 -8 1 -14 8
-14 7 0 19 -6 25 -14 9 -11 6 -15 -15 -20 -15 -4 -33 -14 -41 -21 -19 -19 -43
-19 -43 0 0 9 9 15 23 16 21 0 21 1 2 8 -11 5 -29 18 -39 30 -19 21 -19 21 0
22 14 0 15 2 4 5 -52 17 -92 40 -104 59 -12 19 -36 26 -135 45 -66 12 -126 20
-133 17 -7 -3 -3 -6 10 -6 38 -1 61 -19 83 -63 15 -29 18 -43 10 -46 -8 -3 -7
-8 3 -16 18 -13 128 -237 121 -245 -3 -2 -19 6 -36 18 -24 18 -35 21 -57 12
-27 -9 -27 -9 8 -10 20 -1 47 -11 63 -24 l28 -22 -7 -103 -7 -103 -101 98
c-56 54 -105 103 -109 110 -5 8 3 15 25 22 27 7 29 9 9 10 -20 1 -22 4 -16 29
3 15 17 38 31 53 30 32 30 53 -1 115 -14 27 -25 50 -25 51 0 1 12 4 28 6 25 4
25 4 -5 6 -27 1 -38 9 -68 53 -21 33 -31 55 -24 59 12 7 -145 29 -211 29 l-43
0 19 -22z m630 -174 c-3 -7 0 -15 7 -17 9 -3 9 -11 2 -32 -15 -44 -32 -42 -37
5 -2 22 0 40 5 40 5 0 1 7 -7 16 -9 8 -16 23 -16 31 0 13 5 12 25 -7 14 -13
23 -30 21 -36z m353 -274 c37 -83 37 -84 11 -70 -28 15 -47 48 -55 98 -10 63
8 52 44 -28z m-362 -307 c-4 -17 -4 -17 -12 0 -4 9 -4 25 0 35 8 16 8 16 12 0
3 -10 3 -26 0 -35z"/>
<path d="M3050 6974 c-8 -1 -48 -8 -88 -14 -61 -10 -70 -14 -57 -24 15 -11 15
-17 2 -61 -10 -37 -20 -51 -38 -56 l-24 -7 23 -1 c19 -1 23 -6 20 -28 -2 -20
-13 -33 -38 -45 -19 -10 -63 -31 -96 -47 l-62 -30 -41 31 c-49 36 -52 54 -8
68 l32 10 -33 -5 c-37 -5 -37 -3 11 58 33 42 66 62 147 88 l55 18 -62 -4
c-127 -9 -307 -70 -296 -101 6 -19 -23 -35 -52 -28 -17 4 -23 9 -15 14 8 5 4
9 -10 13 -23 6 -133 -29 -210 -68 -25 -12 -63 -28 -85 -35 -81 -25 -242 -110
-307 -162 -36 -29 -75 -59 -85 -66 -16 -11 -15 -11 5 -2 16 8 22 8 22 -1 0 -6
10 -1 21 12 l21 24 -13 -23 c-8 -13 -17 -22 -21 -20 -4 2 -20 -18 -36 -43 -16
-25 -47 -62 -68 -83 -23 -22 -30 -34 -19 -29 16 6 15 1 -8 -26 -34 -40 -71
-111 -59 -111 5 0 21 18 36 40 39 59 40 49 1 -27 -19 -36 -31 -71 -28 -76 8
-13 24 9 74 101 22 39 42 72 44 72 2 0 -11 -36 -29 -80 -23 -53 -45 -89 -67
-107 -104 -86 -276 -243 -359 -327 l-94 -96 -51 48 -50 47 49 -52 50 -53 -30
-32 -29 -33 33 30 32 29 33 -18 32 -18 -30 25 -30 25 90 92 c137 141 356 330
382 330 15 0 28 10 38 31 11 20 22 29 31 25 8 -3 22 4 32 16 9 12 31 35 47 52
17 16 22 24 13 17 -15 -11 -18 -11 -18 0 1 8 6 24 14 37 11 21 14 21 25 8 7
-8 9 -21 5 -28 -6 -10 -5 -11 7 -1 12 10 18 10 28 0 10 -9 11 -9 6 4 -4 12 4
23 29 39 53 32 44 35 -10 4 -44 -26 -47 -27 -60 -9 -11 15 -11 23 3 49 8 17
22 39 30 48 14 16 18 16 36 3 28 -19 57 -19 57 0 0 9 -7 30 -16 47 -13 25 -14
32 -2 40 9 6 8 8 -7 6 -14 -2 -21 3 -23 18 -3 23 35 77 49 68 5 -3 21 3 37 14
15 11 43 27 62 36 31 15 28 10 -26 -41 -34 -32 -64 -66 -67 -75 -5 -15 -2 -15
39 3 55 23 54 23 54 4 0 -24 14 -17 53 25 19 22 41 40 49 40 11 0 11 2 0 9
-11 6 -8 14 12 37 17 20 25 24 26 13 0 -8 -5 -20 -12 -27 -13 -13 -22 -72 -11
-72 4 0 26 20 49 45 22 25 37 45 32 45 -19 0 37 81 59 86 13 4 21 10 18 14 -7
11 28 22 47 15 8 -3 27 -1 43 5 36 14 40 9 21 -28 -10 -19 -29 -35 -51 -42
-20 -7 -34 -14 -32 -16 2 -3 16 0 31 5 32 13 34 1 4 -26 -36 -33 -240 -184
-270 -199 -16 -8 -28 -17 -28 -20 0 -2 9 0 19 6 32 17 36 12 11 -15 -42 -44 8
-31 72 20 32 25 60 45 63 45 3 0 -7 -17 -24 -37 -35 -45 -81 -130 -81 -150 0
-10 7 -12 23 -8 26 7 31 12 -123 -115 -127 -104 -391 -376 -510 -523 -76 -94
-98 -116 -115 -112 -11 3 -14 2 -7 -1 18 -9 15 -21 -18 -70 -42 -60 -31 -56
14 5 l35 50 52 -20 c28 -11 56 -18 61 -17 6 2 -15 12 -46 21 -31 10 -56 21
-56 26 0 4 43 61 96 127 125 154 479 508 500 500 9 -3 28 -8 42 -11 20 -4 18
-2 -8 8 l-34 14 84 67 c113 90 120 93 120 62 0 -58 42 -33 62 37 10 36 23 54
46 69 l32 20 0 -61 c0 -55 2 -61 20 -61 26 0 40 35 40 98 0 85 35 94 60 16 23
-68 63 -31 47 44 -6 32 -6 51 2 64 9 14 8 16 -4 12 -18 -7 -18 0 -4 64 7 34
17 53 32 61 12 6 14 9 5 7 -19 -6 -23 9 -12 39 6 15 8 14 25 -1 10 -9 16 -21
13 -25 -3 -5 4 -9 14 -9 11 0 25 -6 31 -14 10 -12 3 -19 -36 -42 -61 -35 -60
-34 -44 -43 7 -5 11 -13 7 -19 -3 -6 25 4 64 21 38 17 73 28 76 24 4 -4 -17
-53 -45 -109 -43 -85 -69 -120 -144 -198 -51 -52 -67 -72 -37 -45 109 100 109
100 103 76 -8 -30 3 -52 22 -45 9 4 29 30 45 58 36 63 38 55 5 -20 -28 -64
-31 -89 -11 -97 20 -8 47 26 101 131 47 89 71 116 61 70 -14 -63 -26 -171 -20
-180 3 -5 15 -8 25 -5 23 6 23 3 2 -31 -9 -15 -12 -22 -6 -17 16 15 114 165
108 165 -2 0 -21 -25 -41 -55 -35 -52 -58 -70 -35 -27 6 12 18 51 26 89 22 96
25 103 38 103 7 0 19 -13 29 -29 15 -27 15 -31 1 -53 -15 -22 -15 -22 2 -6 18
17 20 16 31 -12 14 -32 41 -40 51 -14 3 9 1 37 -5 62 -10 45 -9 48 24 89 19
23 44 44 57 46 16 3 13 5 -10 6 -18 0 -33 -4 -33 -9 0 -14 -42 -70 -52 -70 -4
0 -8 16 -8 36 0 28 5 37 21 41 14 4 17 8 9 13 -9 5 -8 15 4 38 11 20 16 57 16
106 0 91 13 155 46 219 l24 47 -38 -1 c-20 -1 -44 -3 -52 -5z m-960 -295 c-50
-34 -115 -69 -127 -69 -16 0 54 52 102 75 68 34 79 31 25 -6z m34 -41 c-27
-45 -54 -73 -89 -90 -40 -19 -39 -19 22 41 58 58 83 76 67 49z m276 -182 c0
-14 -48 -51 -56 -43 -6 6 36 57 47 57 5 0 9 -6 9 -14z m-126 -67 c-14 -40 -68
-98 -80 -86 -3 3 16 35 42 71 26 36 49 64 51 63 1 -2 -4 -23 -13 -48z m-539
-149 c-24 -52 -30 -46 -8 8 9 23 18 40 21 37 3 -3 -3 -23 -13 -45z"/>
<path d="M4328 6883 c7 -3 16 -2 19 1 4 3 -2 6 -13 5 -11 0 -14 -3 -6 -6z"/>
<path d="M3193 6863 c9 -2 23 -2 30 0 6 3 -1 5 -18 5 -16 0 -22 -2 -12 -5z"/>
<path d="M3113 6853 c9 -2 23 -2 30 0 6 3 -1 5 -18 5 -16 0 -22 -2 -12 -5z"/>
<path d="M2458 6823 c7 -3 16 -2 19 1 4 3 -2 6 -13 5 -11 0 -14 -3 -6 -6z"/>
<path d="M4438 6823 c7 -3 16 -2 19 1 4 3 -2 6 -13 5 -11 0 -14 -3 -6 -6z"/>
<path d="M2818 6803 c7 -3 16 -2 19 1 4 3 -2 6 -13 5 -11 0 -14 -3 -6 -6z"/>
<path d="M2768 6793 c7 -3 16 -2 19 1 4 3 -2 6 -13 5 -11 0 -14 -3 -6 -6z"/>
<path d="M2728 6783 c7 -3 16 -2 19 1 4 3 -2 6 -13 5 -11 0 -14 -3 -6 -6z"/>
<path d="M2688 6773 c7 -3 16 -2 19 1 4 3 -2 6 -13 5 -11 0 -14 -3 -6 -6z"/>
<path d="M4740 6765 c10 -12 10 -15 -1 -16 -8 0 0 -5 16 -11 17 -6 52 -28 79
-49 27 -22 54 -39 61 -39 7 0 19 -7 26 -16 12 -15 11 -16 -11 -10 -14 3 -7 -3
15 -14 30 -15 45 -31 58 -64 20 -49 42 -73 72 -78 21 -3 23 8 11 57 l-7 26 51
-26 c43 -22 50 -30 50 -55 0 -16 5 -41 10 -56 6 -15 9 -29 6 -31 -2 -2 -24 5
-48 17 -46 22 -31 7 21 -22 17 -10 34 -24 37 -33 8 -19 -33 -65 -80 -90 -33
-18 -33 -18 -80 14 -57 39 -61 34 -5 -7 l41 -31 -39 -20 c-21 -11 -33 -20 -28
-20 6 0 21 6 35 14 14 8 32 14 40 15 8 0 62 -39 120 -87 58 -48 99 -79 91 -70
-8 10 -54 50 -103 89 -48 40 -88 74 -88 77 1 7 106 81 114 81 3 0 6 -28 8 -62
3 -56 6 -64 30 -78 25 -13 29 -13 44 1 13 13 14 23 6 53 -6 20 -7 36 -2 36 15
0 95 -102 180 -230 101 -151 139 -200 157 -200 7 0 13 4 13 9 0 4 -39 70 -86
145 -47 76 -84 140 -81 142 3 3 52 -57 110 -133 112 -147 142 -180 151 -165 7
11 -35 77 -115 184 -32 43 -59 82 -59 85 0 4 -12 20 -27 37 l-28 29 30 -20
c33 -23 73 -64 65 -67 -3 -1 36 -40 85 -86 50 -46 94 -92 99 -102 5 -10 18
-20 30 -24 33 -10 54 -33 72 -81 l17 -44 -34 -30 -34 -30 36 25 c27 20 38 23
47 14 16 -16 23 -6 24 31 1 32 8 36 12 7 4 -27 60 -116 73 -116 6 0 36 -28 67
-62 120 -138 120 -138 -34 58 -42 54 -105 199 -75 174 9 -8 28 -36 42 -64 41
-80 76 -132 81 -118 2 6 -15 47 -38 89 -44 82 -34 84 21 3 19 -27 38 -50 42
-50 10 0 8 4 -77 127 -38 57 -67 105 -64 108 5 6 212 -219 278 -302 23 -29 44
-53 47 -53 10 0 -94 124 -215 255 -71 77 -156 169 -188 205 -102 113 -238 244
-289 279 l-50 34 62 -57 c63 -58 140 -147 113 -131 -8 4 -33 21 -55 37 l-40
29 40 -33 c21 -18 56 -49 78 -68 l38 -35 -13 -72 -12 -73 -30 38 c-16 20 -75
84 -130 141 -110 113 -107 123 7 36 138 -103 107 -57 -43 65 -90 74 -172 153
-140 135 8 -5 41 -26 73 -47 31 -21 57 -36 57 -34 0 3 -42 33 -92 67 -89 59
-198 154 -198 172 0 4 5 5 10 2 6 -3 10 -4 10 -2 0 5 -165 104 -217 131 -18 9
-40 16 -49 16 -9 0 -38 13 -63 28 -41 26 -233 112 -248 112 -3 0 0 -7 7 -15z
m384 -204 c14 -19 24 -36 22 -38 -7 -7 -101 44 -117 63 -11 13 -11 18 -1 21 6
3 9 9 6 15 -16 26 68 -31 90 -61z m745 -706 c1 -18 0 -18 -15 -3 -11 11 -14
23 -9 39 8 23 8 23 16 4 4 -11 8 -29 8 -40z m71 -56 c0 -6 -4 -7 -10 -4 -5 3
-10 11 -10 16 0 6 5 7 10 4 6 -3 10 -11 10 -16z"/>
<path d="M2280 6650 c-8 -5 -10 -10 -5 -10 6 0 17 5 25 10 8 5 11 10 5 10 -5
0 -17 -5 -25 -10z"/>
<path d="M4108 6593 c7 -3 16 -2 19 1 4 3 -2 6 -13 5 -11 0 -14 -3 -6 -6z"/>
<path d="M3203 6543 c15 -2 37 -2 50 0 12 2 0 4 -28 4 -27 0 -38 -2 -22 -4z"/>
<path d="M3762 6543 c25 -4 41 -18 76 -69 7 -11 3 0 -7 22 -11 23 -17 44 -14
48 4 3 -14 5 -38 5 -29 -1 -35 -3 -17 -6z"/>
<path d="M1625 6462 c-88 -60 -197 -152 -180 -152 4 0 -7 -17 -24 -37 -17 -20
-29 -39 -27 -41 10 -9 47 21 95 77 28 32 74 74 101 91 28 18 50 34 50 37 0 2
-5 1 -12 -3 -7 -4 -8 -3 -4 5 4 7 13 10 19 8 12 -4 67 19 67 29 0 2 -15 -3
-32 -11 -32 -16 -32 -16 -12 2 12 10 34 28 50 40 16 12 25 22 19 22 -5 0 -55
-30 -110 -67z"/>
<path d="M5320 6486 c0 -3 9 -10 20 -16 11 -6 20 -8 20 -6 0 3 -9 10 -20 16
-11 6 -20 8 -20 6z"/>
<path d="M4980 6475 c0 -2 23 -16 50 -30 28 -14 50 -23 50 -20 0 2 -22 16 -50
30 -27 14 -50 23 -50 20z"/>
<path d="M2048 6414 c-38 -20 -36 -28 2 -9 17 9 30 18 30 20 0 7 -1 6 -32 -11z"/>
<path d="M1973 6369 c-35 -22 -46 -37 -15 -20 22 13 58 40 52 41 -3 0 -20 -10
-37 -21z"/>
<path d="M1335 6259 c-50 -39 -136 -116 -192 -171 -80 -80 -104 -110 -113
-144 -7 -23 -10 -48 -7 -56 3 -7 6 -3 6 10 1 12 7 37 14 55 15 34 67 101 73
94 3 -2 -9 -33 -24 -68 -16 -35 -34 -77 -41 -92 -6 -15 -16 -25 -21 -22 -6 3
-10 0 -10 -7 0 -7 -44 -60 -97 -118 -140 -153 -338 -408 -388 -500 -17 -33 14
9 90 118 84 121 205 270 323 398 l73 79 19 -25 20 -25 -12 30 c-10 30 -9 33
53 92 35 33 98 89 140 124 146 123 154 130 94 86 -33 -25 -97 -77 -142 -116
-46 -39 -83 -67 -83 -61 0 51 124 198 266 316 36 30 59 56 55 62 -4 7 -40 -15
-96 -59z"/>
<path d="M1513 6249 c-24 -17 -43 -32 -43 -35 0 -3 20 9 45 26 25 17 45 33 45
35 0 7 -2 6 -47 -26z"/>
<path d="M1880 6255 c0 -7 141 -77 146 -73 2 2 -30 21 -71 41 -41 20 -75 35
-75 32z"/>
<path d="M5590 6246 c0 -2 14 -14 30 -26 17 -12 30 -19 30 -16 0 2 -13 14 -30
26 -16 12 -30 19 -30 16z"/>
<path d="M1425 6184 l-30 -26 33 22 c17 12 32 23 32 26 0 7 -4 5 -35 -22z"/>
<path d="M2400 6145 c-37 -37 -60 -53 -74 -51 -12 2 -15 1 -8 -1 21 -7 14 -22
-46 -96 -106 -132 -255 -340 -297 -417 -22 -40 20 17 103 140 113 168 258 351
283 357 10 3 16 10 13 15 -4 5 15 32 42 59 27 27 46 49 43 49 -2 0 -29 -25
-59 -55z"/>
<path d="M4950 6180 c-8 -5 -10 -10 -5 -10 6 0 17 5 25 10 8 5 11 10 5 10 -5
0 -17 -5 -25 -10z"/>
<path d="M2814 6168 c-4 -7 -14 -24 -22 -38 -14 -24 -13 -24 3 -5 20 24 37 55
31 55 -3 0 -8 -6 -12 -12z"/>
<path d="M2198 6123 c7 -3 16 -2 19 1 4 3 -2 6 -13 5 -11 0 -14 -3 -6 -6z"/>
<path d="M2268 6103 c7 -3 16 -2 19 1 4 3 -2 6 -13 5 -11 0 -14 -3 -6 -6z"/>
<path d="M4708 6103 c7 -3 16 -2 19 1 4 3 -2 6 -13 5 -11 0 -14 -3 -6 -6z"/>
<path d="M4668 6093 c7 -3 16 -2 19 1 4 3 -2 6 -13 5 -11 0 -14 -3 -6 -6z"/>
<path d="M3613 6050 c0 -25 2 -35 4 -22 2 12 2 32 0 45 -2 12 -4 2 -4 -23z"/>
<path d="M4628 6083 c7 -3 16 -2 19 1 4 3 -2 6 -13 5 -11 0 -14 -3 -6 -6z"/>
<path d="M2398 6073 c6 -2 18 -2 25 0 6 3 1 5 -13 5 -14 0 -19 -2 -12 -5z"/>
<path d="M2750 6060 c-6 -11 -8 -20 -6 -20 3 0 10 9 16 20 6 11 8 20 6 20 -3
0 -10 -9 -16 -20z"/>
<path d="M4578 6073 c6 -2 18 -2 25 0 6 3 1 5 -13 5 -14 0 -19 -2 -12 -5z"/>
<path d="M2448 6063 c6 -2 18 -2 25 0 6 3 1 5 -13 5 -14 0 -19 -2 -12 -5z"/>
<path d="M4040 6065 c0 -5 5 -17 10 -25 5 -8 10 -10 10 -5 0 6 -5 17 -10 25
-5 8 -10 11 -10 5z"/>
<path d="M2508 6053 c6 -2 18 -2 25 0 6 3 1 5 -13 5 -14 0 -19 -2 -12 -5z"/>
<path d="M2563 6043 c9 -2 23 -2 30 0 6 3 -1 5 -18 5 -16 0 -22 -2 -12 -5z"/>
<path d="M5445 5905 c206 -205 271 -281 256 -299 -10 -12 -9 -13 7 -9 15 4 35
-15 87 -84 38 -48 75 -95 84 -103 20 -21 -31 51 -95 132 l-53 66 22 16 22 17
-24 -12 c-27 -13 -11 -26 -173 151 -58 63 -145 151 -194 195 -60 53 -39 30 61
-70z"/>
<path d="M2628 6033 c6 -2 18 -2 25 0 6 3 1 5 -13 5 -14 0 -19 -2 -12 -5z"/>
<path d="M2698 6023 c12 -2 22 -6 22 -9 0 -2 -34 -72 -75 -154 -41 -82 -75
-153 -75 -157 1 -7 169 316 170 325 0 1 -15 1 -32 1 -24 -1 -27 -3 -10 -6z"/>
<path d="M4273 6023 c9 -2 25 -2 35 0 9 3 1 5 -18 5 -19 0 -27 -2 -17 -5z"/>
<path d="M2768 6013 c12 -2 30 -2 40 0 9 3 -1 5 -23 4 -22 0 -30 -2 -17 -4z"/>
<path d="M4060 6008 c0 -5 -26 -9 -57 -10 l-58 -1 65 -6 c36 -3 67 -3 70 1 3
3 21 8 40 10 32 3 31 4 -12 8 -27 3 -48 2 -48 -2z"/>
<path d="M4193 6013 c9 -2 25 -2 35 0 9 3 1 5 -18 5 -19 0 -27 -2 -17 -5z"/>
<path d="M5935 5996 c10 -14 19 -26 22 -26 7 0 -17 39 -28 46 -6 3 -3 -5 6
-20z"/>
<path d="M2868 6003 c12 -2 32 -2 45 0 12 2 2 4 -23 4 -25 0 -35 -2 -22 -4z"/>
<path d="M2978 5993 c12 -2 32 -2 45 0 12 2 2 4 -23 4 -25 0 -35 -2 -22 -4z"/>
<path d="M3793 5983 c20 -2 54 -2 75 0 20 2 3 4 -38 4 -41 0 -58 -2 -37 -4z"/>
<path d="M5970 5976 c0 -2 8 -10 18 -17 15 -13 16 -12 3 4 -13 16 -21 21 -21
13z"/>
<path d="M4080 5965 c0 -5 5 -17 10 -25 5 -8 10 -10 10 -5 0 6 -5 17 -10 25
-5 8 -10 11 -10 5z"/>
<path d="M3152 5940 c0 -14 2 -19 5 -12 2 6 2 18 0 25 -3 6 -5 1 -5 -13z"/>
<path d="M944 5888 l-29 -33 33 29 c30 28 37 36 29 36 -2 0 -16 -15 -33 -32z"/>
<path d="M4106 5900 c3 -14 11 -32 16 -40 6 -10 7 -7 2 10 -3 14 -11 32 -16
40 -6 10 -7 7 -2 -10z"/>
<path d="M3142 5890 c0 -14 2 -19 5 -12 2 6 2 18 0 25 -3 6 -5 1 -5 -13z"/>
<path d="M6060 5886 c0 -2 8 -10 18 -17 15 -13 16 -12 3 4 -13 16 -21 21 -21
13z"/>
<path d="M4610 5850 c6 -11 13 -20 16 -20 2 0 0 9 -6 20 -6 11 -13 20 -16 20
-2 0 0 -9 6 -20z"/>
<path d="M3131 5844 c0 -11 3 -14 6 -6 3 7 2 16 -1 19 -3 4 -6 -2 -5 -13z"/>
<path d="M3633 5820 c0 -25 2 -35 4 -22 2 12 2 32 0 45 -2 12 -4 2 -4 -23z"/>
<path d="M4639 5805 c5 -11 17 -29 26 -40 l16 -20 -10 20 c-5 11 -17 29 -26
40 l-16 20 10 -20z"/>
<path d="M3121 5794 c0 -11 3 -14 6 -6 3 7 2 16 -1 19 -3 4 -6 -2 -5 -13z"/>
<path d="M3112 5750 c0 -14 2 -19 5 -12 2 6 2 18 0 25 -3 6 -5 1 -5 -13z"/>
<path d="M4167 5730 c3 -14 12 -41 20 -60 11 -30 12 -31 8 -6 -4 16 -13 43
-20 60 -11 23 -13 25 -8 6z"/>
<path d="M3643 5685 c0 -27 2 -38 4 -22 2 15 2 37 0 50 -2 12 -4 0 -4 -28z"/>
<path d="M4700 5700 c6 -11 13 -20 16 -20 2 0 0 9 -6 20 -6 11 -13 20 -16 20
-2 0 0 -9 6 -20z"/>
<path d="M3101 5694 c0 -11 3 -14 6 -6 3 7 2 16 -1 19 -3 4 -6 -2 -5 -13z"/>
<path d="M5800 5659 c-22 -18 -22 -19 -3 -10 12 6 25 16 28 21 9 15 3 12 -25
-11z"/>
<path d="M2542 5645 c-17 -37 -14 -45 4 -12 9 16 14 31 11 33 -2 2 -9 -7 -15
-21z"/>
<path d="M4740 5630 c11 -22 23 -40 25 -40 3 0 -4 18 -15 40 -11 22 -23 40
-25 40 -3 0 4 -18 15 -40z"/>
<path d="M3092 5640 c0 -14 2 -19 5 -12 2 6 2 18 0 25 -3 6 -5 1 -5 -13z"/>
<path d="M1230 5635 c0 -7 161 -87 166 -83 2 2 -35 23 -81 46 -47 23 -85 40
-85 37z"/>
<path d="M1069 5583 l-24 -28 28 24 c25 23 32 31 24 31 -2 0 -14 -12 -28 -27z"/>
<path d="M3082 5590 c0 -14 2 -19 5 -12 2 6 2 18 0 25 -3 6 -5 1 -5 -13z"/>
<path d="M2512 5575 c-17 -37 -14 -45 4 -12 9 16 14 31 11 33 -2 2 -9 -7 -15
-21z"/>
<path d="M3653 5535 c0 -33 2 -45 4 -27 2 18 2 45 0 60 -2 15 -4 0 -4 -33z"/>
<path d="M5640 5575 c-14 -8 -20 -14 -15 -14 6 0 21 6 35 14 14 8 21 14 15 14
-5 0 -21 -6 -35 -14z"/>
<path d="M4825 5471 l55 -111 -27 -1 c-27 -2 -27 -2 -3 -6 14 -3 31 -10 39
-16 12 -10 14 -9 8 5 -4 12 0 18 16 21 20 4 19 4 -3 6 -22 1 -33 15 -75 102
-28 55 -54 103 -58 106 -4 3 17 -45 48 -106z"/>
<path d="M1954 5548 c-4 -7 -14 -24 -22 -38 -14 -24 -13 -24 3 -5 20 24 37 55
31 55 -3 0 -8 -6 -12 -12z"/>
<path d="M3072 5540 c0 -14 2 -19 5 -12 2 6 2 18 0 25 -3 6 -5 1 -5 -13z"/>
<path d="M5555 5539 c-22 -10 -29 -16 -15 -13 28 7 80 33 65 33 -5 0 -28 -9
-50 -20z"/>
<path d="M1024 5528 l-19 -23 23 19 c21 18 27 26 19 26 -2 0 -12 -10 -23 -22z"/>
<path d="M6358 5490 c79 -113 105 -153 94 -146 -25 15 -10 -14 33 -66 49 -60
54 -71 28 -61 -13 5 -15 3 -8 -13 4 -10 10 -32 13 -48 3 -20 7 -24 13 -15 19
32 106 -88 145 -198 10 -29 22 -53 27 -53 5 0 6 8 2 18 -4 9 -16 39 -26 65
-46 115 -193 379 -235 422 -9 8 -12 15 -9 15 4 0 -2 15 -14 33 -11 17 -25 32
-30 32 -6 0 -24 16 -41 35 -25 28 -23 24 8 -20z m52 -45 c14 -19 14 -19 -2 -6
-10 7 -18 18 -18 24 0 6 1 8 3 6 1 -2 9 -13 17 -24z"/>
<path d="M2486 5515 c-9 -26 -7 -32 5 -12 6 10 9 21 6 23 -2 3 -7 -2 -11 -11z"/>
<path d="M3062 5485 c0 -16 2 -22 5 -12 2 9 2 23 0 30 -3 6 -5 -1 -5 -18z"/>
<path d="M968 5458 c-19 -24 -60 -81 -92 -128 -66 -97 -49 -79 58 68 78 105
94 134 34 60z"/>
<path d="M1625 5470 c11 -5 27 -9 35 -9 9 0 8 4 -5 9 -11 5 -27 9 -35 9 -9 0
-8 -4 5 -9z"/>
<path d="M1891 5446 c-13 -21 -28 -33 -39 -31 -9 1 -11 0 -4 -2 16 -6 15 -18
-3 -53 -9 -17 -13 -30 -11 -30 3 0 13 14 21 31 9 16 26 34 38 39 18 7 19 9 4
9 -17 1 -17 3 3 36 12 19 19 35 17 35 -3 0 -15 -15 -26 -34z"/>
<path d="M2466 5465 c-9 -26 -7 -32 5 -12 6 10 9 21 6 23 -2 3 -7 -2 -11 -11z"/>
<path d="M4251 5464 c0 -11 3 -14 6 -6 3 7 2 16 -1 19 -3 4 -6 -2 -5 -13z"/>
<path d="M565 5415 c-15 -19 -25 -39 -23 -44 1 -5 15 11 30 35 33 53 29 57 -7
9z"/>
<path d="M1718 5443 c7 -3 16 -2 19 1 4 3 -2 6 -13 5 -11 0 -14 -3 -6 -6z"/>
<path d="M3052 5430 c0 -14 2 -19 5 -12 2 6 2 18 0 25 -3 6 -5 1 -5 -13z"/>
<path d="M5268 5443 c7 -3 16 -2 19 1 4 3 -2 6 -13 5 -11 0 -14 -3 -6 -6z"/>
<path d="M6224 5417 c16 -20 30 -37 33 -37 7 0 -36 58 -49 66 -7 4 1 -9 16
-29z"/>
<path d="M1758 5433 c7 -3 16 -2 19 1 4 3 -2 6 -13 5 -11 0 -14 -3 -6 -6z"/>
<path d="M3663 5380 c0 -36 2 -50 4 -32 2 17 2 47 0 65 -2 17 -4 3 -4 -33z"/>
<path d="M5228 5433 c7 -3 16 -2 19 1 4 3 -2 6 -13 5 -11 0 -14 -3 -6 -6z"/>
<path d="M1798 5423 c7 -3 16 -2 19 1 4 3 -2 6 -13 5 -11 0 -14 -3 -6 -6z"/>
<path d="M2446 5415 c-9 -26 -7 -32 5 -12 6 10 9 21 6 23 -2 3 -7 -2 -11 -11z"/>
<path d="M5178 5423 c7 -3 16 -2 19 1 4 3 -2 6 -13 5 -11 0 -14 -3 -6 -6z"/>
<path d="M1296 5323 c-57 -90 -135 -223 -104 -180 33 47 176 277 172 277 -2 0
-33 -44 -68 -97z"/>
<path d="M5138 5413 c7 -3 16 -2 19 1 4 3 -2 6 -13 5 -11 0 -14 -3 -6 -6z"/>
<path d="M5098 5403 c7 -3 16 -2 19 1 4 3 -2 6 -13 5 -11 0 -14 -3 -6 -6z"/>
<path d="M1928 5393 c7 -3 16 -2 19 1 4 3 -2 6 -13 5 -11 0 -14 -3 -6 -6z"/>
<path d="M5048 5393 c6 -2 18 -2 25 0 6 3 1 5 -13 5 -14 0 -19 -2 -12 -5z"/>
<path d="M1978 5383 c7 -3 16 -2 19 1 4 3 -2 6 -13 5 -11 0 -14 -3 -6 -6z"/>
<path d="M3042 5370 c0 -14 2 -19 5 -12 2 6 2 18 0 25 -3 6 -5 1 -5 -13z"/>
<path d="M5008 5383 c7 -3 16 -2 19 1 4 3 -2 6 -13 5 -11 0 -14 -3 -6 -6z"/>
<path d="M5890 5386 c0 -2 8 -10 18 -17 15 -13 16 -12 3 4 -13 16 -21 21 -21
13z"/>
<path d="M2028 5373 c6 -2 18 -2 25 0 6 3 1 5 -13 5 -14 0 -19 -2 -12 -5z"/>
<path d="M4281 5364 c0 -11 3 -14 6 -6 3 7 2 16 -1 19 -3 4 -6 -2 -5 -13z"/>
<path d="M4958 5373 c7 -3 16 -2 19 1 4 3 -2 6 -13 5 -11 0 -14 -3 -6 -6z"/>
<path d="M2078 5363 c6 -2 18 -2 25 0 6 3 1 5 -13 5 -14 0 -19 -2 -12 -5z"/>
<path d="M5451 5335 c12 -22 26 -44 32 -50 15 -16 -20 48 -38 70 -9 11 -7 2 6
-20z"/>
<path d="M6280 5340 c12 -16 24 -30 26 -30 3 0 -4 14 -16 30 -12 17 -24 30
-26 30 -3 0 4 -13 16 -30z"/>
<path d="M2138 5353 c6 -2 18 -2 25 0 6 3 1 5 -13 5 -14 0 -19 -2 -12 -5z"/>
<path d="M500 5308 c-16 -22 -30 -50 -30 -62 1 -16 4 -13 15 12 8 18 24 47 35
63 12 16 19 29 16 29 -3 0 -19 -19 -36 -42z"/>
<path d="M2193 5343 c9 -2 23 -2 30 0 6 3 -1 5 -18 5 -16 0 -22 -2 -12 -5z"/>
<path d="M2409 5331 c-10 -11 -13 -24 -8 -37 4 -10 8 -13 8 -6 1 7 11 17 24
22 16 6 18 9 5 9 -11 1 -15 6 -12 16 8 19 3 18 -17 -4z"/>
<path d="M4778 5343 c6 -2 18 -2 25 0 6 3 1 5 -13 5 -14 0 -19 -2 -12 -5z"/>
<path d="M5971 5273 c49 -74 83 -118 64 -83 -19 33 -106 160 -111 160 -2 0 19
-35 47 -77z"/>
<path d="M2263 5333 c9 -2 23 -2 30 0 6 3 -1 5 -18 5 -16 0 -22 -2 -12 -5z"/>
<path d="M4295 5318 c5 -25 2 -28 -22 -29 l-28 -1 29 -7 c16 -3 33 -15 38 -26
8 -19 8 -19 4 2 -3 16 2 23 18 26 l21 4 -22 2 c-13 0 -25 11 -32 29 l-11 27 5
-27z"/>
<path d="M4713 5333 c9 -2 23 -2 30 0 6 3 -1 5 -18 5 -16 0 -22 -2 -12 -5z"/>
<path d="M2333 5323 c9 -2 23 -2 30 0 6 3 -1 5 -18 5 -16 0 -22 -2 -12 -5z"/>
<path d="M3029 5305 c-4 -28 -8 -30 -54 -36 l-50 -6 47 -1 c40 -2 47 -5 51
-24 l4 -23 2 23 c0 14 7 22 19 22 11 0 13 3 5 8 -6 4 -13 21 -15 37 l-4 30 -5
-30z"/>
<path d="M4643 5323 c9 -2 23 -2 30 0 6 3 -1 5 -18 5 -16 0 -22 -2 -12 -5z"/>
<path d="M4563 5313 c9 -2 23 -2 30 0 6 3 -1 5 -18 5 -16 0 -22 -2 -12 -5z"/>
<path d="M2488 5303 c12 -2 30 -2 40 0 9 3 -1 5 -23 4 -22 0 -30 -2 -17 -4z"/>
<path d="M4473 5303 c9 -2 25 -2 35 0 9 3 1 5 -18 5 -19 0 -27 -2 -17 -5z"/>
<path d="M1769 5219 c-22 -45 -39 -83 -37 -85 2 -2 23 35 46 81 23 47 40 85
37 85 -3 0 -23 -36 -46 -81z"/>
<path d="M2588 5293 c12 -2 30 -2 40 0 9 3 -1 5 -23 4 -22 0 -30 -2 -17 -4z"/>
<path d="M4388 5293 c12 -2 30 -2 40 0 9 3 -1 5 -23 4 -22 0 -30 -2 -17 -4z"/>
<path d="M6391 5173 c44 -69 78 -131 76 -137 -2 -6 -13 -15 -25 -21 -23 -10
-37 -45 -18 -45 7 0 25 -14 42 -31 l29 -32 -30 18 c-16 11 -37 25 -46 32 -15
13 -24 9 -70 -26 -70 -53 -121 -79 -126 -65 -2 6 -11 20 -19 30 -13 16 -13 14
1 -13 l15 -33 -57 -29 c-32 -17 -54 -30 -50 -31 4 0 30 12 58 26 28 14 52 24
54 22 1 -2 10 -16 19 -33 10 -16 14 -21 11 -10 -4 11 -9 27 -12 36 -3 10 18
30 64 61 l69 46 60 -45 c32 -24 60 -48 62 -52 2 -5 -23 0 -54 10 -68 23 -64
22 -64 6 0 -19 37 -50 95 -81 l50 -27 -47 6 c-78 10 -62 -29 32 -75 85 -42 91
-53 84 -142 -4 -47 -3 -78 3 -78 5 0 22 37 37 81 37 110 46 118 96 85 21 -14
58 -51 81 -81 23 -31 44 -53 46 -51 6 6 -51 180 -80 249 -12 26 -25 47 -29 47
-5 0 -6 6 -2 13 4 6 4 9 -1 5 -4 -4 -17 -1 -29 7 -11 8 -33 15 -49 15 -23 0
-41 13 -80 56 -28 30 -64 78 -79 105 l-27 50 21 35 c11 19 18 37 16 40 -3 2
-11 -9 -18 -26 -7 -16 -16 -30 -20 -30 -4 0 -40 52 -79 115 -40 63 -76 117
-81 120 -5 3 27 -52 71 -122z m109 -183 c28 -55 25 -59 -15 -20 -26 26 -32 37
-24 47 16 18 16 18 39 -27z"/>
<path d="M2688 5283 c12 -2 32 -2 45 0 12 2 2 4 -23 4 -25 0 -35 -2 -22 -4z"/>
<path d="M3673 5220 c1 -56 2 -62 4 -23 l4 52 97 4 97 3 -97 2 c-82 2 -97 5
-101 20 -3 9 -4 -17 -4 -58z"/>
<path d="M2808 5273 c12 -2 32 -2 45 0 12 2 2 4 -23 4 -25 0 -35 -2 -22 -4z"/>
<path d="M4138 5273 c18 -2 45 -2 60 0 15 2 0 4 -33 4 -33 0 -45 -2 -27 -4z"/>
<path d="M4920 5275 c0 -5 5 -17 10 -25 5 -8 10 -10 10 -5 0 6 -5 17 -10 25
-5 8 -10 11 -10 5z"/>
<path d="M3968 5263 c17 -2 47 -2 65 0 17 2 3 4 -33 4 -36 0 -50 -2 -32 -4z"/>
<path d="M5505 5240 c9 -16 18 -30 21 -30 2 0 -2 14 -11 30 -9 17 -18 30 -21
30 -2 0 2 -13 11 -30z"/>
<path d="M3228 5253 c68 -2 176 -2 240 0 64 1 9 3 -123 3 -132 0 -185 -2 -117
-3z"/>
<path d="M4321 5214 c0 -11 3 -14 6 -6 3 7 2 16 -1 19 -3 4 -6 -2 -5 -13z"/>
<path d="M499 5188 c-13 -18 -32 -51 -42 -73 -17 -39 -17 -39 1 -17 l18 23 16
-34 c9 -19 30 -50 47 -69 28 -32 29 -36 15 -56 -27 -38 -228 -171 -241 -159
-2 3 25 64 61 136 37 72 64 131 61 131 -3 0 -37 -64 -76 -141 -38 -78 -85
-157 -104 -176 -45 -46 -68 -98 -115 -260 -45 -153 -43 -143 -32 -143 4 0 13
14 19 31 7 17 16 28 22 25 5 -3 15 9 21 28 16 49 75 109 142 146 66 36 67 35
88 -61 12 -54 11 -61 -20 -153 -18 -54 -30 -99 -28 -101 2 -3 17 36 33 85 16
50 32 90 35 90 4 0 18 -20 31 -45 13 -25 27 -45 31 -45 18 0 17 61 -2 120 -25
83 -25 85 8 60 20 -15 40 -20 63 -18 30 3 34 7 36 33 2 24 -3 34 -29 50 -45
28 -44 40 2 54 51 15 80 43 80 77 0 28 -6 28 -76 8 -26 -7 -39 19 -24 44 9 14
10 12 5 -8 -5 -22 -4 -22 11 5 9 17 38 51 65 77 l49 47 103 -54 c57 -30 108
-55 113 -55 5 0 -32 22 -81 48 -74 39 -115 63 -163 98 -2 1 2 13 8 26 l13 23
-20 -20 c-11 -11 -19 -23 -17 -26 3 -6 -31 -40 -70 -69 -17 -14 -17 -12 2 27
12 23 28 46 34 50 18 11 48 67 48 89 0 14 -7 11 -34 -15 l-33 -32 -27 32 c-15
17 -36 49 -47 71 l-20 39 26 45 c31 52 28 57 -6 12z"/>
<path d="M737 5123 c-61 -99 -80 -133 -74 -133 3 0 31 44 63 97 33 54 63 103
67 110 4 7 6 13 3 13 -3 0 -29 -39 -59 -87z"/>
<path d="M4951 5205 c0 -5 6 -21 14 -35 8 -14 14 -20 14 -15 0 6 -6 21 -14 35
-8 14 -14 21 -14 15z"/>
<path d="M3012 5175 c0 -16 2 -22 5 -12 2 9 2 23 0 30 -3 6 -5 -1 -5 -18z"/>
<path d="M5550 5160 c11 -22 23 -40 25 -40 3 0 -4 18 -15 40 -11 22 -23 40
-25 40 -3 0 4 -18 15 -40z"/>
<path d="M4331 5174 c0 -11 3 -14 6 -6 3 7 2 16 -1 19 -3 4 -6 -2 -5 -13z"/>
<path d="M6061 5135 c12 -22 26 -44 32 -50 15 -16 -20 48 -38 70 -9 11 -7 2 6
-20z"/>
<path d="M4341 5134 c0 -11 3 -14 6 -6 3 7 2 16 -1 19 -3 4 -6 -2 -5 -13z"/>
<path d="M3002 5115 c0 -16 2 -22 5 -12 2 9 2 23 0 30 -3 6 -5 -1 -5 -18z"/>
<path d="M4980 5135 c0 -5 5 -17 10 -25 5 -8 10 -10 10 -5 0 6 -5 17 -10 25
-5 8 -10 11 -10 5z"/>
<path d="M1155 5090 c-9 -16 -13 -30 -11 -30 3 0 12 14 21 30 9 17 13 30 11
30 -3 0 -12 -13 -21 -30z"/>
<path d="M4351 5094 c0 -11 3 -14 6 -6 3 7 2 16 -1 19 -3 4 -6 -2 -5 -13z"/>
<path d="M5642 4985 c34 -68 64 -123 66 -121 4 5 -116 246 -123 246 -3 0 23
-56 57 -125z"/>
<path d="M362 5065 c-17 -37 -14 -45 4 -12 9 16 14 31 11 33 -2 2 -9 -7 -15
-21z"/>
<path d="M5000 5085 c0 -5 5 -17 10 -25 5 -8 10 -10 10 -5 0 6 -5 17 -10 25
-5 8 -10 11 -10 5z"/>
<path d="M3683 5015 c0 -38 2 -53 4 -32 2 20 2 52 0 70 -2 17 -4 1 -4 -38z"/>
<path d="M6110 5050 c6 -11 13 -20 16 -20 2 0 0 9 -6 20 -6 11 -13 20 -16 20
-2 0 0 -9 6 -20z"/>
<path d="M1682 5035 c-17 -37 -14 -45 4 -12 9 16 14 31 11 33 -2 2 -9 -7 -15
-21z"/>
<path d="M2992 5040 c0 -14 2 -19 5 -12 2 6 2 18 0 25 -3 6 -5 1 -5 -13z"/>
<path d="M4361 5044 c0 -11 3 -14 6 -6 3 7 2 16 -1 19 -3 4 -6 -2 -5 -13z"/>
<path d="M1100 4990 c-17 -33 -28 -60 -25 -60 2 0 18 27 35 60 17 33 28 60 25
60 -2 0 -18 -27 -35 -60z"/>
<path d="M5020 5035 c0 -5 5 -17 10 -25 5 -8 10 -10 10 -5 0 6 -5 17 -10 25
-5 8 -10 11 -10 5z"/>
<path d="M2306 5004 c-4 -14 -5 -28 -3 -31 3 -2 8 8 11 23 4 14 5 28 3 31 -3
2 -8 -8 -11 -23z"/>
<path d="M4371 5004 c0 -11 3 -14 6 -6 3 7 2 16 -1 19 -3 4 -6 -2 -5 -13z"/>
<path d="M6155 4970 c9 -16 18 -30 21 -30 2 0 -2 14 -11 30 -9 17 -18 30 -21
30 -2 0 2 -13 11 -30z"/>
<path d="M2982 4965 c0 -16 2 -22 5 -12 2 9 2 23 0 30 -3 6 -5 -1 -5 -18z"/>
<path d="M5040 4985 c0 -5 5 -17 10 -25 5 -8 10 -10 10 -5 0 6 -5 17 -10 25
-5 8 -10 11 -10 5z"/>
<path d="M4381 4964 c0 -11 3 -14 6 -6 3 7 2 16 -1 19 -3 4 -6 -2 -5 -13z"/>
<path d="M1642 4945 c-17 -37 -14 -45 4 -12 9 16 14 31 11 33 -2 2 -9 -7 -15
-21z"/>
<path d="M2276 4904 c-4 -14 -5 -28 -3 -31 3 -2 8 8 11 23 4 14 5 28 3 31 -3
2 -8 -8 -11 -23z"/>
<path d="M4391 4914 c0 -11 3 -14 6 -6 3 7 2 16 -1 19 -3 4 -6 -2 -5 -13z"/>
<path d="M2972 4895 c0 -16 2 -22 5 -12 2 9 2 23 0 30 -3 6 -5 -1 -5 -18z"/>
<path d="M5076 4890 c3 -14 11 -32 16 -40 6 -10 7 -7 2 10 -3 14 -11 32 -16
40 -6 10 -7 7 -2 -10z"/>
<path d="M1612 4875 c-17 -37 -14 -45 4 -12 9 16 14 31 11 33 -2 2 -9 -7 -15
-21z"/>
<path d="M4401 4874 c0 -11 3 -14 6 -6 3 7 2 16 -1 19 -3 4 -6 -2 -5 -13z"/>
<path d="M3693 4810 c0 -41 2 -58 4 -37 2 20 2 54 0 75 -2 20 -4 3 -4 -38z"/>
<path d="M5711 4845 c0 -5 8 -26 19 -45 11 -19 19 -30 19 -25 0 6 -8 26 -19
45 -11 19 -19 31 -19 25z"/>
<path d="M2962 4810 c0 -19 2 -27 5 -17 2 9 2 25 0 35 -3 9 -5 1 -5 -18z"/>
<path d="M4411 4824 c0 -11 3 -14 6 -6 3 7 2 16 -1 19 -3 4 -6 -2 -5 -13z"/>
<path d="M1571 4774 c-12 -31 -20 -59 -18 -61 2 -2 14 22 26 53 12 31 20 59
18 61 -2 2 -14 -22 -26 -53z"/>
<path d="M2251 4814 c0 -11 3 -14 6 -6 3 7 2 16 -1 19 -3 4 -6 -2 -5 -13z"/>
<path d="M1000 4790 c-7 -16 -17 -30 -22 -30 -5 0 -6 -4 -3 -10 10 -16 35 -12
29 4 -3 8 0 24 6 36 6 12 10 24 7 26 -2 3 -10 -9 -17 -26z"/>
<path d="M920 4775 c14 -8 30 -14 35 -14 6 0 -1 6 -15 14 -14 8 -29 14 -35 14
-5 0 1 -6 15 -14z"/>
<path d="M4421 4774 c0 -11 3 -14 6 -6 3 7 2 16 -1 19 -3 4 -6 -2 -5 -13z"/>
<path d="M2952 4725 c0 -16 2 -22 5 -12 2 9 2 23 0 30 -3 6 -5 -1 -5 -18z"/>
<path d="M4432 4730 c0 -14 2 -19 5 -12 2 6 2 18 0 25 -3 6 -5 1 -5 -13z"/>
<path d="M5970 4740 c-8 -5 -10 -10 -5 -10 6 0 17 5 25 10 8 5 11 10 5 10 -5
0 -17 -5 -25 -10z"/>
<path d="M6271 4745 c0 -5 8 -26 19 -45 11 -19 19 -30 19 -25 0 6 -8 26 -19
45 -11 19 -19 31 -19 25z"/>
<path d="M5766 4725 c3 -11 7 -27 8 -35 1 -9 6 -22 11 -30 6 -8 16 -26 23 -40
7 -14 10 -17 7 -7 -18 63 -18 63 17 75 l33 11 -37 -6 c-32 -4 -38 -2 -53 24
-9 15 -13 19 -9 8z"/>
<path d="M1531 4669 c-6 -18 -9 -34 -7 -36 2 -2 9 10 15 28 6 18 9 34 7 36 -2
2 -9 -10 -15 -28z"/>
<path d="M4442 4680 c0 -14 2 -19 5 -12 2 6 2 18 0 25 -3 6 -5 1 -5 -13z"/>
<path d="M936 4650 c-22 -56 -19 -65 5 -11 11 24 18 46 15 48 -2 2 -11 -14
-20 -37z"/>
<path d="M1178 4683 c7 -3 16 -2 19 1 4 3 -2 6 -13 5 -11 0 -14 -3 -6 -6z"/>
<path d="M1255 4660 c11 -5 27 -9 35 -9 9 0 8 4 -5 9 -11 5 -27 9 -35 9 -9 0
-8 -4 5 -9z"/>
<path d="M2942 4640 c0 -19 2 -27 5 -17 2 9 2 25 0 35 -3 9 -5 1 -5 -18z"/>
<path d="M5708 4653 c7 -3 16 -2 19 1 4 3 -2 6 -13 5 -11 0 -14 -3 -6 -6z"/>
<path d="M1318 4643 c7 -3 16 -2 19 1 4 3 -2 6 -13 5 -11 0 -14 -3 -6 -6z"/>
<path d="M3703 4580 c0 -41 2 -58 4 -37 2 20 2 54 0 75 -2 20 -4 3 -4 -38z"/>
<path d="M4452 4630 c0 -14 2 -19 5 -12 2 6 2 18 0 25 -3 6 -5 1 -5 -13z"/>
<path d="M5668 4643 c7 -3 16 -2 19 1 4 3 -2 6 -13 5 -11 0 -14 -3 -6 -6z"/>
<path d="M1358 4633 c7 -3 16 -2 19 1 4 3 -2 6 -13 5 -11 0 -14 -3 -6 -6z"/>
<path d="M5628 4633 c7 -3 16 -2 19 1 4 3 -2 6 -13 5 -11 0 -14 -3 -6 -6z"/>
<path d="M6320 4635 c0 -5 5 -17 10 -25 5 -8 10 -10 10 -5 0 6 -5 17 -10 25
-5 8 -10 11 -10 5z"/>
<path d="M5588 4623 c7 -3 16 -2 19 1 4 3 -2 6 -13 5 -11 0 -14 -3 -6 -6z"/>
<path d="M1438 4613 c7 -3 16 -2 19 1 4 3 -2 6 -13 5 -11 0 -14 -3 -6 -6z"/>
<path d="M1490 4609 c-17 -5 -19 -7 -7 -8 15 -1 18 -7 13 -33 -6 -33 -6 -33 5
-5 7 17 18 27 32 28 15 0 17 2 7 6 -8 3 -17 9 -20 13 -3 3 -16 3 -30 -1z"/>
<path d="M5177 4583 c5 -40 4 -43 -18 -44 -21 -1 -20 -2 5 -8 22 -4 32 -15 42
-41 7 -19 13 -30 13 -23 1 6 -4 24 -9 38 -9 24 -7 28 12 33 l23 6 -24 6 c-16
4 -29 17 -37 40 l-13 35 6 -42z"/>
<path d="M5548 4613 c7 -3 16 -2 19 1 4 3 -2 6 -13 5 -11 0 -14 -3 -6 -6z"/>
<path d="M6686 4600 c3 -14 11 -32 16 -40 6 -10 7 -7 2 10 -3 14 -11 32 -16
40 -6 10 -7 7 -2 -10z"/>
<path d="M5508 4603 c7 -3 16 -2 19 1 4 3 -2 6 -13 5 -11 0 -14 -3 -6 -6z"/>
<path d="M5458 4593 c7 -3 16 -2 19 1 4 3 -2 6 -13 5 -11 0 -14 -3 -6 -6z"/>
<path d="M906 4575 c-9 -26 -7 -32 5 -12 6 10 9 21 6 23 -2 3 -7 -2 -11 -11z"/>
<path d="M1568 4583 c7 -3 16 -2 19 1 4 3 -2 6 -13 5 -11 0 -14 -3 -6 -6z"/>
<path d="M4462 4570 c0 -14 2 -19 5 -12 2 6 2 18 0 25 -3 6 -5 1 -5 -13z"/>
<path d="M5418 4583 c7 -3 16 -2 19 1 4 3 -2 6 -13 5 -11 0 -14 -3 -6 -6z"/>
<path d="M5820 4585 c0 -5 5 -17 10 -25 5 -8 10 -10 10 -5 0 6 -5 17 -10 25
-5 8 -10 11 -10 5z"/>
<path d="M1608 4573 c6 -2 18 -2 25 0 6 3 1 5 -13 5 -14 0 -19 -2 -12 -5z"/>
<path d="M2932 4550 c0 -19 2 -27 5 -17 2 9 2 25 0 35 -3 9 -5 1 -5 -18z"/>
<path d="M5368 4573 c7 -3 16 -2 19 1 4 3 -2 6 -13 5 -11 0 -14 -3 -6 -6z"/>
<path d="M1658 4563 c6 -2 18 -2 25 0 6 3 1 5 -13 5 -14 0 -19 -2 -12 -5z"/>
<path d="M5318 4563 c6 -2 18 -2 25 0 6 3 1 5 -13 5 -14 0 -19 -2 -12 -5z"/>
<path d="M1708 4553 c6 -2 18 -2 25 0 6 3 1 5 -13 5 -14 0 -19 -2 -12 -5z"/>
<path d="M2181 4544 c0 -11 3 -14 6 -6 3 7 2 16 -1 19 -3 4 -6 -2 -5 -13z"/>
<path d="M5268 4553 c7 -3 16 -2 19 1 4 3 -2 6 -13 5 -11 0 -14 -3 -6 -6z"/>
<path d="M1768 4543 c6 -2 18 -2 25 0 6 3 1 5 -13 5 -14 0 -19 -2 -12 -5z"/>
<path d="M886 4525 c-9 -26 -7 -32 5 -12 6 10 9 21 6 23 -2 3 -7 -2 -11 -11z"/>
<path d="M1828 4533 c6 -2 18 -2 25 0 6 3 1 5 -13 5 -14 0 -19 -2 -12 -5z"/>
<path d="M4472 4520 c0 -14 2 -19 5 -12 2 6 2 18 0 25 -3 6 -5 1 -5 -13z"/>
<path d="M1888 4523 c6 -2 18 -2 25 0 6 3 1 5 -13 5 -14 0 -19 -2 -12 -5z"/>
<path d="M5093 4523 c9 -2 23 -2 30 0 6 3 -1 5 -18 5 -16 0 -22 -2 -12 -5z"/>
<path d="M1948 4513 c6 -2 18 -2 25 0 6 3 1 5 -13 5 -14 0 -19 -2 -12 -5z"/>
<path d="M2171 4508 c-1 -10 -9 -18 -18 -18 -12 0 -14 -3 -7 -8 7 -4 14 -16
17 -27 4 -18 5 -18 6 3 1 14 7 22 19 22 10 0 13 3 6 8 -6 4 -14 14 -17 22 -4
12 -6 11 -6 -2z"/>
<path d="M5023 4513 c9 -2 23 -2 30 0 6 3 -1 5 -18 5 -16 0 -22 -2 -12 -5z"/>
<path d="M6790 4515 c0 -3 10 -44 21 -90 21 -82 20 -115 -1 -115 -5 0 -17 15
-25 33 -8 17 -12 22 -9 10 5 -21 2 -23 -30 -23 -59 0 -49 -25 39 -98 23 -19
26 -25 14 -33 -8 -5 -24 -9 -37 -9 -23 0 -26 -4 -36 -53 -5 -18 -23 -38 -61
-63 -30 -20 -55 -39 -55 -42 0 -5 41 20 85 53 17 12 51 24 78 27 41 5 47 3 47
-14 0 -10 -11 -41 -25 -68 -25 -50 -33 -100 -15 -100 5 0 22 19 37 42 l28 42
3 -42 c2 -22 -1 -63 -6 -91 -11 -60 0 -87 17 -40 6 17 11 41 11 53 0 17 2 18
10 6 7 -11 10 -7 10 18 0 54 36 78 70 47 16 -15 17 -11 4 67 -34 212 -35 217
-60 237 -15 11 -24 29 -24 46 0 14 -4 24 -8 21 -5 -3 -24 37 -42 89 -28 83
-40 109 -40 90z"/>
<path d="M2018 4503 c6 -2 18 -2 25 0 6 3 1 5 -13 5 -14 0 -19 -2 -12 -5z"/>
<path d="M4953 4503 c9 -2 23 -2 30 0 6 3 -1 5 -18 5 -16 0 -22 -2 -12 -5z"/>
<path d="M5854 4495 c21 -70 75 -218 75 -209 1 13 -67 215 -75 223 -4 3 -4 -3
0 -14z"/>
<path d="M6720 4505 c0 -5 5 -17 10 -25 5 -8 10 -10 10 -5 0 6 -5 17 -10 25
-5 8 -10 11 -10 5z"/>
<path d="M2083 4493 c9 -2 23 -2 30 0 6 3 -1 5 -18 5 -16 0 -22 -2 -12 -5z"/>
<path d="M4883 4493 c9 -2 23 -2 30 0 6 3 -1 5 -18 5 -16 0 -22 -2 -12 -5z"/>
<path d="M861 4459 c-6 -18 -9 -34 -7 -36 2 -2 9 10 15 28 6 18 9 34 7 36 -2
2 -9 -10 -15 -28z"/>
<path d="M2920 4479 c-1 -8 -3 -50 -5 -94 -3 -76 -3 -77 6 -25 9 58 11 121 4
129 -3 2 -5 -2 -5 -10z"/>
<path d="M4803 4483 c9 -2 25 -2 35 0 9 3 1 5 -18 5 -19 0 -27 -2 -17 -5z"/>
<path d="M6380 4485 c0 -5 5 -17 10 -25 5 -8 10 -10 10 -5 0 6 -5 17 -10 25
-5 8 -10 11 -10 5z"/>
<path d="M2243 4473 c9 -2 25 -2 35 0 9 3 1 5 -18 5 -19 0 -27 -2 -17 -5z"/>
<path d="M4480 4468 c0 -13 -11 -18 -42 -21 -42 -3 -42 -4 7 -4 28 -1 73 2
100 7 l50 8 -48 -1 c-32 -1 -51 4 -57 13 -8 13 -10 12 -10 -2z"/>
<path d="M4723 4473 c9 -2 25 -2 35 0 9 3 1 5 -18 5 -19 0 -27 -2 -17 -5z"/>
<path d="M2333 4463 c9 -2 25 -2 35 0 9 3 1 5 -18 5 -19 0 -27 -2 -17 -5z"/>
<path d="M4633 4463 c9 -2 25 -2 35 0 9 3 1 5 -18 5 -19 0 -27 -2 -17 -5z"/>
<path d="M2428 4453 c12 -2 32 -2 45 0 12 2 2 4 -23 4 -25 0 -35 -2 -22 -4z"/>
<path d="M2543 4443 c15 -2 37 -2 50 0 12 2 0 4 -28 4 -27 0 -38 -2 -22 -4z"/>
<path d="M5221 4434 c0 -11 3 -14 6 -6 3 7 2 16 -1 19 -3 4 -6 -2 -5 -13z"/>
<path d="M2663 4433 c15 -2 39 -2 55 0 15 2 2 4 -28 4 -30 0 -43 -2 -27 -4z"/>
<path d="M4283 4433 c15 -2 37 -2 50 0 12 2 0 4 -28 4 -27 0 -38 -2 -22 -4z"/>
<path d="M2151 4414 c0 -11 3 -14 6 -6 3 7 2 16 -1 19 -3 4 -6 -2 -5 -13z"/>
<path d="M2813 4423 c15 -2 39 -2 55 0 15 2 2 4 -28 4 -30 0 -43 -2 -27 -4z"/>
<path d="M4128 4423 c18 -2 45 -2 60 0 15 2 0 4 -33 4 -33 0 -45 -2 -27 -4z"/>
<path d="M3013 4413 c26 -2 67 -2 90 0 23 2 2 3 -48 3 -49 0 -68 -1 -42 -3z"/>
<path d="M3505 4410 l-210 -6 207 -2 207 -2 4 -112 3 -113 2 123 c1 67 1 121
0 120 -2 -1 -97 -5 -213 -8z"/>
<path d="M3883 4413 c32 -2 81 -2 110 0 29 2 3 3 -58 3 -60 0 -84 -1 -52 -3z"/>
<path d="M4492 4400 c0 -14 2 -19 5 -12 2 6 2 18 0 25 -3 6 -5 1 -5 -13z"/>
<path d="M5231 4400 c0 -8 4 -24 9 -35 5 -13 9 -14 9 -5 0 8 -4 24 -9 35 -5
13 -9 14 -9 5z"/>
<path d="M343 4365 c-6 -11 -25 -67 -43 -125 -18 -58 -34 -107 -37 -110 -2 -3
-23 16 -46 41 -23 25 -35 36 -27 25 8 -12 27 -35 43 -52 35 -38 33 -48 -31
-156 -51 -88 -67 -95 -114 -48 -27 27 -29 35 -25 78 2 26 2 37 0 25 -2 -13
-10 -23 -17 -23 -9 0 -17 -33 -25 -107 -20 -184 -21 -206 -12 -263 5 -30 9
-43 10 -27 0 15 5 27 9 27 25 0 120 -83 141 -123 23 -42 61 -67 101 -67 8 0
29 -14 47 -32 l33 -32 0 63 c0 60 -2 66 -35 97 -19 18 -35 36 -35 39 0 15 90
144 139 200 29 33 65 80 79 105 14 25 29 46 33 48 4 2 2 14 -5 27 -8 18 -16
22 -36 18 -49 -9 -52 16 -9 87 38 64 51 120 27 120 -7 0 -37 -34 -66 -75 -53
-74 -82 -94 -82 -55 0 10 23 68 50 128 49 106 61 152 40 152 -6 0 -39 -58 -74
-129 -40 -82 -66 -124 -70 -115 -9 24 -7 36 4 29 7 -4 9 3 5 22 -5 19 -4 24 3
15 7 -11 11 -7 16 13 4 15 5 30 1 33 -3 3 -5 -3 -5 -13 0 -10 -3 -16 -6 -13
-3 4 4 41 16 83 22 80 24 128 3 90z m23 -330 c3 -8 -4 -29 -17 -46 -26 -38
-36 -25 -19 26 12 37 27 45 36 20z m94 -50 c10 -12 7 -21 -18 -52 -17 -21 -44
-51 -61 -67 -28 -27 -31 -28 -31 -9 0 21 77 143 90 143 4 0 13 -7 20 -15z"/>
<path d="M811 4319 c-12 -35 -21 -68 -20 -73 0 -6 11 20 25 58 13 38 22 71 20
73 -2 2 -13 -24 -25 -58z"/>
<path d="M2141 4364 c0 -11 3 -14 6 -6 3 7 2 16 -1 19 -3 4 -6 -2 -5 -13z"/>
<path d="M6420 4375 c0 -5 5 -17 10 -25 5 -8 10 -10 10 -5 0 6 -5 17 -10 25
-5 8 -10 11 -10 5z"/>
<path d="M127 4353 c-3 -5 -8 -28 -11 -53 -6 -35 -5 -42 4 -30 8 10 13 11 16
4 3 -6 12 -20 20 -30 8 -11 6 0 -6 23 -13 28 -18 52 -14 68 6 24 0 34 -9 18z"/>
<path d="M4502 4340 c0 -14 2 -19 5 -12 2 6 2 18 0 25 -3 6 -5 1 -5 -13z"/>
<path d="M2132 4320 c0 -14 2 -19 5 -12 2 6 2 18 0 25 -3 6 -5 1 -5 -13z"/>
<path d="M5251 4324 c0 -11 3 -14 6 -6 3 7 2 16 -1 19 -3 4 -6 -2 -5 -13z"/>
<path d="M1411 4294 c0 -11 3 -14 6 -6 3 7 2 16 -1 19 -3 4 -6 -2 -5 -13z"/>
<path d="M4512 4275 c0 -16 2 -22 5 -12 2 9 2 23 0 30 -3 6 -5 -1 -5 -18z"/>
<path d="M5261 4284 c0 -11 3 -14 6 -6 3 7 2 16 -1 19 -3 4 -6 -2 -5 -13z"/>
<path d="M6452 4290 c0 -8 6 -31 13 -50 7 -19 13 -28 13 -20 0 8 -6 31 -13 50
-7 19 -13 28 -13 20z"/>
<path d="M2122 4270 c0 -14 2 -19 5 -12 2 6 2 18 0 25 -3 6 -5 1 -5 -13z"/>
<path d="M2903 4245 c0 -22 2 -30 4 -17 2 12 2 30 0 40 -3 9 -5 -1 -4 -23z"/>
<path d="M5271 4244 c0 -11 3 -14 6 -6 3 7 2 16 -1 19 -3 4 -6 -2 -5 -13z"/>
<path d="M101 4234 c0 -11 3 -14 6 -6 3 7 2 16 -1 19 -3 4 -6 -2 -5 -13z"/>
<path d="M1391 4224 c0 -11 3 -14 6 -6 3 7 2 16 -1 19 -3 4 -6 -2 -5 -13z"/>
<path d="M2112 4220 c0 -14 2 -19 5 -12 2 6 2 18 0 25 -3 6 -5 1 -5 -13z"/>
<path d="M4522 4205 c0 -16 2 -22 5 -12 2 9 2 23 0 30 -3 6 -5 -1 -5 -18z"/>
<path d="M5281 4204 c0 -11 3 -14 6 -6 3 7 2 16 -1 19 -3 4 -6 -2 -5 -13z"/>
<path d="M5951 4194 c0 -11 3 -14 6 -6 3 7 2 16 -1 19 -3 4 -6 -2 -5 -13z"/>
<path d="M766 4174 c-4 -14 -5 -28 -3 -31 3 -2 8 8 11 23 4 14 5 28 3 31 -3 2
-8 -8 -11 -23z"/>
<path d="M1381 4184 c0 -11 3 -14 6 -6 3 7 2 16 -1 19 -3 4 -6 -2 -5 -13z"/>
<path d="M2102 4170 c0 -14 2 -19 5 -12 2 6 2 18 0 25 -3 6 -5 1 -5 -13z"/>
<path d="M5291 4154 c0 -11 3 -14 6 -6 3 7 2 16 -1 19 -3 4 -6 -2 -5 -13z"/>
<path d="M6491 4160 c0 -8 4 -24 9 -35 5 -13 9 -14 9 -5 0 8 -4 24 -9 35 -5
13 -9 14 -9 5z"/>
<path d="M81 4144 c0 -11 3 -14 6 -6 3 7 2 16 -1 19 -3 4 -6 -2 -5 -13z"/>
<path d="M1371 4144 c0 -11 3 -14 6 -6 3 7 2 16 -1 19 -3 4 -6 -2 -5 -13z"/>
<path d="M2893 4120 c0 -25 2 -35 4 -22 2 12 2 32 0 45 -2 12 -4 2 -4 -23z"/>
<path d="M4532 4130 c0 -19 2 -27 5 -17 2 9 2 25 0 35 -3 9 -5 1 -5 -18z"/>
<path d="M2092 4110 c0 -14 2 -19 5 -12 2 6 2 18 0 25 -3 6 -5 1 -5 -13z"/>
<path d="M5301 4114 c0 -11 3 -14 6 -6 3 7 2 16 -1 19 -3 4 -6 -2 -5 -13z"/>
<path d="M1361 4104 c0 -11 3 -14 6 -6 3 7 2 16 -1 19 -3 4 -6 -2 -5 -13z"/>
<path d="M3724 3975 c0 -82 2 -115 3 -72 2 43 2 110 0 150 -1 40 -3 5 -3 -78z"/>
<path d="M71 4094 c0 -11 3 -14 6 -6 3 7 2 16 -1 19 -3 4 -6 -2 -5 -13z"/>
<path d="M5981 4084 c0 -11 3 -14 6 -6 3 7 2 16 -1 19 -3 4 -6 -2 -5 -13z"/>
<path d="M6511 4084 c0 -11 3 -14 6 -6 3 7 2 16 -1 19 -3 4 -6 -2 -5 -13z"/>
<path d="M4542 4060 c0 -19 2 -27 5 -17 2 9 2 25 0 35 -3 9 -5 1 -5 -18z"/>
<path d="M5312 4070 c0 -14 2 -19 5 -12 2 6 2 18 0 25 -3 6 -5 1 -5 -13z"/>
<path d="M1351 4064 c0 -11 3 -14 6 -6 3 7 2 16 -1 19 -3 4 -6 -2 -5 -13z"/>
<path d="M2082 4055 c0 -16 2 -22 5 -12 2 9 2 23 0 30 -3 6 -5 -1 -5 -18z"/>
<path d="M731 4044 c0 -11 3 -14 6 -6 3 7 2 16 -1 19 -3 4 -6 -2 -5 -13z"/>
<path d="M6526 4028 c5 -32 3 -38 -23 -53 -25 -15 -16 -14 21 1 9 3 16 -2 19
-13 3 -13 5 -11 5 7 0 14 -6 41 -13 60 l-14 35 5 -37z"/>
<path d="M1341 4024 c0 -11 3 -14 6 -6 3 7 2 16 -1 19 -3 4 -6 -2 -5 -13z"/>
<path d="M2883 4000 c0 -25 2 -35 4 -22 2 12 2 32 0 45 -2 12 -4 2 -4 -23z"/>
<path d="M5321 4024 c0 -11 3 -14 6 -6 3 7 2 16 -1 19 -3 4 -6 -2 -5 -13z"/>
<path d="M6574 4014 c-18 -14 -18 -15 4 -4 12 6 22 13 22 15 0 8 -5 6 -26 -11z"/>
<path d="M721 4004 c0 -11 3 -14 6 -6 3 7 2 16 -1 19 -3 4 -6 -2 -5 -13z"/>
<path d="M2072 3995 c0 -16 2 -22 5 -12 2 9 2 23 0 30 -3 6 -5 -1 -5 -18z"/>
<path d="M4552 3985 c0 -16 2 -22 5 -12 2 9 2 23 0 30 -3 6 -5 -1 -5 -18z"/>
<path d="M1331 3984 c0 -11 3 -14 6 -6 3 7 2 16 -1 19 -3 4 -6 -2 -5 -13z"/>
<path d="M5332 3970 c0 -14 2 -19 5 -12 2 6 2 18 0 25 -3 6 -5 1 -5 -13z"/>
<path d="M711 3964 c0 -11 3 -14 6 -6 3 7 2 16 -1 19 -3 4 -6 -2 -5 -13z"/>
<path d="M6011 3964 c0 -11 3 -14 6 -6 3 7 2 16 -1 19 -3 4 -6 -2 -5 -13z"/>
<path d="M1322 3940 c0 -14 2 -19 5 -12 2 6 2 18 0 25 -3 6 -5 1 -5 -13z"/>
<path d="M2062 3935 c0 -16 2 -22 5 -12 2 9 2 23 0 30 -3 6 -5 -1 -5 -18z"/>
<path d="M6410 3935 c-14 -8 -20 -14 -15 -14 6 0 21 6 35 14 14 8 21 14 15 14
-5 0 -21 -6 -35 -14z"/>
<path d="M580 3930 c8 -5 20 -10 25 -10 6 0 3 5 -5 10 -8 5 -19 10 -25 10 -5
0 -3 -5 5 -10z"/>
<path d="M698 3921 c-7 -24 -11 -24 -63 -6 -11 3 -6 -1 10 -10 17 -10 36 -24
43 -33 7 -9 12 -11 12 -4 0 8 7 9 26 2 36 -14 43 -12 14 5 -14 7 -27 25 -30
42 -6 28 -6 28 -12 4z"/>
<path d="M5342 3920 c0 -14 2 -19 5 -12 2 6 2 18 0 25 -3 6 -5 1 -5 -13z"/>
<path d="M6021 3924 c0 -11 3 -14 6 -6 3 7 2 16 -1 19 -3 4 -6 -2 -5 -13z"/>
<path d="M6551 3924 c0 -11 3 -14 6 -6 3 7 2 16 -1 19 -3 4 -6 -2 -5 -13z"/>
<path d="M4562 3900 c0 -19 2 -27 5 -17 2 9 2 25 0 35 -3 9 -5 1 -5 -18z"/>
<path d="M6350 3910 c-8 -5 -10 -10 -5 -10 6 0 17 5 25 10 8 5 11 10 5 10 -5
0 -17 -5 -25 -10z"/>
<path d="M1312 3890 c0 -14 2 -19 5 -12 2 6 2 18 0 25 -3 6 -5 1 -5 -13z"/>
<path d="M2873 3860 c0 -30 2 -43 4 -27 2 15 2 39 0 55 -2 15 -4 2 -4 -28z"/>
<path d="M6031 3884 c0 -11 3 -14 6 -6 3 7 2 16 -1 19 -3 4 -6 -2 -5 -13z"/>
<path d="M6300 3890 c-8 -5 -10 -10 -5 -10 6 0 17 5 25 10 8 5 11 10 5 10 -5
0 -17 -5 -25 -10z"/>
<path d="M2052 3865 c0 -16 2 -22 5 -12 2 9 2 23 0 30 -3 6 -5 -1 -5 -18z"/>
<path d="M5352 3870 c0 -14 2 -19 5 -12 2 6 2 18 0 25 -3 6 -5 1 -5 -13z"/>
<path d="M6561 3874 c0 -11 3 -14 6 -6 3 7 2 16 -1 19 -3 4 -6 -2 -5 -13z"/>
<path d="M6892 3855 c0 -16 2 -22 5 -12 2 9 2 23 0 30 -3 6 -5 -1 -5 -18z"/>
<path d="M6205 3855 c-25 -12 -26 -14 -5 -9 28 7 60 23 45 23 -5 0 -23 -6 -40
-14z"/>
<path d="M1302 3840 c0 -14 2 -19 5 -12 2 6 2 18 0 25 -3 6 -5 1 -5 -13z"/>
<path d="M6046 3828 c3 -21 -1 -28 -14 -29 -14 0 -14 -2 -2 -6 8 -3 18 -11 22
-17 5 -7 8 -4 8 7 0 9 5 17 12 17 7 0 5 5 -4 13 -9 6 -18 19 -21 27 -2 8 -3 3
-1 -12z"/>
<path d="M682 3830 c0 -14 2 -19 5 -12 2 6 2 18 0 25 -3 6 -5 1 -5 -13z"/>
<path d="M4573 3815 c0 -22 2 -30 4 -17 2 12 2 30 0 40 -3 9 -5 -1 -4 -23z"/>
<path d="M6927 3843 c-4 -3 -7 -20 -7 -37 0 -25 -2 -28 -11 -16 -8 11 -9 6 -5
-21 8 -44 0 -52 -30 -33 -31 21 -44 11 -44 -36 0 -58 16 -89 54 -105 38 -16
46 -40 46 -142 l0 -65 -22 14 c-13 8 -34 34 -47 58 -18 32 -36 48 -75 65 -28
12 -60 32 -70 44 -29 32 -36 26 -36 -29 0 -60 14 -94 46 -109 13 -6 24 -15 24
-22 0 -11 -41 -86 -74 -134 l-20 -29 -7 24 -7 25 -1 -26 c-1 -14 -19 -50 -42
-80 -22 -30 -51 -75 -64 -100 -16 -30 -34 -50 -55 -59 -17 -7 -29 -15 -26 -17
2 -3 14 1 27 7 19 11 24 10 35 -5 13 -17 17 -15 57 28 43 46 67 59 67 35 0 -7
-25 -54 -56 -106 -53 -89 -80 -172 -56 -172 6 0 30 28 54 62 24 34 48 62 53
62 6 0 15 15 21 33 16 46 47 90 52 75 5 -16 -57 -172 -69 -172 -5 0 -9 -8 -9
-18 0 -9 -14 -50 -31 -91 -17 -41 -28 -80 -24 -89 6 -15 8 -15 21 3 9 11 20
19 25 18 5 -2 9 7 9 19 0 11 18 60 39 107 22 47 45 100 52 116 25 66 19 -2
-12 -118 -17 -67 -34 -138 -36 -157 l-4 -35 15 25 c8 14 33 88 56 165 35 117
79 217 126 284 2 2 15 1 29 -3 21 -5 25 -13 26 -44 1 -36 1 -36 8 -7 l7 30 14
-40 14 -40 7 35 c4 19 13 96 19 170 12 130 11 135 -8 150 -14 12 -17 21 -11
31 5 8 9 19 9 24 -1 6 -5 2 -11 -7 -19 -34 -29 -18 -28 45 1 34 3 53 6 42 10
-42 22 -36 39 20 18 65 16 248 -6 318 -10 35 -35 49 -53 30z m-237 -692 c0 -5
-6 -16 -13 -23 -8 -7 -12 -18 -10 -25 2 -6 -1 -14 -6 -18 -12 -7 -9 44 3 64 9
13 26 15 26 2z"/>
<path d="M6571 3824 c0 -11 3 -14 6 -6 3 7 2 16 -1 19 -3 4 -6 -2 -5 -13z"/>
<path d="M2042 3805 c0 -16 2 -22 5 -12 2 9 2 23 0 30 -3 6 -5 -1 -5 -18z"/>
<path d="M5362 3810 c0 -14 2 -19 5 -12 2 6 2 18 0 25 -3 6 -5 1 -5 -13z"/>
<path d="M905 3810 c11 -5 27 -9 35 -9 9 0 8 4 -5 9 -11 5 -27 9 -35 9 -9 0
-8 -4 5 -9z"/>
<path d="M1292 3790 c0 -14 2 -19 5 -12 2 6 2 18 0 25 -3 6 -5 1 -5 -13z"/>
<path d="M672 3780 c0 -14 2 -19 5 -12 2 6 2 18 0 25 -3 6 -5 1 -5 -13z"/>
<path d="M998 3783 c7 -3 16 -2 19 1 4 3 -2 6 -13 5 -11 0 -14 -3 -6 -6z"/>
<path d="M5988 3783 c7 -3 16 -2 19 1 4 3 -2 6 -13 5 -11 0 -14 -3 -6 -6z"/>
<path d="M6582 3770 c0 -14 2 -19 5 -12 2 6 2 18 0 25 -3 6 -5 1 -5 -13z"/>
<path d="M5925 3770 c-13 -5 -14 -9 -5 -9 8 0 24 4 35 9 13 5 14 9 5 9 -8 0
-24 -4 -35 -9z"/>
<path d="M1068 3763 c7 -3 16 -2 19 1 4 3 -2 6 -13 5 -11 0 -14 -3 -6 -6z"/>
<path d="M5372 3750 c0 -14 2 -19 5 -12 2 6 2 18 0 25 -3 6 -5 1 -5 -13z"/>
<path d="M1108 3753 c7 -3 16 -2 19 1 4 3 -2 6 -13 5 -11 0 -14 -3 -6 -6z"/>
<path d="M1280 3743 c0 -12 -4 -23 -8 -25 -4 -1 -5 -16 -2 -33 6 -28 7 -27 15
18 4 26 5 51 1 54 -3 4 -6 -3 -6 -14z"/>
<path d="M2863 3700 c0 -36 2 -50 4 -32 2 17 2 47 0 65 -2 17 -4 3 -4 -33z"/>
<path d="M5878 3753 c7 -3 16 -2 19 1 4 3 -2 6 -13 5 -11 0 -14 -3 -6 -6z"/>
<path d="M6062 3735 c0 -16 2 -22 5 -12 2 9 2 23 0 30 -3 6 -5 -1 -5 -18z"/>
<path d="M662 3730 c0 -14 2 -19 5 -12 2 6 2 18 0 25 -3 6 -5 1 -5 -13z"/>
<path d="M1148 3743 c7 -3 16 -2 19 1 4 3 -2 6 -13 5 -11 0 -14 -3 -6 -6z"/>
<path d="M2032 3725 c0 -16 2 -22 5 -12 2 9 2 23 0 30 -3 6 -5 -1 -5 -18z"/>
<path d="M4582 3720 c0 -19 2 -27 5 -17 2 9 2 25 0 35 -3 9 -5 1 -5 -18z"/>
<path d="M5838 3743 c7 -3 16 -2 19 1 4 3 -2 6 -13 5 -11 0 -14 -3 -6 -6z"/>
<path d="M1188 3733 c7 -3 16 -2 19 1 4 3 -2 6 -13 5 -11 0 -14 -3 -6 -6z"/>
<path d="M5798 3733 c7 -3 16 -2 19 1 4 3 -2 6 -13 5 -11 0 -14 -3 -6 -6z"/>
<path d="M6592 3715 c0 -16 2 -22 5 -12 2 9 2 23 0 30 -3 6 -5 -1 -5 -18z"/>
<path d="M1228 3723 c7 -3 16 -2 19 1 4 3 -2 6 -13 5 -11 0 -14 -3 -6 -6z"/>
<path d="M5758 3723 c7 -3 16 -2 19 1 4 3 -2 6 -13 5 -11 0 -14 -3 -6 -6z"/>
<path d="M5708 3713 c7 -3 16 -2 19 1 4 3 -2 6 -13 5 -11 0 -14 -3 -6 -6z"/>
<path d="M1308 3703 c6 -2 18 -2 25 0 6 3 1 5 -13 5 -14 0 -19 -2 -12 -5z"/>
<path d="M5381 3683 c-1 -24 -6 -33 -23 -36 -20 -4 -20 -4 4 -6 19 -1 28 -7
31 -23 4 -20 4 -20 6 4 1 19 7 28 24 31 19 4 19 4 -5 6 -21 1 -28 7 -31 29 -4
26 -4 25 -6 -5z"/>
<path d="M5668 3703 c7 -3 16 -2 19 1 4 3 -2 6 -13 5 -11 0 -14 -3 -6 -6z"/>
<path d="M1358 3693 c6 -2 18 -2 25 0 6 3 1 5 -13 5 -14 0 -19 -2 -12 -5z"/>
<path d="M5618 3693 c7 -3 16 -2 19 1 4 3 -2 6 -13 5 -11 0 -14 -3 -6 -6z"/>
<path d="M6072 3675 c0 -16 2 -22 5 -12 2 9 2 23 0 30 -3 6 -5 -1 -5 -18z"/>
<path d="M652 3670 c0 -14 2 -19 5 -12 2 6 2 18 0 25 -3 6 -5 1 -5 -13z"/>
<path d="M1408 3683 c6 -2 18 -2 25 0 6 3 1 5 -13 5 -14 0 -19 -2 -12 -5z"/>
<path d="M5568 3683 c7 -3 16 -2 19 1 4 3 -2 6 -13 5 -11 0 -14 -3 -6 -6z"/>
<path d="M1468 3673 c7 -3 16 -2 19 1 4 3 -2 6 -13 5 -11 0 -14 -3 -6 -6z"/>
<path d="M2022 3650 c0 -19 2 -27 5 -17 2 9 2 25 0 35 -3 9 -5 1 -5 -18z"/>
<path d="M5518 3673 c7 -3 16 -2 19 1 4 3 -2 6 -13 5 -11 0 -14 -3 -6 -6z"/>
<path d="M6602 3655 c0 -16 2 -22 5 -12 2 9 2 23 0 30 -3 6 -5 -1 -5 -18z"/>
<path d="M1518 3663 c6 -2 18 -2 25 0 6 3 1 5 -13 5 -14 0 -19 -2 -12 -5z"/>
<path d="M5458 3663 c6 -2 18 -2 25 0 6 3 1 5 -13 5 -14 0 -19 -2 -12 -5z"/>
<path d="M1568 3653 c6 -2 18 -2 25 0 6 3 1 5 -13 5 -14 0 -19 -2 -12 -5z"/>
<path d="M3732 3588 l-2 -78 -332 -3 -333 -2 332 -3 332 -2 4 -72 3 -73 2 72
2 72 98 4 97 3 -97 2 -97 2 -4 78 -3 77 -2 -77z"/>
<path d="M1628 3643 c6 -2 18 -2 25 0 6 3 1 5 -13 5 -14 0 -19 -2 -12 -5z"/>
<path d="M4591 3603 c-1 -48 -3 -52 -28 -56 -23 -3 -22 -4 8 -6 l37 -1 -5 48
c-7 69 -11 74 -12 15z"/>
<path d="M1262 3615 c0 -16 2 -22 5 -12 2 9 2 23 0 30 -3 6 -5 -1 -5 -18z"/>
<path d="M1688 3633 c6 -2 18 -2 25 0 6 3 1 5 -13 5 -14 0 -19 -2 -12 -5z"/>
<path d="M5293 3633 c9 -2 23 -2 30 0 6 3 -1 5 -18 5 -16 0 -22 -2 -12 -5z"/>
<path d="M6082 3615 c0 -16 2 -22 5 -12 2 9 2 23 0 30 -3 6 -5 -1 -5 -18z"/>
<path d="M642 3610 c0 -14 2 -19 5 -12 2 6 2 18 0 25 -3 6 -5 1 -5 -13z"/>
<path d="M1753 3623 c9 -2 23 -2 30 0 6 3 -1 5 -18 5 -16 0 -22 -2 -12 -5z"/>
<path d="M5223 3623 c9 -2 23 -2 30 0 6 3 -1 5 -18 5 -16 0 -22 -2 -12 -5z"/>
<path d="M1813 3613 c9 -2 23 -2 30 0 6 3 -1 5 -18 5 -16 0 -22 -2 -12 -5z"/>
<path d="M5163 3613 c9 -2 23 -2 30 0 6 3 -1 5 -18 5 -16 0 -22 -2 -12 -5z"/>
<path d="M1883 3603 c9 -2 23 -2 30 0 6 3 -1 5 -18 5 -16 0 -22 -2 -12 -5z"/>
<path d="M5093 3603 c9 -2 23 -2 30 0 6 3 -1 5 -18 5 -16 0 -22 -2 -12 -5z"/>
<path d="M6612 3580 c0 -19 2 -27 5 -17 2 9 2 25 0 35 -3 9 -5 1 -5 -18z"/>
<path d="M1973 3593 c32 -4 37 -8 38 -31 2 -24 2 -24 6 -4 3 16 12 22 31 23
l27 1 -25 8 c-14 4 -45 8 -70 7 -42 0 -43 -1 -7 -4z"/>
<path d="M2852 3563 c-1 -27 -7 -43 -14 -43 -10 0 -10 -2 -1 -8 6 -4 13 -21
16 -37 l4 -30 2 32 c1 31 2 32 54 36 l52 3 -52 2 -52 2 -4 43 -4 42 -1 -42z"/>
<path d="M5013 3593 c9 -2 23 -2 30 0 6 3 -1 5 -18 5 -16 0 -22 -2 -12 -5z"/>
<path d="M4933 3583 c9 -2 25 -2 35 0 9 3 1 5 -18 5 -19 0 -27 -2 -17 -5z"/>
<path d="M2118 3573 c12 -2 30 -2 40 0 9 3 -1 5 -23 4 -22 0 -30 -2 -17 -4z"/>
<path d="M4848 3573 c12 -2 30 -2 40 0 9 3 -1 5 -23 4 -22 0 -30 -2 -17 -4z"/>
<path d="M5402 3550 c0 -19 2 -27 5 -17 2 9 2 25 0 35 -3 9 -5 1 -5 -18z"/>
<path d="M6092 3555 c0 -16 2 -22 5 -12 2 9 2 23 0 30 -3 6 -5 -1 -5 -18z"/>
<path d="M1252 3545 c0 -16 2 -22 5 -12 2 9 2 23 0 30 -3 6 -5 -1 -5 -18z"/>
<path d="M2208 3563 c12 -2 32 -2 45 0 12 2 2 4 -23 4 -25 0 -35 -2 -22 -4z"/>
<path d="M4758 3563 c12 -2 30 -2 40 0 9 3 -1 5 -23 4 -22 0 -30 -2 -17 -4z"/>
<path d="M2 3444 c-2 -124 7 -278 16 -270 2 3 12 -4 21 -16 26 -31 61 -17 61
25 0 52 10 76 28 70 11 -5 13 -3 7 6 -4 7 4 5 19 -4 15 -10 29 -15 32 -12 3 3
7 52 9 109 2 64 1 84 -3 53 -7 -47 -8 -49 -20 -27 -7 12 -21 22 -32 22 -29 0
-50 28 -50 65 0 19 -6 38 -14 42 -8 4 -16 19 -18 33 -4 23 -7 21 -24 -20 l-19
-45 -6 45 c-4 28 -7 0 -7 -76z"/>
<path d="M632 3540 c0 -14 2 -19 5 -12 2 6 2 18 0 25 -3 6 -5 1 -5 -13z"/>
<path d="M2308 3553 c12 -2 30 -2 40 0 9 3 -1 5 -23 4 -22 0 -30 -2 -17 -4z"/>
<path d="M4658 3553 c12 -2 30 -2 40 0 9 3 -1 5 -23 4 -22 0 -30 -2 -17 -4z"/>
<path d="M2418 3543 c12 -2 32 -2 45 0 12 2 2 4 -23 4 -25 0 -35 -2 -22 -4z"/>
<path d="M2538 3533 c12 -2 32 -2 45 0 12 2 2 4 -23 4 -25 0 -35 -2 -22 -4z"/>
<path d="M4423 3533 c15 -2 37 -2 50 0 12 2 0 4 -28 4 -27 0 -38 -2 -22 -4z"/>
<path d="M2668 3523 c17 -2 47 -2 65 0 17 2 3 4 -33 4 -36 0 -50 -2 -32 -4z"/>
<path d="M4258 3523 c17 -2 47 -2 65 0 17 2 3 4 -33 4 -36 0 -50 -2 -32 -4z"/>
<path d="M4603 3490 c0 -25 2 -35 4 -22 2 12 2 32 0 45 -2 12 -4 2 -4 -23z"/>
<path d="M6623 3495 c0 -22 2 -30 4 -17 2 12 2 30 0 40 -3 9 -5 -1 -4 -23z"/>
<path d="M4058 3513 c23 -2 59 -2 80 0 20 2 1 4 -43 4 -44 0 -61 -2 -37 -4z"/>
<path d="M6102 3480 c0 -19 2 -27 5 -17 2 9 2 25 0 35 -3 9 -5 1 -5 -18z"/>
<path d="M2002 3470 c0 -19 2 -27 5 -17 2 9 2 25 0 35 -3 9 -5 1 -5 -18z"/>
<path d="M622 3460 c0 -19 2 -27 5 -17 2 9 2 25 0 35 -3 9 -5 1 -5 -18z"/>
<path d="M1242 3460 c0 -19 2 -27 5 -17 2 9 2 25 0 35 -3 9 -5 1 -5 -18z"/>
<path d="M5412 3460 c0 -19 2 -27 5 -17 2 9 2 25 0 35 -3 9 -5 1 -5 -18z"/>
<path d="M6633 3390 c0 -25 2 -35 4 -22 2 12 2 32 0 45 -2 12 -4 2 -4 -23z"/>
<path d="M6112 3390 c0 -19 2 -27 5 -17 2 9 2 25 0 35 -3 9 -5 1 -5 -18z"/>
<path d="M1233 3375 c0 -22 2 -30 4 -17 2 12 2 30 0 40 -3 9 -5 -1 -4 -23z"/>
<path d="M613 3355 c0 -27 2 -38 4 -22 2 15 2 37 0 50 -2 12 -4 0 -4 -28z"/>
<path d="M1993 3360 c0 -25 2 -35 4 -22 2 12 2 32 0 45 -2 12 -4 2 -4 -23z"/>
<path d="M4613 3355 c0 -27 2 -38 4 -22 2 15 2 37 0 50 -2 12 -4 0 -4 -28z"/>
<path d="M5422 3370 c0 -19 2 -27 5 -17 2 9 2 25 0 35 -3 9 -5 1 -5 -18z"/>
<path d="M2844 3275 c0 -55 1 -76 3 -47 2 29 2 74 0 100 -2 26 -3 2 -3 -53z"/>
<path d="M6123 3290 c0 -25 2 -35 4 -22 2 12 2 32 0 45 -2 12 -4 2 -4 -23z"/>
<path d="M1223 3280 c0 -25 2 -35 4 -22 2 12 2 32 0 45 -2 12 -4 2 -4 -23z"/>
<path d="M5433 3265 c0 -22 2 -30 4 -17 2 12 2 30 0 40 -3 9 -5 -1 -4 -23z"/>
<path d="M603 3225 c0 -33 2 -45 4 -27 2 18 2 45 0 60 -2 15 -4 0 -4 -33z"/>
<path d="M1983 3230 c0 -30 2 -43 4 -27 2 15 2 39 0 55 -2 15 -4 2 -4 -28z"/>
<path d="M159 3228 c20 -24 22 -31 13 -55 -6 -15 -16 -48 -22 -73 -21 -80 -72
-114 -104 -68 -15 21 -16 21 -16 3 0 -29 18 -137 37 -228 14 -66 20 -80 43
-92 20 -10 34 -35 62 -112 20 -54 39 -108 43 -121 4 -13 9 -21 12 -19 2 3 -5
43 -17 90 -12 47 -20 94 -18 104 5 26 31 22 39 -7 5 -17 7 -19 8 -7 1 14 8 18
34 15 28 -3 32 0 35 23 3 22 -5 32 -39 55 -57 39 -59 51 -9 64 38 10 41 13 38
43 -3 30 -6 32 -45 35 -38 3 -43 6 -43 27 0 13 12 46 26 73 18 35 24 57 19 73
l-8 23 -22 -26 -23 -26 -7 80 c-3 44 -4 82 -2 85 3 2 18 -3 34 -13 36 -23 21
-7 -42 41 -36 28 -43 32 -26 13z m22 -241 c-8 -8 -11 4 -11 39 0 66 14 80 18
19 2 -26 -2 -53 -7 -58z"/>
<path d="M4623 3180 c0 -36 2 -50 4 -32 2 17 2 47 0 65 -2 17 -4 3 -4 -33z"/>
<path d="M6133 3130 c0 -47 2 -66 4 -42 2 23 2 61 0 85 -2 23 -4 4 -4 -43z"/>
<path d="M1213 3145 c0 -27 2 -38 4 -22 2 15 2 37 0 50 -2 12 -4 0 -4 -28z"/>
<path d="M5443 3130 c0 -36 2 -50 4 -32 2 17 2 47 0 65 -2 17 -4 3 -4 -33z"/>
<path d="M260 3156 c0 -3 14 -12 30 -21 17 -9 30 -13 30 -11 0 3 -13 12 -30
21 -16 9 -30 13 -30 11z"/>
<path d="M23 3105 c0 -22 2 -30 4 -17 2 12 2 30 0 40 -3 9 -5 -1 -4 -23z"/>
<path d="M1973 3055 c0 -44 2 -61 4 -37 2 23 2 59 0 80 -2 20 -4 1 -4 -43z"/>
<path d="M330 3115 c0 -7 141 -77 146 -73 2 2 -30 21 -71 41 -41 20 -75 35
-75 32z"/>
<path d="M2834 2895 c0 -82 2 -115 3 -72 2 43 2 110 0 150 -1 40 -3 5 -3 -78z"/>
<path d="M3745 2645 c0 -220 1 -323 2 -228 l3 172 68 4 67 3 -67 2 -68 2 -3
223 c-1 122 -2 42 -2 -178z"/>
<path d="M520 3020 c8 -5 20 -10 25 -10 6 0 3 5 -5 10 -8 5 -19 10 -25 10 -5
0 -3 -5 5 -10z"/>
<path d="M4634 2910 c0 -69 1 -97 3 -62 2 34 2 90 0 125 -2 34 -3 6 -3 -63z"/>
<path d="M590 3012 c0 -7 -7 -9 -17 -5 -14 5 -13 3 3 -14 10 -11 24 -18 29
-16 6 2 50 -10 100 -27 49 -16 94 -30 99 -29 6 0 -34 16 -89 35 -55 19 -106
42 -112 51 -7 9 -13 12 -13 5z"/>
<path d="M5454 2915 c0 -60 1 -84 3 -52 2 32 2 81 0 110 -2 29 -3 3 -3 -58z"/>
<path d="M6140 2965 c-3 -33 -3 -82 -1 -110 l5 -50 5 49 6 49 88 30 c49 16 86
31 84 33 -2 2 -42 -9 -90 -25 l-86 -29 -3 56 -3 57 -5 -60z"/>
<path d="M1202 2923 l-2 -93 -27 -1 c-16 0 -21 -3 -13 -6 8 -2 22 -7 30 -10 8
-3 31 -7 50 -9 l35 -3 -32 10 -32 9 -4 98 -3 97 -2 -92z"/>
<path d="M6410 3000 c-8 -5 -10 -10 -5 -10 6 0 17 5 25 10 8 5 11 10 5 10 -5
0 -17 -5 -25 -10z"/>
<path d="M6912 2950 c0 -19 2 -27 5 -17 2 9 2 25 0 35 -3 9 -5 1 -5 -18z"/>
<path d="M888 2893 c7 -3 16 -2 19 1 4 3 -2 6 -13 5 -11 0 -14 -3 -6 -6z"/>
<path d="M6098 2893 c7 -3 16 -2 19 1 4 3 -2 6 -13 5 -11 0 -14 -3 -6 -6z"/>
<path d="M6902 2875 c0 -16 2 -22 5 -12 2 9 2 23 0 30 -3 6 -5 -1 -5 -18z"/>
<path d="M935 2880 c11 -5 27 -9 35 -9 9 0 8 4 -5 9 -11 5 -27 9 -35 9 -9 0
-8 -4 5 -9z"/>
<path d="M998 2863 c7 -3 16 -2 19 1 4 3 -2 6 -13 5 -11 0 -14 -3 -6 -6z"/>
<path d="M5988 2863 c7 -3 16 -2 19 1 4 3 -2 6 -13 5 -11 0 -14 -3 -6 -6z"/>
<path d="M1045 2850 c11 -5 29 -8 40 -8 16 0 15 2 -5 8 -34 11 -60 11 -35 0z"/>
<path d="M1964 2690 c0 -96 2 -138 3 -93 3 67 7 82 21 86 16 4 16 5 0 6 -15 1
-18 14 -21 89 -1 48 -3 8 -3 -88z"/>
<path d="M5948 2853 c7 -3 16 -2 19 1 4 3 -2 6 -13 5 -11 0 -14 -3 -6 -6z"/>
<path d="M5908 2843 c7 -3 16 -2 19 1 4 3 -2 6 -13 5 -11 0 -14 -3 -6 -6z"/>
<path d="M1118 2833 c7 -3 16 -2 19 1 4 3 -2 6 -13 5 -11 0 -14 -3 -6 -6z"/>
<path d="M5868 2833 c7 -3 16 -2 19 1 4 3 -2 6 -13 5 -11 0 -14 -3 -6 -6z"/>
<path d="M603 2765 c0 -38 2 -53 4 -32 2 20 2 52 0 70 -2 17 -4 1 -4 -38z"/>
<path d="M5818 2823 c6 -2 18 -2 25 0 6 3 1 5 -13 5 -14 0 -19 -2 -12 -5z"/>
<path d="M6892 2810 c0 -14 2 -19 5 -12 2 6 2 18 0 25 -3 6 -5 1 -5 -13z"/>
<path d="M5778 2813 c7 -3 16 -2 19 1 4 3 -2 6 -13 5 -11 0 -14 -3 -6 -6z"/>
<path d="M5700 2800 c-20 -6 -21 -8 -5 -8 11 0 31 4 45 8 20 6 21 8 5 8 -11 0
-31 -4 -45 -8z"/>
<path d="M1288 2793 c6 -2 18 -2 25 0 6 3 1 5 -13 5 -14 0 -19 -2 -12 -5z"/>
<path d="M1203 2710 c0 -47 2 -66 4 -42 2 23 2 61 0 85 -2 23 -4 4 -4 -43z"/>
<path d="M1338 2783 c6 -2 18 -2 25 0 6 3 1 5 -13 5 -14 0 -19 -2 -12 -5z"/>
<path d="M5638 2783 c6 -2 18 -2 25 0 6 3 1 5 -13 5 -14 0 -19 -2 -12 -5z"/>
<path d="M1398 2773 c7 -3 16 -2 19 1 4 3 -2 6 -13 5 -11 0 -14 -3 -6 -6z"/>
<path d="M5588 2773 c6 -2 18 -2 25 0 6 3 1 5 -13 5 -14 0 -19 -2 -12 -5z"/>
<path d="M1448 2763 c7 -3 16 -2 19 1 4 3 -2 6 -13 5 -11 0 -14 -3 -6 -6z"/>
<path d="M5538 2763 c6 -2 18 -2 25 0 6 3 1 5 -13 5 -14 0 -19 -2 -12 -5z"/>
<path d="M6882 2750 c0 -14 2 -19 5 -12 2 6 2 18 0 25 -3 6 -5 1 -5 -13z"/>
<path d="M1498 2753 c6 -2 18 -2 25 0 6 3 1 5 -13 5 -14 0 -19 -2 -12 -5z"/>
<path d="M5430 2750 c-24 -8 -24 -8 -3 -9 22 -1 22 -5 26 -123 l3 -123 2 127
2 127 28 4 c27 4 27 4 -3 5 -16 0 -41 -4 -55 -8z"/>
<path d="M6133 2690 c0 -41 2 -58 4 -37 2 20 2 54 0 75 -2 20 -4 3 -4 -38z"/>
<path d="M1558 2743 c6 -2 18 -2 25 0 6 3 1 5 -13 5 -14 0 -19 -2 -12 -5z"/>
<path d="M1618 2733 c6 -2 18 -2 25 0 6 3 1 5 -13 5 -14 0 -19 -2 -12 -5z"/>
<path d="M5363 2733 c9 -2 23 -2 30 0 6 3 -1 5 -18 5 -16 0 -22 -2 -12 -5z"/>
<path d="M1678 2723 c6 -2 18 -2 25 0 6 3 1 5 -13 5 -14 0 -19 -2 -12 -5z"/>
<path d="M5298 2723 c6 -2 18 -2 25 0 6 3 1 5 -13 5 -14 0 -19 -2 -12 -5z"/>
<path d="M1743 2713 c9 -2 23 -2 30 0 6 3 -1 5 -18 5 -16 0 -22 -2 -12 -5z"/>
<path d="M5233 2713 c9 -2 23 -2 30 0 6 3 -1 5 -18 5 -16 0 -22 -2 -12 -5z"/>
<path d="M1803 2703 c9 -2 23 -2 30 0 6 3 -1 5 -18 5 -16 0 -22 -2 -12 -5z"/>
<path d="M5168 2703 c6 -2 18 -2 25 0 6 3 1 5 -13 5 -14 0 -19 -2 -12 -5z"/>
<path d="M6871 2694 c0 -11 3 -14 6 -6 3 7 2 16 -1 19 -3 4 -6 -2 -5 -13z"/>
<path d="M1873 2693 c9 -2 23 -2 30 0 6 3 -1 5 -18 5 -16 0 -22 -2 -12 -5z"/>
<path d="M5088 2693 c6 -2 18 -2 25 0 6 3 1 5 -13 5 -14 0 -19 -2 -12 -5z"/>
<path d="M5013 2683 c9 -2 23 -2 30 0 6 3 -1 5 -18 5 -16 0 -22 -2 -12 -5z"/>
<path d="M613 2635 c0 -27 2 -38 4 -22 2 15 2 37 0 50 -2 12 -4 0 -4 -28z"/>
<path d="M2038 2673 c12 -2 30 -2 40 0 9 3 -1 5 -23 4 -22 0 -30 -2 -17 -4z"/>
<path d="M4928 2673 c12 -2 30 -2 40 0 9 3 -1 5 -23 4 -22 0 -30 -2 -17 -4z"/>
<path d="M2128 2663 c12 -2 30 -2 40 0 9 3 -1 5 -23 4 -22 0 -30 -2 -17 -4z"/>
<path d="M4838 2663 c12 -2 30 -2 40 0 9 3 -1 5 -23 4 -22 0 -30 -2 -17 -4z"/>
<path d="M2223 2653 c9 -2 25 -2 35 0 9 3 1 5 -18 5 -19 0 -27 -2 -17 -5z"/>
<path d="M4748 2653 c12 -2 30 -2 40 0 9 3 -1 5 -23 4 -22 0 -30 -2 -17 -4z"/>
<path d="M6612 2630 c0 -19 2 -27 5 -17 2 9 2 25 0 35 -3 9 -5 1 -5 -18z"/>
<path d="M6862 2640 c0 -14 2 -19 5 -12 2 6 2 18 0 25 -3 6 -5 1 -5 -13z"/>
<path d="M2328 2643 c12 -2 32 -2 45 0 12 2 2 4 -23 4 -25 0 -35 -2 -22 -4z"/>
<path d="M4617 2642 c9 -6 13 -61 16 -197 l2 -190 3 192 2 192 33 4 c23 3 18
4 -18 5 -27 1 -44 -2 -38 -6z"/>
<path d="M6547 2643 c-12 -11 -7 -79 8 -123 21 -59 19 -62 -17 -40 -42 25 -74
25 -88 1 -14 -26 -5 -45 37 -77 l36 -27 -49 -22 c-53 -24 -68 -37 -79 -74 -7
-23 -7 -23 55 -16 57 7 62 6 58 -11 -2 -10 -18 -28 -35 -40 -18 -12 -30 -24
-27 -27 3 -2 -8 -15 -23 -27 -26 -20 -52 -56 -53 -72 0 -18 31 -6 74 27 25 19
46 31 46 26 0 -5 -22 -42 -50 -83 -27 -40 -50 -79 -50 -85 0 -23 18 -14 46 22
31 40 39 40 24 0 -6 -15 -9 -30 -7 -32 2 -2 14 23 25 54 19 50 30 64 84 104
93 69 183 118 175 95 -4 -10 -7 -23 -7 -29 0 -8 -3 -8 -9 1 -5 9 -14 -8 -26
-50 -26 -93 -46 -127 -114 -189 -34 -31 -61 -63 -61 -73 0 -14 4 -15 21 -6 11
7 22 10 24 8 2 -2 -21 -32 -51 -68 -64 -76 -71 -100 -13 -45 48 45 44 36 -19
-53 -24 -35 -45 -70 -46 -78 -1 -7 -15 -29 -32 -46 -28 -32 -28 -32 -1 -9 15
14 27 20 27 15 0 -5 13 11 29 35 16 24 27 51 23 59 -3 9 -1 13 5 9 19 -12 180
286 218 403 10 30 39 102 65 160 67 147 153 433 105 350 -9 -16 -15 -19 -15
-10 -1 8 -10 -8 -21 -37 -13 -34 -35 -65 -63 -90 -49 -43 -113 -79 -122 -70
-4 3 -15 42 -25 86 -10 43 -30 96 -44 117 -32 47 -30 45 -38 37z m-77 -982
c-5 -11 -15 -23 -21 -27 -6 -3 -3 5 6 20 20 30 30 35 15 7z"/>
<path d="M2443 2633 c15 -2 37 -2 50 0 12 2 0 4 -28 4 -27 0 -38 -2 -22 -4z"/>
<path d="M4518 2633 c12 -2 32 -2 45 0 12 2 2 4 -23 4 -25 0 -35 -2 -22 -4z"/>
<path d="M2568 2623 c18 -2 45 -2 60 0 15 2 0 4 -33 4 -33 0 -45 -2 -27 -4z"/>
<path d="M4373 2623 c15 -2 39 -2 55 0 15 2 2 4 -28 4 -30 0 -43 -2 -27 -4z"/>
<path d="M242 2600 c0 -14 2 -19 5 -12 2 6 2 18 0 25 -3 6 -5 1 -5 -13z"/>
<path d="M2718 2613 c17 -2 47 -2 65 0 17 2 3 4 -33 4 -36 0 -50 -2 -32 -4z"/>
<path d="M2820 2613 c0 -5 5 -15 10 -23 8 -12 10 -11 10 8 0 12 -4 22 -10 22
-5 0 -10 -3 -10 -7z"/>
<path d="M4208 2613 c17 -2 47 -2 65 0 17 2 3 4 -33 4 -36 0 -50 -2 -32 -4z"/>
<path d="M2928 2603 c23 -2 59 -2 80 0 20 2 1 4 -43 4 -44 0 -61 -2 -37 -4z"/>
<path d="M3983 2603 c26 -2 67 -2 90 0 23 2 2 3 -48 3 -49 0 -68 -1 -42 -3z"/>
<path d="M3283 2593 c71 -2 183 -2 250 0 67 1 10 3 -128 3 -137 0 -192 -2
-122 -3z"/>
<path d="M622 2540 c0 -19 2 -27 5 -17 2 9 2 25 0 35 -3 9 -5 1 -5 -18z"/>
<path d="M6123 2535 c0 -22 2 -30 4 -17 2 12 2 30 0 40 -3 9 -5 -1 -4 -23z"/>
<path d="M251 2544 c0 -11 3 -14 6 -6 3 7 2 16 -1 19 -3 4 -6 -2 -5 -13z"/>
<path d="M137 2525 c15 -74 87 -262 114 -301 34 -50 54 -63 107 -69 26 -4 47
-15 69 -39 35 -38 161 -136 174 -136 20 0 7 23 -33 60 -51 48 -45 51 19 10 53
-34 63 -36 63 -15 0 18 -22 40 -84 83 -27 18 -46 35 -44 37 2 3 28 -4 56 -15
63 -24 72 -25 72 -5 0 22 38 1 50 -28 7 -19 9 -19 9 -3 1 14 6 17 29 12 25 -5
24 -4 -5 9 -22 10 -36 26 -43 47 -8 28 -9 29 -6 6 2 -16 0 -28 -4 -28 -5 0
-46 20 -91 45 -81 43 -88 55 -22 36 41 -12 53 3 25 31 -11 11 -51 37 -88 58
l-69 37 4 81 c2 51 -1 82 -7 82 -6 0 -25 -40 -43 -90 -23 -67 -36 -90 -49 -90
-22 0 -35 16 -49 60 l-11 35 5 -32 c2 -18 1 -33 -4 -33 -16 0 -105 100 -128
143 -20 36 -22 38 -16 12z"/>
<path d="M1213 2485 c0 -33 2 -45 4 -27 2 18 2 45 0 60 -2 15 -4 0 -4 -33z"/>
<path d="M261 2494 c0 -11 3 -14 6 -6 3 7 2 16 -1 19 -3 4 -6 -2 -5 -13z"/>
<path d="M632 2460 c0 -14 2 -19 5 -12 2 6 2 18 0 25 -3 6 -5 1 -5 -13z"/>
<path d="M2834 2315 c0 -93 2 -133 3 -88 2 45 2 122 0 170 -1 48 -3 12 -3 -82z"/>
<path d="M271 2454 c0 -11 3 -14 6 -6 3 7 2 16 -1 19 -3 4 -6 -2 -5 -13z"/>
<path d="M6112 2435 c0 -16 2 -22 5 -12 2 9 2 23 0 30 -3 6 -5 -1 -5 -18z"/>
<path d="M5443 2385 c0 -38 2 -53 4 -32 2 20 2 52 0 70 -2 17 -4 1 -4 -38z"/>
<path d="M642 2395 c0 -16 2 -22 5 -12 2 9 2 23 0 30 -3 6 -5 -1 -5 -18z"/>
<path d="M1222 2360 c0 -19 2 -27 5 -17 2 9 2 25 0 35 -3 9 -5 1 -5 -18z"/>
<path d="M1973 2320 c0 -41 2 -58 4 -37 2 20 2 54 0 75 -2 20 -4 3 -4 -38z"/>
<path d="M6102 2355 c0 -16 2 -22 5 -12 2 9 2 23 0 30 -3 6 -5 -1 -5 -18z"/>
<path d="M651 2334 c0 -11 3 -14 6 -6 3 7 2 16 -1 19 -3 4 -6 -2 -5 -13z"/>
<path d="M6092 2285 c0 -16 2 -22 5 -12 2 9 2 23 0 30 -3 6 -5 -1 -5 -18z"/>
<path d="M661 2284 c0 -11 3 -14 6 -6 3 7 2 16 -1 19 -3 4 -6 -2 -5 -13z"/>
<path d="M1232 2270 c0 -19 2 -27 5 -17 2 9 2 25 0 35 -3 9 -5 1 -5 -18z"/>
<path d="M5433 2250 c0 -25 2 -35 4 -22 2 12 2 32 0 45 -2 12 -4 2 -4 -23z"/>
<path d="M672 2230 c0 -14 2 -19 5 -12 2 6 2 18 0 25 -3 6 -5 1 -5 -13z"/>
<path d="M6082 2220 c0 -14 2 -19 5 -12 2 6 2 18 0 25 -3 6 -5 1 -5 -13z"/>
<path d="M1242 2190 c0 -14 2 -19 5 -12 2 6 2 18 0 25 -3 6 -5 1 -5 -13z"/>
<path d="M1983 2160 c0 -25 2 -35 4 -22 2 12 2 32 0 45 -2 12 -4 2 -4 -23z"/>
<path d="M4623 2130 c0 -36 2 -50 4 -32 2 17 2 47 0 65 -2 17 -4 3 -4 -33z"/>
<path d="M6072 2170 c0 -14 2 -19 5 -12 2 6 2 18 0 25 -3 6 -5 1 -5 -13z"/>
<path d="M6390 2175 c-14 -8 -20 -14 -15 -14 6 0 21 6 35 14 14 8 21 14 15 14
-5 0 -21 -6 -35 -14z"/>
<path d="M5422 2150 c0 -14 2 -19 5 -12 2 6 2 18 0 25 -3 6 -5 1 -5 -13z"/>
<path d="M6330 2150 c-8 -5 -10 -10 -5 -10 6 0 17 5 25 10 8 5 11 10 5 10 -5
0 -17 -5 -25 -10z"/>
<path d="M361 2140 c0 -8 4 -22 9 -30 12 -18 12 -2 0 25 -6 13 -9 15 -9 5z"/>
<path d="M1252 2120 c0 -14 2 -19 5 -12 2 6 2 18 0 25 -3 6 -5 1 -5 -13z"/>
<path d="M6062 2110 c0 -14 2 -19 5 -12 2 6 2 18 0 25 -3 6 -5 1 -5 -13z"/>
<path d="M6250 2120 c-8 -5 -10 -10 -5 -10 6 0 17 5 25 10 8 5 11 10 5 10 -5
0 -17 -5 -25 -10z"/>
<path d="M5412 2065 c0 -16 2 -22 5 -12 2 9 2 23 0 30 -3 6 -5 -1 -5 -18z"/>
<path d="M711 2064 c0 -11 3 -14 6 -6 3 7 2 16 -1 19 -3 4 -6 -2 -5 -13z"/>
<path d="M1262 2060 c0 -14 2 -19 5 -12 2 6 2 18 0 25 -3 6 -5 1 -5 -13z"/>
<path d="M2844 1990 c0 -52 1 -74 3 -47 2 26 2 68 0 95 -2 26 -3 4 -3 -48z"/>
<path d="M6050 2065 c0 -8 -8 -15 -17 -15 -12 0 -14 -3 -7 -8 7 -4 14 -16 17
-27 4 -18 5 -18 6 2 0 12 7 26 15 30 12 7 12 10 0 21 -12 11 -14 10 -14 -3z"/>
<path d="M905 2060 c11 -5 27 -9 35 -9 9 0 8 4 -5 9 -11 5 -27 9 -35 9 -9 0
-8 -4 5 -9z"/>
<path d="M1992 2040 c0 -19 2 -27 5 -17 2 9 2 25 0 35 -3 9 -5 1 -5 -18z"/>
<path d="M390 2055 c0 -5 5 -17 10 -25 5 -8 10 -10 10 -5 0 6 -5 17 -10 25 -5
8 -10 11 -10 5z"/>
<path d="M721 2024 c0 -11 3 -14 6 -6 3 7 2 16 -1 19 -3 4 -6 -2 -5 -13z"/>
<path d="M998 2033 c7 -3 16 -2 19 1 4 3 -2 6 -13 5 -11 0 -14 -3 -6 -6z"/>
<path d="M5988 2033 c7 -3 16 -2 19 1 4 3 -2 6 -13 5 -11 0 -14 -3 -6 -6z"/>
<path d="M1045 2020 c11 -5 27 -9 35 -9 9 0 8 4 -5 9 -11 5 -27 9 -35 9 -9 0
-8 -4 5 -9z"/>
<path d="M1269 1993 c-3 -18 -2 -33 2 -33 4 0 10 -8 12 -17 3 -12 5 -9 5 7 0
14 -3 36 -7 50 -7 24 -8 24 -12 -7z"/>
<path d="M5402 1995 c0 -16 2 -22 5 -12 2 9 2 23 0 30 -3 6 -5 -1 -5 -18z"/>
<path d="M5918 2013 c7 -3 16 -2 19 1 4 3 -2 6 -13 5 -11 0 -14 -3 -6 -6z"/>
<path d="M411 2008 c-1 -12 31 -89 35 -85 3 2 -4 24 -15 48 -11 24 -20 41 -20
37z"/>
<path d="M1108 2003 c7 -3 16 -2 19 1 4 3 -2 6 -13 5 -11 0 -14 -3 -6 -6z"/>
<path d="M4613 1970 c0 -25 2 -35 4 -22 2 12 2 32 0 45 -2 12 -4 2 -4 -23z"/>
<path d="M5878 2003 c7 -3 16 -2 19 1 4 3 -2 6 -13 5 -11 0 -14 -3 -6 -6z"/>
<path d="M1148 1993 c7 -3 16 -2 19 1 4 3 -2 6 -13 5 -11 0 -14 -3 -6 -6z"/>
<path d="M5838 1993 c7 -3 16 -2 19 1 4 3 -2 6 -13 5 -11 0 -14 -3 -6 -6z"/>
<path d="M361 1984 c-2 -40 191 -404 215 -404 3 0 2 6 -2 13 -4 6 5 1 21 -13
15 -14 58 -71 96 -127 38 -57 72 -103 75 -103 2 0 -18 34 -46 75 -28 41 -53
82 -57 91 -5 15 -3 15 23 -1 29 -16 29 -16 4 2 -54 39 -82 80 -160 236 -85
169 -97 187 -35 52 l36 -80 -41 40 c-46 45 -62 71 -102 165 -15 36 -27 60 -27
54z m215 -340 c28 -42 8 -37 -27 7 -27 34 -29 40 -11 30 12 -6 29 -23 38 -37z"/>
<path d="M1188 1983 c7 -3 16 -2 19 1 4 3 -2 6 -13 5 -11 0 -14 -3 -6 -6z"/>
<path d="M5798 1983 c7 -3 16 -2 19 1 4 3 -2 6 -13 5 -11 0 -14 -3 -6 -6z"/>
<path d="M6031 1974 c0 -11 3 -14 6 -6 3 7 2 16 -1 19 -3 4 -6 -2 -5 -13z"/>
<path d="M1228 1973 c7 -3 16 -2 19 1 4 3 -2 6 -13 5 -11 0 -14 -3 -6 -6z"/>
<path d="M2003 1945 c0 -22 2 -30 4 -17 2 12 2 30 0 40 -3 9 -5 -1 -4 -23z"/>
<path d="M5758 1973 c7 -3 16 -2 19 1 4 3 -2 6 -13 5 -11 0 -14 -3 -6 -6z"/>
<path d="M741 1960 c0 -8 4 -24 9 -35 5 -13 9 -14 9 -5 0 8 -4 24 -9 35 -5 13
-9 14 -9 5z"/>
<path d="M5708 1963 c7 -3 16 -2 19 1 4 3 -2 6 -13 5 -11 0 -14 -3 -6 -6z"/>
<path d="M1318 1953 c7 -3 16 -2 19 1 4 3 -2 6 -13 5 -11 0 -14 -3 -6 -6z"/>
<path d="M5668 1953 c7 -3 16 -2 19 1 4 3 -2 6 -13 5 -11 0 -14 -3 -6 -6z"/>
<path d="M1358 1943 c6 -2 18 -2 25 0 6 3 1 5 -13 5 -14 0 -19 -2 -12 -5z"/>
<path d="M5389 1930 c-2 -15 -13 -27 -29 -31 -23 -6 -23 -7 -3 -8 16 -1 23 -9
26 -28 l4 -28 2 27 c1 19 9 29 29 36 24 9 24 11 5 11 -14 1 -23 9 -25 24 -4
21 -4 21 -9 -3z"/>
<path d="M5618 1943 c7 -3 16 -2 19 1 4 3 -2 6 -13 5 -11 0 -14 -3 -6 -6z"/>
<path d="M1408 1933 c6 -2 18 -2 25 0 6 3 1 5 -13 5 -14 0 -19 -2 -12 -5z"/>
<path d="M5568 1933 c6 -2 18 -2 25 0 6 3 1 5 -13 5 -14 0 -19 -2 -12 -5z"/>
<path d="M1458 1923 c6 -2 18 -2 25 0 6 3 1 5 -13 5 -14 0 -19 -2 -12 -5z"/>
<path d="M5518 1923 c6 -2 18 -2 25 0 6 3 1 5 -13 5 -14 0 -19 -2 -12 -5z"/>
<path d="M1518 1913 c6 -2 18 -2 25 0 6 3 1 5 -13 5 -14 0 -19 -2 -12 -5z"/>
<path d="M5468 1913 c6 -2 18 -2 25 0 6 3 1 5 -13 5 -14 0 -19 -2 -12 -5z"/>
<path d="M6426 1905 c-9 -26 -7 -32 5 -12 6 10 9 21 6 23 -2 3 -7 -2 -11 -11z"/>
<path d="M1291 1894 c0 -11 3 -14 6 -6 3 7 2 16 -1 19 -3 4 -6 -2 -5 -13z"/>
<path d="M1568 1903 c6 -2 18 -2 25 0 6 3 1 5 -13 5 -14 0 -19 -2 -12 -5z"/>
<path d="M1628 1893 c6 -2 18 -2 25 0 6 3 1 5 -13 5 -14 0 -19 -2 -12 -5z"/>
<path d="M1683 1883 c9 -2 23 -2 30 0 6 3 -1 5 -18 5 -16 0 -22 -2 -12 -5z"/>
<path d="M2009 1862 c-7 -39 -5 -40 41 -31 l35 6 -32 2 c-27 1 -32 5 -35 29
-3 26 -4 26 -9 -6z"/>
<path d="M5293 1883 c9 -2 23 -2 30 0 6 3 -1 5 -18 5 -16 0 -22 -2 -12 -5z"/>
<path d="M1743 1873 c9 -2 23 -2 30 0 6 3 -1 5 -18 5 -16 0 -22 -2 -12 -5z"/>
<path d="M4602 1843 c-2 -41 -3 -43 -34 -44 l-33 -2 35 -6 c38 -7 69 -2 52 8
-6 3 -12 24 -15 46 l-4 40 -1 -42z"/>
<path d="M5228 1873 c6 -2 18 -2 25 0 6 3 1 5 -13 5 -14 0 -19 -2 -12 -5z"/>
<path d="M1301 1854 c0 -11 3 -14 6 -6 3 7 2 16 -1 19 -3 4 -6 -2 -5 -13z"/>
<path d="M1813 1863 c9 -2 23 -2 30 0 6 3 -1 5 -18 5 -16 0 -22 -2 -12 -5z"/>
<path d="M5158 1863 c6 -2 18 -2 25 0 6 3 1 5 -13 5 -14 0 -19 -2 -12 -5z"/>
<path d="M6406 1855 c-9 -26 -7 -32 5 -12 6 10 9 21 6 23 -2 3 -7 -2 -11 -11z"/>
<path d="M1878 1853 c6 -2 18 -2 25 0 6 3 1 5 -13 5 -14 0 -19 -2 -12 -5z"/>
<path d="M5088 1853 c6 -2 18 -2 25 0 6 3 1 5 -13 5 -14 0 -19 -2 -12 -5z"/>
<path d="M1948 1843 c6 -2 18 -2 25 0 6 3 1 5 -13 5 -14 0 -19 -2 -12 -5z"/>
<path d="M5013 1843 c9 -2 23 -2 30 0 6 3 -1 5 -18 5 -16 0 -22 -2 -12 -5z"/>
<path d="M3732 1803 c-1 -26 -7 -44 -14 -44 -7 -1 -67 -5 -133 -9 l-120 -6
133 -2 132 -2 2 -62 1 -63 6 65 6 65 115 6 115 5 -117 2 -117 2 -4 43 -4 42
-1 -42z"/>
<path d="M4933 1833 c9 -2 23 -2 30 0 6 3 -1 5 -18 5 -16 0 -22 -2 -12 -5z"/>
<path d="M1312 1810 c0 -14 2 -19 5 -12 2 6 2 18 0 25 -3 6 -5 1 -5 -13z"/>
<path d="M2113 1823 c9 -2 25 -2 35 0 9 3 1 5 -18 5 -19 0 -27 -2 -17 -5z"/>
<path d="M4853 1823 c9 -2 25 -2 35 0 9 3 1 5 -18 5 -19 0 -27 -2 -17 -5z"/>
<path d="M5372 1810 c0 -14 2 -19 5 -12 2 6 2 18 0 25 -3 6 -5 1 -5 -13z"/>
<path d="M2203 1813 c9 -2 25 -2 35 0 9 3 1 5 -18 5 -19 0 -27 -2 -17 -5z"/>
<path d="M2851 1798 c0 -16 -7 -28 -13 -28 -10 0 -10 -2 -1 -8 6 -4 13 -21 16
-37 l4 -30 2 32 c1 31 2 32 54 36 l52 3 -52 2 c-48 2 -52 4 -56 30 l-4 27 -2
-27z"/>
<path d="M4763 1813 c9 -2 25 -2 35 0 9 3 1 5 -18 5 -19 0 -27 -2 -17 -5z"/>
<path d="M6386 1805 c-9 -26 -7 -32 5 -12 6 10 9 21 6 23 -2 3 -7 -2 -11 -11z"/>
<path d="M796 1790 c3 -14 11 -32 16 -40 6 -10 7 -7 2 10 -3 14 -11 32 -16 40
-6 10 -7 7 -2 -10z"/>
<path d="M2022 1785 c0 -16 2 -22 5 -12 2 9 2 23 0 30 -3 6 -5 -1 -5 -18z"/>
<path d="M2298 1803 c12 -2 30 -2 40 0 9 3 -1 5 -23 4 -22 0 -30 -2 -17 -4z"/>
<path d="M4668 1803 c12 -2 30 -2 40 0 9 3 -1 5 -23 4 -22 0 -30 -2 -17 -4z"/>
<path d="M5981 1794 c0 -11 3 -14 6 -6 3 7 2 16 -1 19 -3 4 -6 -2 -5 -13z"/>
<path d="M2408 1793 c12 -2 32 -2 45 0 12 2 2 4 -23 4 -25 0 -35 -2 -22 -4z"/>
<path d="M2533 1783 c15 -2 37 -2 50 0 12 2 0 4 -28 4 -27 0 -38 -2 -22 -4z"/>
<path d="M4428 1783 c12 -2 32 -2 45 0 12 2 2 4 -23 4 -25 0 -35 -2 -22 -4z"/>
<path d="M1326 1750 c4 -19 11 -44 15 -55 6 -14 7 -9 3 15 -4 19 -11 44 -15
55 -6 14 -7 9 -3 -15z"/>
<path d="M2668 1773 c18 -2 45 -2 60 0 15 2 0 4 -33 4 -33 0 -45 -2 -27 -4z"/>
<path d="M4268 1773 c17 -2 47 -2 65 0 17 2 3 4 -33 4 -36 0 -50 -2 -32 -4z"/>
<path d="M5362 1760 c0 -14 2 -19 5 -12 2 6 2 18 0 25 -3 6 -5 1 -5 -13z"/>
<path d="M4078 1763 c23 -2 59 -2 80 0 20 2 1 4 -43 4 -44 0 -61 -2 -37 -4z"/>
<path d="M4592 1740 c0 -19 2 -27 5 -17 2 9 2 25 0 35 -3 9 -5 1 -5 -18z"/>
<path d="M3132 1753 c59 -2 158 -2 220 0 62 1 14 3 -107 3 -121 0 -172 -2
-113 -3z"/>
<path d="M6347 1715 c-24 -50 -20 -58 4 -12 11 22 19 41 17 43 -3 2 -12 -12
-21 -31z"/>
<path d="M2032 1715 c0 -16 2 -22 5 -12 2 9 2 23 0 30 -3 6 -5 -1 -5 -18z"/>
<path d="M820 1725 c0 -5 5 -17 10 -25 5 -8 10 -10 10 -5 0 6 -5 17 -10 25 -5
8 -10 11 -10 5z"/>
<path d="M5351 1714 c0 -11 3 -14 6 -6 3 7 2 16 -1 19 -3 4 -6 -2 -5 -13z"/>
<path d="M4582 1660 c0 -19 2 -27 5 -17 2 9 2 25 0 35 -3 9 -5 1 -5 -18z"/>
<path d="M840 1675 c0 -5 5 -17 10 -25 5 -8 10 -10 10 -5 0 6 -5 17 -10 25 -5
8 -10 11 -10 5z"/>
<path d="M2042 1655 c0 -16 2 -22 5 -12 2 9 2 23 0 30 -3 6 -5 -1 -5 -18z"/>
<path d="M5341 1664 c0 -11 3 -14 6 -6 3 7 2 16 -1 19 -3 4 -6 -2 -5 -13z"/>
<path d="M1356 1641 c7 -38 52 -171 53 -156 0 6 -13 51 -29 100 -17 50 -27 75
-24 56z"/>
<path d="M2863 1605 c0 -27 2 -38 4 -22 2 15 2 37 0 50 -2 12 -4 0 -4 -28z"/>
<path d="M5331 1624 c0 -11 3 -14 6 -6 3 7 2 16 -1 19 -3 4 -6 -2 -5 -13z"/>
<path d="M861 1625 c0 -5 6 -21 14 -35 8 -14 14 -20 14 -15 0 6 -6 21 -14 35
-8 14 -14 21 -14 15z"/>
<path d="M5884 1523 c-46 -115 -50 -126 -30 -92 20 35 78 181 73 185 -2 2 -21
-40 -43 -93z"/>
<path d="M2052 1590 c0 -14 2 -19 5 -12 2 6 2 18 0 25 -3 6 -5 1 -5 -13z"/>
<path d="M4572 1575 c0 -16 2 -22 5 -12 2 9 2 23 0 30 -3 6 -5 -1 -5 -18z"/>
<path d="M5321 1584 c0 -11 3 -14 6 -6 3 7 2 16 -1 19 -3 4 -6 -2 -5 -13z"/>
<path d="M611 1523 c19 -28 36 -50 38 -48 5 6 -37 71 -56 86 -9 8 -1 -9 18
-38z"/>
<path d="M2062 1540 c0 -14 2 -19 5 -12 2 6 2 18 0 25 -3 6 -5 1 -5 -13z"/>
<path d="M6245 1511 c-14 -28 -34 -52 -46 -56 -16 -5 -18 -9 -9 -15 7 -4 10
-14 6 -21 -4 -8 -1 -5 6 5 17 25 40 48 64 63 15 10 16 11 2 7 -22 -7 -22 -1
-3 36 9 17 13 30 10 30 -2 0 -16 -22 -30 -49z"/>
<path d="M6332 1536 c-46 -33 -53 -43 -14 -20 19 10 38 25 44 32 15 17 8 14
-30 -12z"/>
<path d="M910 1519 c0 -4 12 -32 26 -63 14 -32 24 -60 21 -63 -3 -3 -31 7 -63
21 -31 15 -59 24 -62 22 -2 -3 6 -10 20 -16 16 -8 39 -40 66 -96 23 -46 42
-87 42 -91 0 -4 -21 22 -46 57 -57 79 -53 74 -59 68 -5 -4 170 -274 249 -383
51 -71 -153 145 -236 249 -44 55 -85 106 -91 111 -17 15 40 -61 110 -149 35
-43 67 -84 71 -90 16 -25 294 -285 353 -330 l64 -49 -45 48 c-25 26 -37 45
-27 41 47 -17 48 -15 4 10 -32 19 -61 48 -87 87 -41 61 -47 81 -30 107 9 12
16 8 43 -25 17 -22 65 -76 105 -121 39 -45 72 -85 72 -88 0 -3 -8 -3 -17 0
-10 3 -2 -4 17 -15 19 -10 77 -56 128 -100 51 -45 96 -81 100 -81 4 0 -13 17
-38 38 -80 66 -125 111 -111 112 15 0 161 -138 158 -150 -1 -5 32 -39 73 -76
62 -57 101 -80 245 -150 149 -72 289 -134 303 -134 2 0 -1 6 -7 13 -6 8 -8 17
-4 20 3 4 -1 7 -10 7 -9 0 -41 21 -71 48 -30 26 -69 56 -87 67 -36 22 -76 71
-66 81 3 4 30 -14 58 -40 29 -26 66 -56 83 -67 19 -13 16 -8 -9 12 -22 18 -89
82 -149 141 -93 92 -106 108 -85 109 22 1 22 1 -5 9 -33 10 -56 30 -100 85
-24 30 -32 52 -36 94 -5 51 -7 56 -35 64 -16 5 -38 14 -48 19 -15 7 -17 6 -9
-9 5 -10 12 -40 15 -68 l6 -50 -40 45 c-22 25 -71 92 -109 150 -118 181 -160
240 -181 250 -32 18 -23 -9 37 -111 31 -51 70 -116 86 -144 l30 -50 -28 27
c-15 15 -71 84 -123 155 -92 122 -121 151 -121 121 0 -15 86 -145 161 -244 93
-121 68 -105 -87 56 -56 58 -105 102 -109 98 -12 -11 21 -55 120 -158 103
-108 129 -139 105 -125 -52 29 -191 141 -219 175 -31 39 -33 46 -28 95 4 40 2
57 -9 66 -17 14 -44 5 -44 -16 0 -34 -19 -12 -29 34 -6 27 -19 72 -30 101
l-20 51 32 -5 c29 -5 28 -4 -7 9 -22 8 -42 13 -44 10 -3 -3 0 -5 8 -5 10 0 10
-3 0 -15 -7 -9 -10 -26 -6 -42 5 -22 4 -25 -4 -13 -22 31 -50 90 -43 90 5 0 2
4 -5 8 -7 5 -30 42 -52 83 -22 41 -40 71 -40 68z m42 -146 c24 -28 76 -169 58
-158 -9 6 -82 129 -93 158 -4 11 -2 17 7 17 7 0 20 -8 28 -17z m112 -149 c3
-8 2 -12 -4 -9 -6 3 -10 10 -10 16 0 14 7 11 14 -7z m379 -434 c35 -28 52 -47
45 -51 -7 -4 -36 16 -70 49 -85 81 -76 82 25 2z m407 -142 c0 -5 -7 -8 -15 -8
-12 0 -45 57 -45 78 0 9 59 -61 60 -70z m70 -109 c0 -18 12 -52 26 -77 20 -35
23 -46 13 -52 -10 -7 -10 -11 0 -24 8 -9 9 -16 4 -16 -12 0 -63 38 -80 60 -46
57 -76 196 -44 203 27 6 81 -57 81 -94z"/>
<path d="M2873 1480 c0 -25 2 -35 4 -22 2 12 2 32 0 45 -2 12 -4 2 -4 -23z"/>
<path d="M4562 1495 c0 -16 2 -22 5 -12 2 9 2 23 0 30 -3 6 -5 -1 -5 -18z"/>
<path d="M2072 1490 c0 -14 2 -19 5 -12 2 6 2 18 0 25 -3 6 -5 1 -5 -13z"/>
<path d="M720 1496 c0 -3 14 -12 30 -21 17 -9 30 -13 30 -11 0 3 -13 12 -30
21 -16 9 -30 13 -30 11z"/>
<path d="M3724 1365 c0 -66 1 -92 3 -57 2 34 2 88 0 120 -2 31 -3 3 -3 -63z"/>
<path d="M5291 1464 c0 -11 3 -14 6 -6 3 7 2 16 -1 19 -3 4 -6 -2 -5 -13z"/>
<path d="M2081 1444 c0 -11 3 -14 6 -6 3 7 2 16 -1 19 -3 4 -6 -2 -5 -13z"/>
<path d="M4552 1430 c0 -14 2 -19 5 -12 2 6 2 18 0 25 -3 6 -5 1 -5 -13z"/>
<path d="M1420 1435 c0 -5 5 -17 10 -25 5 -8 10 -10 10 -5 0 6 -5 17 -10 25
-5 8 -10 11 -10 5z"/>
<path d="M6120 1420 c-19 -11 -30 -19 -25 -19 6 0 26 8 45 19 19 11 31 19 25
19 -5 0 -26 -8 -45 -19z"/>
<path d="M2092 1400 c0 -14 2 -19 5 -12 2 6 2 18 0 25 -3 6 -5 1 -5 -13z"/>
<path d="M5271 1394 c0 -11 3 -14 6 -6 3 7 2 16 -1 19 -3 4 -6 -2 -5 -13z"/>
<path d="M2883 1365 c0 -22 2 -30 4 -17 2 12 2 30 0 40 -3 9 -5 -1 -4 -23z"/>
<path d="M5810 1350 c-15 -32 -32 -53 -49 -59 -17 -6 -20 -10 -8 -10 21 -1 21
-3 -3 -51 -32 -63 -15 -46 20 19 24 44 36 58 49 54 13 -4 14 -3 1 5 -12 9 -12
16 3 48 10 20 16 38 14 40 -2 2 -14 -18 -27 -46z"/>
<path d="M6050 1390 c-8 -5 -10 -10 -5 -10 6 0 17 5 25 10 8 5 11 10 5 10 -5
0 -17 -5 -25 -10z"/>
<path d="M6112 1294 c-40 -58 -68 -103 -63 -100 13 9 147 206 139 206 -2 0
-36 -48 -76 -106z"/>
<path d="M4542 1365 c0 -16 2 -22 5 -12 2 9 2 23 0 30 -3 6 -5 -1 -5 -18z"/>
<path d="M6000 1370 c-8 -5 -10 -10 -5 -10 6 0 17 5 25 10 8 5 11 10 5 10 -5
0 -17 -5 -25 -10z"/>
<path d="M2101 1354 c0 -11 3 -14 6 -6 3 7 2 16 -1 19 -3 4 -6 -2 -5 -13z"/>
<path d="M1450 1355 c0 -5 5 -17 10 -25 5 -8 10 -10 10 -5 0 6 -5 17 -10 25
-5 8 -10 11 -10 5z"/>
<path d="M5870 1325 c-19 -7 -28 -14 -20 -14 8 0 29 6 45 14 39 17 21 18 -25
0z"/>
<path d="M2111 1314 c0 -11 3 -14 6 -6 3 7 2 16 -1 19 -3 4 -6 -2 -5 -13z"/>
<path d="M3596 1297 c-28 -37 -88 -164 -107 -226 l-12 -41 -111 -2 -111 -2
108 -3 c59 -2 107 -7 107 -10 0 -14 -103 -193 -111 -193 -5 0 -11 17 -14 38
-12 68 -26 101 -52 122 -30 23 -78 27 -86 6 -3 -8 7 -47 23 -88 16 -40 29 -90
30 -111 0 -67 31 -180 66 -243 19 -33 34 -64 34 -67 0 -3 -10 -8 -22 -10 -21
-4 -20 -4 3 -6 19 -1 28 -8 32 -23 40 -172 67 -295 67 -305 0 -8 -14 -14 -32
-14 l-33 -2 34 -6 c27 -5 36 -12 42 -35 5 -16 18 -39 30 -52 21 -23 30 -24
135 -24 147 0 146 0 128 58 -7 26 -14 50 -14 54 0 4 37 9 83 11 l82 3 -91 2
-91 2 -30 72 c-21 49 -29 85 -27 108 3 28 2 31 -5 15 l-10 -20 -1 20 c-1 11
-5 46 -9 78 -7 54 -6 57 15 57 12 0 24 -6 26 -12 8 -23 14 27 7 57 l-7 30 -1
-32 c-1 -26 -5 -33 -21 -33 -11 0 -20 5 -20 11 0 16 40 79 50 79 4 0 10 17 13
38 9 51 53 92 185 172 78 48 108 71 110 88 6 38 -22 35 -123 -18 -90 -46 -145
-62 -145 -42 0 4 16 24 36 43 20 18 65 69 101 112 l66 77 66 2 66 2 -63 3
c-62 4 -62 4 -47 26 23 33 20 67 -8 67 -16 0 -52 -32 -122 -106 -82 -88 -100
-103 -106 -87 -5 14 -7 12 -10 -11 -4 -30 -32 -56 -45 -43 -9 9 32 97 45 97 5
0 13 9 16 20 4 11 16 21 28 21 17 1 18 2 5 6 -10 2 -18 6 -18 9 0 2 25 54 55
114 45 90 53 114 45 130 -6 11 -16 20 -24 20 -14 0 -96 -88 -96 -103 0 -5 -21
-45 -46 -88 -37 -62 -52 -79 -69 -79 -23 0 -23 0 12 93 20 50 43 110 51 133
28 74 -15 103 -62 41z m14 -286 c0 -18 -43 -62 -52 -53 -15 15 9 62 32 62 11
0 20 -4 20 -9z"/>
<path d="M4532 1310 c0 -14 2 -19 5 -12 2 6 2 18 0 25 -3 6 -5 1 -5 -13z"/>
<path d="M1470 1305 c0 -5 5 -17 10 -25 5 -8 10 -10 10 -5 0 6 -5 17 -10 25
-5 8 -10 11 -10 5z"/>
<path d="M1215 1290 c11 -5 27 -9 35 -9 9 0 8 4 -5 9 -11 5 -27 9 -35 9 -9 0
-8 -4 5 -9z"/>
<path d="M2121 1274 c0 -11 3 -14 6 -6 3 7 2 16 -1 19 -3 4 -6 -2 -5 -13z"/>
<path d="M2892 1260 c0 -19 2 -27 5 -17 2 9 2 25 0 35 -3 9 -5 1 -5 -18z"/>
<path d="M1285 1270 c11 -5 27 -9 35 -9 9 0 8 4 -5 9 -11 5 -27 9 -35 9 -9 0
-8 -4 5 -9z"/>
<path d="M4522 1250 c0 -14 2 -19 5 -12 2 6 2 18 0 25 -3 6 -5 1 -5 -13z"/>
<path d="M5678 1263 c7 -3 16 -2 19 1 4 3 -2 6 -13 5 -11 0 -14 -3 -6 -6z"/>
<path d="M1348 1253 c7 -3 16 -2 19 1 4 3 -2 6 -13 5 -11 0 -14 -3 -6 -6z"/>
<path d="M1493 1246 c5 -12 0 -16 -16 -17 -20 -1 -20 -2 -2 -6 11 -3 25 -9 30
-14 24 -18 29 7 6 30 -15 15 -22 18 -18 7z"/>
<path d="M5638 1253 c7 -3 16 -2 19 1 4 3 -2 6 -13 5 -11 0 -14 -3 -6 -6z"/>
<path d="M1388 1243 c7 -3 16 -2 19 1 4 3 -2 6 -13 5 -11 0 -14 -3 -6 -6z"/>
<path d="M2131 1234 c0 -11 3 -14 6 -6 3 7 2 16 -1 19 -3 4 -6 -2 -5 -13z"/>
<path d="M5598 1243 c7 -3 16 -2 19 1 4 3 -2 6 -13 5 -11 0 -14 -3 -6 -6z"/>
<path d="M1428 1233 c7 -3 16 -2 19 1 4 3 -2 6 -13 5 -11 0 -14 -3 -6 -6z"/>
<path d="M5558 1233 c7 -3 16 -2 19 1 4 3 -2 6 -13 5 -11 0 -14 -3 -6 -6z"/>
<path d="M6140 1215 c-13 -14 -19 -25 -13 -25 6 0 18 11 27 25 9 14 15 25 13
25 -2 0 -14 -11 -27 -25z"/>
<path d="M5508 1223 c7 -3 16 -2 19 1 4 3 -2 6 -13 5 -11 0 -14 -3 -6 -6z"/>
<path d="M4512 1200 c0 -14 2 -19 5 -12 2 6 2 18 0 25 -3 6 -5 1 -5 -13z"/>
<path d="M5201 1190 c-7 -21 -17 -30 -33 -31 -13 -1 -16 -3 -8 -5 9 -3 33 0
55 5 26 6 32 9 16 10 -20 1 -22 5 -17 26 9 35 0 31 -13 -5z"/>
<path d="M5468 1213 c7 -3 16 -2 19 1 4 3 -2 6 -13 5 -11 0 -14 -3 -6 -6z"/>
<path d="M1558 1203 c7 -3 16 -2 19 1 4 3 -2 6 -13 5 -11 0 -14 -3 -6 -6z"/>
<path d="M2141 1194 c0 -11 3 -14 6 -6 3 7 2 16 -1 19 -3 4 -6 -2 -5 -13z"/>
<path d="M5418 1203 c6 -2 18 -2 25 0 6 3 1 5 -13 5 -14 0 -19 -2 -12 -5z"/>
<path d="M1608 1193 c7 -3 16 -2 19 1 4 3 -2 6 -13 5 -11 0 -14 -3 -6 -6z"/>
<path d="M2902 1175 c0 -16 2 -22 5 -12 2 9 2 23 0 30 -3 6 -5 -1 -5 -18z"/>
<path d="M5378 1193 c7 -3 16 -2 19 1 4 3 -2 6 -13 5 -11 0 -14 -3 -6 -6z"/>
<path d="M1658 1183 c6 -2 18 -2 25 0 6 3 1 5 -13 5 -14 0 -19 -2 -12 -5z"/>
<path d="M5328 1183 c7 -3 16 -2 19 1 4 3 -2 6 -13 5 -11 0 -14 -3 -6 -6z"/>
<path d="M1708 1173 c6 -2 18 -2 25 0 6 3 1 5 -13 5 -14 0 -19 -2 -12 -5z"/>
<path d="M5273 1173 c9 -2 23 -2 30 0 6 3 -1 5 -18 5 -16 0 -22 -2 -12 -5z"/>
<path d="M5710 1160 c-6 -11 -8 -20 -6 -20 3 0 10 9 16 20 6 11 8 20 6 20 -3
0 -10 -9 -16 -20z"/>
<path d="M6019 1163 c-13 -16 -12 -17 4 -4 9 7 17 15 17 17 0 8 -8 3 -21 -13z"/>
<path d="M1530 1166 c0 -11 50 -106 55 -106 3 0 -7 24 -21 53 -28 55 -34 65
-34 53z"/>
<path d="M1768 1163 c6 -2 18 -2 25 0 6 3 1 5 -13 5 -14 0 -19 -2 -12 -5z"/>
<path d="M2156 1143 c4 -24 1 -32 -13 -36 -15 -4 -14 -5 4 -6 12 0 23 -5 25
-10 2 -5 9 -3 16 5 10 11 10 14 -1 14 -8 0 -19 15 -25 33 l-11 32 5 -32z"/>
<path d="M4502 1150 c0 -14 2 -19 5 -12 2 6 2 18 0 25 -3 6 -5 1 -5 -13z"/>
<path d="M1818 1153 c6 -2 18 -2 25 0 6 3 1 5 -13 5 -14 0 -19 -2 -12 -5z"/>
<path d="M1878 1143 c6 -2 18 -2 25 0 6 3 1 5 -13 5 -14 0 -19 -2 -12 -5z"/>
<path d="M5098 1143 c6 -2 18 -2 25 0 6 3 1 5 -13 5 -14 0 -19 -2 -12 -5z"/>
<path d="M5942 1137 c-6 -7 -25 -43 -41 -81 -48 -105 -174 -235 -249 -256 -20
-5 -64 -24 -97 -41 -49 -25 -54 -30 -26 -24 l35 7 -58 -65 c-31 -36 -96 -94
-144 -128 -101 -72 -123 -92 -67 -59 76 45 210 140 255 181 25 23 36 35 25 28
-12 -9 -7 3 14 29 28 37 76 72 96 72 3 0 -14 -18 -40 -40 -41 -35 -50 -48 -40
-58 5 -6 200 155 237 196 19 21 52 68 73 103 20 35 51 82 67 104 l30 40 -32
-35 c-29 -32 -31 -33 -25 -10 4 14 10 31 12 38 7 16 -12 16 -25 -1z"/>
<path d="M1943 1133 c9 -2 23 -2 30 0 6 3 -1 5 -18 5 -16 0 -22 -2 -12 -5z"/>
<path d="M5033 1133 c9 -2 23 -2 30 0 6 3 -1 5 -18 5 -16 0 -22 -2 -12 -5z"/>
<path d="M5176 1125 c-9 -26 -7 -32 5 -12 6 10 9 21 6 23 -2 3 -7 -2 -11 -11z"/>
<path d="M2003 1123 c9 -2 23 -2 30 0 6 3 -1 5 -18 5 -16 0 -22 -2 -12 -5z"/>
<path d="M4963 1123 c9 -2 23 -2 30 0 6 3 -1 5 -18 5 -16 0 -22 -2 -12 -5z"/>
<path d="M5680 1110 c-6 -11 -8 -20 -6 -20 3 0 10 9 16 20 6 11 8 20 6 20 -3
0 -10 -9 -16 -20z"/>
<path d="M6044 1108 c-39 -44 -46 -62 -10 -24 20 21 36 40 36 42 0 8 -7 3 -26
-18z"/>
<path d="M2073 1113 c9 -2 23 -2 30 0 6 3 -1 5 -18 5 -16 0 -22 -2 -12 -5z"/>
<path d="M2911 1088 c-1 -29 -5 -38 -18 -39 -15 0 -14 -2 4 -11 12 -6 24 -20
26 -32 4 -21 4 -21 6 1 1 21 6 22 89 26 l87 3 -87 2 c-95 2 -86 -4 -101 67 -3
11 -5 3 -6 -17z"/>
<path d="M4491 1104 c0 -11 3 -14 6 -6 3 7 2 16 -1 19 -3 4 -6 -2 -5 -13z"/>
<path d="M4893 1113 c9 -2 25 -2 35 0 9 3 1 5 -18 5 -19 0 -27 -2 -17 -5z"/>
<path d="M4813 1103 c9 -2 25 -2 35 0 9 3 1 5 -18 5 -19 0 -27 -2 -17 -5z"/>
<path d="M2233 1093 c9 -2 25 -2 35 0 9 3 1 5 -18 5 -19 0 -27 -2 -17 -5z"/>
<path d="M4733 1093 c9 -2 25 -2 35 0 9 3 1 5 -18 5 -19 0 -27 -2 -17 -5z"/>
<path d="M2323 1083 c9 -2 23 -2 30 0 6 3 -1 5 -18 5 -16 0 -22 -2 -12 -5z"/>
<path d="M4653 1083 c9 -2 23 -2 30 0 6 3 -1 5 -18 5 -16 0 -22 -2 -12 -5z"/>
<path d="M2423 1073 c9 -2 23 -2 30 0 6 3 -1 5 -18 5 -16 0 -22 -2 -12 -5z"/>
<path d="M4450 1070 l-35 -7 32 -2 c17 0 34 -7 36 -13 4 -10 6 -10 6 0 1 6 9
12 19 12 14 0 15 2 2 10 -8 5 -17 9 -20 9 -3 -1 -21 -5 -40 -9z"/>
<path d="M4553 1073 c9 -2 25 -2 35 0 9 3 1 5 -18 5 -19 0 -27 -2 -17 -5z"/>
<path d="M5607 996 c-47 -71 -149 -205 -205 -268 -8 -10 -12 -18 -9 -18 9 0
162 193 215 272 58 87 64 98 59 98 -2 0 -29 -38 -60 -84z"/>
<path d="M2528 1063 c12 -2 30 -2 40 0 9 3 -1 5 -23 4 -22 0 -30 -2 -17 -4z"/>
<path d="M2643 1053 c15 -2 37 -2 50 0 12 2 0 4 -28 4 -27 0 -38 -2 -22 -4z"/>
<path d="M4303 1053 c15 -2 39 -2 55 0 15 2 2 4 -28 4 -30 0 -43 -2 -27 -4z"/>
<path d="M2788 1043 c18 -2 45 -2 60 0 15 2 0 4 -33 4 -33 0 -45 -2 -27 -4z"/>
<path d="M4137 1043 c18 -2 50 -2 70 0 21 2 7 4 -32 4 -38 0 -55 -2 -38 -4z"/>
<path d="M2561 916 c2 -68 1 -122 -2 -120 -3 2 -11 43 -18 92 -13 96 -22 119
-41 107 -10 -6 -11 -42 -6 -156 4 -88 3 -149 -3 -149 -5 0 -31 18 -57 40 -49
40 -93 55 -77 25 5 -8 53 -62 107 -121 73 -80 95 -109 85 -115 -11 -7 -10 -9
3 -9 10 0 23 -10 29 -22 14 -27 50 -159 56 -208 l4 -35 -53 56 c-29 30 -45 46
-35 34 9 -12 17 -23 17 -26 0 -7 -93 -4 -117 5 -12 4 -31 21 -41 39 -24 40
-65 163 -60 179 5 15 -48 62 -61 54 -10 -7 -8 -28 8 -91 22 -84 8 -84 -33 0
-21 45 -22 51 -7 57 15 6 15 7 0 7 -9 1 -29 17 -44 37 -15 19 -32 33 -38 31
-18 -6 -14 -60 5 -77 21 -18 61 -110 49 -110 -5 0 -33 28 -62 63 -43 52 -49
63 -33 66 29 5 -55 31 -101 30 l-40 -1 33 -8 c19 -4 41 -18 50 -31 9 -13 32
-42 52 -64 20 -22 42 -48 49 -57 26 -35 -14 -20 -75 27 -96 75 -85 50 26 -56
58 -56 97 -96 88 -89 -10 7 -18 10 -18 7 0 -3 20 -20 45 -38 32 -23 42 -35 33
-41 -10 -6 -9 -8 2 -8 8 0 35 -14 60 -30 44 -29 189 -82 260 -94 34 -6 34 -5
-6 9 -23 9 -52 27 -64 40 l-23 25 24 1 c18 1 15 3 -13 11 -21 6 -38 13 -38 16
0 9 59 45 90 54 27 8 53 -10 76 -54 18 -35 18 -36 -8 -41 -23 -4 -23 -4 -1 -6
12 0 38 -21 60 -46 38 -44 42 -46 137 -65 54 -11 110 -20 124 -19 25 0 25 1
-8 13 -20 7 -45 28 -58 47 l-24 34 33 3 c55 6 74 -5 102 -57 15 -27 35 -52 44
-55 9 -4 69 -9 133 -12 106 -5 113 -4 89 10 -22 13 -59 69 -59 89 0 3 17 8 38
10 l37 4 -37 1 c-44 2 -47 13 -15 56 44 58 49 73 33 103 -8 16 -33 46 -56 68
-23 22 -48 52 -56 67 -8 15 -27 31 -42 35 -21 6 -10 9 48 14 l75 5 -78 2 c-70
2 -78 4 -73 20 7 22 36 161 36 172 0 17 -31 39 -47 33 -8 -3 -27 -31 -41 -62
-24 -53 -26 -55 -33 -31 -7 20 -8 19 -4 -9 3 -18 0 -51 -5 -72 -10 -38 -12
-39 -58 -41 l-47 -1 43 -4 c23 -2 42 -6 42 -9 0 -25 -37 -107 -56 -125 -31
-30 -31 -41 11 -127 l35 -73 -46 3 -45 3 -64 150 c-36 83 -65 158 -65 167 0
13 11 18 53 21 l52 3 -52 2 -53 2 5 58 c20 229 23 277 15 298 -12 30 -28 31
-34 2 -22 -104 -24 -104 -25 3 -1 80 -5 110 -16 119 -24 20 -35 2 -36 -58 0
-31 -4 -77 -8 -102 -9 -57 -17 -34 -26 75 -10 127 -14 145 -37 145 -19 0 -20
-6 -17 -124z"/>
<path d="M1629 975 c18 -33 38 -64 44 -70 5 -5 -5 17 -23 50 -18 33 -38 65
-43 70 -6 6 4 -17 22 -50z"/>
<path d="M4471 1014 c0 -11 3 -14 6 -6 3 7 2 16 -1 19 -3 4 -6 -2 -5 -13z"/>
<path d="M5072 895 c-28 -58 -50 -105 -47 -105 7 0 107 201 103 206 -2 2 -27
-44 -56 -101z"/>
<path d="M4461 974 c0 -11 3 -14 6 -6 3 7 2 16 -1 19 -3 4 -6 -2 -5 -13z"/>
<path d="M5919 973 c-13 -16 -12 -17 4 -4 16 13 21 21 13 21 -2 0 -10 -8 -17
-17z"/>
<path d="M2216 960 c3 -14 11 -32 16 -40 6 -10 7 -7 2 10 -3 14 -11 32 -16 40
-6 10 -7 7 -2 -10z"/>
<path d="M2932 940 c0 -14 2 -19 5 -12 2 6 2 18 0 25 -3 6 -5 1 -5 -13z"/>
<path d="M4446 924 c-4 -14 -5 -28 -3 -31 3 -2 8 8 11 23 4 14 5 28 3 31 -3 2
-8 -8 -11 -23z"/>
<path d="M5352 900 c-12 -19 -34 -63 -48 -98 -33 -77 -41 -75 -14 3 24 70 24
71 3 54 -9 -8 -38 -60 -65 -116 -28 -59 -55 -103 -63 -103 -9 0 -12 -6 -9 -15
4 -8 1 -15 -5 -15 -6 0 -11 4 -11 9 0 14 -51 23 -65 11 -8 -6 -26 -16 -42 -21
l-28 -9 27 4 c34 4 39 0 70 -56 26 -46 26 -47 7 -77 -10 -17 -24 -31 -31 -31
-8 0 -37 -16 -65 -35 -77 -52 -82 -43 -11 24 35 33 60 62 56 66 -4 4 -38 -19
-75 -52 -95 -84 -101 -85 -49 -7 25 37 43 70 41 72 -11 12 -39 -13 -86 -79
-57 -78 -72 -80 -40 -6 11 26 16 49 12 51 -13 8 -46 -33 -85 -105 -48 -88 -72
-109 -148 -125 -86 -18 -85 -19 -41 24 22 20 29 28 16 18 -30 -25 -29 -15 3
45 18 33 46 61 88 91 33 23 85 64 114 92 28 27 52 45 52 41 0 -4 6 -2 14 4 8
7 27 16 43 21 25 7 25 8 5 9 -22 1 -21 3 16 59 48 71 54 82 48 82 -2 0 -14
-16 -26 -35 -17 -27 -145 -125 -164 -125 -2 0 14 34 35 77 27 51 37 79 30 86
-15 15 -37 -7 -83 -81 -22 -35 -42 -61 -45 -58 -2 2 3 28 11 57 9 29 16 66 16
82 0 24 -4 28 -22 25 -18 -2 -26 -17 -44 -76 -23 -76 -47 -122 -64 -122 -5 0
-10 37 -12 82 -2 49 -7 83 -14 85 -25 8 -41 -27 -48 -107 -9 -93 -18 -98 -54
-26 -16 33 -29 46 -40 44 -14 -3 -17 -14 -14 -60 2 -55 1 -57 -25 -61 -27 -4
-26 -4 4 -6 17 0 35 -5 38 -11 12 -19 -28 -176 -61 -242 -26 -51 -41 -69 -60
-74 -19 -5 -23 -9 -12 -16 19 -12 -44 -65 -102 -83 l-45 -15 45 6 c25 3 88 17
140 30 78 20 102 32 135 62 22 20 41 39 42 42 2 3 24 3 50 1 43 -3 45 -5 28
-17 -10 -8 -17 -14 -14 -14 16 0 153 52 209 78 36 18 97 43 135 58 125 47 200
98 258 173 117 152 160 201 174 201 11 0 13 3 5 13 -8 9 -3 25 17 57 34 55 43
80 31 80 -6 0 -10 -3 -10 -7 -1 -5 -12 -21 -26 -38 -23 -29 -23 -27 6 39 51
112 19 101 -40 -14 -49 -95 -61 -99 -24 -7 39 98 43 146 6 87z m-572 -354 c0
-3 -4 -8 -10 -11 -5 -3 -10 -1 -10 4 0 6 5 11 10 11 6 0 10 -2 10 -4z m274
-148 c-30 -36 -46 -48 -92 -69 -70 -33 -59 -16 25 39 91 58 92 59 67 30z"/>
<path d="M2246 880 c3 -14 11 -32 16 -40 6 -10 7 -7 2 10 -3 14 -11 32 -16 40
-6 10 -7 7 -2 -10z"/>
<path d="M2942 880 c0 -14 2 -19 5 -12 2 6 2 18 0 25 -3 6 -5 1 -5 -13z"/>
<path d="M4431 864 c0 -11 3 -14 6 -6 3 7 2 16 -1 19 -3 4 -6 -2 -5 -13z"/>
<path d="M2952 820 c0 -14 2 -19 5 -12 2 6 2 18 0 25 -3 6 -5 1 -5 -13z"/>
<path d="M4250 695 c-35 -63 -68 -115 -73 -115 -5 0 -6 8 -2 18 15 39 28 183
17 194 -25 25 -57 -32 -78 -140 -8 -42 -19 -81 -25 -87 -12 -12 -55 39 -63 75
-8 38 -29 62 -49 54 -21 -8 -21 -23 -2 -94 8 -30 15 -67 15 -82 0 -31 -11 -36
-95 -41 -42 -3 -40 -4 18 -5 l67 -2 -20 -40 c-16 -31 -20 -59 -20 -132 0 -127
-23 -211 -74 -267 l-21 -23 30 5 c17 4 66 11 110 17 117 16 115 15 115 61 0
32 4 41 23 49 12 5 16 9 10 9 -7 1 -13 9 -13 19 0 24 86 142 104 142 7 0 41
18 75 40 33 22 79 49 101 60 72 37 24 54 -64 24 -26 -9 -49 -14 -52 -11 -3 3
2 21 10 41 13 30 20 36 48 37 30 2 31 2 6 6 -16 2 -28 6 -28 9 0 3 11 27 25
54 40 78 62 141 68 195 6 49 6 49 -7 19 -8 -17 -21 -34 -29 -37 -9 -3 -28 -29
-42 -58 -34 -67 -42 -58 -10 12 33 74 36 103 9 107 -17 2 -32 -17 -84 -113z
m-87 -436 c-10 -17 -24 -35 -31 -42 -11 -8 -12 -5 -6 19 8 36 22 54 41 54 11
0 11 -6 -4 -31z"/>
<path d="M2281 795 c0 -5 6 -21 14 -35 8 -14 14 -20 14 -15 0 6 -6 21 -14 35
-8 14 -14 21 -14 15z"/>
<path d="M2962 770 c0 -14 2 -19 5 -12 2 6 2 18 0 25 -3 6 -5 1 -5 -13z"/>
<path d="M5000 760 c-6 -11 -8 -20 -6 -20 3 0 10 9 16 20 6 11 8 20 6 20 -3 0
-10 -9 -16 -20z"/>
<path d="M2972 710 c0 -14 2 -19 5 -12 2 6 2 18 0 25 -3 6 -5 1 -5 -13z"/>
<path d="M2982 660 c0 -14 2 -19 5 -12 2 6 2 18 0 25 -3 6 -5 1 -5 -13z"/>
<path d="M2360 627 c0 -4 9 -25 20 -47 18 -36 19 -39 2 -43 -13 -4 -12 -5 5
-6 15 -1 38 -25 77 -81 31 -44 59 -80 61 -80 3 0 -17 32 -45 72 -27 39 -50 75
-50 79 0 4 19 5 43 3 39 -3 38 -2 -9 7 -47 9 -53 14 -77 57 -15 26 -27 43 -27
39z"/>
<path d="M1958 603 c6 -2 18 -2 25 0 6 3 1 5 -13 5 -14 0 -19 -2 -12 -5z"/>
<path d="M4968 593 c6 -2 18 -2 25 0 6 3 1 5 -13 5 -14 0 -19 -2 -12 -5z"/>
<path d="M4831 516 l-24 -31 28 27 c16 15 27 29 24 31 -2 3 -15 -10 -28 -27z"/>
<path d="M3758 473 c6 -2 18 -2 25 0 6 3 1 5 -13 5 -14 0 -19 -2 -12 -5z"/>
<path d="M4720 393 l-85 -88 88 85 c48 46 87 86 87 87 0 8 -11 -3 -90 -84z"/>
<path d="M3662 400 c0 -19 2 -27 5 -17 2 9 2 25 0 35 -3 9 -5 1 -5 -18z"/>
<path d="M2573 183 c9 -2 23 -2 30 0 6 3 -1 5 -18 5 -16 0 -22 -2 -12 -5z"/>
<path d="M4263 163 c9 -2 23 -2 30 0 6 3 -1 5 -18 5 -16 0 -22 -2 -12 -5z"/>
<path d="M4173 153 c9 -2 25 -2 35 0 9 3 1 5 -18 5 -19 0 -27 -2 -17 -5z"/>
</g>
</svg>
